<?xml version="1.0" encoding="UTF-8"?>
<svg width="32px" height="24px" viewBox="0 0 32 24" version="1.1" xmlns="http://www.w3.org/2000/svg" xmlns:xlink="http://www.w3.org/1999/xlink">
    <title>icon-navButton</title>
    <g id="Screen-Panel-/-Adaptivity" stroke="none" stroke-width="1" fill="none" fill-rule="evenodd">
        <g id="Rule-Editor-Open-Nested" transform="translate(-694.000000, -21.000000)">
            <g id="icon-navButton" transform="translate(694.000000, 21.000000)">
                <rect id="Combined-Shape" fill="#333333" x="0" y="0" width="32" height="24" rx="3"></rect>
                <path d="M30.7307661,13.8644073 L20.9886761,7.11232818 C20.7885623,6.9736131 20.5257975,6.96251924 20.3145289,7.08380108 C20.1032603,7.20508293 19.9815649,7.43696982 20.0022808,7.67869939 L21.010734,19.4456244 C21.0306112,19.6780952 21.1789772,19.8802872 21.3955296,19.9699557 C21.612082,20.0596242 21.8608405,20.0220885 22.0409094,19.8724464 L24.3237675,17.9743104 L26.6879795,22.6552559 C26.765727,22.8091521 26.9038609,22.9243448 27.0696719,22.973725 C27.1288003,22.9913251 27.1895222,23 27.2499925,23 C27.359359,23 27.4680545,22.9716397 27.5645051,22.9161704 L30.4756335,21.2444995 C30.6255931,21.1584177 30.7331983,21.0146145 30.7732043,20.8470387 C30.8131264,20.6794629 30.7818429,20.5029619 30.6867343,20.3589918 L27.7928831,15.9821685 L30.5870967,14.9651193 C30.8074233,14.8849598 30.9645118,14.6894408 30.994705,14.4580544 C31.025066,14.226668 30.9232478,13.9977839 30.7307661,13.8644073 L30.7307661,13.8644073 Z M26.6150126,15.0786438 C26.4346082,15.1442894 26.2942097,15.2884263 26.2339911,15.4698486 C26.1736885,15.6512709 26.2001076,15.8502099 26.3056161,16.0098615 L29.2694148,20.4925353 L27.512925,21.5011599 L25.0915137,16.707107 C25.0052953,16.5363615 24.8452713,16.4141621 24.6571508,16.3753753 C24.6147126,16.366617 24.5719389,16.3623629 24.5294168,16.3623629 C24.3832313,16.3623629 24.2401491,16.4130777 24.1259181,16.5080012 L22.1615145,18.1414692 L21.3696138,8.90161079 L29.0194822,14.2036461 L26.6150126,15.0786438 Z" id="Shape" fill="#FFFFFF" fill-rule="nonzero"></path>
                <line x1="7.43333333" y1="12.5" x2="19.5666667" y2="12.5" id="Line-3" stroke="#FFFFFF" stroke-width="2" stroke-linecap="square"></line>
            </g>
        </g>
    </g>
</svg>