<svg width="179" height="129" viewBox="0 0 179 129" fill="none" xmlns="http://www.w3.org/2000/svg">
  <g clip-path="url(#clip0_149_6415)">
    <path
      d="M68.1395 24.4868L66.7426 24.9105L65.805 22.7633L63.6858 23.1338L62.7183 21.6409L61.9541 22.1247L63.2484 24.1221L65.256 23.7713L66.2325 26.0053L68.3338 25.3667L68.1395 24.4868Z"
      fill="#50BFA5" />
    <path
      d="M157.703 101.715L156.307 102.139L155.368 99.9913L153.249 100.362L152.282 98.8689L151.518 99.3527L152.812 101.35L154.82 100.999L155.796 103.233L157.897 102.595L157.703 101.715Z"
      fill="#50BFA5" />
    <path
      d="M59.534 127.135C59.534 127.135 52.0813 102.153 51.4835 96.6417C50.8857 91.1312 55.0524 92.839 55.0524 92.839C55.0524 92.839 51.5463 82.3384 54.082 79.8462C56.6167 77.3541 58.9033 81.9994 58.9033 81.9994C58.9033 81.9994 59.6705 69.252 62.3737 69.2471C67.4082 69.2382 67.3086 83.1493 67.3086 83.1493C67.3086 83.1493 68.5939 77.7029 71.289 79.1959C75.3542 81.4475 69.5245 92.362 69.5245 92.362C69.5245 92.362 74.7046 92.366 76.5239 94.9487C79.789 99.5831 59.533 127.135 59.533 127.135H59.534Z"
      fill="#50BFA5" />
    <path
      d="M61.9711 123.83C61.9711 123.83 40.4867 120.276 35.8138 116.511C31.1408 112.746 35.7659 111.048 35.7659 111.048C35.7659 111.048 24.9734 105.576 25.0979 101.855C25.2225 98.1341 30.5849 100.026 30.5849 100.026C30.5849 100.026 21.4911 89.7698 23.6443 87.8227C27.6546 84.1943 38.1671 94.8556 38.1671 94.8556C38.1671 94.8556 35.0456 89.7856 38.3335 88.9835C43.2914 87.7734 46.951 100.275 46.951 100.275C46.951 100.275 46.0214 95.3384 49.4399 95.9957C55.5735 97.1752 61.9721 123.829 61.9721 123.829L61.9711 123.83Z"
      fill="#50BFA5" />
    <path
      d="M49.4392 95.9957C46.0117 95.3828 46.9503 100.275 46.9503 100.275C46.9503 100.275 43.2907 87.7734 38.3328 88.9835C35.0449 89.7856 38.1664 94.8556 38.1664 94.8556C38.1664 94.8556 27.6529 84.1943 23.6436 87.8227L61.8986 123.836C61.2181 120.396 55.1852 97.0235 49.4392 95.9967V95.9957Z"
      fill="#3C8F7C" />
    <path
      d="M68.0823 126.76C68.0823 126.76 56.7677 115.381 51.0705 114.195C45.3724 113.01 46.3976 117.019 46.3976 117.019C46.3976 117.019 35.093 107.242 32.4735 109.611C29.8541 111.98 32.6878 114.267 32.6878 114.267C32.6878 114.267 23.2712 112.617 21.9231 115.673C19.8517 120.37 35.3381 122.925 35.3381 122.925C35.3381 122.925 28.8488 123.369 30.3533 126.314C32.623 130.754 68.0823 126.759 68.0823 126.759V126.76Z"
      fill="#355389" />
    <path
      d="M21.9229 115.673C23.2709 112.618 32.6875 114.267 32.6875 114.267C32.6875 114.267 29.8538 111.98 32.4733 109.611C35.0927 107.242 46.0466 115.69 46.0466 115.69C46.0466 115.69 43.4641 110.808 49.1622 111.993C54.8604 113.178 68.084 126.76 68.084 126.76L21.9238 115.673H21.9229Z"
      fill="#466EB6" />
    <path
      d="M86.0953 9.39306C82.2873 10.0129 81.1554 14.9567 84.3218 17.168C84.8907 17.5651 85.2843 18.1623 85.4517 18.8304L86.0286 21.1304C86.187 21.764 86.8117 22.171 87.4633 22.0645L88.9061 21.83C89.5577 21.7236 90.017 21.1412 89.9622 20.4898C89.7619 18.116 89.5148 17.2547 90.295 16.1954C92.5776 13.0982 89.9054 8.77225 86.0963 9.39306H86.0953Z"
      fill="#F7CC7F" />
    <path
      d="M86.4839 19.4444C86.2358 17.4105 85.8881 15.2633 85.7695 14.6543C83.5865 14.7736 84.4165 12.4973 85.4238 13.4226C85.7108 13.6867 85.8463 14.0444 85.9359 14.4356C86.6613 14.3705 87.3697 14.1666 88.0153 13.8364C87.9805 13.3349 87.9306 12.9545 88.0721 12.6332C88.2863 12.1484 88.9071 12.0164 89.1601 12.4884C89.2548 12.6658 89.2717 12.8924 89.203 13.0806C89.0565 13.4817 88.6161 13.7468 88.2315 13.9547C88.3461 15.5718 88.5055 17.2016 88.7058 18.8059L88.4996 18.8315C88.3023 17.2529 88.1449 15.6496 88.0303 14.0582C87.3886 14.3735 86.6912 14.5706 85.9768 14.6376C86.1262 15.4161 86.456 17.5091 86.6892 19.4188L86.4829 19.4435L86.4839 19.4444ZM84.7323 14.1744C84.9266 14.3814 85.2514 14.472 85.7257 14.4504C85.644 14.1045 85.5224 13.7941 85.2823 13.5733C84.7403 13.0747 84.4075 13.8276 84.7333 14.1744H84.7323ZM88.2624 12.716C88.1429 12.986 88.1887 13.3319 88.2156 13.729C88.5275 13.5536 88.8901 13.3339 89.0067 13.0126C89.0894 12.787 88.9967 12.4687 88.7646 12.4096C88.7397 12.4036 88.3451 12.5278 88.2624 12.717V12.716Z"
      fill="#FAE0B2" />
    <path
      d="M85.4355 18.7744C85.4405 18.7931 85.4475 18.8118 85.4525 18.8315L86.0294 21.1315C86.1878 21.7651 86.8125 22.1721 87.4641 22.0657L88.9068 21.8312C89.5585 21.7247 90.0178 21.1423 89.963 20.491C89.8743 19.4346 89.7757 18.6788 89.7627 18.0708L85.4365 18.7744H85.4355Z"
      fill="#96D9C9" />
    <path
      d="M83.2723 7.67663L82.1335 5.62105C82.0229 5.422 82.0966 5.17269 82.2978 5.06331C82.4991 4.95392 82.7512 5.02684 82.8618 5.2259L84.0006 7.28148C84.1112 7.48053 84.0375 7.72985 83.8362 7.83923C83.634 7.94861 83.3819 7.8747 83.2723 7.67663Z"
      fill="#FAE0B2" />
    <path
      d="M80.783 12.65L78.3011 12.4352C78.0729 12.4155 77.9035 12.2164 77.9235 11.9898C77.9434 11.7641 78.1447 11.5966 78.3738 11.6163L80.8557 11.8311C81.0839 11.8509 81.2533 12.0499 81.2334 12.2766C81.2134 12.5022 81.0122 12.6697 80.783 12.65Z"
      fill="#FAE0B2" />
    <path
      d="M78.3229 20.1768C78.1615 20.0152 78.1635 19.755 78.3269 19.5954C78.9367 18.9992 79.6082 18.4572 80.3216 17.9862C80.5119 17.8601 80.77 17.9113 80.8975 18.0995C81.0251 18.2877 80.9733 18.543 80.783 18.6691C80.1134 19.1115 79.4837 19.62 78.9108 20.1797C78.7484 20.3384 78.4854 20.3384 78.3229 20.1758V20.1768Z"
      fill="#FAE0B2" />
    <path
      d="M89.406 7.56516C89.1838 7.50702 89.0523 7.28136 89.1121 7.0626C89.393 6.022 89.5654 4.94888 89.6242 3.8728C89.6362 3.64616 89.8324 3.47174 90.0616 3.48455C90.2908 3.49637 90.4661 3.6905 90.4542 3.91715C90.3924 5.04939 90.2111 6.17967 89.9151 7.27545C89.8554 7.49618 89.6262 7.62429 89.407 7.56615L89.406 7.56516Z"
      fill="#FAE0B2" />
    <path
      d="M91.9639 10.7216C91.8982 10.5038 92.0217 10.2752 92.2419 10.2092L94.8225 9.43958C95.0427 9.37454 95.2738 9.49673 95.3406 9.71451C95.4064 9.9313 95.2828 10.1609 95.0626 10.2259L92.482 10.9956C92.2628 11.0606 92.0307 10.9384 91.9649 10.7206L91.9639 10.7216Z"
      fill="#FAE0B2" />
    <path
      d="M96.2014 17.5128C96.1645 17.5128 96.1267 17.5079 96.0888 17.497C95.1951 17.2487 94.3252 16.9038 93.5042 16.4722C93.302 16.3658 93.2253 16.1174 93.3329 15.9164C93.4405 15.7164 93.6926 15.6395 93.8948 15.7459C94.663 16.15 95.477 16.4722 96.314 16.7047C96.5352 16.7658 96.6637 16.9925 96.6009 17.2112C96.5491 17.3926 96.3827 17.5108 96.2014 17.5108V17.5128Z"
      fill="#FAE0B2" />
    <path
      d="M134.003 35.6732L132.701 32.6282L129.426 31.9631C129.053 31.8872 128.93 31.4211 129.218 31.1747L131.743 29.0088L131.372 25.7234C131.329 25.349 131.739 25.0898 132.065 25.2839L134.928 26.9907L137.972 25.6259C138.319 25.4702 138.696 25.7756 138.61 26.1422L137.854 29.3626L140.108 31.8044C140.365 32.0823 140.187 32.5307 139.808 32.5632L136.477 32.847L134.825 35.7215C134.637 36.0486 134.15 36.021 134.002 35.6742L134.003 35.6732Z"
      fill="#F7CC7F" />
    <path
      d="M154.73 25.2249L154.195 27.3573L150.632 26.8843L149.46 29.9056L146.735 29.9834L146.775 31.3473L150.42 31.2438L151.53 28.3802L155.236 28.8729L156.042 25.6644L154.73 25.2249Z"
      fill="#F48C7F" />
    <path
      d="M122.984 127.416H60.3478C57.9555 127.416 56.0156 125.426 56.0156 122.972V120.33C56.0156 117.876 57.9555 115.887 60.3478 115.887H122.984C120.118 119.1 120.069 124.01 122.868 127.283L122.984 127.417V127.416Z"
      fill="#B75742" />
    <path
      d="M122.015 117.207H87.2745C84.8823 117.207 82.9424 119.196 82.9424 121.651C82.9424 124.105 84.8813 126.094 87.2745 126.094H122.018C120.395 123.369 120.398 119.926 122.015 117.207Z"
      fill="#FAE0B2" />
    <path
      d="M100.979 107.879C101.069 107.71 100.931 107.514 100.721 107.514H67.5778C64.9803 107.514 62.874 109.388 62.874 111.701C62.874 114.013 64.9803 115.888 67.5778 115.888H100.73C100.941 115.888 101.08 115.691 100.988 115.521C99.6754 113.101 99.6784 110.288 100.978 107.879H100.979Z"
      fill="#86B1F2" />
    <path
      d="M100.769 108.294H84.3431C81.2942 108.294 78.8223 109.864 78.8223 111.802C78.8223 113.739 81.2942 115.31 84.3431 115.31H100.877C99.7467 113.077 99.7149 110.536 100.769 108.293V108.294Z"
      fill="#F7CC7F" />
    <path
      d="M96.5278 109.957H94.3886C93.9283 109.957 93.5557 110.11 93.5557 110.298V110.328H96.5278V109.957Z"
      fill="#B75742" />
    <path
      d="M98.3527 110.812C98.3527 110.339 97.7938 109.957 97.1053 109.957H94.3604C94.8834 109.957 95.3069 110.247 95.3069 110.606L95.2939 119.779L96.8104 118.6L98.3567 119.779L98.3537 110.813L98.3527 110.812Z"
      fill="#F47458" />
    <path
      d="M94.8851 107.212H75.6006C73.8908 107.212 72.5039 105.585 72.5039 103.578C72.5039 101.571 73.8898 99.9436 75.6006 99.9436H94.8851C93.4114 101.959 93.3537 104.914 94.7476 107.006L94.8851 107.213V107.212Z"
      fill="#FAE0B2" />
    <path
      d="M72.5071 103.577C72.5071 101.57 73.9259 99.9428 75.6765 99.9428H95.2529C95.3445 99.9428 95.4183 99.8571 95.4173 99.7526C95.4173 99.6492 95.3435 99.5664 95.2529 99.5664H64.1964C62.2645 99.5664 60.6982 101.362 60.6982 103.578C60.6982 105.793 62.2645 107.59 64.1964 107.59H95.2519C95.3415 107.59 95.4153 107.506 95.4163 107.403C95.4163 107.299 95.3435 107.213 95.2519 107.213H75.6755C73.9249 107.213 72.5061 105.586 72.5061 103.579L72.5071 103.577Z"
      fill="#466EB6" />
    <path
      d="M91.519 101.729H89.3798C88.9195 101.729 88.5469 101.878 88.5469 102.064V102.093H91.519V101.729Z"
      fill="#184655" />
    <path
      d="M93.344 102.568C93.344 102.105 92.785 101.729 92.0965 101.729H89.3516C89.8746 101.729 90.2981 102.013 90.2981 102.365L90.2851 111.361L91.8016 110.204L93.3479 111.361L93.345 102.568H93.344Z"
      fill="#3C8F7C" />
    <path
      d="M125.611 46.1636L128.458 45.4226L126.528 70.8759L123.112 70.9883L124.835 47.088C124.867 46.6475 125.179 46.276 125.61 46.1636H125.611Z"
      fill="#184655" />
    <path
      d="M126.781 71.6013C126.718 71.6072 126.653 71.6063 126.586 71.5984C126.021 71.5324 125.602 70.9766 125.651 70.3558L127.547 46.4219C127.595 45.8021 128.094 45.3528 128.659 45.4188C129.225 45.4848 129.644 46.0406 129.594 46.6614L127.699 70.5952C127.655 71.1431 127.262 71.557 126.781 71.6013Z"
      fill="#F7CC7F" />
    <path
      d="M100.581 72.8764C100.582 72.8942 100.583 72.9119 100.585 72.9297C100.675 73.9033 101.437 74.6315 102.289 74.5566L126.331 72.4281C127.183 72.3532 127.801 71.5018 127.712 70.5282C127.708 70.4868 127.703 70.4464 127.697 70.406L100.582 72.8764H100.581Z"
      fill="#F7CC7F" />
    <path
      d="M117.324 98.5837C115.75 99.447 110.937 97.9334 110.937 97.7964C110.868 99.0971 105.549 111.829 105.549 111.829L105.553 115.746C105.553 115.746 116.514 116.262 116.356 115.304C116.199 114.346 115.609 114.969 113.423 113.16C113.229 112.999 110.159 112.295 110.99 110.497C112.663 106.878 116.217 100.843 117.325 98.5837H117.324Z"
      fill="#F7A491" />
    <path
      d="M105.192 115.886L117.191 115.889C117.624 115.846 117.725 115.497 117.572 115.285C117.257 114.848 114.958 113.82 113.412 113.138C110.72 113.449 105.988 112.425 105.554 111.817C104.414 113.327 104.951 115.836 105.193 115.885L105.192 115.886Z"
      fill="#3C8F7C" />
    <path
      d="M102.56 89.4431C102.397 88.9613 112.89 84.5574 113.359 85.061C114.19 85.9508 107.682 102.658 107.682 102.658L115.159 104.917C115.159 104.917 122.931 85.6158 122.607 82.085C122.283 78.5543 118.389 74.5426 109.952 77.1106C101.515 79.6776 102.559 89.4431 102.559 89.4431H102.56Z"
      fill="#355389" />
    <path
      d="M124.284 100.78C122.513 100.46 120.217 100.37 118.38 100.338C118.596 101.956 119.648 110.255 119.456 110.765C118.677 112.83 116.949 113.797 116.949 113.797C116.949 113.797 125.096 121.067 125.589 120.228C126.081 119.388 125.225 119.501 124.693 116.731C124.646 116.484 123.467 112.618 123.395 110.532C123.255 106.555 124.224 102.988 124.284 100.78Z"
      fill="#F7A491" />
    <path
      d="M121.67 73.6313C120.534 73.0312 117.583 73.0105 114.338 73.2184C108.012 73.6234 101.769 74.8552 95.7512 76.826L91.7249 78.1455L91.7378 74.0629C91.7378 74.0629 78.9287 71.9433 78.4833 75.0828C77.8118 79.8109 78.6447 89.4108 82.9131 91.5531C96.1696 98.2086 114.747 80.951 114.813 83.2086C114.904 86.2407 117.489 97.5247 118.149 102.465C119.988 102.496 123.145 102.495 124.514 102.184C124.78 92.506 124.906 75.3381 121.67 73.6313Z"
      fill="#466EB6" />
    <path
      d="M116.702 113.968L125.861 121.204C126.223 121.442 126.525 121.236 126.542 120.977C126.578 120.442 125.458 118.205 124.7 116.709C122.418 115.262 119.408 111.488 119.462 110.747C118.497 111.553 116.546 113.78 116.701 113.969L116.702 113.968Z"
      fill="#3C8F7C" />
    <path
      d="M95.971 34.1663C95.6631 31.3844 95.3393 28.5928 93.0079 26.5539C91.1208 24.9043 88.7225 24.6245 86.3502 25.5074C79.6298 28.0084 83.0921 33.9111 74.5235 39.863C71.8602 41.7126 68.9259 42.9779 66.9213 45.468C64.1155 48.9535 65.1746 53.1464 67.7323 55.946C79.9685 69.3398 93.6306 51.2514 94.611 46.9087C95.3403 43.6785 96.1683 35.9558 95.971 34.1653V34.1663Z"
      fill="#13375B" />
    <path
      d="M93.4864 49.8067C92.4871 47.9847 91.4568 46.5381 91.4568 46.5381C90.4196 44.7151 87.7414 43.7937 87.7414 43.7937C87.7414 43.7937 86.8457 43.8114 85.8164 43.8617C85.7527 44.0302 85.6879 44.1514 85.6222 44.1997C85.2356 44.4864 83.0197 44.1159 81.5889 45.0777C76.7915 49.1445 78.1186 68.8578 78.4962 75.0837L93.1058 75.2206C93.1058 75.2206 91.2635 61.8239 94.2327 58.3818C96.3001 55.9853 94.97 52.5117 93.4864 49.8077V49.8067Z"
      fill="#50BFA5" />
    <path
      d="M86.9002 37.1247C86.9002 37.1247 86.0971 42.7967 85.5361 44.1753C84.9752 45.5539 88.6199 48.5013 91.6528 49.3961C94.6857 50.2908 90.7262 46.3511 90.8517 44.8779C90.9773 43.4047 91.5282 36.428 91.5282 36.428L86.8992 37.1247H86.9002Z"
      fill="#F7A491" />
    <path
      d="M91.376 38.4284C91.4647 37.2745 91.5295 36.428 91.5295 36.428L86.9004 37.1247C86.9004 37.1247 86.7838 37.7908 86.6543 38.7339C88.5304 39.8109 90.2183 39.4709 91.375 38.4294L91.376 38.4284Z"
      fill="#F47458" />
    <path
      d="M88.3519 26.7639C88.3519 26.7639 86.5276 27.1709 85.4007 28.8707C84.2738 30.5706 83.5017 35.5765 87.2111 37.9129C90.9215 40.2494 93.807 36.9443 93.8548 33.721C93.9026 30.4977 93.2042 26.1953 88.3509 26.7639H88.3519Z"
      fill="#F7A491" />
    <path
      d="M94.7052 32.7121C94.3884 33.4896 93.7607 33.9724 93.3024 33.7901C92.8441 33.6078 92.7295 32.8293 93.0463 32.0518C93.3632 31.2743 93.9909 30.7915 94.4492 30.9738C94.9075 31.1561 95.0221 31.9346 94.7052 32.7121Z"
      fill="#F7A491" />
    <path
      d="M88.8993 26.6576C88.8993 26.6576 86.5738 31.8172 84.5303 32.2784C82.4867 32.7396 82.5166 35.3351 82.5166 35.3351C82.5166 35.3351 82.5625 29.3399 84.4775 27.9642C86.3924 26.5886 88.9003 26.6576 88.9003 26.6576H88.8993Z"
      fill="#13375B" />
    <path
      d="M85.3416 33.3513C85.6106 34.1889 85.3645 35.0147 84.7916 35.1941C84.2187 35.3734 83.5362 34.8403 83.2672 34.0027C82.9982 33.1651 83.2443 32.3393 83.8172 32.16C84.3901 31.9806 85.0726 32.5137 85.3416 33.3513Z"
      fill="#F7A491" />
    <path
      d="M111.474 70.6024C110.598 70.289 109.293 70.2496 109.315 70.1353C109.403 69.6721 113.276 71.1581 112.753 70.4821C112.462 70.1057 109.563 68.7724 108.859 68.9932C108.176 69.207 103.687 70.4526 103.687 70.4526L91.4208 67.6097C91.4208 67.6097 88.3251 60.6516 88.0222 54.6731C85.4626 55.015 83.721 55.6408 81.4961 56.8617C82.5692 62.5791 85.1756 71.846 88.0581 73.5842C89.2707 74.3154 103.747 72.7092 103.747 72.7092C103.747 72.7092 106.937 72.4865 107.458 72.2884C107.854 72.1376 108.871 71.571 109.425 71.4163C110.683 71.0635 112.926 71.9484 112.933 71.705C112.938 71.5277 112.369 70.9246 111.473 70.6043L111.474 70.6024Z"
      fill="#F7A491" />
    <path
      d="M88.0959 48.2842C87.9783 46.4444 87.2739 44.6687 85.2941 44.0962C84.0676 43.7414 82.6916 44.0804 81.7112 44.8727C80.5455 45.8147 80.2197 47.3254 80.2247 48.7552C80.2366 52.0022 80.4608 55.3694 81.0606 58.566C83.2845 57.3451 85.881 56.611 88.4406 56.269C88.4396 56.2503 88.2513 50.7142 88.0949 48.2832L88.0959 48.2842Z"
      fill="#96D9C9" />
    <path
      d="M50.0932 51.7561L31.0768 48.254C30.6952 48.184 30.4431 47.8204 30.5138 47.443L32.8961 34.7912C32.9669 34.4138 33.3345 34.1645 33.7161 34.2344L52.7326 37.7366C53.1142 37.8066 53.3663 38.1702 53.2955 38.5476L50.9132 51.1994C50.8425 51.5768 50.4748 51.8261 50.0932 51.7561Z"
      fill="#F7CC7F" />
    <path
      d="M41.0424 37.2912L35.2535 36.2249C34.8719 36.155 34.6199 35.7914 34.6906 35.414L35.0533 33.4884C35.124 33.111 35.4917 32.8617 35.8733 32.9317L41.6621 33.9979C42.0437 34.0679 42.2958 34.4315 42.225 34.8089L41.8624 36.7344C41.7916 37.1118 41.424 37.3611 41.0424 37.2912Z"
      fill="#F7CC7F" />
    <path
      d="M50.9592 51.2723C50.8606 51.6182 50.5108 51.8331 50.1531 51.767L31.0131 48.2422C30.6574 48.1762 30.4093 47.8549 30.4412 47.4972L31.4426 36.156C31.4595 35.9609 31.5601 35.7816 31.7176 35.6623C31.876 35.5441 32.0772 35.4968 32.2715 35.5323L53.5348 39.4483C53.7291 39.4838 53.8994 39.5991 54.0041 39.7656C54.1087 39.9322 54.1376 40.1332 54.0838 40.3214L50.9592 51.2714V51.2723Z"
      fill="#FAE0B2" />
    <path
      d="M138.18 9.83158L134.924 10.7106L134.223 6.80832L135.289 6.62109L135.782 9.36942L137.895 8.79887L138.18 9.83158Z"
      fill="#50BFA5" />
    <path
      d="M34.4385 63.4306C35.2535 63.3645 36.5059 63.7203 37.0669 64.0967C37.1516 64.1746 37.7972 64.4288 38.4678 65.5285L38.3163 65.632C37.6079 64.8988 37.1316 64.7343 36.5647 64.5667C35.6301 64.3293 34.6876 64.5066 34.6099 64.548L34.4375 63.4315L34.4385 63.4306Z"
      fill="#355389" />
    <path
      d="M38.3915 65.5806C38.3915 65.5806 33.4227 66.4005 33.886 70.2396C34.3493 74.0788 39.5911 77.0646 44.269 74.6908C50.562 71.497 48.0771 63.3762 43.5974 62.7485C39.1178 62.1208 38.3915 65.5806 38.3915 65.5806Z"
      fill="#F47458" />
    <path
      d="M40.5002 63.8896C40.5002 63.8896 41.7964 62.5731 44.637 63.7714C47.4777 64.9687 47.6829 70.553 45.1492 70.2288C42.6164 69.9046 38.4746 64.6967 40.5002 63.8906V63.8896Z"
      fill="#F48C7F" />
    <path
      d="M74.6808 12.8903L54.2456 20.0996C53.587 20.3322 52.8626 19.9922 52.6275 19.3408L48.8553 8.88259C48.6201 8.23123 48.9639 7.51483 49.6225 7.28227L70.0577 0.0729596C70.7163 -0.159599 71.4407 0.18037 71.6758 0.831731L75.448 11.289C75.6831 11.9403 75.3394 12.6567 74.6808 12.8893V12.8903Z"
      fill="#86B1F2" />
    <path
      d="M61.1351 10.202C61.8864 12.2851 60.7884 14.5772 58.6811 15.3202C56.5748 16.0632 54.2573 14.9773 53.506 12.8932C52.7548 10.81 53.8527 8.5179 55.96 7.77489C58.0663 7.03189 60.3839 8.11782 61.1351 10.202Z"
      fill="white" />
    <path
      d="M57.9008 9.64139C58.122 10.2553 57.7982 10.9313 57.1774 11.151C56.5567 11.3698 55.8732 11.0495 55.651 10.4356C55.4288 9.82172 55.7536 9.14572 56.3744 8.92597C56.9951 8.70721 57.6786 9.02747 57.9008 9.64139Z"
      fill="#86B1F2" />
    <path
      d="M56.9674 12.0175L57.8964 11.6897C58.6322 11.4302 59.4419 11.8099 59.7043 12.5376L59.8483 12.9367L56.254 14.2046L56.1101 13.8055C55.8476 13.0779 56.2316 12.277 56.9674 12.0175Z"
      fill="#86B1F2" />
    <path
      d="M61.6403 8.01527C61.4221 8.01527 61.2268 7.87929 61.1541 7.67629C61.0584 7.41121 61.1989 7.11855 61.4669 7.02394L70.4002 3.87258C70.456 3.85287 70.5148 3.84302 70.5736 3.84302C70.7918 3.84302 70.9871 3.97901 71.0598 4.182C71.1555 4.44708 71.015 4.73975 70.747 4.83435L61.8136 7.98571C61.7578 8.00542 61.6991 8.01527 61.6403 8.01527Z"
      fill="white" />
    <path
      d="M64.0504 10.2178C63.8322 10.2178 63.6369 10.0818 63.5642 9.87883C63.4686 9.61376 63.609 9.32109 63.8771 9.22649L70.8545 6.76491C70.9103 6.74521 70.9691 6.73535 71.0279 6.73535C71.2461 6.73535 71.4414 6.87134 71.5141 7.07434C71.56 7.20244 71.553 7.34138 71.4942 7.46456C71.4354 7.58774 71.3308 7.68135 71.2013 7.72668L64.2238 10.1883C64.168 10.208 64.1092 10.2178 64.0504 10.2178Z"
      fill="white" />
    <path
      d="M106.433 91.7708H57.0893C55.5569 91.7708 54.3145 92.9996 54.3145 94.5151V96.823C54.3145 98.3386 55.5569 99.5674 57.0893 99.5674H106.433L106.407 99.5408C104.296 97.3679 104.308 93.9308 106.433 91.7717V91.7708Z"
      fill="#F47458" />
    <path
      d="M105.559 92.9248H79.1801C77.6477 92.9248 76.4053 94.1536 76.4053 95.6692C76.4053 97.1848 77.6477 98.4136 79.1801 98.4136H105.558C104.588 96.7147 104.589 94.6237 105.558 92.9258L105.559 92.9248Z"
      fill="#FAE0B2" />
    <path
      d="M146.817 91.9955L143.076 82.7149C142.888 82.2478 143.118 81.7186 143.591 81.5324L157.05 76.2269C157.523 76.0406 158.058 76.2683 158.246 76.7353L161.986 86.016C162.175 86.4831 161.944 87.0123 161.472 87.1985L148.013 92.504C147.541 92.6902 147.006 92.4626 146.818 91.9955H146.817Z"
      fill="#FAE0B2" />
    <path
      d="M159.513 86.629L156.153 78.2894C156.099 78.1554 156.165 78.0037 156.3 77.9504C156.436 77.8972 156.589 77.9623 156.643 78.0963L160.003 86.4359C160.057 86.5699 159.992 86.7217 159.856 86.7749C159.721 86.8281 159.567 86.763 159.513 86.629Z"
      fill="#466EB6" />
    <path
      d="M157.912 85.5302L155.153 78.6825C155.099 78.5485 155.165 78.3967 155.3 78.3435C155.436 78.2903 155.589 78.3553 155.643 78.4894L158.403 85.337C158.456 85.471 158.391 85.6228 158.255 85.676C158.12 85.7292 157.966 85.6642 157.912 85.5302Z"
      fill="#466EB6" />
    <path
      d="M157.513 87.4174L154.153 79.0778C154.099 78.9437 154.165 78.792 154.3 78.7388C154.436 78.6856 154.589 78.7506 154.643 78.8846L158.003 87.2242C158.057 87.3582 157.992 87.51 157.856 87.5632C157.721 87.6164 157.567 87.5514 157.513 87.4174Z"
      fill="#466EB6" />
    <path
      d="M155.747 85.9086L153.153 79.4718C153.099 79.3378 153.165 79.186 153.3 79.1328C153.436 79.0796 153.589 79.1447 153.643 79.2787L156.237 85.7154C156.291 85.8494 156.225 86.0012 156.09 86.0544C155.954 86.1076 155.801 86.0426 155.747 85.9086Z"
      fill="#466EB6" />
    <path
      d="M159.422 77.3996L159.354 77.2321C159.329 77.17 159.261 77.1385 159.203 77.1622L157.925 77.6657C157.867 77.6884 157.839 77.7574 157.864 77.8194L157.931 77.987C157.956 78.049 158.024 78.0806 158.083 78.0569L159.36 77.5534C159.419 77.5307 159.447 77.4617 159.422 77.3996Z"
      fill="#355389" />
    <path
      d="M159.711 78.1179L159.643 77.9504C159.618 77.8883 159.551 77.8568 159.492 77.8804L158.214 78.384C158.156 78.4066 158.128 78.4756 158.153 78.5377L158.22 78.7052C158.245 78.7673 158.313 78.7988 158.372 78.7752L159.649 78.2716C159.708 78.248 159.735 78.18 159.711 78.1179Z"
      fill="#355389" />
    <path
      d="M160.001 78.8364L159.933 78.6689C159.908 78.6068 159.841 78.5753 159.782 78.5989L158.504 79.1025C158.446 79.1251 158.418 79.1941 158.443 79.2562L158.51 79.4237C158.535 79.4858 158.603 79.5173 158.662 79.4937L159.939 78.9901C159.998 78.9675 160.026 78.8985 160.001 78.8364Z"
      fill="#355389" />
    <path
      d="M160.29 79.5549L160.222 79.3874C160.197 79.3253 160.13 79.2938 160.071 79.3174L158.794 79.821C158.735 79.8446 158.707 79.9126 158.732 79.9747L158.8 80.1422C158.824 80.2043 158.892 80.2358 158.951 80.2122L160.228 79.7086C160.287 79.685 160.315 79.617 160.29 79.5549Z"
      fill="#355389" />
    <path
      d="M160.581 80.2732L160.513 80.1057C160.488 80.0436 160.421 80.012 160.362 80.0357L159.085 80.5392C159.026 80.5629 158.998 80.6319 159.023 80.693L159.091 80.8605C159.115 80.9226 159.183 80.9541 159.242 80.9305L160.519 80.4269C160.578 80.4033 160.606 80.3353 160.581 80.2732Z"
      fill="#355389" />
    <path
      d="M160.869 80.9914L160.801 80.8239C160.777 80.7618 160.709 80.7303 160.65 80.754L159.373 81.2575C159.314 81.2812 159.286 81.3491 159.311 81.4112L159.379 81.5788C159.404 81.6408 159.471 81.6724 159.53 81.6487L160.807 81.1452C160.866 81.1215 160.894 81.0535 160.869 80.9914Z"
      fill="#355389" />
    <path
      d="M161.16 81.7099L161.092 81.5424C161.068 81.4803 161 81.4488 160.941 81.4725L159.664 81.976C159.605 81.9997 159.577 82.0677 159.602 82.1297L159.67 82.2973C159.695 82.3593 159.762 82.3909 159.821 82.3672L161.098 81.8637C161.157 81.84 161.185 81.772 161.16 81.7099Z"
      fill="#355389" />
    <path
      d="M161.448 82.4282L161.381 82.2607C161.356 82.1986 161.288 82.1671 161.229 82.1907L159.952 82.6943C159.893 82.7179 159.865 82.7859 159.89 82.848L159.958 83.0155C159.983 83.0776 160.05 83.1091 160.109 83.0855L161.387 82.5819C161.445 82.5583 161.473 82.4903 161.448 82.4282Z"
      fill="#355389" />
    <path
      d="M161.739 83.1465L161.672 82.979C161.647 82.9169 161.579 82.8853 161.52 82.909L160.243 83.4125C160.184 83.4362 160.156 83.5042 160.181 83.5663L160.249 83.7338C160.274 83.7959 160.341 83.8274 160.4 83.8037L161.678 83.3002C161.736 83.2766 161.764 83.2086 161.739 83.1465Z"
      fill="#355389" />
    <path
      d="M162.027 83.865L161.96 83.6975C161.935 83.6354 161.867 83.6038 161.808 83.6275L160.531 84.131C160.472 84.1547 160.444 84.2227 160.469 84.2848L160.537 84.4523C160.562 84.5144 160.629 84.5459 160.688 84.5222L161.966 84.0187C162.024 83.9951 162.052 83.9261 162.027 83.865Z"
      fill="#355389" />
    <path
      d="M162.316 84.5835L162.249 84.415C162.224 84.3529 162.156 84.3214 162.097 84.345L160.82 84.8486C160.761 84.8722 160.733 84.9402 160.758 85.0023L160.826 85.1698C160.851 85.2319 160.919 85.2634 160.977 85.2398L162.255 84.7362C162.313 84.7126 162.341 84.6446 162.316 84.5825V84.5835Z"
      fill="#355389" />
    <path
      d="M162.606 85.3017L162.539 85.1342C162.514 85.0721 162.446 85.0406 162.387 85.0643L161.11 85.5678C161.051 85.5905 161.023 85.6595 161.048 85.7215L161.116 85.8891C161.141 85.9511 161.209 85.9827 161.267 85.959L162.545 85.4555C162.603 85.4318 162.631 85.3638 162.606 85.3017Z"
      fill="#355389" />
    <path
      d="M166.136 84.5614L160.795 92.0841C160.783 92.1009 160.774 92.1196 160.767 92.1393L160.223 93.7919C160.159 93.984 160.384 94.1427 160.548 94.0215L161.978 92.9552C161.996 92.9424 162.01 92.9267 162.023 92.9089L167.379 85.3665C167.448 85.27 167.421 85.1369 167.32 85.0729L166.421 84.5053C166.327 84.4452 166.202 84.4698 166.137 84.5605L166.136 84.5614Z"
      fill="#B75742" />
    <path
      d="M162.017 92.9178L162.004 92.9365L160.624 93.9653L160.247 93.716L160.763 92.1492C161.168 92.3679 161.652 92.5926 162.016 92.9178H162.017Z"
      fill="#F7CC7F" />
    <path
      d="M112.02 3.12085C112.789 3.72787 114.126 5.68096 115.833 7.05168C116.831 7.85381 117.601 7.64983 118.875 7.80158C124.921 8.52389 123.283 9.7468 124.008 9.86702C123.802 10.3361 121.919 14.2955 121.567 15.0966C121.242 15.8347 120.681 16.1658 119.868 16.0545C118.618 15.884 117.356 15.7559 116.125 15.4928C112.97 14.8158 111.214 13.2549 108.952 11.3589C108.352 10.8564 108.205 10.2287 108.516 9.51818C109.963 6.21013 111.865 3.42534 112.021 3.12085H112.02Z"
      fill="#466EB6" />
    <path
      d="M124.663 14.6315C124.636 15.9342 124.737 16.1963 124.171 15.9983C123.83 15.879 123.5 15.7243 123.178 15.5598C122.951 15.4435 122.942 15.2907 123.127 15.1075C123.395 14.8404 123.671 14.5812 123.94 14.3221C123.743 13.8106 123.969 13.2164 124.452 12.9366C124.55 12.8794 124.479 13.0006 125.321 11.084C122.536 10.744 120.572 10.5164 117.174 10.1035C116.266 9.99314 115.459 9.6443 114.756 9.0629C112.33 7.05462 109.904 5.04733 107.479 3.03707C107.15 2.76411 107.108 2.36502 107.369 2.05757C107.569 1.82205 107.834 1.81121 108.119 1.84669C108.894 1.94326 116.495 2.87645 117.267 2.96612C118.281 3.08339 119.174 3.4608 119.958 4.11019C122.341 6.08398 124.732 8.05186 127.118 10.0217C127.446 10.2917 127.535 10.54 127.419 10.8406C127.292 11.1707 127.016 11.3284 126.599 11.2397C126.298 11.1756 126.165 11.2653 126.061 11.5412C125.593 12.7878 125.266 13.0637 125.379 13.519C125.467 13.8698 125.045 14.4788 124.663 14.6305V14.6315Z"
      fill="#86B1F2" />
    <path
      d="M137.273 103.154L138.658 104.461C141.935 107.552 144.608 111.214 146.541 115.263L146.753 115.708C146.753 115.708 150.381 116.025 150.887 112.781C147.704 109.227 145.084 105.433 142.922 101.212L142.266 99.6956L137.272 103.154H137.273Z"
      fill="#466EB6" />
    <path
      d="M142.264 99.6907C142.442 99.9429 141.469 100.918 140.091 101.869C138.713 102.82 137.444 103.398 137.266 103.146C137.088 102.893 138.067 101.906 139.446 100.955C140.824 100.004 142.086 99.4384 142.264 99.6907Z"
      fill="#86B1F2" />
    <path
      d="M142.27 99.7005L142.266 99.6956C142.266 99.6956 139.505 102.007 138.366 102.243L138.718 102.716C139.133 102.493 139.606 102.204 140.092 101.869C141.454 100.929 142.42 99.9656 142.271 99.6995L142.27 99.7005Z"
      fill="#355389" />
    <path
      d="M145.959 106.412C145.964 106.81 145.809 108.531 142.916 109.248C143.106 109.505 143.294 109.764 143.477 110.025C145.308 109.49 146.132 108.56 146.502 107.851C146.561 107.739 146.631 107.589 146.678 107.473C146.434 107.122 146.194 106.768 145.958 106.412H145.959Z"
      fill="#B75742" />
    <path
      d="M143.175 108.74L138.917 108.589L139.926 109.437L139.324 110.519L143.354 109.503L143.175 108.74Z"
      fill="#B75742" />
    <path
      d="M143.563 109.719L142.05 112.326L143.114 111.925L143.523 112.753L144.235 110.011L143.563 109.719Z"
      fill="#B75742" />
    <path
      d="M144.141 110.426C143.394 110.478 142.743 109.903 142.688 109.141C142.633 108.379 143.195 107.719 143.944 107.667C144.691 107.615 145.342 108.19 145.396 108.952C145.451 109.714 144.889 110.374 144.141 110.426Z"
      fill="#F47458" />
    <path
      d="M153.179 51.284L144.212 43.3701C143.629 42.8557 143.872 41.7974 144.676 41.347L151.833 37.3393C152.291 37.0831 152.807 37.1068 153.139 37.3994L162.106 45.3133C162.689 45.8277 162.446 46.886 161.642 47.3364L154.485 51.3441C154.027 51.6003 153.511 51.5766 153.179 51.284Z"
      fill="#9BC1F9" />
    <path
      d="M152.755 44.9879L152.008 38.9079C151.979 38.6753 152.151 38.426 152.391 38.3521C152.631 38.2782 152.849 38.4073 152.877 38.6399L153.565 44.2351L160.365 45.861C160.587 45.9142 160.689 46.1507 160.594 46.3892C160.498 46.6277 160.24 46.7784 160.018 46.7252L152.755 44.9879Z"
      fill="white" />
    <path
      d="M1.36882 127.343C0.888579 127.343 0.5 127.788 0.5 128.337C0.5 128.886 0.888579 129.331 1.47244 128.664H178.089C178.315 128.664 178.498 128.37 178.5 128.008C178.501 127.641 178.317 127.343 178.089 127.343H1.36882Z"
      fill="#184655" />
    <path
      d="M35.6555 17.1375L36.5821 18.9506L38.6765 18.8846L39.5702 20.9894L41.7781 20.2376L42.8951 22.575L45.0143 22.1306L46.461 24.2058L45.6669 24.7468L44.5859 23.1958L42.349 23.6639L41.275 21.4181L39.0302 22.1818L38.0438 19.8582L35.9993 19.9242L35.1404 18.2431L33.8063 18.5643L33.5781 17.6371L35.6555 17.1375Z"
      fill="#F7CC7F" />
    <path
      d="M147.801 63.5289L149.705 64.2936L151.239 62.8824L153.311 63.8895L154.476 61.8881L156.871 62.9248L158.174 61.2131L160.643 61.8379L160.404 62.7612L158.558 62.2941L157.183 64.1014L154.881 63.1051L153.696 65.14L151.41 64.0285L149.911 65.4061L148.147 64.6976L147.355 65.8062L146.566 65.2553L147.801 63.5289Z"
      fill="#50BFA5" />
  </g>
  <defs>
    <clipPath id="clip0_149_6415">
      <rect width="178" height="129" fill="white" transform="translate(0.5)" />
    </clipPath>
  </defs>
</svg>
