<svg width="115" height="108" viewBox="0 0 115 108" fill="none" xmlns="http://www.w3.org/2000/svg">
  <path
    d="M98.2472 74.3909H16.7528C7.50049 74.3909 0 81.9145 0 91.1954V91.199C0 100.48 7.50049 108.003 16.7528 108.003H98.2472C107.5 108.003 115 100.48 115 91.199V91.1954C115 81.9145 107.5 74.3909 98.2472 74.3909Z"
    fill="#EEECF1" />
  <path
    d="M98.5389 107.957C98.5211 107.957 98.4998 107.953 98.482 107.946L29.4713 78.0665C29.4002 78.0344 29.3646 77.9523 29.3966 77.8773C29.4286 77.806 29.514 77.7703 29.5852 77.8024L98.5994 107.679C98.6705 107.711 98.7061 107.793 98.6741 107.868C98.6492 107.921 98.5994 107.953 98.5425 107.953L98.5389 107.957Z"
    fill="#DAD4DD" />
  <path
    d="M18.0014 0H95.3191C100.403 0 104.533 4.13957 104.533 9.24266V41.5884C104.533 44.1293 102.477 46.1919 99.944 46.1919H13.5722C10.9644 46.1919 8.84766 44.0686 8.84766 41.4528V9.182C8.84766 4.11459 12.9496 0 18.0014 0Z"
    fill="#DDD7E0" />
  <path
    d="M103.758 44.3826H10.5091C9.59149 44.3826 8.84766 45.1287 8.84766 46.0491C8.84766 46.9695 9.59149 47.7156 10.5091 47.7156H103.758C104.675 47.7156 105.419 46.9695 105.419 46.0491C105.419 45.1287 104.675 44.3826 103.758 44.3826Z"
    fill="#EEECF1" />
  <path
    d="M62.9593 6.47699H17.1052C16.8917 6.47699 16.7139 6.30212 16.7139 6.08444C16.7139 5.86676 16.8882 5.69189 17.1052 5.69189H62.9593C63.1728 5.69189 63.3507 5.86676 63.3507 6.08444C63.3507 6.30212 63.1764 6.47699 62.9593 6.47699Z"
    fill="white" />
  <path
    d="M59.9956 8.4646H16.9982C16.7899 8.4646 16.6211 8.63396 16.6211 8.84287V8.86785C16.6211 9.07676 16.7899 9.24612 16.9982 9.24612H59.9956C60.2038 9.24612 60.3727 9.07676 60.3727 8.86785V8.84287C60.3727 8.63396 60.2038 8.4646 59.9956 8.4646Z"
    fill="white" />
  <path
    d="M16.9697 11.2305H53.6595C53.8516 11.2305 54.0081 11.3875 54.0081 11.5802V11.6623C54.0081 11.855 53.8516 12.012 53.6595 12.012H16.9697C16.7776 12.012 16.6211 11.855 16.6211 11.6623V11.5802C16.6211 11.3875 16.7776 11.2305 16.9697 11.2305Z"
    fill="white" />
  <path
    d="M63.0131 20.0768H17.1589C16.9455 20.0768 16.7676 19.902 16.7676 19.6843C16.7676 19.4666 16.9419 19.2917 17.1589 19.2917H63.0131C63.2265 19.2917 63.4044 19.4666 63.4044 19.6843C63.4044 19.902 63.2301 20.0768 63.0131 20.0768Z"
    fill="white" />
  <path
    d="M60.0493 22.0645H17.0519C16.8436 22.0645 16.6748 22.2338 16.6748 22.4427V22.4677C16.6748 22.6766 16.8436 22.846 17.0519 22.846H60.0493C60.2576 22.846 60.4264 22.6766 60.4264 22.4677V22.4427C60.4264 22.2338 60.2576 22.0645 60.0493 22.0645Z"
    fill="white" />
  <path
    d="M53.7132 24.8303H17.0235C16.8309 24.8303 16.6748 24.9869 16.6748 25.18V25.2621C16.6748 25.4553 16.8309 25.6118 17.0235 25.6118H53.7132C53.9057 25.6118 54.0618 25.4553 54.0618 25.2621V25.18C54.0618 24.9869 53.9057 24.8303 53.7132 24.8303Z"
    fill="white" />
  <path
    d="M68.6123 22.2001L69.3772 21.3758C69.3772 21.3758 71.5189 19.5237 72.8672 18.8706C73.4329 18.5958 74.2618 18.7457 73.6214 19.5594C73.2763 19.9983 73.1198 20.505 73.1198 20.505C73.1198 20.505 74.2084 20.084 74.9377 19.5308C75.4074 19.1775 76.0406 17.8286 76.4746 18.0855C77.1684 18.4959 76.4818 19.8127 76.4818 19.8127C76.4818 19.8127 76.7308 18.1783 77.4245 18.7671C78.1183 19.3524 76.5244 22.6284 75.7169 23.4384C74.9128 24.2449 70.4765 25.4012 70.4765 25.4012L68.6123 22.193V22.2001Z"
    fill="#F48462" />
  <path d="M60.7324 79.5903V83.2945L66.8053 83.034V79.5903H60.7324Z" fill="#F48462" />
  <path d="M45.7119 79.2014V82.6665L51.735 82.4203V79.2014H45.7119Z" fill="#F48462" />
  <path
    d="M58.7896 41.0066C58.7896 41.0066 63.4821 48.5471 66.2642 60.6232C68.8008 71.6395 69.1281 80.3468 69.1281 80.3468L58.3699 80.7465C58.3699 80.7465 57.1496 71.7644 56.8223 68.2136C56.4985 64.6593 55.4135 59.9024 55.4135 59.9024C55.4135 59.9024 54.1754 80.4004 53.8161 80.7465C53.4568 81.0927 43.1326 80.6716 43.0187 80.2041C42.7946 79.287 45.1782 46.7271 45.7047 44.5324C47.6792 36.2961 58.7825 41.0031 58.7825 41.0031L58.7896 41.0066Z"
    fill="#F7B369" />
  <path
    d="M53.2289 88.3978C53.2289 89.008 53.0226 89.711 52.6028 89.8859C52.183 90.0608 48.789 90.4283 45.8149 90.1714C42.9723 89.9216 43.0079 90.0251 42.798 89.7646C42.6948 89.6325 42.2679 88.7083 42.4956 88.1159C42.5098 88.0873 42.5205 88.0516 42.5347 88.0231C42.6522 87.7233 42.7731 87.4343 42.8621 87.2309C42.951 87.0346 43.0577 86.849 43.1822 86.667C43.4882 86.2424 44.1001 85.3609 44.2566 84.9041C44.463 84.2975 44.7725 82.9842 44.9824 82.3704C45.1425 81.9101 47.0067 81.1892 47.9068 80.8645C48.2198 80.7503 48.5542 80.7253 48.878 80.786C49.7852 80.9537 51.66 81.3248 51.9767 81.5889C52.3929 81.9351 52.6028 84.8221 52.6028 85.261V85.6964C52.6028 86.1032 52.8803 86.9061 53.0617 87.5699C53.1115 87.7376 53.1507 87.8946 53.1791 88.0338C53.2076 88.1765 53.2289 88.2979 53.2289 88.4014V88.3978Z"
    fill="#68B6D8" />
  <path
    d="M76.3925 89.6324C76.5384 89.6145 76.638 89.4754 76.6166 89.3219C76.5099 88.6011 76.115 86.5812 74.9943 85.7034C73.6176 84.6292 70.7039 84.1546 69.6544 83.4337C68.6049 82.7129 67.4451 81.0035 66.8083 81.3104C66.1679 81.6173 64.9441 83.0662 63.2222 82.8235C61.5003 82.5808 60.7105 82.1455 60.2374 82.5558C59.7642 82.9662 59.3906 88.8366 59.5827 89.1899C59.7749 89.5432 62.2154 89.2648 62.4253 89.3255C62.6352 89.3861 63.2613 87.998 63.6562 88.2156C64.0511 88.4333 64.5243 89.0971 65.1077 89.4111C65.652 89.7038 74.6528 89.8287 76.3996 89.6288L76.3925 89.6324Z"
    fill="#68B6D8" />
  <path
    d="M52.7918 23.8133C46.1213 23.7205 45.6624 26.9072 45.6624 26.9072V32.667L44.8975 34.6047L45.1678 42.8696L60.6719 42.5127L60.0102 34.4798C60.0102 34.4798 60.1917 23.9168 52.7918 23.8133Z"
    fill="#5C69A5" />
  <path
    d="M54.0865 25.5261C54.0865 25.5261 54.4138 26.3112 54.3854 26.6717C54.3676 26.9143 53.9086 27.4675 53.9086 27.4675C53.9086 27.4675 54.7376 29.3909 54.887 30.4365C55.0364 31.4821 54.9403 35.3541 54.6059 35.3933C54.4672 35.4112 52.9659 31.0218 52.9196 30.6043C52.8485 29.9726 53.2718 27.4318 53.2718 27.4318C53.2718 27.4318 52.788 27.0321 52.6777 26.8679C52.571 26.7038 52.6564 25.519 52.6564 25.519C52.6564 25.519 53.4248 24.998 54.083 25.5261H54.0865Z"
    fill="#F7B369" />
  <path
    d="M68.3027 21.333L73.2869 25.3976C73.2869 25.3976 71.5543 29.6621 68.4023 32.0424C65.1044 34.5332 60.362 34.0408 60.362 34.0408L60.8352 44.8215L59.526 42.5376C59.526 42.5376 57.3345 33.7446 56.132 29.8798C54.8157 25.651 54.46 23.6205 54.46 23.6205C54.46 23.6205 56.3455 23.5063 59.0493 24.2593C60.5293 24.6732 64.3964 25.7045 68.3027 21.333Z"
    fill="#40507F" />
  <path
    d="M50.8593 23.7705C50.8593 23.7705 53.1184 44.8859 52.9441 45.075C52.7733 45.2642 48.9703 45.4997 47.3444 45.3034C45.7186 45.1071 44.7829 44.6539 44.6869 44.604C44.5944 44.554 44.5908 34.9509 44.5908 34.9509L47.5081 24.7305C49.5074 23.7705 50.8593 23.7741 50.8593 23.7741V23.7705Z"
    fill="#40507F" />
  <path
    d="M50.8486 22.5071L50.8664 24.609C50.8664 24.609 51.8697 25.2657 52.88 25.2657C54.2462 25.2657 54.666 24.4306 54.666 24.4306L54.4525 21.7542L50.8486 22.5107V22.5071Z"
    fill="#F48462" />
  <path
    d="M54.6233 23.8882C54.6233 23.8882 54.4134 25.0872 53.0508 25.0087C51.6918 24.9302 50.8486 24.0309 50.8486 24.0309C50.8486 24.0309 50.8771 26.8323 51.1902 26.9036C51.5637 26.9893 53.467 25.5155 53.467 25.5155L55.2636 26.272C55.3597 26.3113 55.4593 26.2185 55.4237 26.1186L54.6233 23.8882Z"
    fill="#E6F4FF" />
  <path
    d="M50.8486 22.4536C50.8486 22.4536 51.827 24.4699 53.371 24.2129C54.6162 24.0059 54.4525 21.9219 54.4525 21.9219L50.8486 22.4536Z"
    fill="#823F31" />
  <path
    d="M55.0752 16.9687C55.0752 16.9687 55.8258 20.5408 54.691 22.2787C53.5596 24.0131 52.0405 23.5349 51.3539 23.0246C50.4289 22.3358 50.2261 21.3616 50.2261 21.3616C50.2261 21.3616 48.9739 21.6328 48.5398 20.6122C48.0809 19.5416 48.8493 18.6566 49.4755 18.596C50.1016 18.5353 50.1763 18.6459 50.1763 18.6459L49.9736 17.4968C49.9736 17.4968 53.7197 13.1788 55.0752 16.9651V16.9687Z"
    fill="#F48462" />
  <path
    d="M54.4987 18.6602C54.4987 18.6602 56.3878 17.8145 56.5585 19.2883C56.7578 20.9977 54.7192 21.0476 54.7192 21.0476L54.4951 18.6602H54.4987Z"
    fill="#F48462" />
  <path
    d="M54.3922 14.8347C54.3922 14.8347 55.2674 15.6377 55.4737 16.6154C55.6801 17.5932 55.4737 18.4212 55.4737 18.4212H55.2781C55.2781 18.4212 54.8049 16.048 54.0436 15.8304C53.2822 15.6127 54.3958 14.8347 54.3958 14.8347H54.3922Z"
    fill="black" />
  <path
    d="M41.6202 58.5963C41.5384 58.5963 41.4601 58.5714 41.3961 58.5214C41.1684 58.3501 41.1186 57.9433 41.115 57.8969C41.1079 57.8398 41.1506 57.7898 41.2075 57.7827C41.2645 57.7791 41.3143 57.8184 41.3214 57.8755C41.332 57.9754 41.389 58.2573 41.5206 58.3572C41.5633 58.3894 41.606 58.3965 41.6593 58.3894C41.9582 58.3358 41.9582 57.8933 41.9582 57.8898C41.9582 57.8327 42.0044 57.7863 42.0614 57.7863C42.1183 57.7863 42.1645 57.8327 42.1645 57.8898C42.1645 57.9147 42.1645 58.5107 41.6949 58.5963C41.67 58.5999 41.6451 58.6035 41.6202 58.6035V58.5963Z"
    fill="white" />
  <path
    d="M49.2371 18.6601C49.2371 18.6601 48.2694 16.3905 49.0165 15.4163C49.8882 14.2779 54.2249 13.268 54.666 13.8354C55.2708 14.6062 54.7692 16.6296 54.7692 16.6296C54.7692 16.6296 54.5095 16.2335 52.9442 16.4619C51.3824 16.6867 51.2223 17.5503 51.2223 17.5503C51.2223 17.5503 51.3112 18.2604 51.0657 18.6637C50.8203 19.0669 50.5001 19.1347 50.5001 19.1347V19.7343L49.9949 18.5995L49.2336 18.6673L49.2371 18.6601Z"
    fill="black" />
  <path d="M63.7703 36.2854L69.1317 40.2073L64.0194 48.5828L57.8789 45.2354L63.7703 36.2854Z"
    fill="#8192D3" />
  <path d="M64.6702 36.9741L70.462 40.4749L64.6915 49.4499L58.6934 45.9277L64.6702 36.9741Z"
    fill="#92B4EA" />
  <path
    d="M57.2779 39.0332C57.2779 39.0332 62.0487 39.2794 63.0697 40.0288C64.0907 40.7782 62.2159 44.3112 61.7 44.9107C61.1842 45.5066 56.7692 43.2763 56.7692 43.2763L55.9082 40.9888L57.2779 39.0368V39.0332Z"
    fill="#F48462" />
  <path
    d="M63.0699 40.0254C63.0699 40.0254 65.3432 42.6091 65.1511 43.8045C64.959 45 62.1982 41.6884 62.1982 41.6884L63.0734 40.029L63.0699 40.0254Z"
    fill="#F48462" />
  <path
    d="M60.0599 44.3041C60.0599 44.3041 57.598 44.2363 58.1743 45.0642C58.7507 45.8921 61.3264 45.4425 61.6999 44.9072C62.0735 44.3719 60.5722 43.1907 60.5722 43.1907L60.0634 44.3041H60.0599Z"
    fill="#F48462" />
  <path
    d="M47.5086 24.7268C47.5086 24.7268 40.8309 26.6895 41.3326 36.1071C41.82 45.314 56.8545 44.9893 56.8545 44.9893L58.9072 38.5837L50.4187 34.3085L47.5122 24.7268H47.5086Z"
    fill="#40507F" />
</svg>
