<svg width="32" height="30" xmlns="http://www.w3.org/2000/svg"><defs><linearGradient x1="50%" y1="0%" x2="50%" y2="100%" id="a"><stop stop-color="#FFF" offset="0%"/><stop stop-color="#E1E5E9" offset="100%"/></linearGradient></defs><g fill="none" fill-rule="evenodd"><path d="M22.66.547l.428 1.675 6.437 1.552-1.85 13.46h2.244v7.174c0 2.95-1.196 4.556-3.587 4.816-5.597-.027-10.179-.041-13.744-.045H9.782c-2.984.004-4.952.018-5.903.045C1.79 28.778.704 27.51.616 25.42v-8.187l2.224-.497L.974 3.774l6.328-1.552.256-1.675H22.66zM20.6 21.72H9.858v2.959H20.6v-2.96z" fill="url(#a)" transform="translate(.846)"/><g fill="#000" fill-rule="nonzero"><path d="M12.45 3.328H10.8a.446.446 0 000 .892h1.65a.446.446 0 000-.892zM14.943 4.22h6.41a.446.446 0 100-.892h-6.41a.446.446 0 000 .892zM12.45 5.89H10.8a.446.446 0 000 .892h1.65a.446.446 0 000-.893zM14.943 6.782h6.41a.446.446 0 100-.893h-6.41a.446.446 0 000 .893zM12.45 8.45H10.8a.446.446 0 000 .893h1.65a.446.446 0 000-.892zM14.943 9.343h6.41a.446.446 0 100-.892h-6.41a.446.446 0 000 .892zM21.938 24.255v-2.181a.772.772 0 00-.772-.772H10.987a.772.772 0 00-.771.772v2.18c0 .426.346.772.771.772h10.18a.772.772 0 00.77-.771zm-.893-.121h-9.937v-1.94h9.937v1.94zM12.45 11.012H10.8a.446.446 0 000 .893h1.65a.446.446 0 000-.893zM14.943 11.905h6.41a.446.446 0 100-.893h-6.41a.446.446 0 000 .893zM12.45 13.574H10.8a.446.446 0 000 .892h1.65a.446.446 0 000-.892zM14.943 14.466h6.41a.446.446 0 100-.892h-6.41a.446.446 0 000 .892zM12.693 26.464a.446.446 0 100 .892h6.767a.446.446 0 100-.892h-6.767z"/><path d="M30.861 16.737h-1.904l1.146-7.757a.446.446 0 00-.883-.13l-1.165 7.887h-3.758V2.838l5.562.896c.04.006.063.029.076.047a.12.12 0 01.02.093l-.47 3.177a.446.446 0 00.884.13l.468-3.171a1.003 1.003 0 00-.179-.752 1.003 1.003 0 00-.657-.405l-5.704-.919v-.911a1.01 1.01 0 00-1.01-1.01H15.5a.446.446 0 000 .893h7.789c.064 0 .117.052.117.117v15.714h-2.366c-.563 0-1.074.355-1.271.882l-.443 1.185a.467.467 0 01-.435.303h-5.626a.467.467 0 01-.435-.303l-.443-1.185a1.363 1.363 0 00-1.271-.882H8.749V1.023c0-.065.052-.117.117-.117h4.85a.446.446 0 000-.893h-4.85a1.01 1.01 0 00-1.01 1.01v.911l-5.703.918c-.266.043-.5.187-.658.406a1 1 0 00-.18.746l1.882 12.733H1.292c-.246 0-.446.2-.446.446v8.242c0 2.31 1.88 4.19 4.19 4.19H6.97a.446.446 0 100-.892H5.037a3.302 3.302 0 01-3.298-3.298V17.63h9.376c.193 0 .368.121.435.302l.443 1.185c.197.527.708.882 1.271.882h5.626c.563 0 1.074-.355 1.271-.882l.443-1.185a.467.467 0 01.435-.302h9.376v7.795a3.302 3.302 0 01-3.298 3.298H8.754a.446.446 0 100 .892h18.363c2.31 0 4.19-1.88 4.19-4.19v-8.242c0-.246-.2-.446-.446-.446zM2.198 3.867a.115.115 0 01.02-.086.115.115 0 01.077-.047l5.561-.896v13.9H4.1L2.198 3.867z"/></g></g></svg>