<?xml version="1.0" encoding="UTF-8"?>
<svg width="29px" height="24px" viewBox="0 0 29 24" version="1.1" xmlns="http://www.w3.org/2000/svg" xmlns:xlink="http://www.w3.org/1999/xlink">
    <title>icon-multiChoice</title>
    <g id="Screen-Panel-/-Adaptivity" stroke="none" stroke-width="1" fill="none" fill-rule="evenodd">
        <g id="Rule-Editor-Open-Nested" transform="translate(-750.000000, -21.000000)" fill="#333333" fill-rule="nonzero">
            <path d="M757.720339,21.1951777 C757.595825,21.0702309 757.426688,21 757.250293,21 C757.073897,21 756.90476,21.0702309 756.780247,21.1951777 L753.258772,24.6961915 L752.003473,23.4729657 C751.878959,23.3480189 751.709822,23.277788 751.533427,23.277788 C751.357031,23.277788 751.187894,23.3480189 751.06338,23.4729657 L750.195178,24.3422744 C750.070231,24.4667881 750,24.6359251 750,24.8123205 C750,24.988716 750.070231,25.1578529 750.195178,25.2823666 L752.826883,27.9035648 C753.099697,28.1628939 753.527894,28.1628939 753.800708,27.9035648 L754.662827,27.039786 L758.655454,23.0477122 C758.914345,22.7886151 758.916564,22.3694438 758.660431,22.1076201 L757.720339,21.1951777 Z M757.720339,29.9983113 C757.595825,29.8733645 757.426688,29.8031336 757.250293,29.8031336 C757.073897,29.8031336 756.90476,29.8733645 756.780247,29.9983113 L753.258772,33.5219979 L752.003473,32.2998781 C751.878959,32.1749314 751.709822,32.1047005 751.533427,32.1047005 C751.357031,32.1047005 751.187894,32.1749314 751.06338,32.2998781 L750.195178,33.1675279 C750.070231,33.2920416 750,33.4611785 750,33.637574 C750,33.8139694 750.070231,33.9831064 750.195178,34.1076201 L752.820247,36.7343482 C753.092875,36.9936068 753.52089,36.9936068 753.793519,36.7343482 L754.661721,35.8666984 L758.654348,31.8729657 C758.91229,31.615637 758.914512,31.1984648 758.659325,30.9384035 L757.720339,29.9983113 Z M753.539141,39.5822744 C752.074256,39.5822744 750.852136,40.7712145 750.852136,42.2366523 C750.852136,43.7020901 752.075362,44.8910302 753.539141,44.8910302 C755.005113,44.8910302 756.193519,43.7026247 756.193519,42.2366523 C756.193519,40.7706799 755.005113,39.5822744 753.539141,39.5822744 Z M777.428542,40.4670671 L761.502274,40.4670671 C761.013617,40.4670671 760.617482,40.8632022 760.617482,41.3518597 L760.617482,43.1214449 C760.617482,43.6101024 761.013617,44.0062376 761.502274,44.0062376 L777.428542,44.0062376 C777.917199,44.0062376 778.313334,43.6101024 778.313334,43.1214449 L778.313334,41.3518597 C778.313334,40.8632022 777.917199,40.4670671 777.428542,40.4670671 Z M777.428542,22.7712145 L761.502274,22.7712145 C761.013617,22.7712145 760.617482,23.1673497 760.617482,23.6560072 L760.617482,25.4255924 C760.617482,25.9142499 761.013617,26.310385 761.502274,26.310385 L777.428542,26.310385 C777.917199,26.310385 778.313334,25.9142499 778.313334,25.4255924 L778.313334,23.6560072 C778.313334,23.1673497 777.917199,22.7712145 777.428542,22.7712145 Z M777.428542,31.6191408 L761.502274,31.6191408 C761.013617,31.6191408 760.617482,32.015276 760.617482,32.5039334 L760.617482,34.2735187 C760.617482,34.7621762 761.013617,35.1583113 761.502274,35.1583113 L777.428542,35.1583113 C777.917199,35.1583113 778.313334,34.7621762 778.313334,34.2735187 L778.313334,32.5039334 C778.313334,32.015276 777.917199,31.6191408 777.428542,31.6191408 Z" id="icon-multiChoice"></path>
        </g>
    </g>
</svg>