<svg width="32" height="32" xmlns="http://www.w3.org/2000/svg"><defs><linearGradient x1="50%" y1="0%" x2="50%" y2="100%" id="a"><stop stop-color="#FFF" offset="0%"/><stop stop-color="#E1E5E9" offset="100%"/></linearGradient></defs><g fill="none" fill-rule="evenodd"><path fill="url(#a)" d="M.423 10.577L29.425 0 20.06 30.367l-6.18-7.254-6.652.856v-7.396z" transform="translate(.846 .308)"/><path d="M31.098.47a.555.555 0 00-.569-.134L10.341 7.115a.555.555 0 00.353 1.051l16.454-5.524L7.64 16.092l-5.167-5.166L8.241 8.99a.554.554 0 10-.353-1.051L1.272 10.16a.555.555 0 00-.216.918l5.978 5.978.394 6.3-.137.137a.554.554 0 10.784.784l.137-.137 6.3.394 5.979 5.978a.555.555 0 00.918-.215l4.54-13.525a.555.555 0 00-1.05-.353l-4.257 12.676-5.166-5.167L28.926 4.42l-3.204 9.546a.555.555 0 001.051.353l4.459-13.28a.554.554 0 00-.134-.568zm-16.62 22.95l-5.22-.326L26.795 5.557 14.478 23.421zM26.011 4.774L8.473 22.31l-.326-5.22L26.011 4.773z" fill="#000" fill-rule="nonzero"/></g></svg>