
<svg xmlns="http://www.w3.org/2000/svg" version="1.1" xmlns:xlink="http://www.w3.org/1999/xlink" preserveAspectRatio="none" x="0px" y="0px" width="16px" height="16px" viewBox="0 0 16 16">
<defs>
<g id="Layer0_0_FILL">
<path fill="#333333" stroke="none" d="
M 9.1 11.9
Q 8.65 11.4 7.95 11.4 7.35 11.4 6.9 11.9 6.4 12.35 6.4 13 6.4 13.65 6.9 14.1 7.35 14.6 7.95 14.6 8.65 14.6 9.1 14.1 9.55 13.65 9.55 13 9.55 12.35 9.1 11.9
M 9.1 6.85
Q 8.65 6.4 7.95 6.4 7.35 6.4 6.9 6.85 6.4 7.3 6.4 8 6.4 8.6 6.9 9.05 7.35 9.55 7.95 9.55 8.65 9.55 9.1 9.05 9.55 8.6 9.55 8 9.55 7.3 9.1 6.85
M 3.75 11.9
Q 3.3 11.4 2.6 11.4 2 11.4 1.55 11.9 1.1 12.35 1.1 13 1.1 13.65 1.55 14.1 2 14.6 2.6 14.6 3.3 14.6 3.75 14.1 4.2 13.65 4.2 13 4.2 12.35 3.75 11.9
M 3.75 6.85
Q 3.3 6.4 2.6 6.4 2 6.4 1.55 6.85 1.1 7.3 1.1 8 1.1 8.6 1.55 9.05 2 9.55 2.6 9.55 3.3 9.55 3.75 9.05 4.2 8.6 4.2 8 4.2 7.3 3.75 6.85
M 1.55 4.05
Q 2 4.55 2.6 4.55 3.3 4.55 3.75 4.05 4.2 3.6 4.2 2.95 4.2 2.3 3.75 1.85 3.3 1.4 2.6 1.4 2 1.4 1.55 1.85 1.1 2.3 1.1 2.95 1.1 3.6 1.55 4.05
M 9.55 2.95
Q 9.55 2.3 9.1 1.85 8.65 1.4 7.95 1.4 7.35 1.4 6.9 1.85 6.4 2.3 6.4 2.95 6.4 3.6 6.9 4.05 7.35 4.55 7.95 4.55 8.65 4.55 9.1 4.05 9.55 3.6 9.55 2.95
M 14.45 11.9
Q 14 11.4 13.3 11.4 12.7 11.4 12.25 11.9 11.75 12.35 11.75 13 11.75 13.65 12.25 14.1 12.7 14.6 13.3 14.6 14 14.6 14.45 14.1 14.9 13.65 14.9 13 14.9 12.35 14.45 11.9
M 14.45 6.85
Q 14 6.4 13.3 6.4 12.7 6.4 12.25 6.85 11.75 7.3 11.75 8 11.75 8.6 12.25 9.05 12.7 9.55 13.3 9.55 14 9.55 14.45 9.05 14.9 8.6 14.9 8 14.9 7.3 14.45 6.85
M 14.9 2.95
Q 14.9 2.3 14.45 1.85 14 1.4 13.3 1.4 12.7 1.4 12.25 1.85 11.75 2.3 11.75 2.95 11.75 3.6 12.25 4.05 12.7 4.55 13.3 4.55 14 4.55 14.45 4.05 14.9 3.6 14.9 2.95 Z"/>
</g>
</defs>

<g transform="matrix( 1, 0, 0, 1, 0,0) ">
<use xlink:href="#Layer0_0_FILL"/>
</g>
</svg>
