<svg width="28" height="24" xmlns="http://www.w3.org/2000/svg"><path d="M22.286.857A.857.857 0 0021.429 0H18a.857.857 0 00-.857.857V3.43h5.143V.857zm-18.862 6C3.289 11.884.185 12.977 0 19.929v2.357C0 23.232.768 24 1.714 24h5.143c.947 0 1.714-.768 1.714-1.714v-8.572h1.715V5.143H5.134c-.944 0-1.685.77-1.71 1.714zm20.58 0c-.025-.944-.765-1.714-1.71-1.714h-5.151v8.571h1.714v8.572c0 .946.768 1.714 1.714 1.714h5.143c.947 0 1.715-.768 1.715-1.714v-2.357c-.186-6.953-3.29-8.045-3.424-13.072zM9.43 0H6a.857.857 0 00-.857.857V3.43h5.143V.857A.857.857 0 009.429 0zM12 13.714h3.429V5.143H12v8.571z" fill="#333" fill-rule="nonzero"/></svg>