<?xml version="1.0" encoding="iso-8859-1"?>
<!-- Generator: Adobe Illustrator 18.0.0, SVG Export Plug-In . SVG Version: 6.00 Build 0)  -->
<!DOCTYPE svg PUBLIC "-//W3C//DTD SVG 1.1//EN" "http://www.w3.org/Graphics/SVG/1.1/DTD/svg11.dtd">
<svg version="1.1" id="Capa_1" xmlns="http://www.w3.org/2000/svg" xmlns:xlink="http://www.w3.org/1999/xlink" x="0px" y="0px"
	 viewBox="0 0 409.084 409.084" style="enable-background:new 0 0 409.084 409.084;" xml:space="preserve">
<g>
	<path d="M315.409,47.848c-2.164-17.512-17.084-31.071-35.181-31.071h-37.787v-4.686C242.442,5.413,237.028,0,230.35,0h-51.617
		c-6.678,0-12.091,5.413-12.091,12.091v4.686h-37.786c-18.097,0-33.017,13.559-35.181,31.071
		c-33.161,6.37-58.299,35.586-58.299,70.578v192.991c0,17.275,6.221,33.977,17.516,47.025c9.83,11.357,22.939,19.32,37.391,22.829
		v12.813c0,8.284,6.716,15,15,15h200.182c8.284,0,15-6.716,15-15V380.87l1.403-0.407c30.524-8.847,51.843-37.239,51.843-69.047
		V118.425C373.709,83.434,348.571,54.218,315.409,47.848z M120.281,379.084V167.156h112.494v56.56h57.688v155.367H120.281z
		 M343.709,311.417c0,16.01-9.267,30.528-23.246,37.509V212.489c0-4.035-1.626-7.9-4.51-10.722l-61.666-60.333
		c-2.803-2.742-6.568-4.278-10.49-4.278H105.281c-8.284,0-15,6.716-15,15v197.536c-14.737-6.604-24.906-21.538-24.906-38.275
		V118.425c0-18.236,11.72-33.778,28.019-39.514v7.799H315.69v-7.799c16.3,5.735,28.019,21.278,28.019,39.514V311.417z"/>
	<rect x="144.702" y="249.531" width="121.34" height="20"/>
	<rect x="144.702" y="278.956" width="121.34" height="20"/>
	<rect x="144.702" y="308.382" width="121.34" height="20"/>
	<rect x="144.702" y="337.807" width="121.34" height="20"/>
</g>
<g>
</g>
<g>
</g>
<g>
</g>
<g>
</g>
<g>
</g>
<g>
</g>
<g>
</g>
<g>
</g>
<g>
</g>
<g>
</g>
<g>
</g>
<g>
</g>
<g>
</g>
<g>
</g>
<g>
</g>
</svg>
