<svg xmlns="http://www.w3.org/2000/svg" viewBox="0 0 0.704 0.704" width="15" height="15"><path fill="#4977C2" d="M0.527 0.132L0.527 0h-0.154c-0.037 0 -0.066 0.029 -0.066 0.066v0.395c0 0.037 0.029 0.066 0.066 0.066H0.637c0.037 0 0.066 -0.029 0.066 -0.066V0.176h-0.131C0.547 0.176 0.527 0.156 0.527 0.132zM0.572 0v0.132h0.132L0.572 0zM0.264 0.484V0.176h-0.198c-0.037 0 -0.066 0.029 -0.066 0.066v0.395c0 0.037 0.029 0.066 0.066 0.066h0.264c0.037 0 0.066 -0.029 0.066 -0.066L0.395 0.572h-0.044C0.303 0.572 0.264 0.532 0.264 0.484z"/></svg>