<svg width="26" height="24" xmlns="http://www.w3.org/2000/svg"><g fill="#333" fill-rule="nonzero"><path d="M26 2.44V.566a.562.562 0 00-.555-.563C23.92-.017 21.803 0 20 1.78 18.231.034 16.202-.005 14.558.005A.562.562 0 0014 .568v1.858c0 .314.256.566.57.563 1.216-.015 3.93.163 3.93 2.27V10.5h-1.688a.563.563 0 00-.562.563v1.875c0 .31.252.562.563.562H18.5v5.25c0 2.106-2.629 2.251-3.935 2.248a.563.563 0 00-.565.562v1.874c0 .308.247.56.555.563 1.525.02 3.642.002 5.445-1.776 1.769 1.744 3.798 1.784 5.442 1.774a.562.562 0 00.558-.563v-1.858a.562.562 0 00-.57-.563c-1.216.015-3.93-.154-3.93-2.261V13.5h1.688c.31 0 .562-.252.562-.562v-1.875a.563.563 0 00-.563-.563H21.5V5.259c0-2.107 2.629-2.26 3.935-2.257.312 0 .565-.25.565-.562zM1.84 17l.709-1.951h3.433L6.732 17H8.62L5.18 8.41H3.347L0 17h1.84zm3.586-3.398H3.082l1.16-3.188 1.184 3.188zM11.174 17v-1.646H9.527V17h1.647z"/></g></svg>