<svg width="32" height="24" xmlns="http://www.w3.org/2000/svg"><path d="M29 0a3 3 0 013 3v18a3 3 0 01-3 3H3a3 3 0 01-3-3V3a3 3 0 013-3h26zm-1.75 15h-5.5a.75.75 0 000 1.5h5.5a.75.75 0 000-1.5zM8.748 8.126H7.067L4 16h1.687l.65-1.789h3.147L10.17 16h1.73L8.748 8.126zm7.749 0H13.35V16h2.68l.227-.002c.882-.008 1.446-.025 1.69-.052.423-.046.778-.17 1.066-.373.289-.202.516-.473.682-.811a2.34 2.34 0 00.25-1.045c0-.454-.129-.85-.386-1.187-.258-.336-.627-.574-1.107-.714.34-.154.61-.385.808-.693.2-.308.299-.646.299-1.015 0-.34-.081-.647-.242-.921a2.021 2.021 0 00-.604-.658 2.048 2.048 0 00-.822-.325c-.268-.046-.657-.071-1.168-.077l-.226-.001zm-.274 4.442c.723 0 1.193.037 1.41.113a.971.971 0 01.497.36c.114.164.172.365.172.601 0 .28-.075.502-.223.669a.985.985 0 01-.578.314c-.154.032-.517.048-1.09.048h-1.472v-2.105zM7.89 9.963l1.085 2.922H6.825L7.89 9.963zm8.16-.526c.632.001 1.02.01 1.162.026.265.033.465.125.6.277.133.152.2.35.2.593 0 .255-.077.46-.233.615-.156.156-.37.25-.642.282a11.47 11.47 0 01-.957.027h-1.24v-1.82z" fill="#333" fill-rule="evenodd"/></svg>