<svg width="32" height="35" xmlns="http://www.w3.org/2000/svg"><defs><linearGradient x1="50%" y1="0%" x2="50%" y2="100%" id="a"><stop stop-color="#FFF" offset="0%"/><stop stop-color="#E1E5E9" offset="100%"/></linearGradient><linearGradient x1="50%" y1="0%" x2="50%" y2="100%" id="b"><stop stop-color="#FFF" offset="0%"/><stop stop-color="#E1E5E9" offset="100%"/></linearGradient></defs><g fill="none" fill-rule="evenodd"><path d="M1.27 26.654c-1.2-2.823-.588-4.548 1.836-5.175 2.424-.627 4.442-1.397 6.054-2.308v-5.25c1.523-1.335 2.915-1.335 4.177 0 .002 1.169.002 2.02 0 2.554h1.318l.576-.949.096-5.083c1.556-1.786 3.01-1.786 4.362 0 .054 1.737.054 5.415 0 11.036l1.913-.439V5.549l.832-1.06h1.8l1.188.455.35 1.067v12.104l2.17-.71c1.774.364 2.268 1.46 1.483 3.288-.778.508-2.692 2.012-5.742 4.511l-2.397 1.064-10.706 2.715c.217 1.973-.465 3.132-2.046 3.477-1.581.345-2.69.59-3.327.736-1.251.098-2.079-.5-2.483-1.793a565.75 565.75 0 01-1.455-4.75z" fill="url(#a)" transform="translate(.846 .77)"/><path d="M30.566 18.33c-1.544-1.538-3.33-.1-3.33-.1v-8.094a.492.492 0 10-.984 0v8.787s-2.348 1.851-3.357 2.304V6.652a1.23 1.23 0 011.228-1.229h.9a1.23 1.23 0 011.229 1.229V8.12a.492.492 0 10.984 0V6.652c0-1.22-.993-2.213-2.213-2.213h-.9c-1.22 0-2.213.992-2.213 2.213v14.965a5.174 5.174 0 01-.901.168v-10.38a2.227 2.227 0 00-2.224-2.225h-.878a2.227 2.227 0 00-2.224 2.225v5.016l-.902.479v-1.67a2.005 2.005 0 00-2.002-2.002h-1.321a2.005 2.005 0 00-2.002 2.002v4.497l-1.608.853-4.515 1.29a3.094 3.094 0 00-1.846 1.448 3.094 3.094 0 00-.31 2.327l.505 1.942a.492.492 0 10.953-.248l-.505-1.942a2.114 2.114 0 011.474-2.58l4.128-1.18 3.102 8.28c.208.554.175 2.136-1.466 2.719l-3.12.708A2.042 2.042 0 013.81 31.86l-.633-2.436a.493.493 0 00-.953.248l.633 2.436a3.02 3.02 0 002.926 2.274c.994 0 3.803-.786 3.803-.786a3.033 3.033 0 002.297-3.586l10.791-2.642a6.21 6.21 0 002.45-1.226l5.251-4.315c1.601-1.42.662-3.03.191-3.498zm-12.66-8.165h.879c.683 0 1.24.556 1.24 1.24v10.404l-3.108-.001c-.285-.003-.088-.191-.072-.204l.895-.725c.834-.676 1.38-1.616 1.62-2.794a1.935 1.935 0 00-.744-1.953 1.934 1.934 0 00-1.948-.227v-4.5c0-.684.555-1.24 1.239-1.24zM10.44 15.23c0-.56.457-1.018 1.018-1.018h1.321a1.02 1.02 0 011.018 1.018v2.192l-3.357 1.782V15.23zm19.31 5.837L24.5 25.382a5.213 5.213 0 01-2.059 1.03l-10.87 2.661-2.924-7.802 8.347-4.43a.947.947 0 011.033.08c.308.23.446.591.37.967-.194.949-.623 1.698-1.276 2.226l-.895.725a1.087 1.087 0 00-.344 1.221c.157.445.564.733 1.036.733l3.587.001h.003a6.14 6.14 0 003.549-1.123l4.01-2.82a1.387 1.387 0 011.796.167c.276.282.817 1.12-.112 2.049z" fill="#000" fill-rule="nonzero"/><path d="M8.948 30.232c0-1.07-.87-1.94-1.94-1.94-1.07 0-1.94.87-1.94 1.94 0 1.07.87 1.94 1.94 1.94 1.07 0 1.94-.87 1.94-1.94zm-2.894 0a.956.956 0 011.91 0 .956.956 0 01-1.91 0z" fill="#000" fill-rule="nonzero"/><path d="M14.06.77c.424-.312 1.941-.402 4.552-.27.63-.026.946.389.946 1.245v4.033c-.253.859-.94.859-2.058 0V4.112l-5.17 4.634L9.595 7.69 1.71 15.444l-1.267-.51.23-1.167L8.92 5.374l2.974 1.087 3.928-3.924c-.84-.038-1.427-.131-1.76-.278-.501-.22-.637-1.022 0-1.49z" fill="url(#b)" transform="translate(.846 .77)"/><path d="M3.468 16.228l7.157-7.212 1.61.833a1.514 1.514 0 001.747-.254l3.895-3.75S17.77 7.77 19.392 7.77c.835 0 1.515-.68 1.515-1.514V2.284v-.015c-.006-1.036-.764-1.5-1.515-1.5h-3.937c-.835 0-1.515.68-1.515 1.515 0 1.665 1.695 1.514 1.695 1.514L12.663 6.66l-1.634-.844a1.509 1.509 0 00-1.77.278l-7.941 8.002a1.516 1.516 0 00.008 2.142c.286.283 1.261.872 2.142-.009zm-1.451-1.44l7.94-8.002c.103-.103.267-.283.62-.097l1.947 1.007a.492.492 0 00.567-.083l4.107-3.952a.492.492 0 00-.342-.847h-1.401a.53.53 0 010-1.06h3.937c.145 0 .53 0 .53.527v3.975a.53.53 0 01-1.06 0v-1.57a.492.492 0 00-.834-.354l-4.73 4.553a.53.53 0 01-.61.09l-1.931-1a.493.493 0 00-.576.09l-7.412 7.47c-.323.323-.65.102-.75.003a.53.53 0 01-.002-.75z" fill="#000" fill-rule="nonzero"/></g></svg>