<svg width="29" height="24" xmlns="http://www.w3.org/2000/svg"><path d="M10.73 2.747L6.29 7.185H1.198C.536 7.185 0 7.721 0 8.383v7.185c0 .66.536 1.197 1.198 1.197H6.29l4.44 4.438c.75.75 2.043.223 2.043-.846V3.594c0-1.071-1.295-1.596-2.044-.847zM22.37.198a1.207 1.207 0 10-1.324 2.019 11.644 11.644 0 015.28 9.759c0 3.94-1.974 7.588-5.28 9.758a1.207 1.207 0 101.325 2.019 14.054 14.054 0 006.37-11.778c0-4.757-2.382-9.16-6.37-11.777zm1.58 11.777c0-3.17-1.6-6.084-4.28-7.796a1.192 1.192 0 00-1.652.373 1.212 1.212 0 00.37 1.664 6.809 6.809 0 013.167 5.76 6.809 6.809 0 01-3.167 5.758 1.212 1.212 0 00-.37 1.665c.325.517 1.054.755 1.653.372a9.212 9.212 0 004.28-7.796zM16.876 8.14a1.199 1.199 0 00-1.156 2.099 1.99 1.99 0 011.045 1.736c0 .718-.4 1.383-1.044 1.737a1.199 1.199 0 001.156 2.099 4.388 4.388 0 002.284-3.836c0-1.591-.876-3.06-2.285-3.835z" fill="#333" fill-rule="nonzero"/></svg>