<svg width="32" height="35" xmlns="http://www.w3.org/2000/svg"><defs><linearGradient x1="50%" y1="0%" x2="50%" y2="100%" id="a"><stop stop-color="#FFF" offset="0%"/><stop stop-color="#E1E5E9" offset="100%"/></linearGradient></defs><g fill="none" fill-rule="evenodd"><path d="M11.695 30.123h1.245l.822 2.92 3.418-.616v-2.304h1.91v-4.061c4.667-3.901 6.863-7.42 6.586-10.559-.415-4.706-3.382-10.096-10.323-10.096-6.941 0-10.455 5.32-10.455 9.25 0 3.93 1.212 7.516 6.095 10.573.395 1.636.629 3.267.702 4.893z" fill="url(#a)" transform="translate(.846 .462)"/><g fill="#000" fill-rule="nonzero"><path d="M16.077 3.74a.645.645 0 01-.645-.646V1.107a.645.645 0 111.29 0v1.987a.645.645 0 01-.645.645zM7.682 7.217a.643.643 0 01-.456-.19L5.82 5.624a.645.645 0 01.913-.913l1.405 1.405a.645.645 0 01-.456 1.102zM24.472 7.217a.645.645 0 01-.456-1.102L25.42 4.71a.645.645 0 01.912.913l-1.405 1.405a.643.643 0 01-.456.189zM3.694 24.628a.645.645 0 01-.456-1.102l1.404-1.405a.645.645 0 01.913.913L4.15 24.44a.643.643 0 01-.456.19zM28.46 24.628a.643.643 0 01-.456-.189l-1.405-1.405a.645.645 0 01.912-.913l1.406 1.405a.645.645 0 01-.457 1.102z"/><g><path d="M30.617 15.612H28.63a.645.645 0 010-1.291h1.987a.645.645 0 010 1.29zM3.524 15.612H1.537a.645.645 0 010-1.291h1.987a.645.645 0 110 1.29z"/></g><g><path d="M25.464 21.02c-.632.001-.885-.832-.358-1.181a.645.645 0 01.716 0c.528.349.273 1.182-.358 1.181z"/><path d="M23.995 7.904a11.053 11.053 0 00-7.75-3.311A11.055 11.055 0 008.33 7.75a11.034 11.034 0 00-3.374 7.814 11.176 11.176 0 005.286 9.647 3.384 3.384 0 011.613 2.893v2.498c0 .356.289.645.645.645h.935v1.612c0 .357.29.646.646.646h3.99a.645.645 0 00.645-.646v-1.612h.936a.645.645 0 00.645-.645v-2.498c0-1.187.6-2.267 1.607-2.89a11.16 11.16 0 001.68-1.275.645.645 0 10-.875-.95 9.857 9.857 0 01-1.484 1.127 4.676 4.676 0 00-1.567 1.592v-8.923c0-.572-.165-1.128-.476-1.608l-2.565-3.948a.645.645 0 00-1.082 0l-2.565 3.948a2.945 2.945 0 00-.476 1.608v8.926a4.698 4.698 0 00-1.572-1.598 9.936 9.936 0 01-4.675-8.532A9.752 9.752 0 019.23 8.676a9.77 9.77 0 016.995-2.793c5.338.08 9.681 4.489 9.681 9.83 0 .46-.032.923-.095 1.376a.645.645 0 101.278.179c.071-.512.108-1.036.108-1.556 0-2.941-1.138-5.714-3.203-7.808zm-9.941 7.976l.496-.764h3.054l.496.764c.165.254.257.546.267.848a2.802 2.802 0 00-2.29.528 2.802 2.802 0 00-2.29-.527c.01-.303.102-.595.267-.849zm2.668 11.578v-9.05c.28-.287.66-.449 1.07-.449.2 0 .395.04.576.115v9.384h-1.646zm-2.936-9.384c.18-.075.376-.115.577-.115.408 0 .788.162 1.069.449v9.05h-1.646v-9.384zm3.64 14.14h-2.699v-.967h2.7v.967zm1.581-2.258h-5.86V28.75h5.86v1.207zm-2.93-17.19l.688 1.059H15.39l.688-1.06z"/></g></g></g></svg>