<svg width="32" height="24" xmlns="http://www.w3.org/2000/svg"><g fill="none" fill-rule="evenodd"><rect fill="#333" width="32" height="24" rx="3"/><path d="M30.73 13.864L20.99 7.112a.632.632 0 00-.674-.028.625.625 0 00-.313.595l1.009 11.767a.632.632 0 001.03.427l2.283-1.899 2.364 4.681a.628.628 0 00.877.261l2.91-1.672a.626.626 0 00.212-.885l-2.894-4.377 2.794-1.017a.626.626 0 00.144-1.1zm-4.115 1.215a.627.627 0 00-.31.93l2.964 4.484-1.756 1.008-2.421-4.794a.628.628 0 00-.966-.199l-1.964 1.633-.792-9.24 7.65 5.303-2.405.875z" fill="#FFF" fill-rule="nonzero"/><path stroke="#FFF" stroke-width="2" stroke-linecap="square" d="M7.433 12.5h12.134"/></g></svg>