<?xml version="1.0" encoding="UTF-8"?>
<svg width="12px" height="24px" viewBox="0 0 12 24" version="1.1" xmlns="http://www.w3.org/2000/svg" xmlns:xlink="http://www.w3.org/1999/xlink">
    <title>icon-userInput</title>
    <g id="Screen-Panel-/-Adaptivity" stroke="none" stroke-width="1" fill="none" fill-rule="evenodd">
        <g id="Rule-Editor-Open-Nested" transform="translate(-803.000000, -21.000000)" fill="#333333" fill-rule="nonzero">
            <path d="M815,23.4397283 L815,21.5655198 C815,21.2575971 814.752781,21.0069089 814.444906,21.0030651 C812.919734,20.9838463 810.803234,21.000487 809,22.7793045 C807.231219,21.0344714 805.202141,20.9946276 803.558422,21.0053151 C803.249281,21.0073307 803,21.2586752 803,21.5678167 L803,23.4261814 C803,23.7396354 803.255844,23.9923392 803.569297,23.9885892 C804.786453,23.9740579 807.5,24.151996 807.5,26.2585176 L807.5,31.5 L805.8125,31.5 C805.501859,31.5 805.25,31.7518614 805.25,32.0625029 L805.25,33.9375083 C805.25,34.2481498 805.501859,34.5 805.8125,34.5 L807.5,34.5 L807.5,39.7500248 C807.5,41.8562184 804.871484,42.0014844 803.564844,41.9981094 C803.253312,41.9973125 803,42.2487507 803,42.5602829 L803,44.4344913 C803,44.7424141 803.247219,44.9931023 803.555094,44.9969461 C805.080266,45.016118 807.196766,44.9994773 809,43.2206598 C810.768781,44.9654929 812.797859,45.0053367 814.441578,44.9946492 C814.750719,44.9926336 815,44.7412891 815,44.4321476 L815,42.5737829 C815,42.2603289 814.744156,42.007625 814.430703,42.0113751 C813.213547,42.0259532 810.5,41.8565465 810.5,39.7500248 L810.5,34.5 L812.1875,34.5 C812.498141,34.5 812.75,34.2481498 812.75,33.9375083 L812.75,32.0625029 C812.75,31.7518614 812.498141,31.5 812.1875,31.5 L810.5,31.5 L810.5,26.2585176 C810.5,24.1523241 813.128516,23.9985268 814.435156,24.0018549 C814.746688,24.0026987 815,23.7512604 815,23.4397283 Z" id="icon-userInput"></path>
        </g>
    </g>
</svg>