<svg width="32" height="36" xmlns="http://www.w3.org/2000/svg"><defs><linearGradient x1="50%" y1="0%" x2="50%" y2="100%" id="a"><stop stop-color="#FFF" offset="0%"/><stop stop-color="#E1E5E9" offset="100%"/></linearGradient></defs><g fill="none" fill-rule="evenodd"><path fill="url(#a)" d="M4.257.622l-2.385.612-1.207 1.95v28.209l1.796 1.987h27.313V.622" transform="translate(.846 .538)"/><g fill="#000" fill-rule="nonzero"><path d="M30.643.538H4.172A3.33 3.33 0 00.846 3.864v3.303a.665.665 0 001.33 0V3.864c0-1.1.895-1.995 1.996-1.995h.93v21.77a.665.665 0 001.331 0V1.87h23.544V27.94H4.172c-.748 0-1.44.248-1.996.666V13.242a.665.665 0 00-1.33 0v18.024a3.33 3.33 0 003.326 3.326h26.47a.665.665 0 00.666-.666V1.204a.665.665 0 00-.665-.666zm-.666 30.063H24.2a.665.665 0 000 1.33h5.778v1.33H4.172c-1.1 0-1.996-.895-1.996-1.995s.895-1.995 1.996-1.995h25.805v1.33z"/><path d="M1.981 9.978a.67.67 0 00-.47-.195.67.67 0 00-.47.195.67.67 0 00-.195.47.67.67 0 00.195.47.67.67 0 00.47.196.67.67 0 00.47-.195.67.67 0 00.195-.47.67.67 0 00-.195-.47zM6.238 25.615a.667.667 0 00-.94 0 .669.669 0 000 .94.67.67 0 00.47.195.67.67 0 00.47-.195.668.668 0 000-.94zM28.043 12.48h-.338a1.475 1.475 0 01-1.362-.924l-.012-.03a1.481 1.481 0 01.306-1.625l.239-.238c.26-.26.26-.68 0-.94l-2.489-2.489a.665.665 0 00-.94 0l-.239.238a1.482 1.482 0 01-1.623.307l-.029-.012a1.476 1.476 0 01-.926-1.362v-.338a.665.665 0 00-.665-.665h-3.52a.665.665 0 00-.665.665v.344c0 .595-.362 1.128-.92 1.358l-.032.013c-.564.236-1.2.116-1.621-.305l-.244-.243a.665.665 0 00-.94 0L9.534 8.722a.665.665 0 000 .941l.249.248c.42.42.54 1.054.306 1.616l-.012.03a1.47 1.47 0 01-1.358.923h-.351a.665.665 0 00-.665.665v3.52c0 .366.297.664.665.664h.357c.593 0 1.124.361 1.355.92l.012.03a1.473 1.473 0 01-.305 1.615l-.252.252a.665.665 0 000 .94l2.488 2.49a.665.665 0 00.94 0l.253-.253a1.473 1.473 0 011.615-.305l.03.012c.558.23.92.762.92 1.355v.357c0 .367.297.665.665.665h3.519a.665.665 0 00.665-.665v-.351c0-.595.362-1.128.926-1.36l.025-.01a1.476 1.476 0 011.618.306l.248.248c.26.26.68.26.94 0l2.489-2.488a.665.665 0 000-.94l-.243-.244a1.478 1.478 0 01-.306-1.621l.013-.03c.231-.56.764-.923 1.359-.923h.344a.665.665 0 00.665-.665v-3.519a.665.665 0 00-.665-.665zm-14.378 9.141l-.01.01a2.77 2.77 0 00-1.15.545l-1.571-1.571c.254-.318.429-.683.524-1.068.013-.011.026-.022.038-.035l2.612-2.61a.665.665 0 00.162-.676 4.112 4.112 0 011.007-4.195 4.12 4.12 0 013.427-1.178l-1.947 1.947a.665.665 0 00-.175.631l.53 2.124c.06.239.247.425.485.484l2.124.531a.665.665 0 00.631-.175l1.94-1.94c.15 1.24-.27 2.5-1.18 3.41a4.113 4.113 0 01-4.187 1.01.663.663 0 00-.712.208l-2.548 2.548zm13.713-5.603a2.8 2.8 0 00-2.268 1.726l-.01.026a2.809 2.809 0 00.378 2.834l-1.573 1.573a2.808 2.808 0 00-2.835-.384l-.023.01a2.8 2.8 0 00-1.73 2.274h-2.223a2.798 2.798 0 00-1.727-2.277l1.555-1.555a5.435 5.435 0 005.13-1.448 5.452 5.452 0 001.208-5.89.665.665 0 00-1.088-.222l-2.494 2.494-1.371-.343-.343-1.372 2.498-2.498a.665.665 0 00-.221-1.087 5.45 5.45 0 00-5.905 1.201 5.433 5.433 0 00-1.445 5.146l-1.563 1.564-.009-.024-.01-.023a2.797 2.797 0 00-2.276-1.727v-2.223a2.8 2.8 0 002.274-1.73l.01-.024c.4-.963.246-2.043-.384-2.834l1.573-1.573c.792.627 1.871.78 2.835.378l.025-.01a2.8 2.8 0 001.726-2.268h2.227a2.806 2.806 0 001.732 2.266l.023.01c.96.399 2.038.248 2.83-.377l1.575 1.575a2.813 2.813 0 00-.377 2.83l.003.006.007.018a2.805 2.805 0 002.266 1.731v2.227zM22.175 30.796a.671.671 0 00-.47-.195.671.671 0 00-.47.195.67.67 0 00-.196.47.67.67 0 00.195.47.671.671 0 00.47.195.67.67 0 00.471-.195.67.67 0 00.195-.47.67.67 0 00-.195-.47z"/></g></g></svg>