<svg width="28" height="24" xmlns="http://www.w3.org/2000/svg"><path d="M26.571 18.857h-18V18a.86.86 0 00-.857-.857H6a.86.86 0 00-.857.857v.857H.857a.86.86 0 00-.857.857v1.715a.86.86 0 00.857.857h4.286v.857A.86.86 0 006 24h1.714a.86.86 0 00.857-.857v-.857h18a.86.86 0 00.858-.857v-1.715a.86.86 0 00-.858-.857zm0-8.571h-4.285v-.857a.86.86 0 00-.857-.858h-1.715a.86.86 0 00-.857.858v.857h-18a.86.86 0 00-.857.857v1.714a.86.86 0 00.857.857h18v.857a.86.86 0 00.857.858h1.715a.86.86 0 00.857-.858v-.857h4.285a.86.86 0 00.858-.857v-1.714a.86.86 0 00-.858-.857zm0-8.572H15.43V.857A.86.86 0 0014.57 0h-1.714A.86.86 0 0012 .857v.857H.857A.86.86 0 000 2.571v1.715a.86.86 0 00.857.857H12V6a.86.86 0 00.857.857h1.714A.86.86 0 0015.43 6v-.857H26.57a.86.86 0 00.858-.857V2.57a.86.86 0 00-.858-.857z" fill="#333" fill-rule="nonzero"/></svg>