<?xml version="1.0" encoding="UTF-8"?>
<svg width="496px" height="496px" viewBox="0 0 496 496" xmlns="http://www.w3.org/2000/svg" xmlns:xlink="http://www.w3.org/1999/xlink" version="1.1">
  <!-- Generated by Pixelmator Pro 2.1.2 -->
  <path id="Path" d="M248 496 C384.967 496 496 384.967 496 248 496 111.033 384.967 0 248 0 111.033 0 0 111.033 0 248 0 384.967 111.033 496 248 496 Z M144.602 419.28 L198.013 365.869 C229.819 379.375 266.141 379.391 297.987 365.869 L351.398 419.28 C288.181 457.599 207.819 457.599 144.602 419.28 Z M328 248 C328 292.112 292.112 328 248 328 203.888 328 168 292.112 168 248 168 203.888 203.888 168 248 168 292.112 168 328 203.888 328 248 Z M419.28 351.398 L365.869 297.987 C379.374 266.181 379.391 229.859 365.869 198.013 L419.28 144.602 C457.599 207.819 457.599 288.181 419.28 351.398 Z M351.397 76.72 L297.986 130.131 C266.18 116.626 229.858 116.609 198.013 130.131 L144.602 76.72 C207.819 38.401 288.181 38.401 351.397 76.72 Z M76.72 144.602 L130.131 198.013 C116.625 229.819 116.609 266.141 130.131 297.987 L76.72 351.398 C38.401 288.181 38.401 207.819 76.72 144.602 Z" fill="#e57c6d" fill-opacity="1" stroke="none"/>
  <path id="Rectangle" d="M248 448.02 C212.105 448.02 176.21 438.439 144.602 419.279 L198.014 365.869 C229.82 379.375 266.14 379.391 297.986 365.869 L351.398 419.279 C319.79 438.439 283.895 448.02 248 448.02 Z M76.721 351.398 C38.402 288.181 38.402 207.819 76.721 144.602 L130.131 198.014 C116.625 229.82 116.609 266.14 130.131 297.986 L76.721 351.398 Z M419.279 351.398 L366 298.117 366 297.672 C379.328 266.046 379.345 229.994 366 198.328 L366 197.883 419.279 144.602 C457.598 207.819 457.598 288.181 419.279 351.398 Z M198.014 130.131 L144.602 76.721 C207.818 38.402 288.181 38.402 351.396 76.721 L297.986 130.131 C266.18 116.626 229.859 116.609 198.014 130.131 Z" fill="#ffffff" fill-opacity="1" stroke="none"/>
</svg>