<?xml version="1.0" encoding="UTF-8" standalone="no"?>
<!-- Created with Inkscape (http://www.inkscape.org/) -->

<svg
   xmlns:dc="http://purl.org/dc/elements/1.1/"
   xmlns:cc="http://creativecommons.org/ns#"
   xmlns:rdf="http://www.w3.org/1999/02/22-rdf-syntax-ns#"
   xmlns:svg="http://www.w3.org/2000/svg"
   xmlns="http://www.w3.org/2000/svg"
   xmlns:sodipodi="http://sodipodi.sourceforge.net/DTD/sodipodi-0.dtd"
   xmlns:inkscape="http://www.inkscape.org/namespaces/inkscape"
   width="48px"
   height="48px"
   id="svg5120"
   version="1.1"
   inkscape:version="0.48.4 r9939"
   sodipodi:docname="600mlBeaker.svg">
  <defs
     id="defs5122" />
  <sodipodi:namedview
     id="base"
     pagecolor="#ffffff"
     bordercolor="#666666"
     borderopacity="1.0"
     inkscape:pageopacity="0.0"
     inkscape:pageshadow="2"
     inkscape:zoom="2.674551"
     inkscape:cx="72.627044"
     inkscape:cy="-4.6314699"
     inkscape:current-layer="layer1"
     showgrid="true"
     inkscape:grid-bbox="true"
     inkscape:document-units="px"
     inkscape:window-width="1200"
     inkscape:window-height="791"
     inkscape:window-x="183"
     inkscape:window-y="170"
     inkscape:window-maximized="0" />
  <metadata
     id="metadata5125">
    <rdf:RDF>
      <cc:Work
         rdf:about="">
        <dc:format>image/svg+xml</dc:format>
        <dc:type
           rdf:resource="http://purl.org/dc/dcmitype/StillImage" />
        <dc:title></dc:title>
      </cc:Work>
    </rdf:RDF>
  </metadata>
  <g
     id="layer1"
     inkscape:label="Layer 1"
     inkscape:groupmode="layer">
    <path
       d="m 91.986814,20.0145 c -1.181663,-0.557383 -1.4522,-1.263594 -1.4522,-1.859975"
       id="path46-3"
       style="fill:none;stroke:#1e1e1e;stroke-width:0.12255923;stroke-linecap:round;stroke-linejoin:round;stroke-miterlimit:4;stroke-opacity:1;stroke-dasharray:none"
       inkscape:connector-curvature="0" />
    <path
       d="m 107.18342,18.154525 c 0,1.192468 -1.07469,2.825619 -8.314676,2.825619 -2.492606,0 -4.254448,-0.193815 -5.493187,-0.496377"
       id="path48-8"
       style="fill:none;stroke:#1e1e1e;stroke-width:0.12255923;stroke-linecap:round;stroke-linejoin:round;stroke-miterlimit:4;stroke-opacity:1;stroke-dasharray:none"
       inkscape:connector-curvature="0" />
    <path
       d="m 106.33114,19.1797 c 0,-0.603457 -1.302,-1.135103 -3.283,-1.449945"
       id="path50-2"
       style="fill:none;stroke:#1e1e1e;stroke-width:0.12255923;stroke-linecap:round;stroke-linejoin:round;stroke-miterlimit:4;stroke-opacity:1;stroke-dasharray:none"
       inkscape:connector-curvature="0" />
    <path
       d="m 100.8357,17.491242 c -0.62821,-0.04028 -1.289335,-0.06199 -1.971867,-0.06199 -4.123992,0 -7.467407,0.783619 -7.467407,1.750346"
       id="path52-3"
       style="fill:none;stroke:#1e1e1e;stroke-width:0.12255923;stroke-linecap:round;stroke-linejoin:round;stroke-miterlimit:4;stroke-opacity:1;stroke-dasharray:none"
       inkscape:connector-curvature="0" />
    <path
       d="m 101.88445,16.104366 c -0.94099,-0.101475 -1.958311,-0.15757 -3.020617,-0.15757 -3.547551,0 -6.599406,0.618585 -7.952983,1.505154"
       id="path54-2"
       style="fill:none;stroke:#1e1e1e;stroke-width:0.12255923;stroke-linecap:round;stroke-linejoin:round;stroke-miterlimit:4;stroke-opacity:1;stroke-dasharray:none"
       inkscape:connector-curvature="0" />
    <path
       d="m 106.81671,17.452048 c -0.48538,-0.31789 -1.11447,-0.57379 -1.95595,-0.806999"
       id="path56-1"
       style="fill:none;stroke:#1e1e1e;stroke-width:0.12255923;stroke-linecap:round;stroke-linejoin:round;stroke-miterlimit:4;stroke-opacity:1;stroke-dasharray:none"
       inkscape:connector-curvature="0" />
    <path
       inkscape:connector-curvature="0"
       style="fill:none;stroke:#000000;stroke-width:0.20426537;stroke-linecap:round;stroke-linejoin:round;stroke-miterlimit:4;stroke-opacity:1;stroke-dasharray:none"
       id="path26-7"
       d="m 104.21791,14.676032 c -0.54078,0.118181 -1.13991,0.220439 -1.786,0.303155 l 0,-18.5822675 c 0.64599,-0.08291 1.24522,-0.184974 1.786,-0.303149" />
    <path
       d="m 88.516677,-12.039865 c 0.1167,-0.07505 0.38213,-0.15197 0.506594,-0.175644 1.004646,-0.190968 1.698577,-0.152558 2.899298,0.121518 1.728832,0.394902 4.117311,0.638918 6.755697,0.638918 3.869564,0 7.061104,-0.555913 8.570384,-1.284422 0.36416,-0.175839 0.55837,-0.415533 0.59697,-0.589011"
       id="path30-0"
       style="fill:none;stroke:#323232;stroke-width:0.1634123;stroke-linecap:round;stroke-linejoin:round;stroke-miterlimit:4;stroke-opacity:1;stroke-dasharray:none"
       inkscape:connector-curvature="0" />
    <path
       d="m 107.69935,-11.420495 0,29.847326 c 0,1.210644 -1.14178,3.239976 -8.832277,3.239976 -7.690498,0 -8.83228,-2.029332 -8.83228,-3.239976 l 0,-28.0074885 c 0,0 0.106586,-1.6400295 -1.452102,-1.8642965 -0.0779,-0.01119 -0.328303,0.09941 -0.414748,0.09617 -0.499426,-0.01887 -0.61446,-0.597758 0.21248,-1.374988 0.920069,-0.864566 0.488129,-1.814004 2.316766,-2.459404 1.751429,-0.618091 4.745816,-1.102388 8.169884,-1.102388 5.374807,0 9.731817,1.09885 9.731817,2.415197 0,0.953858 -0.89954,1.051011 -0.89954,2.449874 z"
       id="path32-8"
       style="fill:none;stroke:#323232;stroke-width:0.20426537;stroke-linecap:round;stroke-linejoin:round;stroke-miterlimit:4;stroke-opacity:1;stroke-dasharray:none"
       inkscape:connector-curvature="0" />
    <path
       inkscape:connector-curvature="0"
       style="fill:none;stroke:#000000;stroke-width:0.1634123;stroke-linecap:round;stroke-linejoin:round;stroke-miterlimit:4;stroke-opacity:1;stroke-dasharray:none"
       id="path22-4"
       d="m 102.43191,2.5758825 c 0.64599,-0.08281 1.24522,-0.184881 1.786,-0.303253" />
    <path
       inkscape:connector-curvature="0"
       style="fill:none;stroke:#000000;stroke-width:0.1634123;stroke-linecap:round;stroke-linejoin:round;stroke-miterlimit:4;stroke-opacity:1;stroke-dasharray:none"
       id="path24-0"
       d="m 102.43191,8.7676115 c 0.64599,-0.08291 1.24522,-0.184779 1.786,-0.303151" />
    <path
       d="m 89.356583,-11.795555 c 1.210051,-0.130652 1.541104,0.01365 2.585832,0.278495 0.06827,0.01728 0.139493,0.03518 0.214245,0.05373"
       id="path34-1"
       style="fill:none;stroke:#1e1e1e;stroke-width:0.08170615;stroke-linecap:round;stroke-linejoin:round;stroke-miterlimit:4;stroke-opacity:1;stroke-dasharray:none"
       inkscape:connector-curvature="0" />
    <path
       d="m 107.58609,-12.287222 c -1.60918,0.989617 -5.03374,1.523423 -8.722257,1.523423 -1.918036,0 -3.706591,-0.144893 -5.214298,-0.395"
       id="path36-4"
       style="fill:none;stroke:#1e1e1e;stroke-width:0.08170615;stroke-linecap:round;stroke-linejoin:round;stroke-miterlimit:4;stroke-opacity:1;stroke-dasharray:none"
       inkscape:connector-curvature="0" />
    <path
       d="m 104.14414,-15.193788 c 1.42922,0.266607 2.73112,0.715934 3.25039,1.068304 0.23832,0.16179 0.37643,0.348632 0.37643,0.568483"
       id="path38-0"
       style="fill:none;stroke:#1e1e1e;stroke-width:0.08170615;stroke-linecap:round;stroke-linejoin:round;stroke-miterlimit:4;stroke-opacity:1;stroke-dasharray:none"
       inkscape:connector-curvature="0" />
    <path
       d="m 89.452358,-12.909929 c 0.308854,-0.75847 0.488031,-1.384617 2.189064,-1.890428 1.755453,-0.521922 4.278906,-0.849241 7.083115,-0.849241 1.389623,0 2.710483,0.08036 3.902863,0.224957"
       id="path40-7"
       style="fill:none;stroke:#1e1e1e;stroke-width:0.08170615;stroke-linecap:round;stroke-linejoin:round;stroke-miterlimit:4;stroke-opacity:1;stroke-dasharray:none"
       inkscape:connector-curvature="0" />
    <g
       id="g9576"
       transform="matrix(0.93922174,0,0,0.93922174,124.55624,-17.524761)">
      <path
         inkscape:connector-curvature="0"
         style="fill:none;stroke:#1e1e1e;stroke-width:0.13904472;stroke-linecap:round;stroke-linejoin:round;stroke-miterlimit:4;stroke-opacity:1;stroke-dasharray:none"
         id="path105-8"
         d="m 31.551241,35.432183 c 0,-0.600372 -1.296032,-1.129975 -3.268107,-1.443368" />
      <path
         inkscape:connector-curvature="0"
         style="fill:none;stroke:#1e1e1e;stroke-width:0.13904472;stroke-linecap:round;stroke-linejoin:round;stroke-miterlimit:4;stroke-opacity:1;stroke-dasharray:none"
         id="path101-0"
         d="m 17.272271,36.263253 c -1.176448,-0.554788 -1.44582,-1.257914 -1.44582,-1.85138" />
      <path
         inkscape:connector-curvature="0"
         style="fill:none;stroke:#1e1e1e;stroke-width:0.13904472;stroke-linecap:round;stroke-linejoin:round;stroke-miterlimit:4;stroke-opacity:1;stroke-dasharray:none"
         id="path107-9"
         d="m 26.080693,33.751434 c -0.625112,-0.04 -1.283327,-0.06152 -1.962713,-0.06152 -4.105421,0 -7.433488,0.780027 -7.433488,1.742272" />
      <path
         inkscape:connector-curvature="0"
         style="fill:none;stroke:#1e1e1e;stroke-width:0.13904472;stroke-linecap:round;stroke-linejoin:round;stroke-miterlimit:4;stroke-opacity:1;stroke-dasharray:none"
         id="path103-2"
         d="m 32.399474,34.411873 c 0,1.186927 -1.069903,2.812508 -8.276702,2.812508 -2.481285,0 -4.235038,-0.192693 -5.4681,-0.493826" />
      <path
         inkscape:connector-curvature="0"
         style="fill:none;stroke:#1e1e1e;stroke-width:0.13904472;stroke-linecap:round;stroke-linejoin:round;stroke-miterlimit:4;stroke-opacity:1;stroke-dasharray:none"
         id="path111-9"
         d="M 32.034592,33.693035 C 31.569965,33.388893 30.904506,33.116514 30.08748,32.889936" />
      <path
         inkscape:connector-curvature="0"
         style="fill:none;stroke:#1e1e1e;stroke-width:0.13904472;stroke-linecap:round;stroke-linejoin:round;stroke-miterlimit:4;stroke-opacity:1;stroke-dasharray:none"
         id="path109-8"
         d="m 27.124627,32.351531 c -0.936721,-0.100974 -1.949342,-0.156471 -3.006759,-0.156471 -3.531573,0 -6.568875,0.615305 -7.916728,1.497975" />
      <path
         d="m 27.900529,22.014039 c 0.652755,-0.08381 1.258475,-0.186788 1.805018,-0.306482"
         id="path75-2"
         style="fill:none;stroke:#000000;stroke-width:0.18539296;stroke-linecap:round;stroke-linejoin:round;stroke-miterlimit:4;stroke-opacity:1;stroke-dasharray:none"
         inkscape:connector-curvature="0" />
      <path
         d="m 27.900529,24.879259 c 0.652755,-0.08358 1.258475,-0.186788 1.805018,-0.30626"
         id="path77-0"
         style="fill:none;stroke:#000000;stroke-width:0.18539296;stroke-linecap:round;stroke-linejoin:round;stroke-miterlimit:4;stroke-opacity:1;stroke-dasharray:none"
         inkscape:connector-curvature="0" />
      <path
         d="m 27.900529,27.764321 c 0.652755,-0.08358 1.258475,-0.186788 1.805018,-0.30626"
         id="path79-9"
         style="fill:none;stroke:#000000;stroke-width:0.18539296;stroke-linecap:round;stroke-linejoin:round;stroke-miterlimit:4;stroke-opacity:1;stroke-dasharray:none"
         inkscape:connector-curvature="0" />
      <path
         d="m 29.705547,30.390264 c -0.546543,0.119472 -1.152263,0.222675 -1.805018,0.306482 l 0,-11.648902 c 0.652755,-0.08381 1.258475,-0.18701 1.805018,-0.306259"
         id="path81-8"
         style="fill:none;stroke:#000000;stroke-width:0.23174119;stroke-linecap:round;stroke-linejoin:round;stroke-miterlimit:4;stroke-opacity:1;stroke-dasharray:none"
         inkscape:connector-curvature="0" />
      <path
         inkscape:connector-curvature="0"
         style="fill:none;stroke:#323232;stroke-width:0.18539296;stroke-linecap:round;stroke-linejoin:round;stroke-miterlimit:4;stroke-opacity:1;stroke-dasharray:none"
         id="path85-1"
         d="m 13.664357,12.586409 c 0.117354,-0.07211 0.384496,-0.146108 0.509872,-0.168847 1.011171,-0.183442 1.709731,-0.146553 2.918053,0.116798 1.740038,0.379369 4.144311,0.61397 6.799903,0.61397 3.89467,0 7.106941,-0.534173 8.62587,-1.234179 0.366777,-0.169065 0.562033,-0.399318 0.601151,-0.565935" />
      <path
         inkscape:connector-curvature="0"
         style="fill:none;stroke:#323232;stroke-width:0.23174119;stroke-linecap:round;stroke-linejoin:round;stroke-miterlimit:4;stroke-opacity:1;stroke-dasharray:none"
         id="path87-7"
         d="m 33.050333,13.183212 0,21.460254 c 0,1.223366 -1.153826,3.274234 -8.925892,3.274234 -7.771956,0 -8.925888,-2.050868 -8.925888,-3.274234 l 0,-19.600851 c 0,0 0.109331,-1.656565 -1.506892,-1.859403 -0.06698,-0.0083 -0.304587,0.06966 -0.37759,0.06698 -0.463288,-0.01747 -0.571284,-0.64729 0.212534,-1.383963 0.929922,-0.873645 0.493271,-1.833216 2.341305,-2.4854101 1.769909,-0.6245564 4.796065,-1.1140355 8.256531,-1.1140355 5.431767,0 9.834975,1.1104714 9.834975,2.4408276 0,0.963692 -0.909083,1.061769 -0.909083,2.475599 z" />
      <path
         inkscape:connector-curvature="0"
         style="fill:none;stroke:#1e1e1e;stroke-width:0.09269648;stroke-linecap:round;stroke-linejoin:round;stroke-miterlimit:4;stroke-opacity:1;stroke-dasharray:none"
         id="path89-3"
         d="m 14.654017,12.861351 c 1.204642,-0.129951 1.534419,0.01358 2.574116,0.277283 0.06809,0.01729 0.13898,0.03509 0.213202,0.05349" />
      <path
         inkscape:connector-curvature="0"
         style="fill:none;stroke:#1e1e1e;stroke-width:0.09269648;stroke-linecap:round;stroke-linejoin:round;stroke-miterlimit:4;stroke-opacity:1;stroke-dasharray:none"
         id="path91-3"
         d="m 32.800353,12.371983 c -1.601846,0.985202 -5.010712,1.516584 -8.682373,1.516584 -1.909446,0 -3.689719,-0.144212 -5.190706,-0.393408" />
      <path
         inkscape:connector-curvature="0"
         style="fill:none;stroke:#1e1e1e;stroke-width:0.09269648;stroke-linecap:round;stroke-linejoin:round;stroke-miterlimit:4;stroke-opacity:1;stroke-dasharray:none"
         id="path93-0"
         d="m 29.454567,9.4787826 c 1.430547,0.2652509 2.733712,0.7126044 3.253285,1.0633304 0.238832,0.161264 0.376917,0.347162 0.376917,0.566047" />
      <path
         inkscape:connector-curvature="0"
         style="fill:none;stroke:#1e1e1e;stroke-width:0.09269648;stroke-linecap:round;stroke-linejoin:round;stroke-miterlimit:4;stroke-opacity:1;stroke-dasharray:none"
         id="path95-7"
         d="m 14.749193,11.752219 c 0.309046,-0.755064 0.488589,-1.378392 2.191294,-1.8819143 1.756872,-0.519573 4.282735,-0.8454475 7.089667,-0.8454475 1.390879,0 2.712985,0.08002 3.906262,0.2240103" />
    </g>
    <g
       id="g9530"
       transform="matrix(0.3518805,0,0,0.3518805,34.411938,15.089778)">
      <path
         inkscape:connector-curvature="0"
         style="fill:none;stroke:#1e1e1e;stroke-width:0.30000001;stroke-linecap:round;stroke-linejoin:round;stroke-miterlimit:4;stroke-opacity:1;stroke-dasharray:none"
         id="path116-4"
         d="m -65.713403,-13.01652 c 4.79474,-0.51747 6.10692,0.0541 10.24617,1.10346 0.27028,0.0685 0.55234,0.13971 0.84858,0.21305" />
      <path
         inkscape:connector-curvature="0"
         style="fill:none;stroke:#1e1e1e;stroke-width:0.30000001;stroke-linecap:round;stroke-linejoin:round;stroke-miterlimit:4;stroke-opacity:1;stroke-dasharray:none"
         id="path120-0"
         d="m -6.76237,-26.09481 c 5.6854,1.01954 10.86415,2.73786 12.92969,4.08562 0.94861,0.61919 1.49782,1.33335 1.49782,2.17423" />
      <path
         inkscape:connector-curvature="0"
         style="fill:none;stroke:#1e1e1e;stroke-width:0.30000001;stroke-linecap:round;stroke-linejoin:round;stroke-miterlimit:4;stroke-opacity:1;stroke-dasharray:none"
         id="path122-8"
         d="m -66.944073,-15.36388 c 1.07509,-0.7976 2.00687,-2.63374 2.13936,-2.94321 1.06211,-2.4796 2.29325,-4.56318 8.30904,-6.28318 6.98292,-1.99628 17.02085,-3.24835 28.17572,-3.24835 5.527663,0 10.781683,0.30755 15.524963,0.8606" />
      <path
         inkscape:connector-curvature="0"
         style="fill:none;stroke:#1e1e1e;stroke-width:0.5;stroke-linecap:round;stroke-linejoin:round;stroke-miterlimit:4;stroke-opacity:1;stroke-dasharray:none"
         id="path128-7"
         d="m -55.291453,76.31162 c -4.68293,-2.26055 -5.75489,-5.12585 -5.75489,-7.54414" />
      <path
         inkscape:connector-curvature="0"
         style="fill:none;stroke:#1e1e1e;stroke-width:0.5;stroke-linecap:round;stroke-linejoin:round;stroke-miterlimit:4;stroke-opacity:1;stroke-dasharray:none"
         id="path130-3"
         d="m 4.9203,68.76748 c 0,4.83658 -4.25852,11.46049 -32.94425,11.46049 -9.876343,0 -16.857093,-0.78534 -21.765333,-2.0124" />
      <path
         inkscape:connector-curvature="0"
         style="fill:none;stroke:#1e1e1e;stroke-width:0.5;stroke-linecap:round;stroke-linejoin:round;stroke-miterlimit:4;stroke-opacity:1;stroke-dasharray:none"
         id="path132-0"
         d="m 1.54354,73.35975 c 0,-2.39015 -5.15855,-4.49777 -13.00808,-5.74479" />
      <path
         inkscape:connector-curvature="0"
         style="fill:none;stroke:#1e1e1e;stroke-width:0.5;stroke-linecap:round;stroke-linejoin:round;stroke-miterlimit:4;stroke-opacity:1;stroke-dasharray:none"
         id="path134-7"
         d="m -20.23069,66.66972 c -2.48922,-0.15942 -5.1083,-0.24503 -7.81321,-0.24503 -16.340603,0 -29.587213,3.10456 -29.587213,6.93506" />
      <path
         inkscape:connector-curvature="0"
         style="fill:none;stroke:#1e1e1e;stroke-width:0.5;stroke-linecap:round;stroke-linejoin:round;stroke-miterlimit:4;stroke-opacity:1;stroke-dasharray:none"
         id="path136-6"
         d="m -16.07509,61.04443 c -3.72878,-0.40204 -7.75935,-0.62326 -11.96857,-0.62326 -14.056723,0 -26.146733,2.45003 -31.511363,5.96337" />
      <path
         inkscape:connector-curvature="0"
         style="fill:none;stroke:#1e1e1e;stroke-width:0.5;stroke-linecap:round;stroke-linejoin:round;stroke-miterlimit:4;stroke-opacity:1;stroke-dasharray:none"
         id="path138-4"
         d="M 3.46769,66.38454 C 1.61857,65.17359 -1.03008,64.08912 -4.28252,63.1874" />
      <path
         inkscape:connector-curvature="0"
         style="fill:none;stroke:#323232;stroke-width:0.80000001;stroke-linecap:round;stroke-linejoin:round;stroke-miterlimit:4;stroke-opacity:1;stroke-dasharray:none"
         id="path140-2"
         d="m -68.439003,-13.35461 c 0.46361,-0.32437 1.51874,-0.65693 2.0136,-0.75912 3.99402,-0.82526 6.7528,-0.6591 11.52493,0.52516 6.87327,1.70581 16.36849,2.7607 26.856813,2.7607 15.38308,0 27.66498,-2.40194 33.66442,-5.54954 1.44828,-0.75985 2.23963,-1.7955 2.394,-2.54477" />
      <path
         inkscape:connector-curvature="0"
         style="fill:none;stroke:#1e1e1e;stroke-width:0.30000001;stroke-linecap:round;stroke-linejoin:round;stroke-miterlimit:4;stroke-opacity:1;stroke-dasharray:none"
         id="path118-2"
         d="m 6.51598,-14.96472 c -6.37623,3.92116 -19.94434,6.03647 -34.55964,6.03647 -7.599453,0 -14.686483,-0.57421 -20.660673,-1.56538" />
      <path
         inkscape:connector-curvature="0"
         style="fill:none;stroke:#323232;stroke-width:0.80000001;stroke-linecap:round;stroke-linejoin:round;stroke-miterlimit:4;stroke-opacity:1;stroke-dasharray:none"
         id="path142-1"
         d="m 6.42677,-10.69321 0,80.13325 c 0,4.72453 -4.45569,12.64499 -34.47043,12.64499 -30.014513,0 -34.470443,-7.92022 -34.470443,-12.64499 l 0,-72.95244 c 0,0 0.41166,-6.69821 -5.58104,-7.6247 -0.32967,-0.051 -1.20782,0.2395 -1.57741,0.22555 -1.68994,-0.0637 -1.93232,-2.39232 0.7019,-4.86784 3.59077,-3.37411 1.90467,-7.07958 9.04172,-9.59838 6.83479,-2.41204 18.52155,-4.30228 31.885273,-4.30228 20.97663,0 37.98137,4.28858 37.98137,9.42597 -2.4e-4,3.72206 -3.51094,4.10126 -3.51094,9.56087 z" />
      <path
         d="m -12.24122,19.9852 c 2.52097,-0.32342 4.85991,-0.72162 6.97041,-1.18306"
         id="path154-3"
         style="fill:none;stroke:#161413;stroke-width:0.72137529;stroke-linecap:round;stroke-linejoin:round"
         inkscape:connector-curvature="0" />
      <path
         d="m -12.24122,30.75749 c 2.52097,-0.32341 4.85991,-0.72161 6.97041,-1.18305"
         id="path156-6"
         style="fill:none;stroke:#161413;stroke-width:0.72137529;stroke-linecap:round;stroke-linejoin:round"
         inkscape:connector-curvature="0" />
      <path
         d="m -12.24122,41.53003 c 2.52097,-0.32342 4.85991,-0.72161 6.97041,-1.18305"
         id="path158-2"
         style="fill:none;stroke:#161413;stroke-width:0.72137529;stroke-linecap:round;stroke-linejoin:round"
         inkscape:connector-curvature="0" />
      <path
         d="m -12.24122,52.30257 c 2.52097,-0.32342 4.85991,-0.72162 6.97041,-1.18306"
         id="path160-2"
         style="fill:none;stroke:#161413;stroke-width:0.72137529;stroke-linecap:round;stroke-linejoin:round"
         inkscape:connector-curvature="0" />
      <path
         d="m -5.27081,61.89181 c -2.1105,0.46144 -4.44944,0.85964 -6.97041,1.18306 l 0,-53.86221 C -9.72025,8.88924 -7.38131,8.49104 -5.27081,8.0296"
         id="path162-1"
         style="fill:none;stroke:#000000;stroke-width:0.5;stroke-linecap:round;stroke-linejoin:round;stroke-miterlimit:4;stroke-opacity:1;stroke-dasharray:none"
         inkscape:connector-curvature="0" />
    </g>
  </g>
</svg>
