<?xml version="1.0" encoding="UTF-8" standalone="no"?>
<!-- Generator: Adobe Illustrator 19.0.0, SVG Export Plug-In . SVG Version: 6.00 Build 0)  -->

<svg
   xmlns:dc="http://purl.org/dc/elements/1.1/"
   xmlns:cc="http://creativecommons.org/ns#"
   xmlns:rdf="http://www.w3.org/1999/02/22-rdf-syntax-ns#"
   xmlns:svg="http://www.w3.org/2000/svg"
   xmlns="http://www.w3.org/2000/svg"
   xmlns:sodipodi="http://sodipodi.sourceforge.net/DTD/sodipodi-0.dtd"
   xmlns:inkscape="http://www.inkscape.org/namespaces/inkscape"
   version="1.1"
   id="Layer_1"
   x="0px"
   y="0px"
   viewBox="0 0 48 48"
   xml:space="preserve"
   inkscape:version="0.91 r13725"
   sodipodi:docname="1000mLVolumetricFlask.svg"
   width="48"
   height="48"><metadata
     id="metadata3481"><rdf:RDF><cc:Work
         rdf:about=""><dc:format>image/svg+xml</dc:format><dc:type
           rdf:resource="http://purl.org/dc/dcmitype/StillImage" /><dc:title></dc:title></cc:Work></rdf:RDF></metadata><defs
     id="defs3479" /><sodipodi:namedview
     pagecolor="#ffffff"
     bordercolor="#666666"
     borderopacity="1"
     objecttolerance="10"
     gridtolerance="10"
     guidetolerance="10"
     inkscape:pageopacity="0"
     inkscape:pageshadow="2"
     inkscape:window-width="1920"
     inkscape:window-height="949"
     id="namedview3477"
     showgrid="false"
     inkscape:zoom="1.1919192"
     inkscape:cx="14.872883"
     inkscape:cy="93.966104"
     inkscape:window-x="0"
     inkscape:window-y="0"
     inkscape:window-maximized="1"
     inkscape:current-layer="Layer_1" /><style
     type="text/css"
     id="style3415">
        .st0{fill:none;stroke:#000000;stroke-miterlimit:10;}
        .st1{fill:none;stroke:#000000;stroke-width:0.5;stroke-miterlimit:10;}
        .st2{fill:#CBE9FA;stroke:#000000;stroke-miterlimit:10;}
        .st3{fill:none;stroke:#4D4D4F;stroke-miterlimit:10;}
        .st4{fill:none;stroke:#010101;stroke-miterlimit:10;}
        .st5{fill:none;stroke:#010101;stroke-width:0.5;stroke-miterlimit:10;}
        .st6{fill:#CBE8F9;stroke:#010101;stroke-miterlimit:10;}
    </style><g
     id="vf1000"
     inkscape:label="#g3548"
     transform="matrix(0.133334,0,0,0.133334,11.559938,-33.220287)"><line
       y2="303.79999"
       x2="103.2"
       y1="426"
       x1="103.2"
       class="st0"
       id="XMLID_62_"
       style="fill:none;stroke:#000000;stroke-miterlimit:10" /><polyline
       points="88,561.8 102.6,561.8 111.7,560.8 119.9,559.8 125.1,558.2 128,557.3 131.4,556.2   132.8,555.1 135.3,553.8 139,551.5 142.9,548.2 146.4,544.8 149.9,540.1 151.9,535.7 153.6,530.4 155.1,517.9 155.1,508.8   153.7,502 152.8,497.8 151.9,495.3 148.8,489.9 145.4,484.5 140.2,476.9 136.5,471.8 133,468 128.9,463.8 124.4,458.7 118.7,452.7   113.9,446.7 109.9,441.8 106.4,436.6 104.1,431.4 103.2,428 103.2,425.3 "
       class="st0"
       id="XMLID_14_"
       style="fill:none;stroke:#000000;stroke-miterlimit:10" /><polyline
       points="98.6,561.8 84,561.8 74.9,560.8 66.7,559.8 61.6,558.2 58.6,557.3 55.2,556.2   53.8,555.1 51.3,553.8 47.6,551.5 43.7,548.2 40.2,544.8 36.8,540.1 34.7,535.7 33,530.4 31.5,517.9 31.5,508.8 32.9,502   33.8,497.8 34.7,495.3 37.8,489.9 41.3,484.5 46.4,476.9 50.1,471.8 53.7,468 57.7,463.8 62.2,458.7 67.9,452.7 72.7,446.7   76.8,441.8 80.2,436.6 82.5,431.4 83.4,428 83.4,425.3 "
       class="st0"
       id="XMLID_60_"
       style="fill:none;stroke:#000000;stroke-miterlimit:10" /><line
       y2="303.79999"
       x2="83.400002"
       y1="426"
       x1="83.400002"
       class="st0"
       id="XMLID_61_"
       style="fill:none;stroke:#000000;stroke-miterlimit:10" /><path
       d="m 56.1,550.1 c -0.1,4.2 11,7.7 24.7,8"
       class="st0"
       id="XMLID_17_"
       inkscape:connector-curvature="0"
       style="fill:none;stroke:#000000;stroke-miterlimit:10" /><path
       d="m 131.2,550.3 c 0.1,-6 -12.8,-11 -28.8,-11.3"
       class="st0"
       id="XMLID_18_"
       inkscape:connector-curvature="0"
       style="fill:none;stroke:#000000;stroke-miterlimit:10" /><path
       d="m 131.3,552.4 c -0.1,3.6 -21.4,6.1 -47.7,5.6"
       class="st0"
       id="XMLID_19_"
       inkscape:connector-curvature="0"
       style="fill:none;stroke:#000000;stroke-miterlimit:10" /><path
       d="m 56.2,547.5 c 0.1,-5.2 19.4,-9 43.2,-8.6"
       class="st0"
       id="XMLID_20_"
       inkscape:connector-curvature="0"
       style="fill:none;stroke:#000000;stroke-miterlimit:10" /><ellipse
       ry="2"
       rx="9.8999996"
       cy="370.20001"
       cx="93.300003"
       class="st1"
       id="XMLID_4_"
       style="fill:none;stroke:#000000;stroke-width:0.5;stroke-miterlimit:10" /><line
       y2="302.20001"
       x2="81.199997"
       y1="299.70001"
       x1="81.199997"
       class="st0"
       id="XMLID_8_"
       style="fill:none;stroke:#000000;stroke-miterlimit:10" /><line
       y2="302.20001"
       x2="105.4"
       y1="299.70001"
       x1="105.4"
       class="st0"
       id="XMLID_9_"
       style="fill:none;stroke:#000000;stroke-miterlimit:10" /><path
       d="M 80.3,298.9"
       class="st2"
       id="XMLID_16_"
       inkscape:connector-curvature="0"
       style="fill:#cbe9fa;stroke:#000000;stroke-miterlimit:10" /><path
       d="m 104.4,300.9 c 0.7,0.4 1,0.8 1,1.3 0,1.8 -5.4,3.2 -12.1,3.2 -6.7,0 -12.1,-1.4 -12.1,-3.2 0,-0.4 0.3,-0.9 1,-1.2"
       class="st0"
       id="XMLID_6_"
       inkscape:connector-curvature="0"
       style="fill:none;stroke:#000000;stroke-miterlimit:10" /><path
       d="m 82.1,300.9 c 1.8,-1.1 6.1,-1.9 11.2,-1.9 5,0 9.2,0.8 11.1,1.9"
       class="st3"
       id="XMLID_1_"
       inkscape:connector-curvature="0"
       style="fill:none;stroke:#4d4d4f;stroke-miterlimit:10" /><ellipse
       ry="3.2"
       rx="12.1"
       cy="299.70001"
       cx="93.300003"
       class="st0"
       id="XMLID_5_"
       style="fill:none;stroke:#000000;stroke-miterlimit:10" /></g></svg>