<?xml version="1.0" encoding="UTF-8" standalone="no"?>
<!-- Generator: Adobe Illustrator 19.0.0, SVG Export Plug-In . SVG Version: 6.00 Build 0)  -->

<svg
   xmlns:dc="http://purl.org/dc/elements/1.1/"
   xmlns:cc="http://creativecommons.org/ns#"
   xmlns:rdf="http://www.w3.org/1999/02/22-rdf-syntax-ns#"
   xmlns:svg="http://www.w3.org/2000/svg"
   xmlns="http://www.w3.org/2000/svg"
   xmlns:sodipodi="http://sodipodi.sourceforge.net/DTD/sodipodi-0.dtd"
   xmlns:inkscape="http://www.inkscape.org/namespaces/inkscape"
   version="1.1"
   id="Layer_1"
   x="0px"
   y="0px"
   viewBox="0 0 48 48"
   xml:space="preserve"
   inkscape:version="0.91 r13725"
   sodipodi:docname="100mLVolumetricFlask.svg"
   width="48"
   height="48"><metadata
     id="metadata3481"><rdf:RDF><cc:Work
         rdf:about=""><dc:format>image/svg+xml</dc:format><dc:type
           rdf:resource="http://purl.org/dc/dcmitype/StillImage" /><dc:title></dc:title></cc:Work></rdf:RDF></metadata><defs
     id="defs3479" /><sodipodi:namedview
     pagecolor="#ffffff"
     bordercolor="#666666"
     borderopacity="1"
     objecttolerance="10"
     gridtolerance="10"
     guidetolerance="10"
     inkscape:pageopacity="0"
     inkscape:pageshadow="2"
     inkscape:window-width="1920"
     inkscape:window-height="949"
     id="namedview3477"
     showgrid="false"
     inkscape:zoom="1.1919192"
     inkscape:cx="14.872883"
     inkscape:cy="228.20339"
     inkscape:window-x="0"
     inkscape:window-y="0"
     inkscape:window-maximized="1"
     inkscape:current-layer="Layer_1" /><style
     type="text/css"
     id="style3415">
        .st0{fill:none;stroke:#000000;stroke-miterlimit:10;}
        .st1{fill:none;stroke:#000000;stroke-width:0.5;stroke-miterlimit:10;}
        .st2{fill:#CBE9FA;stroke:#000000;stroke-miterlimit:10;}
        .st3{fill:none;stroke:#4D4D4F;stroke-miterlimit:10;}
        .st4{fill:none;stroke:#010101;stroke-miterlimit:10;}
        .st5{fill:none;stroke:#010101;stroke-width:0.5;stroke-miterlimit:10;}
        .st6{fill:#CBE8F9;stroke:#010101;stroke-miterlimit:10;}
    </style><g
     id="vf100"
     inkscape:label="#g3599"
     transform="matrix(0.133334,0,0,0.133334,-45.060345,-38.106977)"><line
       y2="377.60001"
       x2="525.5"
       y1="489.60001"
       x1="525.5"
       class="st4"
       id="XMLID_39_"
       style="fill:none;stroke:#010101;stroke-miterlimit:10" /><polyline
       points="517.6,559.6 525.2,559.6 529.9,559.1 534.1,558.7 536.8,557.8 538.3,557.4   540.1,556.8 540.8,556.3 542.1,555.6 544,554.4 546,552.8 547.8,551.1 549.6,548.7 550.6,546.5 551.5,543.9 552.3,537.6   552.3,532.9 551.6,529.5 551.1,527.4 550.6,526.1 549,523.4 547.3,520.7 544.6,516.8 542.7,514.2 540.9,512.3 538.8,510.2   536.5,507.6 533.5,504.6 531,501.6 528.9,499.1 527.2,496.5 526,493.9 525.5,492.2 525.5,489.6 "
       class="st4"
       id="XMLID_38_"
       style="fill:none;stroke:#010101;stroke-miterlimit:10" /><line
       y2="377.60001"
       x2="510.39999"
       y1="489.79999"
       x1="510.39999"
       class="st4"
       id="XMLID_37_"
       style="fill:none;stroke:#010101;stroke-miterlimit:10" /><polyline
       points="518.3,559.6 510.7,559.6 506,559.1 501.8,558.7 499.1,557.8 497.6,557.4 495.8,556.8   495.1,556.3 493.8,555.6 491.9,554.4 489.9,552.8 488.1,551.1 486.3,548.7 485.3,546.5 484.4,543.8 483.6,537.6 483.6,532.9   484.3,529.5 484.8,527.4 485.3,526.1 486.9,523.4 488.6,520.7 491.3,516.8 493.2,514.2 495,512.3 497.1,510.2 499.4,507.6   502.4,504.6 504.9,501.6 507,499.1 508.7,496.5 509.9,493.9 510.4,492.2 510.4,489.6 "
       class="st4"
       id="XMLID_36_"
       style="fill:none;stroke:#010101;stroke-miterlimit:10" /><path
       d="m 494.8,552.8 c 0,2.3 6.7,4.2 15,4.3"
       class="st4"
       id="XMLID_35_"
       inkscape:connector-curvature="0"
       style="fill:none;stroke:#010101;stroke-miterlimit:10" /><path
       d="m 540.6,553 c 0.1,-3.3 -7.8,-6 -17.6,-6.1"
       class="st4"
       id="XMLID_34_"
       inkscape:connector-curvature="0"
       style="fill:none;stroke:#010101;stroke-miterlimit:10" /><path
       d="m 540.6,554.2 c 0,1.9 -13,3.4 -29.1,3.1"
       class="st4"
       id="XMLID_33_"
       inkscape:connector-curvature="0"
       style="fill:none;stroke:#010101;stroke-miterlimit:10" /><path
       d="m 494.8,551.5 c 0.1,-2.8 11.8,-4.9 26.3,-4.7"
       class="st4"
       id="XMLID_32_"
       inkscape:connector-curvature="0"
       style="fill:none;stroke:#010101;stroke-miterlimit:10" /><ellipse
       ry="1.8"
       rx="7.5"
       cy="438.20001"
       cx="517.90002"
       class="st5"
       id="XMLID_31_"
       style="fill:none;stroke:#010101;stroke-width:0.5;stroke-miterlimit:10" /><line
       y2="376.29999"
       x2="508.89999"
       y1="374.39999"
       x1="508.89999"
       class="st4"
       id="XMLID_29_"
       style="fill:none;stroke:#010101;stroke-miterlimit:10" /><line
       y2="376.29999"
       x2="526.90002"
       y1="374.39999"
       x1="526.90002"
       class="st4"
       id="XMLID_28_"
       style="fill:none;stroke:#010101;stroke-miterlimit:10" /><path
       d="M 508.1,373.9"
       class="st6"
       id="XMLID_22_"
       inkscape:connector-curvature="0"
       style="fill:#cbe8f9;stroke:#010101;stroke-miterlimit:10" /><path
       d="m 526,375.4 c 0.6,0.3 0.9,0.7 0.9,1.1 0,1.3 -4,2.4 -9,2.4 -5,0 -9,-1.1 -9,-2.4 0,-0.3 0.3,-0.6 0.7,-0.9"
       class="st0"
       id="XMLID_13_"
       inkscape:connector-curvature="0"
       style="fill:none;stroke:#000000;stroke-miterlimit:10" /><path
       d="m 509.6,375.5 c 1.4,-0.9 4.6,-1.5 8.3,-1.5 3.5,0 6.6,0.5 8.1,1.3"
       class="st3"
       id="XMLID_7_"
       inkscape:connector-curvature="0"
       style="fill:none;stroke:#4d4d4f;stroke-miterlimit:10" /><ellipse
       ry="2.4000001"
       rx="9"
       cy="374.39999"
       cx="517.90002"
       class="st0"
       id="XMLID_30_"
       style="fill:none;stroke:#000000;stroke-miterlimit:10" /></g></svg>