<?xml version="1.0" encoding="UTF-8" standalone="no"?>
<svg
   xmlns:dc="http://purl.org/dc/elements/1.1/"
   xmlns:cc="http://creativecommons.org/ns#"
   xmlns:rdf="http://www.w3.org/1999/02/22-rdf-syntax-ns#"
   xmlns:svg="http://www.w3.org/2000/svg"
   xmlns="http://www.w3.org/2000/svg"
   xmlns:sodipodi="http://sodipodi.sourceforge.net/DTD/sodipodi-0.dtd"
   xmlns:inkscape="http://www.inkscape.org/namespaces/inkscape"
   version="1.1"
   id="Layer_1"
   x="0px"
   y="0px"
   viewBox="0 0 48 48"
   xml:space="preserve"
   inkscape:version="0.91 r13725"
   sodipodi:docname="10mLPipette.svg"
   width="48"
   height="48"><metadata
     id="metadata365"><rdf:rdf><cc:work
         rdf:about=""><dc:format>image/svg+xml</dc:format><dc:type
           rdf:resource="http://purl.org/dc/dcmitype/StillImage" /><dc:title /></cc:work></rdf:rdf><rdf:RDF><cc:Work
         rdf:about=""><dc:format>image/svg+xml</dc:format><dc:type
           rdf:resource="http://purl.org/dc/dcmitype/StillImage" /><dc:title></dc:title></cc:Work></rdf:RDF></metadata><defs
     id="defs363"><clipPath
       clipPathUnits="userSpaceOnUse"
       id="clipPath4315"><path
         sodipodi:nodetypes="sscccccccccsccsccsccccssssccsccscsccs"
         style="fill:none;stroke:#000000;stroke-width:0.25076491;stroke-linecap:round;stroke-linejoin:round;stroke-miterlimit:10"
         inkscape:connector-curvature="0"
         id="path4317"
         d="m 5.5235046,105.35128 0,47.5842 c 0,0.60374 -0.1406101,1.20749 -0.2531033,1.8336 -0.1124176,0.76027 -0.2812076,1.54291 -0.3937007,2.30318 -0.1124177,0.6932 -0.2530907,1.38639 -0.3655838,2.05722 -0.028167,0.1118 -0.1124177,0.26832 -0.1687271,0.29069 -0.2249737,0.0224 -0.4780643,0 -0.703038,-0.0224 -0.056209,0 -0.084376,-0.13416 -0.1125434,-0.20124 -0.056209,-0.31305 -0.1406101,-0.62611 -0.1968567,-0.96152 -0.1406101,-0.78264 -0.2249737,-1.58763 -0.4218177,-2.37027 -0.3655838,-1.5429 -0.4499474,-3.08582 -0.4499474,-4.62873 0.028167,-15.27256 0,-30.54513 0,-45.81768 0,-0.46958 0.028167,-0.96152 -0.4218303,-1.34167 -0.1687271,-0.15652 -0.3655838,-0.29069 -0.5624405,-0.42485 -0.5624278,-0.35778 -0.84364805,-0.82736 -0.84364805,-1.40875 0,-4.964134 0.028167,-9.905909 0,-14.87005 0,-0.715561 0.33746675,-1.252224 1.01238775,-1.632357 0.6186745,-0.357775 0.8155311,-0.827357 0.8155311,-1.408745 l 0,-0.201245 6.5e-6,-8.508345 6.4e-6,-16.960802 0,-7.848712 0,-0.156531 c 0,-0.111806 0.084376,-0.134163 0.2530907,-0.134163 l 2.5028398,0 c 0.2249737,0 0.3093373,0.04469 0.3093373,0.178888 l 0,0.111806 0.014058,24.910151 0.014058,8.452453 c 0,0.424867 -0.028167,0.827357 0.3093373,1.185142 0.1125434,0.111796 0.2249736,0.223602 0.3655837,0.290684 0.8998947,0.447224 1.1529979,1.118051 1.1529979,1.923051 l 0,6.484692 0,7.871063 c 0,0.78263 -0.2812202,1.40875 -1.0967513,1.85596 -0.5343109,0.29069 -0.703038,0.73792 -0.7592904,1.25222 -0.028123,0.11176 4.42e-5,0.22361 4.42e-5,0.31306 z"
         class="st130" /></clipPath></defs><sodipodi:namedview
     pagecolor="#ffffff"
     bordercolor="#666666"
     borderopacity="1"
     objecttolerance="10"
     gridtolerance="10"
     guidetolerance="10"
     inkscape:pageopacity="0"
     inkscape:pageshadow="2"
     inkscape:window-width="1440"
     inkscape:window-height="791"
     id="namedview361"
     showgrid="false"
     inkscape:zoom="3.3712566"
     inkscape:cx="-32.638441"
     inkscape:cy="90.925813"
     inkscape:window-x="0"
     inkscape:window-y="0"
     inkscape:window-maximized="1"
     inkscape:current-layer="Layer_1" /><style
     type="text/css"
     id="style3">
        .st0{fill:#05884E;}
        .st1{fill:#0A8D47;}
        .st2{fill:#287F55;}
        .st3{fill:#6293B2;}
        .st4{fill:#668C9E;}
        .st5{fill:#6799BE;}
        .st6{fill:#08844B;}
        .st7{fill:#77A3C0;}
        .st8{fill:#459460;}
        .st9{fill:#6497B9;}
        .st10{fill:#709DBE;}
        .st11{fill:#6D9DBD;}
        .st12{fill:#32865C;}
        .st13{fill:#629AB8;}
        .st14{fill:#7DA4BF;}
        .st15{fill:#6491B2;}
        .st16{fill:#6A99B4;}
        .st17{fill:#85ADCD;}
        .st18{fill:#5B95AA;}
        .st19{fill:#81AAC8;}
        .st20{fill:#6A99BC;}
        .st21{fill:#76A4C2;}
        .st22{fill:#6496B8;}
        .st23{fill:#78A1C3;}
        .st24{fill:#80A5C2;}
        .st25{fill:#6794BA;}
        .st26{fill:#638DA5;}
        .st27{fill:#768992;}
        .st28{fill:#81A8C6;}
        .st29{fill:#6F96B4;}
        .st30{fill:#6594B6;}
        .st31{fill:#709BB1;}
        .st32{fill:#94B7D2;}
        .st33{fill:#759DB0;}
        .st34{fill:#C4CDD6;}
        .st35{fill:#BECEDC;}
        .st36{fill:#278D52;}
        .st37{fill:#72A1BA;}
        .st38{fill:#588CA7;}
        .st39{fill:#5B8EAD;}
        .st40{fill:#5990B6;}
        .st41{fill:#5599B5;}
        .st42{fill:#6F9DC3;}
        .st43{fill:#AEC7DE;}
        .st44{fill:#598AAD;}
        .st45{fill:#5B96B6;}
        .st46{fill:#6494B6;}
        .st47{fill:#69BD6D;}
        .st48{fill:#6687AD;}
        .st49{fill:#5291AB;}
        .st50{fill:#6084A5;}
        .st51{fill:#6F8792;}
        .st52{fill:#4189AE;}
        .st53{fill:#52939A;}
        .st54{fill:#C1D2D7;}
        .st55{fill:#6185A0;}
        .st56{fill:#5390A8;}
        .st57{fill:#61BA68;}
        .st58{fill:#0AA24D;}
        .st59{fill:#2FB24B;}
        .st60{fill:#BECFD6;}
        .st61{fill:#28AA56;}
        .st62{fill:#09A14C;}
        .st63{fill:#0BA74E;}
        .st64{fill:#09875B;}
        .st65{fill:#078246;}
        .st66{fill:#067F4A;}
        .st67{fill:#83979E;}
        .st68{fill:#BCC7D1;}
        .st69{fill:#88919C;}
        .st70{fill:#F1F2F4;}
        .st71{fill:#E5EBEE;}
        .st72{fill:#BFD5E5;}
        .st73{fill:#0AA64D;}
        .st74{fill:#D0DCDE;}
        .st75{fill:#0A834F;}
        .st76{fill:#0F954E;}
        .st77{fill:#EDF0F4;}
        .st78{fill:#CCDEE6;}
        .st79{fill:#E4EBEF;}
        .st80{fill:#5B93B7;}
        .st81{fill:#BBD0DC;}
        .st82{fill:#F0F2F6;}
        .st83{fill:#5F92A7;}
        .st84{fill:#4B88AC;}
        .st85{fill:#89C688;}
        .st86{fill:#098850;}
        .st87{fill:#489E5C;}
        .st88{fill:#0D844D;}
        .st89{fill:#EBEEF0;}
        .st90{fill:#739FB7;}
        .st91{fill:#F7F7F9;}
        .st92{fill:#C4D8E6;}
        .st93{fill:#F8F8F8;}
        .st94{fill:#EAEDEF;}
        .st95{fill:#7DA6C4;}
        .st96{fill:#3EB458;}
        .st97{fill:#EAF2F7;}
        .st98{fill:#039E53;}
        .st99{fill:#00A057;}
        .st100{fill:#468C6E;}
        .st101{fill:#478C66;}
        .st102{fill:#5AB565;}
        .st103{fill:#14AB4E;}
        .st104{fill:#247F4E;}
        .st105{fill:#CEDFEC;}
        .st106{fill:#478660;}
        .st107{fill:#388158;}
        .st108{fill:#5890B1;}
        .st109{fill:#E9EFF1;}
        .st110{fill:#DAEAF4;}
        .st111{fill:#D8E6F2;}
        .st112{fill:#D6E7F3;}
        .st113{fill:#5E9A72;}
        .st114{fill:#178150;}
        .st115{fill:#80AAC3;}
        .st116{fill:#7FA6C5;}
        .st117{fill:#6498BB;}
        .st118{fill:#76A3C1;}
        .st119{fill:#75A4C7;}
        .st120{fill:#8AAECA;}
        .st121{fill:#6495B7;}
        .st122{fill:#DDE6EF;}
        .st123{fill:#E4F1F8;}
        .st124{fill:#D6E4EE;}
        .st125{fill:#F1F5F8;}
        .st126{fill:#C3D3E1;}
        .st127{fill:#77A3C4;}
        .st128{fill:#EDF3F6;}
        .st129{fill:#DCE9F2;}
        .st130{fill:none;stroke:#000000;stroke-linecap:round;stroke-linejoin:round;stroke-miterlimit:10;}
    </style><path
     class="st0"
     d="m 22.616584,11.478582 c -0.0068,-0.04719 -0.01348,-0.08764 -0.01348,-0.134839 0,-3.1821569 0,-6.3643169 0.0068,-9.5532179 0.0068,-0.03371 0.0068,-0.06068 0.01347,-0.09439 0.404513,-0.02023 0.809022,-0.04045 1.213535,-0.06742 0.175289,0.02023 0.357318,0.04045 0.532607,0.06068 0,0.02698 0.0068,0.04719 0.0068,0.07416 0,0.02023 0.0067,0.04719 0.0067,0.06742 0.02023,0.161805 0.03371,0.323609 0.05394,0.485413 -0.02023,0.04045 -0.04719,0.07416 -0.06742,0.114614 -0.141579,0.101129 -0.175289,0.242708 -0.141579,0.404513 -0.02023,0 -0.04045,0 -0.06068,0 0,-0.182033 0,-0.357319 0,-0.539352 0.262933,-0.128095 0.0809,-0.337093 0.121354,-0.525863 -0.0809,-0.0068 -0.134835,-0.01348 -0.18877,-0.01348 -0.182033,0 -0.364063,0 -0.546092,0 -0.269674,0 -0.532608,0 -0.802282,0 -0.02695,0.08765 -0.06742,0.18203 -0.06742,0.269674 0,3.121482 0,6.242967 0,9.3577049 0,0.02698 -0.0067,0.04719 -0.0067,0.07416 -0.02023,0.02023 -0.04045,0.02023 -0.06068,0.02023 z"
     id="path5"
     inkscape:connector-curvature="0"
     style="fill:#05884e" /><path
     class="st1"
     d="m 22.684003,11.478582 c 0,-0.02698 0.0068,-0.04719 0.0068,-0.07416 0.02023,0 0.04719,0.0068 0.06742,0.0068 0.02023,0.02023 0.04045,0.04045 0.06068,0.06067 0.02695,0 0.04719,0 0.07416,0 0.22248,0 0.444963,0 0.667443,0 0.188774,0 0.377547,0 0.586542,0 0.175289,-0.586542 0.06068,-1.173084 0.08764,-1.7461419 0.06742,0.02023 0.134839,0.04045 0.202258,0.06742 0,0.3775439 -0.0068,0.7550879 0.0068,1.1326339 0,0.114611 0.04719,0.235965 0.06742,0.350575 l 0,0 c -0.01347,0.0068 -0.03371,0.02023 -0.04719,0.02698 0.01347,0.01347 0.02698,0.02023 0.04719,0.03371 0,0 0.02023,0 0.02023,0 -0.0068,0.02695 -0.0068,0.04719 -0.01347,0.07416 -0.0068,0.04045 -0.01347,0.0809 -0.02023,0.121354 -0.579801,0 -1.1596,0 -1.739401,-0.0068 -0.02695,0.01347 -0.05393,-0.02695 -0.07416,-0.04719 z"
     id="path7"
     inkscape:connector-curvature="0"
     style="fill:#0a8d47" /><path
     class="st2"
     d="m 22.684003,11.478582 c 0.02698,0.02023 0.04719,0.06068 0.07416,0.06068 0.579802,0.0068 1.1596,0.0068 1.739402,0.0068 0,0.04719 0,0.08764 0,0.134839 -0.02023,0.0068 -0.04045,0.01347 -0.06068,0.02023 -0.06742,0 -0.141579,-0.0068 -0.208999,-0.0068 -0.02023,-0.0068 -0.03371,-0.0068 -0.05393,0 -0.498897,0 -0.997795,0.0068 -1.496693,0.0068 -0.02023,-0.0068 -0.04045,-0.01348 -0.06742,-0.01348 0,-0.06742 0,-0.141579 0,-0.208995 0.02698,0 0.04719,0 0.07416,0 z"
     id="path9"
     inkscape:connector-curvature="0"
     style="fill:#287f55" /><path
     class="st3"
     d="m 25.171752,8.7144191 c 0,0.829247 0,1.6652379 0,2.4944889 -0.01348,0 -0.03371,0 -0.04719,0 -0.0068,-0.04719 -0.01347,-0.08764 -0.02023,-0.134839 0,-0.04719 0,-0.09439 0,-0.141579 0.0068,-0.741606 0.01347,-1.4832089 0.02023,-2.2248149 l 0.02698,0 0.02023,0.0068 z"
     id="path11"
     inkscape:connector-curvature="0"
     style="fill:#6293b2" /><path
     class="st4"
     d="m 25.124557,11.208908 c 0.01347,0 0.03371,0 0.04719,0 -0.02023,0.04719 -0.04045,0.08764 -0.05393,0.134835 -0.155063,0.02023 -0.316868,0.04045 -0.471931,0.06068 -0.02023,0 -0.04719,0 -0.06742,0 -0.01347,-0.02023 -0.02698,-0.04045 -0.04045,-0.05393 0,0 -0.02023,0 -0.02023,0 0.0068,-0.02023 0.0068,-0.04045 0.0068,-0.06068 l 0,0 c 0.02023,-0.107869 0.04719,-0.208998 0.04719,-0.316868 0.0068,-0.411253 0.01347,-0.822506 0.01347,-1.2337599 0.02023,0 0.04719,0.0068 0.06742,0.0068 0,0.5123819 0,1.0247649 0,1.5438879 0.15506,0 0.276414,0 0.404509,0 0.01347,-0.03371 0.04045,-0.06068 0.06742,-0.0809 z"
     id="path13"
     inkscape:connector-curvature="0"
     style="fill:#668c9e" /><path
     class="st5"
     d="m 22.616584,-0.04326195 c 0.573061,-0.0068 1.139375,-0.0068 1.712436,-0.0068 0.05393,0 0.11461,0.04045 0.168545,0.06742 -0.02023,0 -0.04719,0 -0.06742,0 -0.606768,0 -1.213535,-0.0068 -1.813562,-0.0068 0,-0.02023 0,-0.03371 0,-0.05394 z"
     id="path15"
     inkscape:connector-curvature="0"
     style="fill:#6799be" /><path
     class="st6"
     d="m 24.382954,3.6647621 c 0,0.242708 0,0.485413 0,0.728122 0.04045,0.02023 0.08764,0.04719 0.128095,0.06742 0.02023,0.0068 0.04045,0.0068 0.06068,0.02023 0,0.01347 0,0.03371 0,0.04719 -0.107869,0.0068 -0.215739,0.0068 -0.323609,0.01347 -0.02695,0 -0.04719,-0.0068 -0.07416,-0.0068 0,-0.02023 0,-0.04719 -0.0068,-0.06742 l 0,0 c 0.04045,-0.02023 0.08764,-0.04719 0.128098,-0.06742 0,-0.343834 0.0067,-0.694412 0,-1.038246 0,-0.0809 -0.04045,-0.161804 -0.06742,-0.242708 0,-0.02023 0,-0.04719 0,-0.06742 l 0,0 c 0.04719,0 0.08764,0 0.134836,0 0,0.02023 0,0.04719 0,0.06742 0,0.134839 0.0068,0.269677 0.0068,0.404513 0.01347,0.04719 0.01347,0.09439 0.01347,0.141579 z"
     id="path17"
     inkscape:connector-curvature="0"
     style="fill:#08844b" /><path
     class="st7"
     d="m 22.751422,1.2983681 c 0,-0.31012505 0,-0.62699305 0,-0.93711705 l 0.0067,-0.01348 c 0.04719,0 0.08764,0.0068 0.134839,0.0068 0,0.04719 0,0.08764 0,0.134839 0,0.04719 0,0.08764 0,0.134835 0,0.229224 -0.0068,0.45170705 -0.0068,0.68093105 -0.05394,-0.0068 -0.09439,-0.0068 -0.134839,-0.0068 z"
     id="path19"
     inkscape:connector-curvature="0"
     style="fill:#77a3c0" /><path
     class="st8"
     d="m 22.751422,1.2983681 c 0.04045,0 0.08764,0 0.128095,0 0.161805,0 0.316868,0 0.478673,0 l 0.03371,0.0068 c 0,0 0.03371,-0.0068 0.03371,-0.0068 0.02695,0 0.05394,0 0.07416,0 0.04045,0 0.08764,0 0.128095,0 0.148323,0 0.296643,0 0.444963,0 0.04045,0 0.0809,0 0.121354,0 0.0809,0.02023 0.161804,0.04719 0.249449,0.06742 0,0 -0.02023,0.02023 -0.02023,0.02023 -0.620252,0 -1.240504,0 -1.860756,-0.0068 -0.0067,-0.0068 -0.01347,-0.01347 -0.02695,-0.02698 0.07416,-0.01347 0.141579,-0.03371 0.215739,-0.05393 z"
     id="path21"
     inkscape:connector-curvature="0"
     style="fill:#459460" /><path
     class="st9"
     d="m 24.497565,0.28709105 c -0.08765,0.02695 -0.168545,0.04719 -0.25619,0.07416 -0.02023,0.06742 -0.04045,0.134835 -0.06068,0.202254 0,0.08765 -0.0068,0.175289 -0.0068,0.262934 -0.04045,0.02023 -0.0809,0.04719 -0.121354,0.06742 -0.0068,-0.02023 -0.01348,-0.04719 -0.02023,-0.06742 0,-0.02698 -0.0068,-0.04719 -0.0068,-0.07416 0.0068,-0.02023 0.0068,-0.04045 0.0068,-0.06068 0.0068,-0.09439 0.0068,-0.182029 0.01347,-0.276415 0.02023,-0.04045 0.04045,-0.0809 0.06068,-0.121354 0.114613,0 0.229224,-0.0068 0.337093,-0.0068 0.01347,0 0.03371,0 0.05394,0 z"
     id="path23"
     inkscape:connector-curvature="0"
     style="fill:#6497b9" /><path
     class="st10"
     d="m 22.630068,12.152769 c 0,-0.06742 0,-0.134839 0,-0.202258 0.02023,0 0.04045,0 0.06068,0 0.02023,0 0.03371,0 0.05393,0 0.0068,0.02023 0.0068,0.04045 0.0068,0.06742 0,0.02023 0,0.04719 0,0.06742 0,0.202255 0.0068,0.40451 0.0068,0.606768 0,0.11461 0,0.22248 -0.0068,0.337093 -0.02023,0 -0.04719,0 -0.06742,0 -0.0068,-0.10787 -0.01347,-0.222483 -0.02023,-0.330353 0,-0.134835 0.0068,-0.269674 0.0068,-0.404512 -0.0068,-0.04719 -0.02695,-0.09439 -0.04045,-0.141576 z"
     id="path25"
     inkscape:connector-curvature="0"
     style="fill:#709dbe" /><path
     class="st11"
     d="m 24.436889,11.701062 c 0.02023,-0.0068 0.04045,-0.01348 0.06068,-0.02023 0,0.182029 0,0.357318 0,0.539348 -0.02023,0.04719 -0.04045,0.09439 -0.06742,0.141579 -0.02023,0 -0.03371,0 -0.05393,0 0,-0.11461 -0.0068,-0.22248 -0.0068,-0.337093 0,-0.02023 0,-0.04719 0,-0.06742 0,-0.02023 0,-0.04719 0,-0.06742 0,0 0.01347,0 0.01347,0 0.02023,-0.06742 0.03371,-0.128095 0.05393,-0.188773 z"
     id="path27"
     inkscape:connector-curvature="0"
     style="fill:#6d9dbd" /><path
     class="st12"
     d="m 24.908818,4.5344631 c 0.02023,0.04045 0.04719,0.08764 0.06742,0.128095 0,0.02698 0,0.05393 0,0.0809 -0.0068,0.242706 -0.0068,0.492154 -0.01347,0.734863 -0.02023,0 -0.03371,0 -0.05394,0 0,-0.08765 -0.0068,-0.175289 -0.0068,-0.269674 0,-0.202258 0,-0.411254 0,-0.613512 0,-0.02023 0,-0.03371 -0.01347,-0.04719 l 0.02023,-0.01347 z"
     id="path29"
     inkscape:connector-curvature="0"
     style="fill:#32865c" /><path
     class="st13"
     d="m 25.245912,7.4334641 c 0,0.195515 0.0068,0.391029 0,0.579799 0,0.05393 -0.04045,0.10787 -0.06068,0.161804 l -0.0068,0 c 0,-0.09438 0,-0.18877 -0.0068,-0.276414 0,-0.08765 0,-0.175289 0,-0.256193 0.01347,-0.11461 0.02023,-0.22248 0.03371,-0.337093 0.01348,0.04045 0.02695,0.0809 0.04045,0.128097 z"
     id="path31"
     inkscape:connector-curvature="0"
     style="fill:#629ab8" /><path
     class="st14"
     d="m 25.45491,4.8041371 c 0.114611,0.161804 0.0809,0.323609 -0.02023,0.478673 -0.01347,0 -0.03371,0 -0.04719,0 0,-0.10787 0,-0.222484 -0.0068,-0.330353 0.01347,-0.01348 0.02695,-0.02695 0.03371,-0.04719 -0.01347,-0.01348 -0.02695,-0.02698 -0.04045,-0.04045 0,-0.02023 0,-0.04045 0,-0.06068 l 0,-0.02023 c 0.03371,0.0068 0.06068,0.01347 0.0809,0.02023 z"
     id="path33"
     inkscape:connector-curvature="0"
     style="fill:#7da4bf" /><path
     class="st15"
     d="m 25.320072,6.4221841 c -0.0068,0.249449 -0.01347,0.492157 -0.01347,0.741606 -0.02695,0 -0.04719,0 -0.07416,0 0,-0.202257 0,-0.404512 0.0068,-0.600026 0.0068,-0.04045 0.01347,-0.08764 0.02023,-0.128095 0.02023,-0.0068 0.04045,-0.01348 0.06067,-0.01348 z"
     id="path35"
     inkscape:connector-curvature="0"
     style="fill:#6491b2" /><path
     class="st16"
     d="m 22.616584,-0.04326195 c 0,0.02023 0,0.03371 0,0.05394 -0.02023,0.02698 -0.03371,0.05393 -0.05393,0.0809 0,0.04045 0,0.0809 -0.0068,0.121351 0.06742,0.02698 0.128095,0.05393 0.195514,0.0809 0,0.02023 0,0.03371 0,0.05393 l -0.0068,0.01348 c -0.07416,-0.0068 -0.155064,-0.01348 -0.256193,-0.02023 0,-0.121354 0,-0.235967 0,-0.370803 0.04719,-0.0068 0.08765,-0.0068 0.128095,-0.01347 z"
     id="path37"
     inkscape:connector-curvature="0"
     style="fill:#6a99b4" /><path
     class="st17"
     d="m 24.376211,13.379785 c -0.02023,-0.07416 -0.04719,-0.141579 -0.06742,-0.215739 0,-0.08765 0,-0.175289 0,-0.262931 0.02023,-0.0068 0.04045,-0.0068 0.06068,-0.0068 0.02023,0.02023 0.04045,0.04045 0.06068,0.06068 -0.02023,0.141579 -0.04045,0.283156 -0.05394,0.424735 z"
     id="path39"
     inkscape:connector-curvature="0"
     style="fill:#85adcd" /><path
     class="st18"
     d="m 24.382954,1.8444601 c 0,-0.02023 -0.0068,-0.04719 -0.0068,-0.06742 0.02023,-0.0068 0.04045,-0.0068 0.06068,-0.01347 0.08764,0.0068 0.175286,0.01347 0.25619,0.02023 0.02698,0.01348 0.05394,0.02695 0.0809,0.04045 0.04045,0.02695 0.08764,0.05393 0.128095,0.0809 0,0.02023 0,0.03371 0.0068,0.05394 -0.02023,0.0068 -0.04045,0.0068 -0.06068,0.0068 -0.06742,-0.02698 -0.134839,-0.04719 -0.195514,-0.07416 -0.08764,-0.01348 -0.18203,-0.03371 -0.269674,-0.04719 z"
     id="path41"
     inkscape:connector-curvature="0"
     style="fill:#5b95aa" /><path
     class="st19"
     d="m 25.320072,2.3029071 c 0.06742,0.175289 0.188773,0.350575 0.06742,0.552833 -0.02023,-0.06742 -0.04045,-0.14158 -0.06068,-0.208999 -0.02023,-0.09438 -0.04045,-0.182029 -0.06068,-0.276418 0.01347,-0.02023 0.03371,-0.04045 0.05393,-0.06742 z"
     id="path43"
     inkscape:connector-curvature="0"
     style="fill:#81aac8" /><path
     class="st20"
     d="m 23.973162,15.167078 c -0.279761,0.0068 -0.559527,0.01347 -0.847765,0.01347 0,-0.02022 -0.0085,-0.04044 0,-0.06067 0.279762,0.0068 0.568004,0.0068 0.847765,0.01347 l 0,0.03371 z"
     id="path45"
     inkscape:connector-curvature="0"
     style="fill:#6a99bc" /><path
     class="st21"
     d="m 25.441426,5.5457431 c -0.02023,0.134835 -0.04719,0.269674 -0.06742,0.411253 -0.01347,0 -0.03371,0 -0.04719,0 0,-0.107869 -0.0068,-0.222483 -0.0068,-0.330352 0.02023,-0.02695 0.04045,-0.05393 0.06068,-0.07416 0.02023,-0.0068 0.04045,-0.0068 0.06068,-0.0068 z"
     id="path47"
     inkscape:connector-curvature="0"
     style="fill:#76a4c2" /><path
     class="st22"
     d="m 24.423405,12.95505 c -0.02023,-0.02023 -0.04045,-0.04045 -0.06068,-0.06068 0,-0.134836 -0.0068,-0.269675 -0.0068,-0.397769 0.0068,-0.04719 0.01348,-0.08764 0.01348,-0.134839 0.02023,0 0.03371,0 0.05394,0 0.0067,0.08764 0.0067,0.18203 0.01347,0.269674 0,0.10787 -0.0068,0.215742 -0.01347,0.323612 z"
     id="path49"
     inkscape:connector-curvature="0"
     style="fill:#6496b8" /><path
     class="st23"
     d="m 25.326815,2.6467411 c 0.02023,0.06742 0.04045,0.141579 0.06068,0.208999 -0.02023,0.08764 -0.04719,0.175289 -0.06742,0.26293 -0.02023,-0.02023 -0.03371,-0.04719 -0.05393,-0.06742 0.02023,-0.134839 0.04045,-0.269674 0.06068,-0.404513 z"
     id="path51"
     inkscape:connector-curvature="0"
     style="fill:#78a1c3" /><path
     class="st24"
     d="m 25.299846,3.1793491 c -0.08764,0.08764 -0.168545,0.182029 -0.256189,0.269674 0,-0.02695 0,-0.05394 0,-0.07416 0.06742,-0.08764 0.134835,-0.175289 0.202255,-0.256193 0.02023,0.02023 0.03371,0.04045 0.05393,0.06068 z"
     id="path53"
     inkscape:connector-curvature="0"
     style="fill:#80a5c2" /><path
     class="st25"
     d="m 25.171752,8.7144191 -0.02698,0 -0.02695,0 c 0,-0.182033 0.0068,-0.357319 0.0068,-0.539352 0.02023,0 0.03371,0 0.05394,0 l 0.0068,0.0068 c -0.0068,0.175289 -0.01348,0.357319 -0.01348,0.532608 z"
     id="path55"
     inkscape:connector-curvature="0"
     style="fill:#6794ba" /><path
     class="st26"
     d="m 24.982978,4.7434611 c 0,-0.02698 0,-0.05393 0,-0.0809 0.134839,0.02698 0.269674,0.05393 0.404513,0.0809 0,0.01348 0,0.02695 0.0068,0.04045 l 0,0.02023 c -0.01347,-0.0068 -0.03371,-0.0068 -0.05393,-0.0068 -0.128095,-0.02023 -0.242705,-0.03371 -0.357319,-0.05394 z"
     id="path57"
     inkscape:connector-curvature="0"
     style="fill:#638da5" /><path
     class="st27"
     d="m 24.639144,11.404422 c 0.155064,-0.02023 0.316868,-0.04045 0.471929,-0.06068 -0.155061,0.02023 -0.316865,0.04045 -0.471929,0.06068 z"
     id="path59"
     inkscape:connector-curvature="0"
     style="fill:#768992" /><path
     class="st8"
     d="m 22.616584,1.7028801 c -0.0068,0.03371 -0.0068,0.06068 -0.01348,0.09439 -0.182033,-0.121351 -0.141579,-0.276414 -0.06742,-0.438219 0.0068,0.0068 0.01347,0.01348 0.02695,0.02695 -0.0067,0.02023 -0.01347,0.04045 -0.0067,0.06068 0,0.02023 0,0.04045 0,0.06067 0.02023,0.06068 0.04045,0.128095 0.06068,0.195514 l 0,0 z"
     id="path61"
     inkscape:connector-curvature="0"
     style="fill:#459460" /><path
     class="st28"
     d="m 25.320072,6.4221841 c -0.02023,0 -0.04045,0 -0.06068,0.0068 -0.0068,-0.06742 -0.0068,-0.134835 -0.01347,-0.202255 0.02023,-0.02698 0.04045,-0.04719 0.06068,-0.07416 0.02023,0 0.04045,0 0.06068,0 -0.01347,0.08764 -0.02698,0.18203 -0.04719,0.269674 z"
     id="path63"
     inkscape:connector-curvature="0"
     style="fill:#81a8c6" /><path
     class="st29"
     d="m 24.382954,3.6647621 c 0,-0.04719 -0.0068,-0.08764 -0.0068,-0.134836 0.08764,0 0.175289,0 0.262934,0 0.02023,0 0.04045,0.0068 0.06068,0.01348 0,0.02023 0,0.04045 0,0.06068 -0.101126,0.02023 -0.208996,0.04045 -0.316865,0.06068 z"
     id="path65"
     inkscape:connector-curvature="0"
     style="fill:#6f96b4" /><path
     class="st30"
     d="m 24.045861,0.89385805 c 0.04045,-0.02023 0.0809,-0.04719 0.121351,-0.06742 0,0.06742 -0.0068,0.134835 -0.0068,0.20225505 -0.02023,0.02023 -0.04045,0.04045 -0.05393,0.06742 -0.02023,0 -0.03371,0 -0.05393,0.0068 0,-0.07416 0,-0.14158005 -0.0068,-0.20899605 z"
     id="path67"
     inkscape:connector-curvature="0"
     style="fill:#6594b6" /><path
     class="st31"
     d="m 25.232427,7.1570471 c 0.02698,0 0.04719,0 0.07416,0 -0.02023,0.08764 -0.04045,0.182029 -0.06068,0.269674 -0.01347,-0.04719 -0.02695,-0.08765 -0.04045,-0.134836 -0.0068,-0.04045 -0.01347,-0.0809 -0.02023,-0.121354 0.01348,0 0.03371,-0.0068 0.04719,-0.01347 z"
     id="path69"
     inkscape:connector-curvature="0"
     style="fill:#709bb1" /><path
     class="st32"
     d="m 22.9998,15.119893 c 0,0.02023 0,0.04045 0,0.06068 -0.09439,-0.02023 -0.182032,-0.04045 -0.276418,-0.05393 0,-0.02698 0.0068,-0.05394 0.0068,-0.07416 0.04045,0 0.0809,0.0068 0.128098,0.0068 0.04719,0.02023 0.09439,0.04045 0.141579,0.06068 z"
     id="path71"
     inkscape:connector-curvature="0"
     style="fill:#94b7d2" /><path
     class="st33"
     d="m 23.673984,15.167084 c 0,0 0,-0.03371 0,-0.03371 0.08764,-0.02695 0.168548,-0.05393 0.256193,-0.0809 0.02695,0 0.04719,0 0.07416,0.0068 -0.10787,0.03371 -0.21574,0.06742 -0.330353,0.10787 z"
     id="path73"
     inkscape:connector-curvature="0"
     style="fill:#759db0" /><path
     class="st34"
     d="m 22.684003,12.294345 c 0,0.134838 -0.0068,0.269677 -0.0068,0.404512 -0.01347,-0.134835 -0.03371,-0.276414 -0.04719,-0.411253 0.01347,0 0.03371,0 0.05393,0.0068 z"
     id="path75"
     inkscape:connector-curvature="0"
     style="fill:#c4cdd6" /><path
     class="st35"
     d="m 24.44363,12.624697 c -0.0068,-0.08764 -0.0068,-0.182029 -0.01347,-0.269674 0.02023,-0.04719 0.04045,-0.09438 0.06742,-0.141579 -0.02023,0.141579 -0.03371,0.276415 -0.05393,0.411253 z"
     id="path77"
     inkscape:connector-curvature="0"
     style="fill:#becedc" /><path
     class="st36"
     d="m 24.571725,4.5277221 c 0,-0.01347 0,-0.03371 0,-0.04719 0.114613,0.02023 0.229224,0.04045 0.337093,0.06068 l -0.01347,0.0068 c -0.02023,-0.0068 -0.04045,-0.0068 -0.06067,-0.0068 -0.06068,0 -0.128095,0.0068 -0.188773,0.0068 -0.02695,-0.01347 -0.05393,-0.01347 -0.07416,-0.02023 z"
     id="path79"
     inkscape:connector-curvature="0"
     style="fill:#278d52" /><path
     class="st37"
     d="m 25.043657,1.9792981 c 0.06742,0.06742 0.128095,0.134836 0.195514,0.202255 -0.02698,0 -0.04719,0 -0.07416,0 -0.04045,-0.04045 -0.0809,-0.08764 -0.128095,-0.128095 0.0068,-0.02698 0.0068,-0.05393 0.0068,-0.07416 z"
     id="path81"
     inkscape:connector-curvature="0"
     style="fill:#72a1ba" /><path
     class="st38"
     d="m 24.052602,1.0961131 c 0.02023,0 0.03371,0 0.05393,-0.0068 0.02023,0 0.04045,0 0.06068,0 0.0068,0.06742 0.01347,0.134836 0.02698,0.202255 -0.04045,0 -0.0809,0 -0.121354,0 -0.0068,-0.06068 -0.01347,-0.128095 -0.02023,-0.195514 z"
     id="path83"
     inkscape:connector-curvature="0"
     style="fill:#588ca7" /><path
     class="st8"
     d="m 24.436889,1.3657871 c 0,0.114613 0,0.222483 0,0.337093 0,0 -0.02023,-0.01347 -0.02023,-0.01347 0,-0.101126 0,-0.202255 0,-0.303384 0,0 0.02023,-0.02023 0.02023,-0.02023 z"
     id="path85"
     inkscape:connector-curvature="0"
     style="fill:#459460" /><path
     class="st39"
     d="m 25.441426,5.5457431 c -0.02023,0 -0.04045,0 -0.06068,0 0,-0.06742 -0.0068,-0.134839 -0.0068,-0.202258 0.0068,-0.02023 0.01347,-0.04719 0.02023,-0.06742 0.01348,0 0.03371,0 0.04719,0 0,0.09439 0,0.182029 0,0.269674 z"
     id="path87"
     inkscape:connector-curvature="0"
     style="fill:#5b8ead" /><path
     class="st40"
     d="m 24.497565,0.28709105 c -0.02023,0 -0.04045,0 -0.06068,0 0,-0.02698 -0.0068,-0.04719 -0.0068,-0.07416 0,-0.04045 0,-0.0809 0,-0.128095 0,-0.02023 0.0068,-0.04719 0.0068,-0.06742 0.02023,0 0.04719,0 0.06742,0 -0.0068,0.08764 -0.0068,0.182032 -0.0068,0.269677 z"
     id="path89"
     inkscape:connector-curvature="0"
     style="fill:#5990b6" /><path
     class="st41"
     d="m 24.706563,3.5973431 c 0,-0.02023 0,-0.04045 0,-0.06068 0.06742,-0.02698 0.134836,-0.04719 0.202255,-0.07416 0,0.02023 0,0.04045 0,0.05393 -0.06742,0.03371 -0.134835,0.06068 -0.202255,0.0809 z"
     id="path91"
     inkscape:connector-curvature="0"
     style="fill:#5599b5" /><path
     class="st42"
     d="m 22.684003,11.950511 c -0.02023,0 -0.04045,0 -0.06068,0 -0.0068,-0.08764 -0.0068,-0.175289 -0.01347,-0.262934 0.02023,0.0068 0.04045,0.01348 0.06742,0.01348 0.0068,0.08764 0.0068,0.168548 0.0068,0.249449 z"
     id="path93"
     inkscape:connector-curvature="0"
     style="fill:#6f9dc3" /><path
     class="st43"
     d="m 24.173956,0.56350505 c 0.02023,-0.06742 0.04045,-0.134835 0.06067,-0.202254 -0.02023,0.06742 -0.04045,0.134835 -0.06067,0.202254 z"
     id="path95"
     inkscape:connector-curvature="0"
     style="fill:#aec7de" /><path
     class="st44"
     d="m 25.374006,6.1525101 c -0.02023,0 -0.04045,0.0068 -0.06068,0 0,-0.06742 -0.0068,-0.134838 -0.0068,-0.202258 l 0.01347,0.0068 c 0.01347,0 0.03371,-0.0068 0.04719,0 0.0068,0.06068 0.0068,0.128095 0.0068,0.195514 z"
     id="path97"
     inkscape:connector-curvature="0"
     style="fill:#598aad" /><path
     class="st45"
     d="m 25.320072,2.3029071 c -0.02023,0.02023 -0.03371,0.04719 -0.05393,0.06742 -0.0068,-0.04045 -0.01347,-0.0809 -0.02023,-0.128095 l 0.01347,-0.01347 c 0.01347,0.02695 0.04045,0.05393 0.06068,0.07416 z"
     id="path99"
     inkscape:connector-curvature="0"
     style="fill:#5b96b6" /><path
     class="st46"
     d="m 25.299846,3.1793491 c -0.02023,-0.02023 -0.03371,-0.04045 -0.05393,-0.06068 0,-0.02023 0.0068,-0.04719 0.02023,-0.06068 0.02023,0.02023 0.03371,0.04719 0.05394,0.06742 0,0.02023 -0.0068,0.04045 -0.02023,0.05394 z"
     id="path101"
     inkscape:connector-curvature="0"
     style="fill:#6494b6" /><path
     class="st42"
     d="m 22.684003,12.294345 c -0.02023,0 -0.04045,-0.0068 -0.06068,-0.0068 0,-0.04045 0.0068,-0.0809 0.0068,-0.128095 0.01347,0.04045 0.03371,0.08765 0.05393,0.134836 z"
     id="path103"
     inkscape:connector-curvature="0"
     style="fill:#6f9dc3" /><path
     class="st47"
     d="m 24.511049,4.4603031 c -0.04045,-0.02023 -0.08764,-0.04719 -0.128095,-0.06742 0.04045,0.02023 0.08764,0.04719 0.128095,0.06742 z"
     id="path105"
     inkscape:connector-curvature="0"
     style="fill:#69bd6d" /><path
     class="st48"
     d="m 25.043657,1.9792981 c 0,0.02695 0,0.04719 0,0.07416 -0.02023,-0.0068 -0.04045,-0.0068 -0.06068,-0.0068 0,-0.02023 0,-0.04719 0,-0.06742 l 0,0 c 0.01347,-0.0068 0.04045,-0.0068 0.06068,0 z"
     id="path107"
     inkscape:connector-curvature="0"
     style="fill:#6687ad" /><path
     class="st49"
     d="m 24.915559,1.9590701 c 0,-0.02023 -0.0067,-0.03371 -0.0067,-0.05394 0.02023,0.02023 0.04719,0.04045 0.06742,0.06742 0,0 0,0 0,0 -0.02023,0.0068 -0.04719,0.0068 -0.06742,0.01348 l 0.0067,-0.02698 z"
     id="path109"
     inkscape:connector-curvature="0"
     style="fill:#5291ab" /><path
     class="st50"
     d="m 25.043657,3.3748631 c 0,0.02695 0,0.05394 0,0.07416 -0.02023,0 -0.04719,0 -0.06742,0 0,0 0,0 0,0 0.02023,-0.02023 0.04045,-0.04719 0.06742,-0.07416 z"
     id="path111"
     inkscape:connector-curvature="0"
     style="fill:#6084a5" /><path
     class="st51"
     d="m 25.38075,4.7839121 c 0,-0.01348 0,-0.02698 -0.0068,-0.04045 0.02698,0.02023 0.05394,0.04045 0.07416,0.06068 -0.01347,-0.0068 -0.04045,-0.01348 -0.06742,-0.02023 z"
     id="path113"
     inkscape:connector-curvature="0"
     style="fill:#6f8792" /><path
     class="st52"
     d="m 24.167212,1.0961131 c -0.02023,0 -0.04045,0 -0.06068,0 0.02023,-0.02023 0.04045,-0.04045 0.05394,-0.06742 0,0.02698 0.0068,0.04719 0.0068,0.06742 z"
     id="path115"
     inkscape:connector-curvature="0"
     style="fill:#4189ae" /><path
     class="st53"
     d="m 24.908818,3.5231831 c 0,-0.02023 0,-0.04045 0,-0.05394 0.02023,0 0.04045,-0.0068 0.06742,-0.0068 0,0 0,0 0,0 -0.02023,0.01348 -0.04719,0.04045 -0.06742,0.06068 z"
     id="path117"
     inkscape:connector-curvature="0"
     style="fill:#52939a" /><path
     class="st54"
     d="m 24.780723,1.8242341 c -0.02698,-0.01347 -0.05393,-0.02698 -0.0809,-0.04045 0.02023,0.01347 0.04719,0.02695 0.0809,0.04045 z"
     id="path119"
     inkscape:connector-curvature="0"
     style="fill:#c1d2d7" /><path
     class="st8"
     d="m 24.436889,1.7635561 c -0.02023,0.0068 -0.04045,0.0068 -0.06068,0.01347 0,-0.02695 -0.0068,-0.04719 -0.0068,-0.07416 l 0,0 c 0.02023,0 0.03371,0 0.05393,-0.01347 l 0.01347,0.01347 c 0,0.02023 0,0.04045 0,0.06068 z"
     id="path121"
     inkscape:connector-curvature="0"
     style="fill:#459460" /><path
     class="st27"
     d="m 24.531274,11.343743 c 0.01347,0.02023 0.02695,0.04045 0.04045,0.05394 -0.02023,0.0068 -0.03371,0.01348 -0.05393,0.01348 0,-0.01348 0.0068,-0.04045 0.01347,-0.06742 z"
     id="path123"
     inkscape:connector-curvature="0"
     style="fill:#768992" /><path
     class="st55"
     d="m 22.736867,15.04573 c 0,0.02698 -0.0068,0.05393 -0.0068,0.07416 -0.02023,-0.02023 -0.04719,-0.0472 -0.06742,-0.06742 0,0 0.0068,0 0.0068,0 0.02023,0 0.04045,0 0.06742,-0.0068 l 0,0 z"
     id="path125"
     inkscape:connector-curvature="0"
     style="fill:#6185a0" /><path
     class="st56"
     d="m 25.165008,2.1748121 c 0.02698,0 0.04719,0 0.07416,0 0.01347,0.02023 0.02023,0.03371 0.01347,0.06068 l -0.01347,0.01347 c -0.02023,-0.02698 -0.04719,-0.04719 -0.07416,-0.07416 z"
     id="path127"
     inkscape:connector-curvature="0"
     style="fill:#5390a8" /><path
     class="st57"
     d="m 23.553704,11.478582 c -0.22248,0 -0.444963,0 -0.667443,0 0,-3.1754199 0,-6.3508359 0,-9.5599619 -0.02698,-0.03371 -0.0809,-0.08765 -0.128098,-0.14158 0.269677,0 0.532608,0 0.802282,0 0,1.173085 0.0068,2.346169 0,3.519254 -0.0068,0.660702 -0.04719,1.321404 -0.06068,1.975366 -0.0068,0.208996 0.06068,0.417994 0.06068,0.626993 0,1.193309 0,2.3866189 -0.0068,3.5799289 z"
     id="path129"
     inkscape:connector-curvature="0"
     style="fill:#61ba68" /><path
     class="st58"
     d="m 23.553704,11.478582 c 0,-1.19331 0.0068,-2.3798789 0,-3.5731889 0,-0.208998 -0.06068,-0.417994 -0.06068,-0.626992 0.01347,-0.660703 0.05394,-1.321405 0.06068,-1.975366 0.0068,-1.173085 0,-2.346169 0,-3.519251 0.18203,0 0.364059,0 0.546092,0 0.07416,0.155061 0.128095,0.310125 0,0.471929 -0.01347,-0.01347 -0.02023,-0.02695 0,0 -0.02698,-0.02023 -0.01347,-0.01347 0,0 0.02023,0.02023 0.04719,0.04719 0.06742,0.06742 0,0.18203 0,0.357319 0,0.539348 0,0.06742 0,0.134839 0,0.202255 0,0.02023 0,0.04719 0,0.06742 -0.02695,0.121354 -0.06068,0.242708 -0.0809,0.364062 -0.01347,0.0809 -0.01347,0.161804 -0.0067,0.235964 0.02695,0.249449 0.05393,0.498898 0.08764,0.748347 0,0.02023 0,0.04719 0.0068,0.06742 0,1.638273 0,3.276546 0,4.914818 0,0.09439 0.04045,0.188771 0.06068,0.276415 -0.03371,0.5730579 0.08764,1.1595999 -0.08764,1.7461429 -0.215739,-0.0068 -0.40451,-0.0068 -0.593283,-0.0068 z m 0.431479,-4.4294049 c 0.01347,0 0.02023,0 0.03371,0 0,-0.33035 0,-0.653962 0,-0.984311 -0.01347,0 -0.02023,0 -0.03371,0 0,0.330349 0,0.653961 0,0.984311 z m -0.0068,1.611307 c 0.01347,0 0.02023,-0.0068 0.03371,-0.0068 0,-0.141579 0,-0.276415 0,-0.417994 -0.01347,0 -0.02023,0 -0.03371,0 0,0.141579 0,0.283159 0,0.424738 z"
     id="path131"
     inkscape:connector-curvature="0"
     style="fill:#0aa24d" /><path
     class="st59"
     d="m 22.758163,1.7770401 c 0.05393,0.05394 0.101129,0.114614 0.128098,0.14158 0,3.209126 0,6.384542 0,9.5599619 -0.02698,0 -0.04719,0 -0.07416,0 -0.02023,-0.02023 -0.04045,-0.04045 -0.06068,-0.06068 -0.02023,0 -0.04719,-0.0068 -0.06742,-0.0068 0,-3.1214809 0,-6.2429629 0,-9.3577039 0,-0.101129 0.04719,-0.188773 0.07416,-0.276418 z"
     id="path133"
     inkscape:connector-curvature="0"
     style="fill:#2fb24b" /><path
     class="st60"
     d="m 24.227891,2.8489961 c -0.03371,-0.161805 0,-0.303384 0.141579,-0.40451 0.06068,0.0068 0.128095,0.0068 0.18877,0.01348 0.04719,0.04045 0.09439,0.0809 0.14158,0.128098 0.06742,0.168545 -0.03371,0.283155 -0.14158,0.391028 -0.06067,0 -0.121351,0 -0.18877,0 -0.04045,-0.03371 -0.08764,-0.06742 -0.128095,-0.107873 l -0.01347,-0.02023 z"
     id="path135"
     inkscape:connector-curvature="0"
     style="fill:#becfd6" /><path
     class="st61"
     d="m 23.830122,1.6354611 c -0.404513,0.02023 -0.809025,0.04045 -1.213538,0.06742 0,0 0,0 0,0 0,-0.02023 0,-0.04719 0,-0.06742 0.06742,0 0.134838,0 0.202258,0 0.215739,0 0.431478,0 0.653961,0 0.0068,-0.09438 0.01347,-0.14832 0.01347,-0.202255 0.114614,0 0.222483,0 0.337094,0 0.0068,0.06742 0.0068,0.134836 0.0068,0.202255 z"
     id="path137"
     inkscape:connector-curvature="0"
     style="fill:#28aa56" /><path
     class="st62"
     d="m 23.830122,1.6354611 c 0,-0.06742 0,-0.134835 0,-0.202255 0.134835,0 0.269674,0 0.404509,0 0,0.09439 -0.02023,0.202255 0.128095,0.202255 0,0.02023 0,0.04045 0,0.06742 l 0,0 c -0.175286,-0.02695 -0.357318,-0.04719 -0.532604,-0.06742 z"
     id="path139"
     inkscape:connector-curvature="0"
     style="fill:#09a14c" /><path
     class="st63"
     d="m 24.167212,2.3096481 c -0.02023,-0.02023 -0.04719,-0.04719 -0.06742,-0.06742 l 0,0 c 0.128095,-0.15506 0.07416,-0.310124 0,-0.471928 0.05393,0.0068 0.10787,0.0068 0.18877,0.01347 -0.03371,0.18877 0.148323,0.397769 -0.121354,0.525864 z"
     id="path141"
     inkscape:connector-curvature="0"
     style="fill:#0ba74e" /><path
     class="st54"
     d="m 24.382954,1.8444601 c 0.08764,0.02023 0.18203,0.03371 0.269675,0.05393 -0.06068,0.01348 -0.128095,0.02023 -0.21574,0.03371 0,0.134836 0,0.249449 0,0.370803 l 0,0.03371 c -0.02023,-0.168549 -0.03371,-0.330353 -0.05393,-0.492157 z"
     id="path143"
     inkscape:connector-curvature="0"
     style="fill:#c1d2d7" /><path
     class="st64"
     d="m 24.55824,2.4579681 c -0.06067,-0.0068 -0.128094,-0.0068 -0.18877,-0.01348 0.02023,-0.04045 0.04719,-0.07416 0.06742,-0.114613 l 0,-0.03371 c 0.04045,0.0068 0.0809,0.01348 0.121351,0.02023 0.02698,0.01347 0.06068,0.02698 0.08764,0.04045 l -0.0068,0.02023 c -0.02698,0.03371 -0.05393,0.05394 -0.0809,0.0809 z"
     id="path145"
     inkscape:connector-curvature="0"
     style="fill:#09875b" /><path
     class="st65"
     d="m 24.167212,3.0512541 c 0,-0.06742 0,-0.134839 0,-0.202258 0.02023,0 0.04045,0 0.06068,0 0,0 0.01347,0.02023 0.01347,0.02023 0,0.06068 -0.0068,0.121354 -0.0068,0.182033 0,0 0,0 0,0 -0.02023,0 -0.04719,0 -0.06742,0 z"
     id="path147"
     inkscape:connector-curvature="0"
     style="fill:#078246" /><path
     class="st66"
     d="m 24.234631,9.7256961 c -0.02023,-0.09439 -0.06067,-0.188771 -0.06067,-0.276415 0,-1.638273 0,-3.276546 0,-4.914818 0.02695,0 0.04719,0.0068 0.07416,0.0068 0,1.678726 0,3.350705 0,5.063141 0.161805,-0.03371 0.283159,-0.05394 0.397769,-0.0809 0.10787,0 0.21574,-0.0068 0.323612,-0.0068 0.02023,0.02695 0.04045,0.05393 0.06068,0.07416 0,0.02023 0,0.04719 0,0.06742 -0.02023,0.02023 -0.04045,0.04045 -0.05394,0.05393 -0.114613,0.0068 -0.222483,0.01348 -0.337093,0.02023 -0.02023,0 -0.04719,-0.0068 -0.06742,-0.0068 -0.04719,0.02023 -0.09439,0.04719 -0.134836,0.06742 -0.06742,-0.02023 -0.134838,-0.04045 -0.202258,-0.06742 z"
     id="path149"
     inkscape:connector-curvature="0"
     style="fill:#067f4a" /><path
     class="st2"
     d="m 24.436889,9.7931151 c 0.04719,-0.02023 0.09438,-0.04719 0.134836,-0.06742 -0.0068,0.4112529 -0.0068,0.8225059 -0.01347,1.2337629 0,0.107869 -0.03371,0.208995 -0.04719,0.316865 -0.02698,-0.11461 -0.06742,-0.235964 -0.06742,-0.350575 -0.01347,-0.377547 -0.0068,-0.75509 -0.0068,-1.1326339 z"
     id="path151"
     inkscape:connector-curvature="0"
     style="fill:#287f55" /><path
     class="st2"
     d="m 24.511049,11.283068 c 0.0068,0.02023 0.0068,0.04045 -0.0068,0.06067 -0.01347,-0.01347 -0.02695,-0.02023 -0.04719,-0.03371 0.02023,-0.01348 0.03371,-0.02023 0.05393,-0.02698 z"
     id="path153"
     inkscape:connector-curvature="0"
     style="fill:#287f55" /><path
     class="st57"
     d="m 22.758163,11.411163 c 0.02023,0.02023 0.04045,0.04045 0.06068,0.06068 -0.02698,-0.02023 -0.04045,-0.04045 -0.06068,-0.06068 z"
     id="path155"
     inkscape:connector-curvature="0"
     style="fill:#61ba68" /><path
     class="st67"
     d="m 22.684003,11.950511 c 0,-0.0809 0,-0.161805 -0.0068,-0.242705 0.498898,0 0.997796,-0.0068 1.496694,-0.0068 -0.02698,0.02023 -0.05393,0.04045 -0.07416,0.06068 -0.06742,0 -0.134839,0 -0.202258,0 -0.155061,0 -0.316865,0 -0.471929,0 -0.06742,0 -0.134839,0 -0.202255,0.0068 -0.182033,0.0068 -0.397772,-0.06068 -0.478673,0.195514 -0.02023,-0.01347 -0.04045,-0.01347 -0.06068,-0.01347 z"
     id="path157"
     inkscape:connector-curvature="0"
     style="fill:#83979e" /><path
     class="st68"
     d="m 24.099796,11.754997 c 0.02695,-0.02023 0.05393,-0.04045 0.07416,-0.06068 0.02023,-0.0068 0.03371,-0.0068 0.05393,0 0.05393,0.06068 0.101129,0.128095 0.155064,0.18877 0,0 -0.01347,0 -0.01347,0 -0.06742,0 -0.134839,0 -0.202258,0 -0.02023,-0.04045 -0.04719,-0.08764 -0.06742,-0.128094 z"
     id="path159"
     inkscape:connector-curvature="0"
     style="fill:#bcc7d1" /><path
     class="st69"
     d="m 24.382954,11.883091 c -0.05394,-0.06068 -0.101128,-0.128094 -0.155063,-0.18877 0.06742,0 0.141579,0.0068 0.208998,0.0068 -0.02023,0.06068 -0.03371,0.121354 -0.05393,0.18203 z"
     id="path161"
     inkscape:connector-curvature="0"
     style="fill:#88919c" /><path
     class="st70"
     d="m 24.639144,9.7324391 c 0.11461,-0.0068 0.22248,-0.01347 0.337093,-0.02023 l 0.03371,0.0068 0.03371,-0.0068 c 0,0.276415 -0.0068,0.5595739 0.0068,0.8359879 0.0068,0.128098 0.03371,0.256193 0.05393,0.384288 0,0.04719 0,0.09439 0,0.141579 -0.02023,0.06742 -0.03371,0.134839 -0.05393,0.202255 -0.121354,0 -0.242708,0 -0.404512,0 -0.0068,-0.519123 -0.0068,-1.031505 -0.0068,-1.5438849 z"
     id="path163"
     inkscape:connector-curvature="0"
     style="fill:#f1f2f4" /><path
     class="st71"
     d="m 25.097592,10.939231 c -0.02023,-0.128095 -0.04719,-0.25619 -0.05393,-0.384285 -0.0068,-0.276418 -0.0068,-0.5595759 -0.0068,-0.8359909 0.0068,-0.02023 0,-0.04045 -0.0068,-0.06068 0,-0.02023 0,-0.04719 0,-0.06742 0,-0.289902 0,-0.586542 0,-0.876441 0,-0.269677 0,-0.539352 0,-0.809026 0.0068,-0.11461 0.01347,-0.22248 0.02023,-0.337093 0.04045,0.02023 0.07416,0.04719 0.11461,0.06742 0,0.08765 0,0.175289 0,0.25619 -0.01347,0.09439 -0.03371,0.188773 -0.04719,0.283158 0,0.182033 -0.0068,0.357319 -0.0068,0.539352 0,0.741603 -0.0068,1.4832089 -0.01347,2.2248119 z"
     id="path165"
     inkscape:connector-curvature="0"
     style="fill:#e5ebee" /><path
     class="st71"
     d="m 25.043657,11.276324 c 0.02023,-0.06742 0.03371,-0.134836 0.05393,-0.202255 0.0068,0.04719 0.01347,0.08764 0.02023,0.134839 -0.02023,0.02023 -0.04719,0.04719 -0.07416,0.06742 z"
     id="path167"
     inkscape:connector-curvature="0"
     style="fill:#e5ebee" /><path
     class="st72"
     d="m 24.430146,0.01741405 c 0,0.02023 -0.0068,0.04719 -0.0068,0.06742 -0.2899,0 -0.573058,0 -0.862961,0 -0.330349,0 -0.667443,0 -0.997795,0 0.02023,-0.02695 0.03371,-0.05394 0.05394,-0.0809 0.60677,0.0068 1.206794,0.01347 1.813561,0.01347 z"
     id="path169"
     inkscape:connector-curvature="0"
     style="fill:#bfd5e5" /><path
     class="st47"
     d="m 24.645885,9.5234411 c -0.114611,0.02695 -0.235965,0.04719 -0.397769,0.0809 0,-1.712436 0,-3.384415 0,-5.063141 0.10787,-0.0068 0.215739,-0.0068 0.323609,-0.01348 0.02698,0.0068 0.04719,0.01348 0.07416,0.01348 0,0.168548 -0.0068,0.343837 -0.0068,0.512382 0,1.08544 0,2.17088 0,3.25632 0,0.208999 -0.02698,0.417994 -0.03371,0.546092 0.01348,0.276415 0.02698,0.471929 0.04045,0.667443 z"
     id="path171"
     inkscape:connector-curvature="0"
     style="fill:#69bd6d" /><path
     class="st73"
     d="m 24.167212,4.4670441 c -0.02695,-0.249449 -0.06068,-0.498898 -0.08764,-0.748347 -0.0068,-0.0809 -0.0068,-0.161805 0.0068,-0.235965 0.02023,-0.121354 0.05393,-0.242708 0.0809,-0.364062 0.02023,0 0.04719,0 0.06742,0 0.02023,0.0809 0.06068,0.161808 0.06742,0.242708 0.0068,0.343834 0,0.694412 0,1.038246 -0.04719,0.02023 -0.09439,0.04719 -0.134838,0.06742 l 0,0 z"
     id="path173"
     inkscape:connector-curvature="0"
     style="fill:#0aa64d" /><path
     class="st74"
     d="m 24.645885,3.5299261 c -0.08764,0 -0.175286,0 -0.262931,0 0,-0.134838 -0.0068,-0.269677 -0.0068,-0.404512 0.04719,0 0.08764,0 0.134839,-0.0068 -0.0068,0.101129 -0.01347,0.208999 -0.02023,0.323612 0.04045,0.02695 0.09438,0.05394 0.155061,0.08764 z"
     id="path175"
     inkscape:connector-curvature="0"
     style="fill:#d0dcde" /><path
     class="st75"
     d="m 24.504306,3.1186701 c -0.04719,0 -0.08764,0 -0.134836,0.0068 0,-0.02023 0,-0.04719 0,-0.06742 0,-0.02695 0,-0.05394 0,-0.0809 0.06068,0 0.121354,0 0.18877,0 0.02698,0.02695 0.05393,0.04719 0.0809,0.07416 l 0.0067,0.02023 c -0.03371,0.01347 -0.06068,0.02695 -0.09438,0.04719 -0.02023,-0.02023 -0.03371,-0.01347 -0.04719,0 z"
     id="path177"
     inkscape:connector-curvature="0"
     style="fill:#0a834f" /><path
     class="st76"
     d="m 24.36947,2.9770941 c 0,0.02695 0,0.05394 0,0.0809 -0.04719,0 -0.08764,0 -0.134839,0 0,-0.06068 0.0068,-0.121355 0.0068,-0.18203 0.04719,0.02695 0.08764,0.06068 0.128095,0.101129 z"
     id="path179"
     inkscape:connector-curvature="0"
     style="fill:#0f954e" /><path
     class="st58"
     d="m 24.167212,4.4670441 c 0.04045,-0.02023 0.08764,-0.04719 0.128098,-0.06742 -0.04045,0.02023 -0.08764,0.04719 -0.128098,0.06742 z"
     id="path181"
     inkscape:connector-curvature="0"
     style="fill:#0aa24d" /><path
     class="st76"
     d="m 24.234631,3.1186701 c -0.02023,0 -0.04719,0 -0.06742,0 0,-0.02023 0,-0.04719 0,-0.06742 0.02023,0 0.04719,0 0.06742,0 0,0.02023 0,0.04719 0,0.06742 z"
     id="path183"
     inkscape:connector-curvature="0"
     style="fill:#0f954e" /><path
     class="st77"
     d="m 23.35819,1.2983681 c -0.161805,0 -0.316868,0 -0.478673,0 0,-0.229224 0.0068,-0.45170405 0.0068,-0.68092805 0.155061,0.188774 0.316865,0.0809 0.471929,0 0,0.235965 0,0.45844805 0,0.68092805 z"
     id="path185"
     inkscape:connector-curvature="0"
     style="fill:#edf0f4" /><path
     class="st78"
     d="m 23.35819,1.2983681 c 0,-0.22248 0,-0.45170405 0,-0.67418705 0,-0.05393 0,-0.10787 0,-0.11461 -0.168545,-0.0068 -0.323609,-0.01348 -0.471929,-0.02023 0,-0.04719 0,-0.08764 0,-0.134838 0.175286,0 0.350575,0.0068 0.525864,0.0068 l 0,0 c 0.0068,0.269674 0.01347,0.539348 0.01347,0.80228105 -0.0068,0.04719 -0.0068,0.08765 -0.01347,0.134836 l -0.03371,0.0068 -0.02023,-0.0068 z"
     id="path187"
     inkscape:connector-curvature="0"
     style="fill:#ccdee6" /><path
     class="st79"
     d="m 22.886261,0.48934505 c 0.14832,0.0068 0.29664,0.01348 0.471929,0.02023 0,0.0068 0,0.06068 0,0.11461 -0.155064,0.0809 -0.316868,0.188773 -0.471929,0 0,-0.04719 0,-0.08764 0,-0.134836 z"
     id="path189"
     inkscape:connector-curvature="0"
     style="fill:#e4ebef" /><path
     class="st80"
     d="m 23.418865,0.36125105 c -0.175285,0 -0.350574,-0.0068 -0.525863,-0.0068 -0.04719,0 -0.08764,-0.0068 -0.134839,-0.0068 0,-0.02023 0,-0.03371 0,-0.05394 0.222483,0 0.451707,0 0.674187,0 -0.0068,0.02695 -0.01347,0.04719 -0.01347,0.06742 z"
     id="path191"
     inkscape:connector-curvature="0"
     style="fill:#5b93b7" /><path
     class="st81"
     d="m 24.032377,0.42192605 c -0.0068,0.09439 -0.0068,0.18203 -0.01347,0.276418 -0.22248,-0.03371 -0.276415,0.128095 -0.323609,0.289899 -0.03371,0.10112905 -0.04719,0.20899905 -0.06742,0.31012505 -0.04045,0 -0.08764,0 -0.134836,0 0,-0.04045 -0.0068,-0.08765 -0.0068,-0.128095 0.01348,-0.21573905 0.03371,-0.43147905 0.04719,-0.60676805 0.134836,-0.09438 0.215739,-0.14832 0.296643,-0.202254 0.07416,0.02023 0.134836,0.04045 0.202255,0.06067 z"
     id="path193"
     inkscape:connector-curvature="0"
     style="fill:#bbd0dc" /><path
     class="st82"
     d="m 23.627864,1.2916271 c 0.02023,-0.101129 0.04045,-0.208999 0.06742,-0.31012405 0.04719,-0.155064 0.101129,-0.323612 0.323609,-0.289903 0,0.02023 0,0.04045 -0.0068,0.06068 -0.01347,0.01347 -0.02023,0.02695 -0.03371,0.04045 0.01347,0.01348 0.02695,0.02023 0.04045,0.03371 0.0068,0.02023 0.01347,0.04719 0.02023,0.06742 0,0.06742 0,0.13483605 0.0068,0.20225505 0.0068,0.06742 0.01347,0.128095 0.02023,0.195514 -0.141579,0.0068 -0.289899,0 -0.438222,0 z"
     id="path195"
     inkscape:connector-curvature="0"
     style="fill:#f0f2f6" /><path
     class="st0"
     d="m 24.234631,1.4332061 c -0.134835,0 -0.269674,0 -0.404509,0 -0.114614,0 -0.222483,0 -0.337094,0 -0.222483,0 -0.444963,0 -0.667446,0 -0.08764,0 -0.175288,0.0068 -0.269674,0.0068 0,-0.02023 0,-0.04045 0.0068,-0.06068 0.620252,0 1.240504,0 1.860756,0.0068 0,0.101129 0,0.202258 0,0.303384 -0.01347,0.01347 -0.03371,0.01347 -0.05394,0.01347 0,-0.02023 0,-0.04045 0,-0.06742 0,-0.101126 0.02023,-0.208995 -0.134838,-0.202255 z"
     id="path197"
     inkscape:connector-curvature="0"
     style="fill:#05884e" /><path
     class="st83"
     d="m 23.493028,1.1635321 c 0,0.04045 0.0068,0.08764 0.0068,0.128095 -0.02695,0 -0.05393,0 -0.07416,0 0.0068,-0.04719 0.0068,-0.08764 0.01347,-0.134839 l 0.02695,0 0.02698,0.0068 z"
     id="path199"
     inkscape:connector-curvature="0"
     style="fill:#5f92a7" /><path
     class="st43"
     d="m 23.425609,0.29383105 c -0.222483,0 -0.451704,0 -0.674187,0 -0.06742,-0.02698 -0.128094,-0.05393 -0.195514,-0.0809 0.357319,0 0.714637,0 1.071956,0.0068 0.269674,0 0.532607,0 0.802282,-0.0068 0,0.02698 0.0068,0.04719 0.0068,0.07416 -0.114614,0 -0.229224,0.0068 -0.337094,0.0068 -0.229224,0 -0.451707,0 -0.674187,0 z"
     id="path201"
     inkscape:connector-curvature="0"
     style="fill:#aec7de" /><path
     class="st84"
     d="m 23.425609,0.29383105 c 0.22248,0 0.444963,0 0.667443,0 -0.02023,0.04045 -0.04045,0.0809 -0.06068,0.121354 -0.06742,-0.02023 -0.134838,-0.04045 -0.195514,-0.06068 -0.141579,0 -0.276418,0 -0.417997,0 0,0 0,0 0,0 0,-0.01348 0.0068,-0.03371 0.0068,-0.06068 z"
     id="path203"
     inkscape:connector-curvature="0"
     style="fill:#4b88ac" /><path
     class="st81"
     d="m 24.025636,0.82643905 c -0.01347,-0.01348 -0.02698,-0.02023 -0.04045,-0.03371 0.01347,-0.01347 0.02023,-0.02698 0.03371,-0.04045 0,0.02695 0.0068,0.05394 0.0068,0.07416 z"
     id="path205"
     inkscape:connector-curvature="0"
     style="fill:#bbd0dc" /><path
     class="st34"
     d="m 23.088516,12.085349 c -0.06742,0.03371 -0.128095,0.06742 -0.215739,0.10787 -0.03371,-0.02698 -0.07416,-0.06742 -0.121355,-0.10787 0,-0.02023 0,-0.04719 0,-0.06742 0.155064,-0.08764 0.316869,-0.175289 0.471932,-0.262933 0.06742,0 0.134836,0 0.202255,-0.0068 0,0.02023 0,0.04045 0,0.06067 -0.0809,0.02023 -0.161804,0.04045 -0.235964,0.06742 -0.01347,0.0068 -0.02023,0.04045 -0.03371,0.06742 -0.02023,0.05394 -0.04719,0.09439 -0.06742,0.141579 0,0 0,0 0,0 z"
     id="path207"
     inkscape:connector-curvature="0"
     style="fill:#c4cdd6" /><path
     class="st68"
     d="m 23.223354,11.754997 c -0.155063,0.08764 -0.316868,0.175289 -0.471932,0.262933 0,-0.02023 0,-0.04719 -0.0068,-0.06742 0.0809,-0.249449 0.2899,-0.188771 0.478673,-0.195514 z"
     id="path209"
     inkscape:connector-curvature="0"
     style="fill:#bcc7d1" /><path
     class="st34"
     d="m 22.764907,12.692117 c 0.02023,0.11461 0.03371,0.229223 0.05393,0.337093 -0.02023,0 -0.04045,0 -0.06068,0 0,-0.114613 0,-0.222483 0.0068,-0.337093 z"
     id="path211"
     inkscape:connector-curvature="0"
     style="fill:#c4cdd6" /><path
     class="st35"
     d="m 24.167212,11.883091 c 0.06742,0 0.134839,0 0.202258,0 0,0.02023 0,0.0472 0,0.06742 -0.02023,0.02023 -0.04719,0.04719 -0.06742,0.06742 0,0 0,0 0,0 -0.06742,0.02023 -0.134839,0.04719 -0.202255,0.06742 0.02023,-0.06742 0.04719,-0.134838 0.06742,-0.202258 z"
     id="path213"
     inkscape:connector-curvature="0"
     style="fill:#becedc" /><path
     class="st34"
     d="m 24.302051,12.01793 c 0.02023,-0.02023 0.04719,-0.04719 0.06742,-0.06742 0,0.02023 0,0.04719 0,0.06742 -0.02023,0 -0.04719,0 -0.06742,0 z"
     id="path215"
     inkscape:connector-curvature="0"
     style="fill:#c4cdd6" /><path
     class="st85"
     d="m 24.645885,9.5234411 c -0.01348,-0.195514 -0.02695,-0.391028 -0.04719,-0.660702 0.0068,-0.128095 0.03371,-0.337094 0.03371,-0.546092 0.0068,-1.08544 0,-2.17088 0,-3.256321 0,-0.168545 0,-0.343834 0.0068,-0.512379 0.06068,0 0.128095,-0.0068 0.188773,-0.0068 0,0.02023 0.0068,0.04045 0.01347,0.06068 0.02023,0.202255 0.04045,0.40451 0.06068,0.613508 0,0.08765 0.0068,0.175289 0.0068,0.269674 0.0068,0.316868 0.01347,0.626996 0.01347,0.943861 0.01347,0.492157 0.03371,0.991055 0.04719,1.483212 0,0.269674 0,0.539348 0,0.809022 0,0.269674 -0.0068,0.532608 -0.0068,0.802282 -0.101129,-0.0068 -0.208998,-0.0068 -0.316868,0 z"
     id="path217"
     inkscape:connector-curvature="0"
     style="fill:#89c688" /><path
     class="st71"
     d="m 24.982978,4.7434611 c 0.114614,0.01348 0.235968,0.03371 0.350578,0.04719 -0.04719,0.02023 -0.101129,0.04045 -0.128095,0.0472 -0.03371,0.188773 -0.06068,0.357318 -0.09439,0.519123 0.03371,0.134838 0.07416,0.262933 0.114614,0.431478 -0.08764,-0.03371 -0.134839,-0.04719 -0.18203,-0.06068 -0.0068,0.06068 -0.01347,0.11461 -0.01347,0.168545 -0.01347,-0.01348 -0.03371,-0.02023 -0.04719,-0.02695 -0.0068,-0.128095 -0.01347,-0.262934 -0.01347,-0.391028 0,-0.242709 0.0068,-0.485414 0.01347,-0.734863 z"
     id="path219"
     inkscape:connector-curvature="0"
     style="fill:#e5ebee" /><path
     class="st86"
     d="m 24.969497,5.4783241 c 0.0068,0.128094 0.01347,0.262933 0.01347,0.391028 -0.0068,0.182029 -0.01347,0.370803 -0.02023,0.552832 -0.01347,0 -0.02695,0 -0.03371,0 -0.0068,-0.316868 -0.01348,-0.626992 -0.01348,-0.94386 0.01348,0 0.03371,0 0.05394,0 z"
     id="path221"
     inkscape:connector-curvature="0"
     style="fill:#098850" /><path
     class="st87"
     d="m 24.908818,5.2086501 c -0.02023,-0.202258 -0.04045,-0.404513 -0.06068,-0.613512 l 0.03371,0 c 0,0 0.02695,-0.0068 0.02695,-0.0068 0,0.208998 0,0.417994 0,0.620251 z"
     id="path223"
     inkscape:connector-curvature="0"
     style="fill:#489e5c" /><path
     class="st88"
     d="m 24.908818,4.5951381 -0.02695,0.0068 -0.03371,0 c -0.0068,-0.02023 -0.0068,-0.04045 -0.01348,-0.06068 0.02023,0 0.04045,0 0.06068,0.0068 0.0068,0.01348 0.01347,0.02695 0.01347,0.04719 z"
     id="path225"
     inkscape:connector-curvature="0"
     style="fill:#0d844d" /><path
     class="st89"
     d="m 25.036913,5.8963181 c 0.0068,-0.05394 0.01348,-0.10787 0.01348,-0.168545 0.04719,0.01347 0.08764,0.03371 0.18203,0.06068 -0.04719,-0.168545 -0.0809,-0.29664 -0.114611,-0.431478 0.02695,-0.161805 0.06068,-0.323609 0.09438,-0.519123 0.02698,-0.0068 0.07416,-0.02698 0.128095,-0.0472 0.02023,0 0.03371,0 0.05393,0.0068 0,0.02023 0,0.04045 0,0.06068 0,0.02698 0,0.06068 0,0.08764 0,0.10787 0,0.222483 0.0068,0.330353 -0.0068,0.02023 -0.01347,0.04719 -0.02023,0.06742 -0.02023,0.09439 -0.03371,0.182033 -0.05394,0.276418 0,0.10787 0.0068,0.22248 0.0068,0.33035 0,0 -0.01347,-0.0068 -0.01347,-0.0068 -0.02023,0.09439 -0.04045,0.182029 -0.06068,0.276418 0.0067,0.06742 0.0067,0.134835 0.01348,0.202254 -0.0068,0.04045 -0.01348,0.08765 -0.02023,0.128095 -0.02023,0 -0.04045,0 -0.06068,0 -0.0067,-0.03371 -0.01347,-0.06742 -0.02023,-0.09439 -0.01347,0.0068 -0.02698,0.01347 -0.04045,0.02023 0.02023,0.02698 0.04045,0.04719 0.06067,0.07416 0,0.208999 0,0.411254 0.0068,0.620252 0.0068,0.04045 0.01347,0.0809 0.02023,0.121354 -0.01347,0.114611 -0.02023,0.22248 -0.03371,0.337094 -0.04045,-0.02023 -0.07416,-0.0472 -0.114613,-0.06742 0,-0.02023 0,-0.04719 0,-0.06742 0.01347,-0.01347 0.02698,-0.02023 0.03371,-0.03371 -0.01347,-0.01347 -0.02695,-0.02023 -0.03371,-0.03371 -0.0068,-0.337094 -0.02023,-0.674187 -0.02695,-1.011277 -0.01347,-0.168549 -0.01347,-0.343837 -0.0068,-0.519126 z"
     id="path227"
     inkscape:connector-curvature="0"
     style="fill:#ebeef0" /><path
     class="st90"
     d="m 25.124557,8.1750671 c 0.01347,-0.09438 0.03371,-0.18877 0.04719,-0.283158 0,0.09439 0,0.188773 0.0068,0.276418 -0.02023,0.0068 -0.03371,0.0068 -0.05393,0.0068 z"
     id="path229"
     inkscape:connector-curvature="0"
     style="fill:#739fb7" /><path
     class="st71"
     d="m 25.387491,4.9524571 c 0,-0.02695 0,-0.06068 0,-0.08764 0.01347,0.01348 0.02695,0.02695 0.04045,0.04045 -0.02023,0.01347 -0.02695,0.03371 -0.04045,0.04719 z"
     id="path231"
     inkscape:connector-curvature="0"
     style="fill:#e5ebee" /><path
     class="st71"
     d="m 25.178492,6.5570201 c 0.02023,0 0.04045,0 0.06068,0 0,0.202258 0,0.404513 -0.0068,0.600027 -0.02023,0 -0.03371,0.0068 -0.05393,0.01347 0,-0.202255 0,-0.404513 0,-0.613511 l 0,0 z"
     id="path233"
     inkscape:connector-curvature="0"
     style="fill:#e5ebee" /><path
     class="st91"
     d="m 23.627864,0.21967105 c -0.357319,0 -0.714637,0 -1.071956,-0.0068 0,-0.04045 0,-0.0809 0.0068,-0.121352 0.330353,0 0.667446,0 0.997796,0 0.02023,0.04045 0.04719,0.0809 0.06742,0.128095 z"
     id="path235"
     inkscape:connector-curvature="0"
     style="fill:#f7f7f9" /><path
     class="st92"
     d="m 24.308791,12.901115 c 0.02023,-0.134838 0.03371,-0.269677 0.05393,-0.411256 0,0.134838 0.0068,0.269677 0.0068,0.397772 -0.02023,0.0068 -0.04045,0.0068 -0.06068,0.01347 z"
     id="path237"
     inkscape:connector-curvature="0"
     style="fill:#c4d8e6" /><path
     class="st93"
     d="m 24.504306,3.1186701 c 0.01347,-0.01347 0.02698,-0.02023 0.04719,-0.01347 0.02698,0.0068 0.06068,0.0068 0.08764,0.01347 0,0.02023 0,0.04719 0,0.06742 -0.02023,0.02698 -0.04045,0.04719 -0.06068,0.07416 0.01347,0.0068 0.02695,0.01348 0.04045,0.02023 0.0068,-0.03371 0.01347,-0.06742 0.02023,-0.09439 0.01347,-0.01347 0.02695,-0.02023 0.04719,-0.03371 -0.01348,-0.01348 -0.02698,-0.02023 -0.04045,-0.03371 0,-0.02023 0.0068,-0.03371 0.0068,-0.05394 l -0.0068,-0.02023 c 0.06068,-0.06742 0.128097,-0.134836 0.188773,-0.202255 0,-0.08764 0,-0.175289 0,-0.262933 0.0068,-0.02023 0.0068,-0.03371 0.0068,-0.05393 0.0068,-0.06068 0.04045,-0.134836 0.01347,-0.168545 -0.09438,-0.134839 -0.06068,-0.262934 0,-0.391028 0.02023,0 0.04045,0 0.06068,-0.0068 l -0.0068,0.02023 c 0.02698,0.02023 0.04719,0.03371 0.07416,0.05394 0.02023,0 0.04045,0.0068 0.06068,0.0068 0.04045,0.04045 0.0809,0.08764 0.128095,0.128094 0.02695,0.02023 0.04719,0.0472 0.07416,0.06742 0.0068,0.04045 0.01347,0.0809 0.02023,0.128095 0.02023,0.09439 0.04045,0.182029 0.06068,0.276417 -0.02023,0.134836 -0.04045,0.269674 -0.06068,0.40451 -0.01348,0.02023 -0.02023,0.04045 -0.02023,0.06068 -0.06742,0.08764 -0.134839,0.175289 -0.202255,0.256189 -0.02023,0.02698 -0.04719,0.05394 -0.06742,0.0809 -0.02023,0 -0.04045,0.0068 -0.06742,0.0068 -0.06742,0.02698 -0.134836,0.04719 -0.202255,0.07416 -0.02023,-0.0068 -0.04045,-0.01348 -0.06068,-0.01348 -0.05393,-0.03371 -0.10787,-0.06068 -0.161804,-0.08764 0.0068,-0.09439 0.01347,-0.202258 0.02023,-0.303387 z"
     id="path239"
     inkscape:connector-curvature="0"
     style="fill:#f8f8f8" /><path
     class="st94"
     d="m 24.848143,1.9658141 c -0.06068,0.128095 -0.09439,0.256189 0,0.391028 0.02695,0.03371 -0.0068,0.11461 -0.01347,0.168545 -0.06742,-0.04719 -0.134839,-0.09439 -0.195514,-0.141579 0,0 0.0068,-0.02023 0.0068,-0.02023 -0.02695,-0.01348 -0.06068,-0.02695 -0.08764,-0.04045 -0.04045,-0.0068 -0.0809,-0.01347 -0.121352,-0.02023 0,-0.121354 0,-0.235967 0,-0.370803 0.09439,-0.01347 0.155061,-0.02698 0.21574,-0.03371 0.06742,0.02023 0.128095,0.04719 0.195514,0.06742 z"
     id="path241"
     inkscape:connector-curvature="0"
     style="fill:#eaedef" /><path
     class="st95"
     d="m 22.806063,14.850215 c 0.0067,0.06742 0.0067,0.128098 0.01347,0.195515 -0.02023,0 -0.04045,0 -0.06742,0.0068 0.02023,-0.06742 0.04045,-0.134838 0.05393,-0.202258 z"
     id="path243"
     inkscape:connector-curvature="0"
     style="fill:#7da6c4" /><path
     class="st71"
     d="m 25.320072,5.6199031 c 0.02023,-0.09439 0.03371,-0.18203 0.05393,-0.276418 0,0.06742 0.0068,0.134839 0.0068,0.202258 -0.02023,0.02695 -0.04045,0.05394 -0.06068,0.07416 z"
     id="path245"
     inkscape:connector-curvature="0"
     style="fill:#e5ebee" /><path
     class="st96"
     d="m 22.555908,1.4399471 c 0.08765,0 0.175289,-0.0068 0.269674,-0.0068 0,0.06742 0,0.134836 0,0.195514 -0.06742,0 -0.134835,0 -0.202254,0 -0.02023,-0.04719 -0.04719,-0.08764 -0.06742,-0.134838 -0.0068,-0.01348 0,-0.03371 0,-0.05394 z"
     id="path247"
     inkscape:connector-curvature="0"
     style="fill:#3eb458" /><path
     class="st0"
     d="m 22.549168,1.5006261 c 0.02023,0.04719 0.04719,0.08764 0.06742,0.134835 0,0.02023 0,0.04719 0,0.06742 -0.02023,-0.06742 -0.04045,-0.134838 -0.06742,-0.202254 z"
     id="path249"
     inkscape:connector-curvature="0"
     style="fill:#05884e" /><path
     class="st71"
     d="m 25.245912,6.2266701 c 0.02023,-0.09438 0.04045,-0.182029 0.06068,-0.276418 0,0.06742 0.0068,0.134839 0.0068,0.202258 -0.02023,0.02695 -0.04045,0.04719 -0.06742,0.07416 z"
     id="path251"
     inkscape:connector-curvature="0"
     style="fill:#e5ebee" /><path
     class="st97"
     d="m 23.627864,0.21967105 c -0.02023,-0.04719 -0.04719,-0.08764 -0.06742,-0.134838 0.289902,0 0.573061,0 0.86296,0 0,0.04045 0,0.0809 0,0.128095 -0.262933,0 -0.532607,0.0068 -0.795541,0.0068 z"
     id="path253"
     inkscape:connector-curvature="0"
     style="fill:#eaf2f7" /><path
     class="st94"
     d="m 24.976237,2.0399741 c -0.02698,-0.02023 -0.04719,-0.03371 -0.07416,-0.05394 0.02023,-0.0068 0.04719,-0.0068 0.06742,-0.01348 0.0068,0.02023 0.0068,0.0472 0.0068,0.06742 z"
     id="path255"
     inkscape:connector-curvature="0"
     style="fill:#eaedef" /><path
     class="st98"
     d="m 23.985183,7.0491771 c 0,-0.33035 0,-0.653962 0,-0.984311 0.01347,0 0.02023,0 0.03371,0 0,0.330349 0,0.653961 0,0.984311 -0.01347,0 -0.02695,0 -0.03371,0 z"
     id="path257"
     inkscape:connector-curvature="0"
     style="fill:#039e53" /><path
     class="st99"
     d="m 23.978442,8.6604841 c 0,-0.141579 0,-0.283159 0,-0.424738 0.01347,0 0.02023,0 0.03371,0 0,0.141579 0,0.276415 0,0.417994 -0.01347,0 -0.02698,0 -0.03371,0.0068 z"
     id="path259"
     inkscape:connector-curvature="0"
     style="fill:#00a057" /><path
     class="st63"
     d="m 24.099796,2.2422281 c -0.01347,-0.01347 -0.02698,-0.02023 0,0 -0.02023,-0.02695 -0.01347,-0.01347 0,0 l 0,0 z"
     id="path261"
     inkscape:connector-curvature="0"
     style="fill:#0ba74e" /><path
     class="st100"
     d="m 24.827917,2.8422551 c -0.06068,0.06742 -0.128097,0.134839 -0.188773,0.202255 -0.02698,-0.02695 -0.05394,-0.04719 -0.0809,-0.07416 0.10787,-0.10787 0.208999,-0.215739 0.141579,-0.391028 0.02698,0 0.05393,0 0.0809,0 0.01348,0.08764 0.03371,0.175289 0.04719,0.262933 z"
     id="path263"
     inkscape:connector-curvature="0"
     style="fill:#468c6e" /><path
     class="st101"
     d="m 24.780723,2.5793221 c -0.02698,0 -0.05393,0 -0.0809,0 -0.04719,-0.04045 -0.09439,-0.0809 -0.141579,-0.128095 0.02698,-0.02695 0.05393,-0.04719 0.07416,-0.07416 0.06742,0.04719 0.134836,0.09438 0.195514,0.141579 0,0.02023 0,0.04045 -0.0068,0.05393 -0.01347,0.01348 -0.02695,0.01348 -0.04045,0.0068 z"
     id="path265"
     inkscape:connector-curvature="0"
     style="fill:#478c66" /><path
     class="st102"
     d="m 22.818842,1.6354611 c 0,-0.06742 0,-0.134835 0,-0.195514 0.22248,0 0.444963,0 0.667443,0 -0.0068,0.05393 -0.0068,0.10787 -0.01347,0.202258 -0.222483,-0.0068 -0.438223,-0.0068 -0.653962,-0.0068 z"
     id="path267"
     inkscape:connector-curvature="0"
     style="fill:#5ab565" /><path
     class="st103"
     d="m 24.234631,1.4332061 c 0.155064,-0.0068 0.134839,0.101129 0.128095,0.202255 -0.14832,0 -0.128095,-0.10787 -0.128095,-0.202255 z"
     id="path269"
     inkscape:connector-curvature="0"
     style="fill:#14ab4e" /><path
     class="st54"
     d="m 24.5515,2.3231321 c 0.02698,0.01348 0.06068,0.02695 0.08764,0.04045 -0.02698,-0.01348 -0.05394,-0.02695 -0.08764,-0.04045 z"
     id="path271"
     inkscape:connector-curvature="0"
     style="fill:#c1d2d7" /><path
     class="st104"
     d="m 24.969497,9.5167001 c 0,-0.269677 0.0068,-0.532607 0.0068,-0.802281 0.02023,0 0.03371,0 0.05393,0 0,0.289899 0,0.586539 0,0.876441 -0.02023,-0.02698 -0.04045,-0.05393 -0.06068,-0.07416 z"
     id="path273"
     inkscape:connector-curvature="0"
     style="fill:#247f4e" /><path
     class="st104"
     d="m 25.030172,9.6582791 c 0.01347,0.02023 0.01347,0.04045 0.0068,0.06068 l -0.03371,0.0068 -0.03371,-0.0068 c 0.02695,-0.02023 0.04719,-0.04045 0.06068,-0.06068 z"
     id="path275"
     inkscape:connector-curvature="0"
     style="fill:#247f4e" /><path
     class="st105"
     d="m 23.425609,11.815675 c 0,-0.02023 0,-0.04045 0,-0.06068 0.155064,0 0.316868,0 0.471929,0 0,0.04045 0,0.08764 0,0.128094 -0.04719,0.02023 -0.08764,0.0472 -0.134835,0.06742 -0.06068,-0.168543 -0.208999,-0.128093 -0.337094,-0.134834 z"
     id="path277"
     inkscape:connector-curvature="0"
     style="fill:#cedfec" /><path
     class="st34"
     d="m 23.897538,11.883091 c 0,-0.04045 0,-0.08764 0,-0.128094 0.06742,0 0.134839,0 0.202258,0 0.02023,0.04045 0.04719,0.08764 0.06742,0.128094 -0.02023,0.06742 -0.04719,0.134839 -0.06742,0.202258 -0.06742,-0.06742 -0.134839,-0.134838 -0.202258,-0.202258 z"
     id="path279"
     inkscape:connector-curvature="0"
     style="fill:#c4cdd6" /><path
     class="st106"
     d="m 25.030172,6.4221841 c 0.0068,0.337094 0.02023,0.674187 0.02695,1.01128 -0.01347,0.02023 -0.01347,0.04045 0,0.06742 0,0.02023 0,0.04719 0,0.06742 -0.0068,0.114613 -0.01347,0.222483 -0.02023,0.337093 -0.02023,0 -0.04045,0 -0.05394,0 -0.01347,-0.492154 -0.03371,-0.991052 -0.04719,-1.483209 0.01347,0 0.02695,0 0.03371,0 0.02023,0 0.04045,0 0.06067,0 z"
     id="path281"
     inkscape:connector-curvature="0"
     style="fill:#478660" /><path
     class="st107"
     d="m 24.976237,7.9053931 c 0.02023,0 0.04045,0 0.05393,0 0,0.269674 0,0.539349 0,0.809026 -0.02023,0 -0.03371,0 -0.05393,0 0,-0.269677 0,-0.539352 0,-0.809026 z"
     id="path283"
     inkscape:connector-curvature="0"
     style="fill:#388158" /><path
     class="st74"
     d="m 24.645885,3.0647351 c 0,0.02023 0,0.03371 -0.0068,0.05394 l 0,0 c -0.02698,-0.0068 -0.06068,-0.0068 -0.08764,-0.01347 0.03371,-0.01348 0.06068,-0.02698 0.09439,-0.04045 z"
     id="path285"
     inkscape:connector-curvature="0"
     style="fill:#d0dcde" /><path
     class="st108"
     d="m 23.418865,0.36125105 c 0.14158,0 0.276418,0 0.417998,0 -0.0809,0.05393 -0.161805,0.107869 -0.296643,0.202254 -0.01348,0.175289 -0.02695,0.391029 -0.04719,0.60676805 l -0.02698,0 -0.02695,0 C 23.4323,0.89385805 23.42563,0.63092505 23.41887,0.36125105 Z"
     id="path287"
     inkscape:connector-curvature="0"
     style="fill:#5890b1" /><path
     class="st109"
     d="m 23.425609,11.815675 c 0.128095,0.0068 0.276415,-0.03371 0.337094,0.134836 -0.04719,0 -0.08764,0 -0.134839,0 -0.155061,0 -0.316868,0 -0.471929,0 0.01347,-0.02023 0.01347,-0.06068 0.03371,-0.06742 0.07416,-0.02695 0.155061,-0.04719 0.235965,-0.06742 z"
     id="path289"
     inkscape:connector-curvature="0"
     style="fill:#e9eff1" /><path
     class="st105"
     d="m 23.155935,11.950511 c 0.155061,0 0.316868,0 0.471929,0 -0.02023,0.04719 -0.04719,0.08764 -0.06742,0.134838 -0.04719,0 -0.08764,0 -0.134836,0 -0.114613,0 -0.222483,0 -0.337093,0 0.02023,-0.04719 0.04719,-0.08764 0.06742,-0.134838 z"
     id="path291"
     inkscape:connector-curvature="0"
     style="fill:#cedfec" /><path
     class="st92"
     d="m 23.695283,12.085349 -0.03371,0 -0.03371,0 c -0.02023,0 -0.04719,0 -0.06742,0 l 0,0 c 0.02023,-0.04719 0.04719,-0.08764 0.06742,-0.134838 0.04719,0 0.08764,0 0.134839,0 0.04719,-0.02023 0.08764,-0.04719 0.134835,-0.06742 0.06742,0.06742 0.134839,0.134839 0.202258,0.202258 0.06742,-0.02023 0.134836,-0.04719 0.202255,-0.06742 -0.04045,0.07416 -0.0809,0.14832 -0.134839,0.242708 0,0.215739 0,0.458445 0,0.694412 l -0.03371,0 -0.03371,0 c 0,-0.229224 0,-0.465191 0,-0.694412 -0.02023,0 -0.04719,0 -0.06742,0 0,0.25619 0,0.512379 0,0.761828 -0.02023,0 -0.04719,0 -0.06742,0 0,-0.18877 0.0068,-0.377543 0,-0.566314 -0.0068,-0.128098 -0.04045,-0.249449 -0.06068,-0.377546 -0.02023,0 -0.04719,0 -0.06742,0 -0.02023,0 -0.04719,0 -0.06742,0 -0.02695,0.0068 -0.05394,0.0068 -0.07416,0.0068 z"
     id="path293"
     inkscape:connector-curvature="0"
     style="fill:#c4d8e6" /><path
     class="st110"
     d="m 23.762703,12.085349 c 0.02023,0 0.04719,0 0.06742,0 0,0.323609 0,0.640477 0,0.964086 -0.02023,0 -0.04719,0 -0.06742,0 0,-0.316868 0,-0.640477 0,-0.964086 z"
     id="path295"
     inkscape:connector-curvature="0"
     style="fill:#daeaf4" /><path
     class="st111"
     d="m 23.897538,12.085349 c 0.02023,0.128095 0.05393,0.249449 0.06068,0.377544 0.01347,0.188773 0,0.377544 0,0.566317 -0.02023,-0.128095 -0.05394,-0.249449 -0.06742,-0.377544 0,-0.188773 0.0068,-0.377546 0.0068,-0.566317 z"
     id="path297"
     inkscape:connector-curvature="0"
     style="fill:#d8e6f2" /><path
     class="st112"
     d="m 24.032377,13.02921 c 0,-0.256193 0,-0.512382 0,-0.761831 0.02023,0 0.04719,0 0.06742,0 0,0.229224 0,0.465188 0,0.694412 -0.02023,0.02023 -0.04719,0.04719 -0.06742,0.06742 z"
     id="path299"
     inkscape:connector-curvature="0"
     style="fill:#d6e7f3" /><path
     class="st113"
     d="m 25.030172,6.4221841 c -0.02023,0 -0.04045,0 -0.06068,0 0.0068,-0.182029 0.01347,-0.370803 0.02023,-0.552832 0.02023,0.0068 0.03371,0.02023 0.04719,0.02695 -0.0068,0.175289 -0.0068,0.350577 -0.0068,0.525866 z"
     id="path301"
     inkscape:connector-curvature="0"
     style="fill:#5e9a72" /><path
     class="st71"
     d="m 25.178492,6.5570201 c -0.02023,-0.02695 -0.04045,-0.04719 -0.06068,-0.07416 0.01347,-0.0068 0.02695,-0.01347 0.04045,-0.02023 0.0068,0.02698 0.01347,0.06068 0.02023,0.09439 l 0,0 z"
     id="path303"
     inkscape:connector-curvature="0"
     style="fill:#e5ebee" /><path
     class="st71"
     d="m 25.057138,7.5008811 c -0.01347,-0.02023 -0.01347,-0.04045 0,-0.06742 0.01348,0.01348 0.02698,0.02023 0.03371,0.03371 -0.01347,0.01348 -0.02695,0.02023 -0.03371,0.03371 z"
     id="path305"
     inkscape:connector-curvature="0"
     style="fill:#e5ebee" /><path
     class="st114"
     d="m 24.780723,2.5793221 c 0.01348,0 0.02695,0 0.04045,0 0,0.08764 0,0.175289 0,0.262933 -0.0068,-0.08764 -0.02695,-0.175289 -0.04045,-0.262933 z"
     id="path307"
     inkscape:connector-curvature="0"
     style="fill:#178150" /><path
     class="st74"
     d="m 24.639144,3.1860891 c -0.0068,0.03371 -0.01348,0.06742 -0.02023,0.09439 -0.01347,-0.0068 -0.02698,-0.01348 -0.04045,-0.02023 0.02023,-0.02695 0.04045,-0.04719 0.06068,-0.07416 l 0,0 z"
     id="path309"
     inkscape:connector-curvature="0"
     style="fill:#d0dcde" /><path
     class="st74"
     d="m 24.639144,3.1860891 c 0,-0.02023 0,-0.04719 0,-0.06742 0,0 0,0 0,0 0.01348,0.01347 0.02695,0.02023 0.04045,0.03371 -0.01348,0.01347 -0.02695,0.02023 -0.04045,0.03371 l 0,0 z"
     id="path311"
     inkscape:connector-curvature="0"
     style="fill:#d0dcde" /><path
     class="st105"
     d="m 23.560445,12.085349 c 0.02023,0 0.04719,0 0.06742,0 0,0.05393 0,0.101126 0,0.155061 -0.01348,0 -0.02695,0 -0.04719,0.0068 -0.0068,-0.05394 -0.01347,-0.10787 -0.02023,-0.161805 z"
     id="path313"
     inkscape:connector-curvature="0"
     style="fill:#cedfec" /><path
     class="st115"
     d="m 24.376211,13.379785 c -0.02023,0.222483 -0.04719,0.444963 -0.06742,0.674187 -0.02023,-0.07416 -0.04045,-0.14158 -0.06742,-0.21574 0,-0.04045 -0.0068,-0.08764 -0.0068,-0.128094 0.01347,-0.09439 0.03371,-0.18203 0.04719,-0.276418 0.0068,-0.08764 0.01347,-0.175286 0.02023,-0.269674 0.02698,0.07416 0.05393,0.141579 0.07416,0.215739 z"
     id="path315"
     inkscape:connector-curvature="0"
     style="fill:#80aac3" /><path
     class="st116"
     d="m 22.812098,14.323646 c -0.01348,-0.14158 -0.03371,-0.283159 -0.04719,-0.424735 0.02023,0 0.04045,0 0.06068,0 0.02023,0 0.04045,0 0.06068,0.0068 0,0.107869 0,0.22248 0,0.330349 -0.02698,0.03371 -0.05393,0.06068 -0.07416,0.08764 z"
     id="path317"
     inkscape:connector-curvature="0"
     style="fill:#7fa6c5" /><path
     class="st117"
     d="m 22.818842,13.905652 c -0.02023,0 -0.04045,0 -0.06068,0 -0.0068,-0.155064 -0.0068,-0.310125 -0.01347,-0.465189 0.02023,-0.06742 0.04045,-0.134838 0.06068,-0.202257 0.0068,0.08764 0.01347,0.175289 0.02023,0.262933 0,0.134839 0,0.269674 -0.0068,0.404513 z"
     id="path319"
     inkscape:connector-curvature="0"
     style="fill:#6498bb" /><path
     class="st118"
     d="m 24.241375,13.838232 c 0.02023,0.07416 0.04045,0.14158 0.06742,0.21574 -0.0068,0.155063 -0.01347,0.303383 -0.01347,0.458447 -0.02023,-0.02698 -0.04045,-0.04719 -0.06068,-0.07416 0,-0.202258 0.0068,-0.397772 0.0068,-0.600027 z"
     id="path321"
     inkscape:connector-curvature="0"
     style="fill:#76a3c1" /><path
     class="st95"
     d="m 22.812098,14.323646 c 0.02698,-0.02695 0.04719,-0.05393 0.07416,-0.0809 0.0068,0.128095 0.0068,0.262933 0.01347,0.391028 -0.02023,0.09439 -0.04045,0.18203 -0.06068,0.276415 -0.01347,-0.195514 -0.02023,-0.391028 -0.02698,-0.586542 z"
     id="path323"
     inkscape:connector-curvature="0"
     style="fill:#7da6c4" /><path
     class="st119"
     d="m 24.227891,14.431515 c 0.02023,0.02698 0.04045,0.04719 0.06068,0.07416 -0.02023,0.134836 -0.03371,0.276415 -0.05393,0.411254 -0.0068,-0.02023 -0.0068,-0.04719 -0.01347,-0.06742 -0.01348,-0.04719 -0.03371,-0.09439 -0.04719,-0.134838 0.02023,-0.09438 0.04045,-0.18877 0.05393,-0.283159 z"
     id="path325"
     inkscape:connector-curvature="0"
     style="fill:#75a4c7" /><path
     class="st116"
     d="m 22.832326,14.910188 c 0.02023,-0.09439 0.04045,-0.18203 0.06068,-0.276415 0.02023,0.114611 0.03371,0.235965 0.05393,0.350575 -0.02023,0.06742 -0.03371,0.134839 -0.05393,0.202258 0,0 -0.0068,0 -0.0068,0 -0.02023,-0.08765 -0.04045,-0.18203 -0.05393,-0.276418 z"
     id="path327"
     inkscape:connector-curvature="0"
     style="fill:#7fa6c5" /><path
     class="st120"
     d="m 22.812098,13.238206 c -0.02023,0.06742 -0.04045,0.134838 -0.06068,0.202257 -0.02023,-0.134838 -0.03371,-0.276417 -0.05394,-0.411253 0.02023,0 0.04719,0 0.06742,0 0.02023,0 0.04045,0 0.06068,0 -0.01347,0.06742 -0.01347,0.134836 -0.01347,0.208996 z"
     id="path329"
     inkscape:connector-curvature="0"
     style="fill:#8aaeca" /><path
     class="st121"
     d="m 24.227891,15.186606 c -0.02698,0 -0.04719,0 -0.07416,-0.0068 0.0068,-0.10787 0.01347,-0.22248 0.02023,-0.33035 l 0.02695,0 0.02698,0.0068 c 0.0068,0.02023 0.0068,0.04719 0.01347,0.06742 -0.0068,0.08765 -0.0068,0.175289 -0.01347,0.262934 z"
     id="path331"
     inkscape:connector-curvature="0"
     style="fill:#6495b7" /><path
     class="st122"
     d="m 22.812098,13.238206 c 0,-0.06742 0.0068,-0.134836 0.0068,-0.202255 -0.02023,-0.114611 -0.03371,-0.229224 -0.05393,-0.337094 0,-0.202254 -0.0068,-0.404512 -0.0068,-0.606767 0.04719,0.04045 0.09439,0.0809 0.121354,0.10787 0.08764,-0.04719 0.148323,-0.07416 0.215739,-0.10787 0,0.471932 0,0.943861 0,1.415793 -0.08764,0 -0.175288,0 -0.26293,0 -0.0067,-0.09439 -0.01348,-0.182033 -0.02023,-0.269677 z"
     id="path333"
     inkscape:connector-curvature="0"
     style="fill:#dde6ef" /><path
     class="st123"
     d="m 24.180697,14.849512 c -0.0068,0.10787 -0.01347,0.22248 -0.02023,0.33035 -0.08764,0.02698 -0.168546,0.05393 -0.25619,0.0809 -0.222483,-0.0068 -0.451707,-0.0068 -0.674187,-0.01348 -0.04719,-0.02023 -0.09438,-0.04719 -0.141579,-0.06742 0.14832,0 0.303384,0 0.478673,0 0,-0.357318 0,-0.667443 0,-0.977567 0,-0.188774 0.101126,-0.384288 0,-0.573061 0.202254,-0.02023 0.404512,-0.04719 0.606767,-0.06742 0.02695,0.04719 0.04719,0.09439 0.07416,0.141579 0,0.04045 0.0068,0.08764 0.0068,0.128095 -0.0068,0.195514 -0.0068,0.397769 -0.01347,0.593283 -0.01347,0.09439 -0.03371,0.188773 -0.04719,0.283158 -0.01347,0.05394 -0.01347,0.101129 -0.01347,0.141579 z"
     id="path335"
     inkscape:connector-curvature="0"
     style="fill:#e4f1f8" /><path
     class="st105"
     d="m 24.234631,13.710138 c -0.02695,-0.0472 -0.04719,-0.09439 -0.07416,-0.14158 -0.155063,-0.02023 -0.316868,-0.04719 -0.471928,-0.06742 0,-0.471929 0,-0.943861 0,-1.41579 0.02023,0 0.04719,0 0.06742,0 0,0.323609 0,0.647218 0,0.964086 0.02023,0 0.04719,0 0.06742,0 0,-0.323609 0,-0.640477 0,-0.964086 0.02023,0 0.04719,0 0.06742,0 0,0.188771 -0.0068,0.377544 0,0.566317 0.0068,0.128095 0.04045,0.249449 0.06742,0.377544 0.02023,0 0.04719,0 0.06742,0 0.02023,-0.02023 0.04719,-0.04719 0.06742,-0.06742 l 0.03371,0 0.03371,0 c 0,0.11461 -0.0068,0.235964 0.0068,0.350578 0.0068,0.04719 0.07416,0.0809 0.114613,0.121351 -0.01348,0.08764 -0.02698,0.182032 -0.04719,0.276418 z"
     id="path337"
     inkscape:connector-curvature="0"
     style="fill:#cedfec" /><path
     class="st124"
     d="m 24.288566,13.43372 c -0.04045,-0.04045 -0.107869,-0.07416 -0.11461,-0.121351 -0.01347,-0.114614 -0.0068,-0.235968 -0.0068,-0.350578 0,-0.242708 0,-0.485414 0,-0.694412 0.05394,-0.101129 0.09439,-0.175289 0.134838,-0.242708 l 0,0 c 0.02023,0 0.04719,0 0.06742,0 0,0.114613 0.0068,0.222483 0.0068,0.337093 -0.0068,0.04719 -0.01347,0.08764 -0.01347,0.134839 -0.02023,0.134835 -0.03371,0.269674 -0.05393,0.411253 0,0.08764 0,0.175289 0,0.262933 -0.0068,0.0809 -0.01348,0.175289 -0.02023,0.262931 z"
     id="path339"
     inkscape:connector-curvature="0"
     style="fill:#d6e4ee" /><path
     class="st125"
     d="m 23.560445,13.635978 c 0.101129,0.18877 0,0.384284 0,0.573057 0,0.310125 0,0.620252 0,0.977571 -0.175286,0 -0.323609,0 -0.47867,0 -0.04045,0 -0.0809,-0.0068 -0.128098,-0.0068 l 0,0 c -0.0068,-0.06742 -0.0068,-0.128095 -0.01347,-0.195514 -0.02023,-0.11461 -0.03371,-0.235965 -0.05393,-0.350575 -0.0068,-0.128095 -0.0068,-0.262933 -0.01347,-0.391028 0,-0.10787 0,-0.222483 0,-0.330353 0,-0.09439 0.0068,-0.182029 0.0068,-0.276415 0.235965,0 0.458448,0 0.680928,0 l 0,0 z"
     id="path341"
     inkscape:connector-curvature="0"
     style="fill:#f1f5f8" /><path
     class="st126"
     d="m 22.886261,13.635978 c 0,0.09439 -0.0068,0.182029 -0.0068,0.276414 -0.02023,-0.0068 -0.04045,-0.0068 -0.06068,-0.0068 0,-0.134839 0.0068,-0.269675 0.0068,-0.404513 0.08764,0 0.175289,0 0.262933,0 0.114611,0 0.22248,0 0.337094,0 0.08764,0 0.182029,0 0.269674,0 0.155064,0.02023 0.316868,0.04719 0.471929,0.06742 -0.202255,0.02023 -0.40451,0.04719 -0.606768,0.06742 l 0,0 c -0.22248,-0.101128 -0.451703,-0.107869 -0.674183,0 z"
     id="path343"
     inkscape:connector-curvature="0"
     style="fill:#c3d3e1" /><path
     class="st127"
     d="m 24.180697,14.849512 c 0,-0.04719 0,-0.08764 0,-0.134838 0.01347,0.04719 0.03371,0.09439 0.04719,0.134838 0,0 -0.02698,-0.0068 -0.02698,-0.0068 l -0.02023,0.0068 z"
     id="path345"
     inkscape:connector-curvature="0"
     style="fill:#77a3c4" /><path
     class="st128"
     d="m 23.425609,13.501139 c -0.114613,0 -0.222483,0 -0.337093,0 0,-0.471929 0,-0.943861 0,-1.41579 l 0,0 c 0.11461,0 0.22248,0 0.337093,0 0,0.471929 0,0.943861 0,1.41579 z"
     id="path347"
     inkscape:connector-curvature="0"
     style="fill:#edf3f6" /><path
     class="st129"
     d="m 23.425609,12.085349 c 0.04719,0 0.08764,0 0.134836,0 0,0 0,0 0,0 0.0068,0.05393 0.01347,0.10787 0.02023,0.155061 0.01347,0 0.02695,0 0.04719,-0.0068 0,-0.05393 0,-0.101129 0,-0.155064 l 0.03371,0 0.03371,0 c 0,0.471932 0,0.943861 0,1.415793 -0.08764,0 -0.18203,0 -0.269674,0 0,-0.465188 0,-0.93712 0,-1.409049 z"
     id="path349"
     inkscape:connector-curvature="0"
     style="fill:#dce9f2" /><path
     class="st123"
     d="m 22.886261,13.635978 c 0.22248,-0.10787 0.451704,-0.101129 0.674184,0 -0.22248,0 -0.444963,0 -0.674184,0 z"
     id="path351"
     inkscape:connector-curvature="0"
     style="fill:#e4f1f8" /><path
     class="st130"
     d="m 24.007086,31.709549 0,14.344892 c 0,0.18201 -0.04239,0.36402 -0.0763,0.55277 -0.03389,0.22919 -0.08477,0.46513 -0.118686,0.69432 -0.03389,0.20897 -0.0763,0.41795 -0.110211,0.62018 -0.0085,0.0337 -0.03389,0.0809 -0.05087,0.0876 -0.06782,0.007 -0.144118,0 -0.21194,-0.007 -0.01694,0 -0.02544,-0.0405 -0.03393,-0.0607 -0.01694,-0.0944 -0.04239,-0.18875 -0.05935,-0.28986 -0.04239,-0.23594 -0.06782,-0.47862 -0.127162,-0.71455 -0.11021,-0.46513 -0.135643,-0.93026 -0.135643,-1.3954 0.0085,-4.604113 0,-9.208234 0,-13.812349 0,-0.141561 0.0085,-0.289863 -0.127166,-0.404465 -0.05087,-0.04687 -0.110211,-0.08732 -0.169556,-0.127766 -0.169551,-0.107858 -0.254329,-0.249419 -0.254329,-0.424687 0,-1.496505 0.0085,-2.986269 0,-4.482776 0,-0.215715 0.101734,-0.377499 0.305198,-0.492096 0.186508,-0.107856 0.245853,-0.249418 0.245853,-0.424685 l 0,-0.06067 2e-6,-2.564954 2e-6,-5.113061 0,-2.3661 0,-0.04719 c 0,-0.03371 0.02544,-0.04044 0.0763,-0.04044 l 0.754514,0 c 0.06782,0 0.09325,0.01347 0.09325,0.05393 l 0,0.0337 0.0042,7.509499 0.0042,2.548105 c 0,0.128082 -0.0085,0.249418 0.09325,0.357277 0.03393,0.0337 0.06782,0.06741 0.11021,0.08763 0.271286,0.134821 0.347587,0.337051 0.347587,0.579729 l 0,1.954898 0,2.372837 c 0,0.235934 -0.08478,0.424687 -0.33063,0.559504 -0.161075,0.08763 -0.211941,0.222456 -0.228899,0.377499 -0.0085,0.03369 1.4e-5,0.06741 1.4e-5,0.09438 z"
     id="path357"
     inkscape:connector-curvature="0"
     style="fill:none;stroke:#000000;stroke-width:0.07559644;stroke-linecap:round;stroke-linejoin:round;stroke-miterlimit:10"
     sodipodi:nodetypes="sscccccccccsccsccsccccssssccsccscsccs" /><path
     class="st130"
     d="m 23.14235,18.888123 c 0.144123,0 0.279765,0.0068 0.423884,0.0068 0.152599,0 0.305198,-0.0068 0.457797,-0.0068"
     id="path359"
     inkscape:connector-curvature="0"
     style="fill:none;stroke:#000000;stroke-width:0.07559644;stroke-linecap:round;stroke-linejoin:round;stroke-miterlimit:10" /></svg>