<?xml version="1.0" encoding="UTF-8" standalone="no"?>
<!-- Created with Inkscape (http://www.inkscape.org/) -->

<svg
   xmlns:dc="http://purl.org/dc/elements/1.1/"
   xmlns:cc="http://creativecommons.org/ns#"
   xmlns:rdf="http://www.w3.org/1999/02/22-rdf-syntax-ns#"
   xmlns:svg="http://www.w3.org/2000/svg"
   xmlns="http://www.w3.org/2000/svg"
   xmlns:sodipodi="http://sodipodi.sourceforge.net/DTD/sodipodi-0.dtd"
   xmlns:inkscape="http://www.inkscape.org/namespaces/inkscape"
   width="48px"
   height="48px"
   id="svg5120"
   version="1.1"
   inkscape:version="0.48.4 r9939"
   sodipodi:docname="icon_2500LBottle.svg">
  <defs
     id="defs5122">
    <inkscape:path-effect
       effect="bend_path"
       id="path-effect6253"
       is_visible="true"
       bendpath="m 1211.3945,390.30752 c 7.7558,0.90515 15.1116,3.72442 27.5938,1.53487"
       prop_scale="1"
       scale_y_rel="false"
       vertical="false"
       bendpath-nodetypes="cc" />
  </defs>
  <sodipodi:namedview
     id="base"
     pagecolor="#ffffff"
     bordercolor="#666666"
     borderopacity="1.0"
     inkscape:pageopacity="0.0"
     inkscape:pageshadow="2"
     inkscape:zoom="11.292209"
     inkscape:cx="21.38735"
     inkscape:cy="27.808845"
     inkscape:current-layer="layer1"
     showgrid="true"
     inkscape:grid-bbox="true"
     inkscape:document-units="px"
     inkscape:window-width="944"
     inkscape:window-height="1001"
     inkscape:window-x="0"
     inkscape:window-y="0"
     inkscape:window-maximized="0" />
  <metadata
     id="metadata5125">
    <rdf:RDF>
      <cc:Work
         rdf:about="">
        <dc:format>image/svg+xml</dc:format>
        <dc:type
           rdf:resource="http://purl.org/dc/dcmitype/StillImage" />
        <dc:title></dc:title>
      </cc:Work>
    </rdf:RDF>
  </metadata>
  <g
     id="layer1"
     inkscape:label="Layer 1"
     inkscape:groupmode="layer">
    <path
       id="path3025-8-3"
       style="fill:none;stroke:#1e1e1e;stroke-width:0.11690545;stroke-linecap:round;stroke-linejoin:round;stroke-miterlimit:4;stroke-opacity:1;stroke-dasharray:none"
       d="m 28.325774,41.682251 c -6.91809,-0.740376 -12.316948,-0.08347 -14.729432,1.729946"
       inkscape:connector-curvature="0"
       sodipodi:nodetypes="cc" />
    <path
       id="path3027-2-3"
       style="fill:none;stroke:#1e1e1e;stroke-width:0.11690545;stroke-linecap:round;stroke-linejoin:round;stroke-miterlimit:4;stroke-opacity:1;stroke-dasharray:none"
       d="M 35.061796,43.309909 C 34.298053,42.767204 33.470783,42.481208 32.060739,42.27711"
       inkscape:connector-curvature="0"
       sodipodi:nodetypes="cc" />
    <path
       sodipodi:nodetypes="cc"
       inkscape:connector-curvature="0"
       d="m 35.396964,43.932216 c -0.958181,3.431179 -19.61788,3.88102 -21.852692,0.229621"
       style="fill:none;stroke:#1e1e1e;stroke-width:0.11690545;stroke-linecap:round;stroke-linejoin:round;stroke-miterlimit:4;stroke-opacity:1;stroke-dasharray:none"
       id="path3037-7-5" />
    <path
       sodipodi:type="arc"
       style="opacity:0;fill:#c0c5da;fill-opacity:0.65608467;stroke:none"
       id="path5330"
       sodipodi:cx="370.57166"
       sodipodi:cy="173.86267"
       sodipodi:rx="54.041702"
       sodipodi:ry="6.2355809"
       d="m 424.61336,173.86267 a 54.041702,6.2355809 0 1 1 -108.08341,0 54.041702,6.2355809 0 1 1 108.08341,0 z"
       transform="matrix(0.22802986,0,0,0.2338109,-59.928542,-9.1412263)" />
    <path
       style="fill:#e9e9e9;fill-opacity:1;stroke:#161413;stroke-width:0.14028655;stroke-linecap:butt;stroke-linejoin:miter;stroke-miterlimit:4;stroke-opacity:1;stroke-dasharray:none"
       d="m 12.522145,22.182978 c 0.0037,-1.078744 11.701814,-0.930987 13.843826,-0.943627 l -0.082,7.767522 -13.733071,0.993933"
       id="path5347"
       inkscape:connector-curvature="0"
       sodipodi:nodetypes="cccc" />
    <path
       style="opacity:0.80081301000000005;fill:#eff5f5;fill-opacity:0.52549022;stroke:none"
       d="m 13.525914,18.083512 21.852463,-0.01565 c 0.578182,1.671831 0.964665,3.915597 1.211172,6.383358 0.464684,8.375146 0.225877,18.602404 -0.281328,19.253788 -0.288393,4.885471 -23.485341,5.179508 -23.6889,-0.04428 -0.245716,-6.193152 -0.622337,-15.238885 -0.03442,-22.173847 0.192302,-1.168686 0.627378,-2.417377 0.941017,-3.403366 z"
       id="rect10514"
       inkscape:connector-curvature="0"
       sodipodi:nodetypes="ccccccc" />
    <path
       style="fill:none;stroke:#1e1e1e;stroke-width:0.11690545;stroke-linecap:round;stroke-linejoin:miter;stroke-miterlimit:4;stroke-opacity:1;stroke-dasharray:none"
       d="m 22.900473,43.470722 c -1.72805,0.616992 5.423033,0.531345 3.000261,0"
       id="path5078"
       inkscape:connector-curvature="0"
       sodipodi:nodetypes="cc" />
    <path
       style="fill:#f7fafa;fill-opacity:1;stroke:none"
       d="m 12.473044,22.379344 c 1.724426,1.779463 11.98475,1.654378 16.83843,1.374565 l -0.02843,15.55294 C 28.163159,39.61782 15.947451,40.718237 12.393455,37.821671 12.281951,31.765982 12.096352,23.674977 12.473044,22.379344 z"
       id="path5372"
       inkscape:connector-curvature="0"
       sodipodi:nodetypes="ccccc" />
    <path
       style="fill:none;stroke:#46443a;stroke-width:0.20037594;stroke-linecap:round;stroke-linejoin:miter;stroke-miterlimit:4;stroke-opacity:1;stroke-dasharray:none"
       d="m 12.300375,36.523216 c 1.494168,0.966953 6.151401,2.168687 14.617039,1.58929"
       id="path5387-3"
       inkscape:connector-curvature="0"
       sodipodi:nodetypes="cc" />
    <path
       style="fill:none;stroke:#46443a;stroke-width:0.69455147;stroke-linecap:butt;stroke-linejoin:miter;stroke-miterlimit:4;stroke-opacity:1;stroke-dasharray:none"
       d="m 12.192378,31.488264 c 2.467406,1.080192 5.298178,1.289348 6.742171,1.215742"
       id="path5379-48-9"
       inkscape:connector-curvature="0"
       sodipodi:nodetypes="cc" />
    <path
       style="fill:none;stroke:#46443a;stroke-width:0.20037594;stroke-linecap:round;stroke-linejoin:miter;stroke-miterlimit:4;stroke-opacity:1;stroke-dasharray:none"
       d="m 12.17227,30.313996 c 1.927186,1.05277 5.771762,1.293846 7.785786,1.26559"
       id="path5379-48"
       inkscape:connector-curvature="0"
       sodipodi:nodetypes="cc" />
    <path
       style="fill:none;stroke:#46443a;stroke-width:0.20037594;stroke-linecap:round;stroke-linejoin:miter;stroke-miterlimit:4;stroke-opacity:1;stroke-dasharray:none"
       d="m 12.20491,28.80671 c 1.927186,1.052771 5.771762,1.293847 7.785763,1.26559"
       id="path5379"
       inkscape:connector-curvature="0"
       sodipodi:nodetypes="cc" />
    <path
       style="fill:#fa9d00;fill-opacity:1;stroke:none"
       d="m 20.990448,27.288506 6.08736,0 0,7.015271 c -1.865647,0.311572 -4.09466,0.218861 -6.170223,0.155272 z"
       id="rect5374"
       inkscape:connector-curvature="0"
       sodipodi:nodetypes="ccccc" />
    <path
       style="opacity:0.80088495;fill:#000000;fill-opacity:1;stroke:none"
       d="m 24.270558,33.261937 c -0.113211,0.04715 -0.08057,-1.057078 -0.311062,-1.064644 -0.24487,-0.008 -0.172529,1.198926 -0.409333,1.189939 -1.235223,-0.04687 -1.538967,-1.198618 -1.461973,-1.450696 0.356445,0.543378 0.402412,-1.84023 0.504915,-1.160911 0.16175,1.072091 0.531335,-1.502848 0.650111,-1.187023 0.35427,0.941966 0.749528,-0.336428 0.738258,-1.042151 -0.0098,-0.616525 0.653244,2.747395 1.10174,1.114882 0.157893,-0.574697 0.0246,1.754676 0.398367,0.959701 0.307391,-0.65381 0.03173,1.255943 0.421819,1.007998 -0.114311,1.753364 -1.670392,2.105696 -1.667423,1.568626"
       id="path5391"
       inkscape:connector-curvature="0"
       sodipodi:nodetypes="csscssssscc" />
    <path
       style="fill:#ff1810;fill-opacity:1;stroke:none"
       d="m 12.294623,24.191068 c 3.829332,2.035123 11.800436,1.644843 16.99202,1.302972 l 0,1.942697 c -5.14094,0.211464 -13.39353,0.635024 -17.061438,-1.214956 z"
       id="rect5369"
       inkscape:connector-curvature="0"
       sodipodi:nodetypes="ccccc" />
    <path
       style="fill:none;stroke:#46443a;stroke-width:0.20037594;stroke-linecap:round;stroke-linejoin:miter;stroke-miterlimit:4;stroke-opacity:1;stroke-dasharray:none"
       d="m 12.184545,29.810804 c 1.927186,1.052771 5.771762,1.293846 7.785786,1.26559"
       id="path5379-4"
       inkscape:connector-curvature="0"
       sodipodi:nodetypes="cc" />
    <path
       style="fill:none;stroke:#46443a;stroke-width:0.20037594;stroke-linecap:round;stroke-linejoin:miter;stroke-miterlimit:4;stroke-opacity:1;stroke-dasharray:none"
       d="m 12.19682,29.307617 c 1.927186,1.052771 5.771762,1.293847 7.785786,1.265591"
       id="path5379-9"
       inkscape:connector-curvature="0"
       sodipodi:nodetypes="cc" />
    <path
       style="fill:none;stroke:#46443a;stroke-width:0.20037594;stroke-linecap:round;stroke-linejoin:miter;stroke-miterlimit:4;stroke-opacity:1;stroke-dasharray:none"
       d="m 12.159995,28.264419 c 1.927186,1.05277 5.771762,1.293846 7.785786,1.26559"
       id="path5379-2"
       inkscape:connector-curvature="0"
       sodipodi:nodetypes="cc" />
    <path
       style="fill:none;stroke:#46443a;stroke-width:0.17016231;stroke-linecap:round;stroke-linejoin:miter;stroke-miterlimit:4;stroke-opacity:1;stroke-dasharray:none"
       d="m 12.193991,27.709305 c 1.275649,0.724042 3.38647,1.092261 4.968669,1.173024"
       id="path5379-2-7"
       inkscape:connector-curvature="0"
       sodipodi:nodetypes="cc" />
    <path
       style="fill:none;stroke:#46443a;stroke-width:0.17016231;stroke-linecap:round;stroke-linejoin:miter;stroke-miterlimit:4;stroke-opacity:1;stroke-dasharray:none"
       d="m 12.206266,27.268583 c 1.263374,0.711767 3.38647,1.092259 4.968669,1.173022"
       id="path5379-2-7-2"
       inkscape:connector-curvature="0"
       sodipodi:nodetypes="cc" />
    <path
       style="fill:none;stroke:#46443a;stroke-width:0.20037594;stroke-linecap:round;stroke-linejoin:miter;stroke-miterlimit:4;stroke-opacity:1;stroke-dasharray:none"
       d="m 12.330022,34.123196 c 1.494169,0.966953 6.151401,2.168687 14.617039,1.58929"
       id="path5387"
       inkscape:connector-curvature="0"
       sodipodi:nodetypes="cc" />
    <path
       style="fill:none;stroke:#46443a;stroke-width:0.20037594;stroke-linecap:round;stroke-linejoin:miter;stroke-miterlimit:4;stroke-opacity:1;stroke-dasharray:none"
       d="m 12.300375,36.054589 c 1.494168,0.966953 6.151401,2.168687 14.617039,1.589289"
       id="path5387-7"
       inkscape:connector-curvature="0"
       sodipodi:nodetypes="cc" />
    <path
       style="fill:none;stroke:#46443a;stroke-width:0.20037594;stroke-linecap:round;stroke-linejoin:miter;stroke-miterlimit:4;stroke-opacity:1;stroke-dasharray:none"
       d="m 12.300375,35.551247 c 1.494168,0.966953 6.151401,2.168688 14.617039,1.58929"
       id="path5387-4"
       inkscape:connector-curvature="0"
       sodipodi:nodetypes="cc" />
    <path
       style="fill:none;stroke:#46443a;stroke-width:0.20037594;stroke-linecap:round;stroke-linejoin:miter;stroke-miterlimit:4;stroke-opacity:1;stroke-dasharray:none"
       d="m 12.335096,34.596642 c 1.494168,0.966953 6.151401,2.168687 14.617039,1.58929"
       id="path5387-5"
       inkscape:connector-curvature="0"
       sodipodi:nodetypes="cc" />
    <path
       style="fill:none;stroke:#46443a;stroke-width:0.20037594;stroke-linecap:round;stroke-linejoin:miter;stroke-miterlimit:4;stroke-opacity:1;stroke-dasharray:none"
       d="m 12.317747,35.082625 c 1.494145,0.966953 6.151401,2.168687 14.617039,1.58929"
       id="path5387-8"
       inkscape:connector-curvature="0"
       sodipodi:nodetypes="cc" />
    <path
       style="fill:none;stroke:#46443a;stroke-width:0.69455147;stroke-linecap:butt;stroke-linejoin:miter;stroke-miterlimit:4;stroke-opacity:1;stroke-dasharray:none"
       d="m 12.221604,32.593259 c 2.467406,1.080192 5.298178,1.289348 6.742171,1.215742"
       id="path5379-48-9-5"
       inkscape:connector-curvature="0"
       sodipodi:nodetypes="cc" />
    <path
       sodipodi:type="arc"
       style="fill:#eff5f5;fill-opacity:1;stroke:none"
       id="path10583"
       sodipodi:cx="25.437893"
       sodipodi:cy="19.152676"
       sodipodi:rx="11.357388"
       sodipodi:ry="1.527602"
       d="m 36.79528,19.152676 a 11.357388,1.527602 0 1 1 -22.714775,0 11.357388,1.527602 0 1 1 22.714775,0 z"
       transform="matrix(0.957115,0,0,1.1449275,0.11678089,-3.9712647)" />
    <path
       sodipodi:nodetypes="csccsscccccccccc"
       inkscape:connector-curvature="0"
       d="m 36.687693,41.826498 c -0.185622,1.943623 0.05541,5.563156 -12.341591,5.569502 -12.428709,0.0064 -11.838384,-3.586163 -11.880072,-5.38412 0,0 -0.354037,-12.095412 -0.354037,-14.608741 0.0512,-6.621471 1.337656,-9.915592 2.790978,-11.703982 1.803243,-2.218997 3.863374,-2.119876 4.139598,-3.182323 0.234793,-0.90312 -1.154909,-1.313253 -1.694871,-1.002965 -0.927037,0.815984 -2.515759,-0.310998 -0.927739,-1.6161309 0.249453,-0.2007454 0.218988,-0.5644827 0.144893,-0.9728264 -0.255836,-1.7495836 1.223439,-4.2959713 4.755176,-3.0329973 0.694933,0.2541641 0.641367,-2.1502209 0.610971,-3.0758385 0.07005,0.7526653 5.133178,0.6756761 5.096797,0.01791 -0.03058,3.5619688 1.192085,8.8449351 1.841448,9.5111911 1.886386,2.312474 7.64073,0.260949 7.903861,14.823363 0.05878,7.775494 -0.08597,12.270012 -0.08541,14.657949 z"
       style="fill:none;stroke:#323232;stroke-width:0.18704872;stroke-linecap:round;stroke-linejoin:round;stroke-miterlimit:4;stroke-opacity:1;stroke-dasharray:none"
       id="path3061-2-8" />
    <path
       style="fill:none;stroke:#161413;stroke-width:0.14028655;stroke-linecap:butt;stroke-linejoin:miter;stroke-miterlimit:4;stroke-opacity:1;stroke-dasharray:none"
       d="m 12.474868,22.186345 c -0.06493,1.258569 7.380218,2.212487 16.853674,1.547709 l -0.06942,15.600703 c -2.641947,0.669167 -14.242007,0.814721 -16.939951,-1.562089"
       id="path5343"
       inkscape:connector-curvature="0"
       sodipodi:nodetypes="cccc" />
    <path
       style="fill:none;stroke:#333333;stroke-width:0.11690545;stroke-linecap:round;stroke-linejoin:miter;stroke-miterlimit:4;stroke-opacity:1;stroke-dasharray:none"
       d="m 22.236468,3.0477765 c 0.871015,-0.3639313 3.74869,-0.3679539 4.498287,0.03533"
       id="path5665"
       inkscape:connector-curvature="0"
       sodipodi:nodetypes="cc" />
    <path
       style="fill:none;stroke:#333333;stroke-width:0.2338109px;stroke-linecap:butt;stroke-linejoin:miter;stroke-opacity:1"
       d="m 21.94895,2.8296195 c 0.09133,-0.5875013 5.099814,-0.6684885 5.032008,0.051768"
       id="path5648"
       inkscape:connector-curvature="0"
       sodipodi:nodetypes="cc" />
    <path
       style="fill:none;stroke:#000000;stroke-width:0.09352436;stroke-linecap:round;stroke-linejoin:miter;stroke-miterlimit:4;stroke-opacity:1;stroke-dasharray:none"
       d="m 21.973921,3.4873636 c 0.82907,0.3992929 3.754255,0.6480373 4.996165,0.00187"
       id="path5660"
       inkscape:connector-curvature="0"
       sodipodi:nodetypes="cc" />
    <path
       sodipodi:type="arc"
       style="fill:#382e3f;fill-opacity:1;stroke:#161413;stroke-width:1.79949188;stroke-miterlimit:3.79999995;stroke-opacity:1;stroke-dasharray:none"
       id="path5020-3-5"
       sodipodi:cx="178.77306"
       sodipodi:cy="241.00398"
       sodipodi:rx="16.699469"
       sodipodi:ry="6.1715426"
       d="m 195.47252,241.00398 a 16.699469,6.1715426 0 1 1 -33.39893,0 16.699469,6.1715426 0 1 1 33.39893,0 z"
       transform="matrix(0.18051797,0,0,0.09352104,-7.8132912,-18.872199)" />
    <path
       style="fill:#382e3f;fill-opacity:1;stroke:none"
       d="m 21.416368,1.4138312 0,2.2865889 c 1.916174,0.5499045 5.960845,0.1444764 6.0839,0 l -0.05001,-2.3348989 c -1.348434,0.6986528 -4.721788,0.6319606 -6.033888,0.04831 z"
       id="path5066"
       inkscape:connector-curvature="0"
       sodipodi:nodetypes="ccccc" />
    <path
       sodipodi:type="arc"
       style="fill:#736c77;fill-opacity:1;stroke:#161413;stroke-width:1.78021789;stroke-miterlimit:3.79999995;stroke-opacity:1;stroke-dasharray:none"
       id="path5020-2"
       sodipodi:cx="178.77306"
       sodipodi:cy="241.00398"
       sodipodi:rx="16.699469"
       sodipodi:ry="6.1715426"
       d="m 195.47252,241.00398 a 16.699469,6.1715426 0 1 1 -33.39893,0 16.699469,6.1715426 0 1 1 33.39893,0 z"
       transform="matrix(0.18048547,0,0,0.09557425,-7.8074459,-21.853308)" />
    <path
       style="fill:none;stroke:#161413;stroke-width:0.2338109;stroke-linecap:butt;stroke-linejoin:miter;stroke-miterlimit:3.79999995;stroke-opacity:1;stroke-dasharray:none"
       d="m 27.466623,1.1849135 c 0,0 0,2.513231 0,2.464423"
       id="path5052-6"
       inkscape:connector-curvature="0"
       sodipodi:nodetypes="cc" />
    <path
       style="fill:none;stroke:#161413;stroke-width:0.2338109;stroke-linecap:butt;stroke-linejoin:miter;stroke-miterlimit:3.79999995;stroke-opacity:1;stroke-dasharray:none"
       d="m 21.447161,1.1727507 0,2.4684656"
       id="path5052-2-1"
       inkscape:connector-curvature="0"
       sodipodi:nodetypes="cc" />
    <path
       style="fill:none;stroke:none"
       d="m 21.477369,1.8924838 c 0.926102,0.6673313 5.161984,0.642669 5.941065,-0.041609"
       id="path5393-1-2"
       inkscape:connector-curvature="0"
       sodipodi:nodetypes="cc" />
    <path
       sodipodi:type="arc"
       style="fill:none;stroke:#323232;stroke-width:0.80000001;stroke-miterlimit:4;stroke-opacity:1;stroke-dasharray:none"
       id="path5060"
       sodipodi:cx="475.76111"
       sodipodi:cy="78.441093"
       sodipodi:rx="6.7548199"
       sodipodi:ry="6.5531831"
       d="m 482.51593,78.441093 a 6.7548199,6.5531831 0 1 1 -13.50964,0 6.7548199,6.5531831 0 1 1 13.50964,0 z"
       transform="matrix(0.2338109,0,0,0.2338109,-91.60961,-9.6088481)" />
    <path
       style="fill:none;stroke:#1e1e1e;stroke-width:0.07014327;stroke-linecap:round;stroke-linejoin:miter;stroke-miterlimit:4;stroke-opacity:1;stroke-dasharray:none"
       d="m 19.45424,12.437972 c 0.134488,-0.279689 -0.128853,-0.823302 -0.350132,-0.939092 -0.559953,-0.292998 -0.305567,-1.071226 0.644009,-0.811144 0.2531,0.06093 0.930684,-0.203539 1.163911,-0.473654"
       id="path5070"
       inkscape:connector-curvature="0"
       sodipodi:nodetypes="cscc" />
    <path
       style="fill:none;stroke:#1e1e1e;stroke-width:0.07014327;stroke-linecap:round;stroke-linejoin:miter;stroke-miterlimit:4;stroke-opacity:1;stroke-dasharray:none"
       d="M 21.3587,7.9970682 C 21.306794,7.7492217 21.016097,7.3771934 20.882591,7.3137231 19.834767,6.8155306 20.282211,5.8383787 21.556457,6.3718603 21.842946,6.491803 22.164342,5.8856062 22.288636,5.4487609"
       id="path5074"
       inkscape:connector-curvature="0"
       sodipodi:nodetypes="cscc" />
    <path
       style="fill:none;stroke:#1e1e1e;stroke-width:0.07014327;stroke-linecap:round;stroke-linejoin:miter;stroke-miterlimit:4;stroke-opacity:1;stroke-dasharray:none"
       d="m 16.231882,10.780105 c -0.277651,0.277938 0.01216,0.723668 0.333063,0.656282 0.308631,-0.06481 0.180923,-0.487884 0.02993,-0.557324"
       id="path5100"
       inkscape:connector-curvature="0"
       sodipodi:nodetypes="csc" />
    <rect
       style="fill:#f7fafa;fill-opacity:1;stroke:none"
       id="rect5648"
       width="4.6528368"
       height="2.9150305"
       x="15.898666"
       y="31.957357" />
    <path
       inkscape:connector-curvature="0"
       id="path6241"
       style="font-size:8px;font-style:normal;font-weight:bold;line-height:125%;letter-spacing:0px;word-spacing:0px;fill:none;stroke:none;font-family:Sans;-inkscape-font-specification:Sans Bold"
       d="m 13.880671,33.716626 0,-0.562464 -0.539236,0 0,-0.388265 0.539236,0 0,-0.562463 0.35949,0 0,0.562463 0.540638,0 0,0.388265 -0.540638,0 0,0.562464 z" />
    <path
       inkscape:connector-curvature="0"
       id="path6243"
       style="font-size:8px;font-style:normal;font-weight:bold;line-height:125%;letter-spacing:0px;word-spacing:0px;fill:none;stroke:none;font-family:Sans;-inkscape-font-specification:Sans Bold"
       d="m 15.560175,33.716626 0,-0.562464 -0.539236,0 0,-0.388265 0.539236,0 0,-0.562463 0.359491,0 0,0.562463 0.540638,0 0,0.388265 -0.540638,0 0,0.562464 z" />
    <path
       style="font-size:8px;font-style:normal;font-weight:bold;line-height:125%;letter-spacing:0px;word-spacing:0px;fill:#ffffff;fill-opacity:1;stroke:#333333;stroke-width:0.117;stroke-miterlimit:4;stroke-opacity:1;stroke-dasharray:none;font-family:Sans;-inkscape-font-specification:Sans Bold"
       inkscape:connector-curvature="0"
       id="path6245"
       d="m 17.87949,33.926444 -0.02864,0.38425 -1.379274,-0.103703 c 0.02585,-0.144139 0.08098,-0.278402 0.165449,-0.402826 0.0845,-0.124419 0.244959,-0.285816 0.481385,-0.484185 0.19044,-0.160374 0.308065,-0.269964 0.352878,-0.328771 0.06055,-0.08131 0.09398,-0.163682 0.100255,-0.247101 0.0085,-0.09215 -0.01151,-0.164959 -0.05474,-0.21804 -0.04337,-0.05311 -0.106694,-0.08278 -0.189729,-0.08903 -0.08219,-0.0059 -0.149462,0.01487 -0.201886,0.06328 -0.05249,0.04836 -0.08693,0.13263 -0.103535,0.252776 l -0.389008,-0.07072 c 0.04033,-0.225951 0.126049,-0.383825 0.256759,-0.473678 0.130634,-0.08986 0.288415,-0.127841 0.473233,-0.113945 0.202542,0.01532 0.357422,0.08464 0.464561,0.208141 0.107135,0.123532 0.154251,0.270683 0.141454,0.441448 -0.009,0.09705 -0.03092,0.188404 -0.07052,0.273767 -0.03927,0.08539 -0.09915,0.173405 -0.178313,0.264175 -0.05237,0.06022 -0.145154,0.145527 -0.278311,0.255923 -0.133158,0.110394 -0.217839,0.183969 -0.253897,0.220744 -0.03588,0.03679 -0.06582,0.07301 -0.08917,0.108767 z" />
    <path
       style="font-size:8px;font-style:normal;font-weight:bold;line-height:125%;letter-spacing:0px;word-spacing:0px;fill:#ffffff;fill-opacity:1;stroke:#333333;stroke-width:0.11690546;stroke-miterlimit:4;stroke-opacity:1;stroke-dasharray:none;font-family:Sans;-inkscape-font-specification:Sans Bold"
       inkscape:connector-curvature="0"
       id="path6247"
       d="m 18.355833,34.397211 0.05246,-2.145875 0.415523,0.0101 -0.04359,1.781339 1.0332,0.02524 -0.0087,0.364544 z" />
    <path
       inkscape:connector-curvature="0"
       id="path6249"
       style="font-size:8px;font-style:normal;font-weight:bold;line-height:125%;letter-spacing:0px;word-spacing:0px;fill:none;stroke:none;font-family:Sans;-inkscape-font-specification:Sans Bold"
       d="m 20.598653,33.716626 0,-0.562464 -0.539236,0 0,-0.388265 0.539236,0 0,-0.562463 0.359491,0 0,0.562463 0.540638,0 0,0.388265 -0.540638,0 0,0.562464 z" />
    <path
       inkscape:connector-curvature="0"
       id="path6251"
       style="font-size:8px;font-style:normal;font-weight:bold;line-height:125%;letter-spacing:0px;word-spacing:0px;fill:none;stroke:none;font-family:Sans;-inkscape-font-specification:Sans Bold"
       d="m 22.278158,33.716626 0,-0.562464 -0.539237,0 0,-0.388265 0.539237,0 0,-0.562463 0.35949,0 0,0.562463 0.540638,0 0,0.388265 -0.540638,0 0,0.562464 z" />
  </g>
</svg>
