<?xml version="1.0" encoding="UTF-8" standalone="no"?>
<!-- Generator: Adobe Illustrator 19.0.0, SVG Export Plug-In . SVG Version: 6.00 Build 0)  -->

<svg
   xmlns:dc="http://purl.org/dc/elements/1.1/"
   xmlns:cc="http://creativecommons.org/ns#"
   xmlns:rdf="http://www.w3.org/1999/02/22-rdf-syntax-ns#"
   xmlns:svg="http://www.w3.org/2000/svg"
   xmlns="http://www.w3.org/2000/svg"
   xmlns:sodipodi="http://sodipodi.sourceforge.net/DTD/sodipodi-0.dtd"
   xmlns:inkscape="http://www.inkscape.org/namespaces/inkscape"
   version="1.1"
   id="Layer_1"
   x="0px"
   y="0px"
   viewBox="0 0 48 48"
   xml:space="preserve"
   inkscape:version="0.91 r13725"
   sodipodi:docname="250mLVolumetricFlask.svg"
   width="48"
   height="48"><metadata
     id="metadata3481"><rdf:RDF><cc:Work
         rdf:about=""><dc:format>image/svg+xml</dc:format><dc:type
           rdf:resource="http://purl.org/dc/dcmitype/StillImage" /><dc:title></dc:title></cc:Work></rdf:RDF></metadata><defs
     id="defs3479" /><sodipodi:namedview
     pagecolor="#ffffff"
     bordercolor="#666666"
     borderopacity="1"
     objecttolerance="10"
     gridtolerance="10"
     guidetolerance="10"
     inkscape:pageopacity="0"
     inkscape:pageshadow="2"
     inkscape:window-width="1920"
     inkscape:window-height="949"
     id="namedview3477"
     showgrid="false"
     inkscape:zoom="1.1919192"
     inkscape:cx="14.872883"
     inkscape:cy="26.84746"
     inkscape:window-x="0"
     inkscape:window-y="0"
     inkscape:window-maximized="1"
     inkscape:current-layer="Layer_1" /><style
     type="text/css"
     id="style3415">
        .st0{fill:none;stroke:#000000;stroke-miterlimit:10;}
        .st1{fill:none;stroke:#000000;stroke-width:0.5;stroke-miterlimit:10;}
        .st2{fill:#CBE9FA;stroke:#000000;stroke-miterlimit:10;}
        .st3{fill:none;stroke:#4D4D4F;stroke-miterlimit:10;}
        .st4{fill:none;stroke:#010101;stroke-miterlimit:10;}
        .st5{fill:none;stroke:#010101;stroke-width:0.5;stroke-miterlimit:10;}
        .st6{fill:#CBE8F9;stroke:#010101;stroke-miterlimit:10;}
    </style><g
     id="vf250"
     inkscape:label="#g3582"
     transform="matrix(0.133334,0,0,0.133334,-28.793597,-36.386968)"><line
       y2="352.89999"
       x2="404.60001"
       y1="467"
       x1="404.60001"
       class="st4"
       id="XMLID_84_"
       style="fill:none;stroke:#010101;stroke-miterlimit:10" /><polyline
       points="394.5,559.2 404.2,559.2 410.3,558.6 415.8,557.9 419.2,556.8 421.1,556.3   423.4,555.5 424.3,554.8 426,553.9 428.4,552.4 431,550.2 433.4,547.9 435.7,544.8 437,541.9 438.1,538.4 439.2,530 439.2,524   438.2,519.4 437.6,516.7 437,515 434.9,511.4 432.7,507.8 429.3,502.7 426.8,499.3 424.4,496.8 421.7,494 418.7,490.6 414.9,486.6   411.7,482.7 409,479.3 406.8,475.9 405.2,472.4 404.6,470.1 404.6,466.7 "
       class="st4"
       id="XMLID_83_"
       style="fill:none;stroke:#010101;stroke-miterlimit:10" /><line
       y2="352.89999"
       x2="387.20001"
       y1="467.20001"
       x1="387.20001"
       class="st4"
       id="XMLID_82_"
       style="fill:none;stroke:#010101;stroke-miterlimit:10" /><polyline
       points="397.4,559.2 387.7,559.2 381.6,558.5 376.1,557.8 372.7,556.8 370.8,556.2   368.5,555.5 367.6,554.7 365.9,553.8 363.4,552.3 360.8,550.2 358.5,547.9 356.2,544.8 354.9,541.8 353.7,538.3 352.7,530   352.7,523.9 353.6,519.4 354.2,516.6 354.9,514.9 356.9,511.3 359.2,507.7 362.6,502.7 365.1,499.3 367.5,496.7 370.1,494   373.1,490.5 376.9,486.6 380.1,482.6 382.8,479.3 385.1,475.9 386.6,472.4 387.3,470.1 387.3,466.8 "
       class="st4"
       id="XMLID_81_"
       style="fill:none;stroke:#010101;stroke-miterlimit:10" /><path
       d="m 369.3,550.4 c -0.1,2.9 7.8,5.5 17.5,5.6"
       class="st4"
       id="XMLID_80_"
       inkscape:connector-curvature="0"
       style="fill:none;stroke:#010101;stroke-miterlimit:10" /><path
       d="m 422.6,550.6 c 0.1,-4.2 -9.1,-7.8 -20.4,-8"
       class="st4"
       id="XMLID_79_"
       inkscape:connector-curvature="0"
       style="fill:none;stroke:#010101;stroke-miterlimit:10" /><path
       d="m 422.6,552.1 c 0,2.5 -15.2,4.3 -33.8,4"
       class="st4"
       id="XMLID_78_"
       inkscape:connector-curvature="0"
       style="fill:none;stroke:#010101;stroke-miterlimit:10" /><path
       d="m 369.4,548.6 c 0.1,-3.7 13.7,-6.4 30.6,-6.1"
       class="st4"
       id="XMLID_77_"
       inkscape:connector-curvature="0"
       style="fill:none;stroke:#010101;stroke-miterlimit:10" /><ellipse
       ry="2.0999999"
       rx="8.6999998"
       cy="422.79999"
       cx="395.89999"
       class="st5"
       id="XMLID_76_"
       style="fill:none;stroke:#010101;stroke-width:0.5;stroke-miterlimit:10" /><line
       y2="351.39999"
       x2="385.5"
       y1="349.29999"
       x1="385.5"
       class="st4"
       id="XMLID_74_"
       style="fill:none;stroke:#010101;stroke-miterlimit:10" /><line
       y2="351.39999"
       x2="406.29999"
       y1="349.29999"
       x1="406.29999"
       class="st4"
       id="XMLID_73_"
       style="fill:none;stroke:#010101;stroke-miterlimit:10" /><path
       d="M 384.6,348.6"
       class="st6"
       id="XMLID_71_"
       inkscape:connector-curvature="0"
       style="fill:#cbe8f9;stroke:#010101;stroke-miterlimit:10" /><path
       d="m 405.4,350.4 c 0.5,0.3 0.9,0.7 0.9,1.1 0,1.5 -4.7,2.7 -10.4,2.7 -5.7,0 -10.4,-1.2 -10.4,-2.7 0,-0.4 0.3,-0.7 0.8,-1"
       class="st0"
       id="XMLID_12_"
       inkscape:connector-curvature="0"
       style="fill:none;stroke:#000000;stroke-miterlimit:10" /><path
       d="m 386.3,350.4 c 1.6,-1 5.3,-1.7 9.6,-1.7 4.3,0 7.9,0.7 9.5,1.6"
       class="st3"
       id="XMLID_3_"
       inkscape:connector-curvature="0"
       style="fill:none;stroke:#4d4d4f;stroke-miterlimit:10" /><ellipse
       ry="2.7"
       rx="10.4"
       cy="349.29999"
       cx="395.89999"
       class="st0"
       id="XMLID_75_"
       style="fill:none;stroke:#000000;stroke-miterlimit:10" /></g></svg>