<?xml version="1.0" encoding="UTF-8" standalone="no"?>
<!-- Created with Inkscape (http://www.inkscape.org/) -->

<svg
   xmlns:dc="http://purl.org/dc/elements/1.1/"
   xmlns:cc="http://creativecommons.org/ns#"
   xmlns:rdf="http://www.w3.org/1999/02/22-rdf-syntax-ns#"
   xmlns:svg="http://www.w3.org/2000/svg"
   xmlns="http://www.w3.org/2000/svg"
   xmlns:sodipodi="http://sodipodi.sourceforge.net/DTD/sodipodi-0.dtd"
   xmlns:inkscape="http://www.inkscape.org/namespaces/inkscape"
   width="48px"
   height="48px"
   id="svg5120"
   version="1.1"
   inkscape:version="0.48.4 r9939"
   sodipodi:docname="1000mlBeaker.svg">
  <defs
     id="defs5122" />
  <sodipodi:namedview
     id="base"
     pagecolor="#ffffff"
     bordercolor="#666666"
     borderopacity="1.0"
     inkscape:pageopacity="0.0"
     inkscape:pageshadow="2"
     inkscape:zoom="5.349102"
     inkscape:cx="-3.6109576"
     inkscape:cy="21.367743"
     inkscape:current-layer="layer1"
     showgrid="true"
     inkscape:grid-bbox="true"
     inkscape:document-units="px"
     inkscape:window-width="1200"
     inkscape:window-height="791"
     inkscape:window-x="183"
     inkscape:window-y="170"
     inkscape:window-maximized="0" />
  <metadata
     id="metadata5125">
    <rdf:RDF>
      <cc:Work
         rdf:about="">
        <dc:format>image/svg+xml</dc:format>
        <dc:type
           rdf:resource="http://purl.org/dc/dcmitype/StillImage" />
        <dc:title></dc:title>
      </cc:Work>
    </rdf:RDF>
  </metadata>
  <g
     id="layer1"
     inkscape:label="Layer 1"
     inkscape:groupmode="layer">
    <g
       transform="translate(-128.2687,-219.41513)"
       id="g9273">
      <path
         inkscape:connector-curvature="0"
         style="fill:none;stroke:#1e1e1e;stroke-width:0.30000001;stroke-linecap:round;stroke-linejoin:round;stroke-miterlimit:4;stroke-opacity:1;stroke-dasharray:none"
         id="path46-3"
         d="m 222.69516,297.68578 c -2.89247,-1.36436 -3.55469,-3.09302 -3.55469,-4.55284" />
      <path
         inkscape:connector-curvature="0"
         style="fill:none;stroke:#1e1e1e;stroke-width:0.30000001;stroke-linecap:round;stroke-linejoin:round;stroke-miterlimit:4;stroke-opacity:1;stroke-dasharray:none"
         id="path48-8"
         d="m 259.89336,293.13294 c 0,2.91892 -2.63062,6.91654 -20.35264,6.91654 -6.10139,0 -10.41402,-0.47442 -13.4462,-1.21503" />
      <path
         inkscape:connector-curvature="0"
         style="fill:none;stroke:#1e1e1e;stroke-width:0.30000001;stroke-linecap:round;stroke-linejoin:round;stroke-miterlimit:4;stroke-opacity:1;stroke-dasharray:none"
         id="path50-2"
         d="m 257.80714,295.64236 c 0,-1.47714 -3.18703,-2.7785 -8.03612,-3.54917" />
      <path
         inkscape:connector-curvature="0"
         style="fill:none;stroke:#1e1e1e;stroke-width:0.30000001;stroke-linecap:round;stroke-linejoin:round;stroke-miterlimit:4;stroke-opacity:1;stroke-dasharray:none"
         id="path52-3"
         d="m 244.35542,291.50936 c -1.53773,-0.0986 -3.15602,-0.15173 -4.82672,-0.15173 -10.09469,0 -18.27869,1.91814 -18.27869,4.28449" />
      <path
         inkscape:connector-curvature="0"
         style="fill:none;stroke:#1e1e1e;stroke-width:0.30000001;stroke-linecap:round;stroke-linejoin:round;stroke-miterlimit:4;stroke-opacity:1;stroke-dasharray:none"
         id="path54-2"
         d="m 246.92255,288.11457 c -2.30335,-0.24839 -4.79354,-0.3857 -7.39385,-0.3857 -8.68368,0 -16.154,1.51417 -19.46728,3.68431" />
      <path
         inkscape:connector-curvature="0"
         style="fill:none;stroke:#1e1e1e;stroke-width:0.30000001;stroke-linecap:round;stroke-linejoin:round;stroke-miterlimit:4;stroke-opacity:1;stroke-dasharray:none"
         id="path56-1"
         d="m 258.99573,291.41342 c -1.18811,-0.77813 -2.728,-1.40452 -4.78777,-1.97537" />
      <g
         style="opacity:0.70796461"
         id="g6849-6-6-2"
         transform="matrix(0.30783113,0,0,0.28240231,205.58241,304.34135)">
        <g
           id="g6783-6-3-9"
           style="fill:#f3f8f8;fill-opacity:0.58510623">
          <rect
             y="-104.46812"
             x="39.799736"
             height="76.770554"
             width="138.59125"
             id="rect6763-1-7-1"
             style="fill:#f3f8f8;fill-opacity:0.58510623;stroke:none" />
          <path
             transform="matrix(0.5383978,0,0,1.2595363,-85.60663,-542.16439)"
             d="m 490.92911,406.80359 c 0,9.70722 -57.25562,17.57647 -127.88401,17.57647 -70.62838,0 -127.884,-7.86925 -127.884,-17.57647 0,-9.70722 57.25562,-17.57647 127.884,-17.57647 70.62839,0 127.88401,7.86925 127.88401,17.57647 z"
             sodipodi:ry="17.576473"
             sodipodi:rx="127.884"
             sodipodi:cy="406.80359"
             sodipodi:cx="363.0451"
             id="path6761-9-8-8-3"
             style="fill:#f3f8f8;fill-opacity:0.58510623;stroke:none"
             sodipodi:type="arc" />
        </g>
        <path
           sodipodi:type="arc"
           style="fill:#f1f5f5;fill-opacity:1;stroke:none"
           id="path6761-49-8-5"
           sodipodi:cx="363.0451"
           sodipodi:cy="406.80359"
           sodipodi:rx="127.884"
           sodipodi:ry="17.576473"
           d="m 490.92911,406.80359 c 0,9.70722 -57.25562,17.57647 -127.88401,17.57647 -70.62838,0 -127.884,-7.86925 -127.884,-17.57647 0,-9.70722 57.25562,-17.57647 127.884,-17.57647 70.62839,0 127.88401,7.86925 127.88401,17.57647 z"
           transform="matrix(0.53863766,0,0,1.0052601,-85.545276,-514.42179)" />
      </g>
      <path
         d="m 252.6344,284.6183 c -1.32372,0.28928 -2.79028,0.53959 -4.37177,0.74206 l 0,-45.4856 c 1.58125,-0.20295 3.04805,-0.45278 4.37177,-0.74205"
         id="path26-7"
         style="fill:none;stroke:#000000;stroke-width:0.5;stroke-linecap:round;stroke-linejoin:round;stroke-miterlimit:4;stroke-opacity:1;stroke-dasharray:none"
         inkscape:connector-curvature="0" />
      <path
         inkscape:connector-curvature="0"
         style="fill:none;stroke:#323232;stroke-width:0.40000001;stroke-linecap:round;stroke-linejoin:round;stroke-miterlimit:4;stroke-opacity:1;stroke-dasharray:none"
         id="path30-0"
         d="m 214.20097,219.22323 c 0.28566,-0.18371 0.93538,-0.37199 1.24004,-0.42994 2.45917,-0.46745 4.15777,-0.37343 7.09689,0.29745 4.23183,0.96664 10.07834,1.56394 16.53657,1.56394 9.4719,0 17.28415,-1.36076 20.97855,-3.144 0.89138,-0.43042 1.36677,-1.01714 1.46127,-1.44178" />
      <path
         inkscape:connector-curvature="0"
         style="fill:none;stroke:#323232;stroke-width:0.5;stroke-linecap:round;stroke-linejoin:round;stroke-miterlimit:4;stroke-opacity:1;stroke-dasharray:none"
         id="path32-8"
         d="m 261.15625,220.73932 0,73.06017 c 0,2.96341 -2.79485,7.9308 -21.61962,7.9308 -18.82477,0 -21.61962,-4.96739 -21.61962,-7.9308 l 0,-68.55662 c 0,0 0.2609,-4.01446 -3.55445,-4.56342 -0.19069,-0.0274 -0.80362,0.24334 -1.01522,0.2354 -1.22249,-0.0462 -1.50407,-1.46319 0.52011,-3.36569 2.25214,-2.11628 1.19484,-4.44031 5.67097,-6.02012 4.28714,-1.51296 11.61679,-2.69842 19.99821,-2.69842 13.15644,0 23.8215,2.68976 23.8215,5.91191 0,2.33485 -2.20188,2.57266 -2.20188,5.99679 z" />
      <path
         d="m 248.26263,254.9996 c 1.58125,-0.20271 3.04805,-0.45255 4.37177,-0.7423"
         id="path22-4"
         style="fill:none;stroke:#000000;stroke-width:0.40000001;stroke-linecap:round;stroke-linejoin:round;stroke-miterlimit:4;stroke-opacity:1;stroke-dasharray:none"
         inkscape:connector-curvature="0" />
      <path
         d="m 248.26263,270.15569 c 1.58125,-0.20295 3.04805,-0.4523 4.37177,-0.74205"
         id="path24-0"
         style="fill:none;stroke:#000000;stroke-width:0.40000001;stroke-linecap:round;stroke-linejoin:round;stroke-miterlimit:4;stroke-opacity:1;stroke-dasharray:none"
         inkscape:connector-curvature="0" />
      <path
         inkscape:connector-curvature="0"
         style="fill:none;stroke:#1e1e1e;stroke-width:0.2;stroke-linecap:round;stroke-linejoin:round;stroke-miterlimit:4;stroke-opacity:1;stroke-dasharray:none"
         id="path34-1"
         d="m 216.25689,219.82125 c 2.96196,-0.31981 3.77231,0.0334 6.32959,0.6817 0.16711,0.0423 0.34145,0.0861 0.52443,0.13153" />
      <path
         inkscape:connector-curvature="0"
         style="fill:none;stroke:#1e1e1e;stroke-width:0.2;stroke-linecap:round;stroke-linejoin:round;stroke-miterlimit:4;stroke-opacity:1;stroke-dasharray:none"
         id="path36-4"
         d="m 260.879,218.61775 c -3.93895,2.42238 -12.32157,3.72903 -21.3503,3.72903 -4.69496,0 -9.07298,-0.35467 -12.76354,-0.96688" />
      <path
         inkscape:connector-curvature="0"
         style="fill:none;stroke:#1e1e1e;stroke-width:0.2;stroke-linecap:round;stroke-linejoin:round;stroke-miterlimit:4;stroke-opacity:1;stroke-dasharray:none"
         id="path38-0"
         d="m 252.45382,211.50307 c 3.49843,0.6526 6.68522,1.75246 7.95629,2.61499 0.58335,0.39603 0.92143,0.85338 0.92143,1.39153" />
      <path
         inkscape:connector-curvature="0"
         style="fill:none;stroke:#1e1e1e;stroke-width:0.2;stroke-linecap:round;stroke-linejoin:round;stroke-miterlimit:4;stroke-opacity:1;stroke-dasharray:none"
         id="path40-7"
         d="m 216.49133,217.09349 c 0.75601,-1.85658 1.1946,-3.38926 5.35838,-4.62738 4.29699,-1.27756 10.47389,-2.07877 17.33802,-2.07877 3.40152,0 6.63472,0.1967 9.55341,0.55065" />
    </g>
    <g
       id="g9576"
       transform="translate(0.37389453,0.93473633)">
      <path
         inkscape:connector-curvature="0"
         style="fill:none;stroke:#1e1e1e;stroke-width:0.13904472;stroke-linecap:round;stroke-linejoin:round;stroke-miterlimit:4;stroke-opacity:1;stroke-dasharray:none"
         id="path105-8"
         d="m 31.551241,35.432183 c 0,-0.600372 -1.296032,-1.129975 -3.268107,-1.443368" />
      <path
         inkscape:connector-curvature="0"
         style="fill:none;stroke:#1e1e1e;stroke-width:0.13904472;stroke-linecap:round;stroke-linejoin:round;stroke-miterlimit:4;stroke-opacity:1;stroke-dasharray:none"
         id="path101-0"
         d="m 17.272271,36.263253 c -1.176448,-0.554788 -1.44582,-1.257914 -1.44582,-1.85138" />
      <path
         inkscape:connector-curvature="0"
         style="fill:none;stroke:#1e1e1e;stroke-width:0.13904472;stroke-linecap:round;stroke-linejoin:round;stroke-miterlimit:4;stroke-opacity:1;stroke-dasharray:none"
         id="path107-9"
         d="m 26.080693,33.751434 c -0.625112,-0.04 -1.283327,-0.06152 -1.962713,-0.06152 -4.105421,0 -7.433488,0.780027 -7.433488,1.742272" />
      <path
         inkscape:connector-curvature="0"
         style="fill:none;stroke:#1e1e1e;stroke-width:0.13904472;stroke-linecap:round;stroke-linejoin:round;stroke-miterlimit:4;stroke-opacity:1;stroke-dasharray:none"
         id="path103-2"
         d="m 32.399474,34.411873 c 0,1.186927 -1.069903,2.812508 -8.276702,2.812508 -2.481285,0 -4.235038,-0.192693 -5.4681,-0.493826" />
      <path
         inkscape:connector-curvature="0"
         style="fill:none;stroke:#1e1e1e;stroke-width:0.13904472;stroke-linecap:round;stroke-linejoin:round;stroke-miterlimit:4;stroke-opacity:1;stroke-dasharray:none"
         id="path111-9"
         d="M 32.034592,33.693035 C 31.569965,33.388893 30.904506,33.116514 30.08748,32.889936" />
      <path
         inkscape:connector-curvature="0"
         style="fill:none;stroke:#1e1e1e;stroke-width:0.13904472;stroke-linecap:round;stroke-linejoin:round;stroke-miterlimit:4;stroke-opacity:1;stroke-dasharray:none"
         id="path109-8"
         d="m 27.124627,32.351531 c -0.936721,-0.100974 -1.949342,-0.156471 -3.006759,-0.156471 -3.531573,0 -6.568875,0.615305 -7.916728,1.497975" />
      <path
         d="m 27.900529,22.014039 c 0.652755,-0.08381 1.258475,-0.186788 1.805018,-0.306482"
         id="path75-2"
         style="fill:none;stroke:#000000;stroke-width:0.18539296;stroke-linecap:round;stroke-linejoin:round;stroke-miterlimit:4;stroke-opacity:1;stroke-dasharray:none"
         inkscape:connector-curvature="0" />
      <path
         d="m 27.900529,24.879259 c 0.652755,-0.08358 1.258475,-0.186788 1.805018,-0.30626"
         id="path77-0"
         style="fill:none;stroke:#000000;stroke-width:0.18539296;stroke-linecap:round;stroke-linejoin:round;stroke-miterlimit:4;stroke-opacity:1;stroke-dasharray:none"
         inkscape:connector-curvature="0" />
      <path
         d="m 27.900529,27.764321 c 0.652755,-0.08358 1.258475,-0.186788 1.805018,-0.30626"
         id="path79-9"
         style="fill:none;stroke:#000000;stroke-width:0.18539296;stroke-linecap:round;stroke-linejoin:round;stroke-miterlimit:4;stroke-opacity:1;stroke-dasharray:none"
         inkscape:connector-curvature="0" />
      <path
         d="m 29.705547,30.390264 c -0.546543,0.119472 -1.152263,0.222675 -1.805018,0.306482 l 0,-11.648902 c 0.652755,-0.08381 1.258475,-0.18701 1.805018,-0.306259"
         id="path81-8"
         style="fill:none;stroke:#000000;stroke-width:0.23174119;stroke-linecap:round;stroke-linejoin:round;stroke-miterlimit:4;stroke-opacity:1;stroke-dasharray:none"
         inkscape:connector-curvature="0" />
      <path
         inkscape:connector-curvature="0"
         style="fill:none;stroke:#323232;stroke-width:0.18539296;stroke-linecap:round;stroke-linejoin:round;stroke-miterlimit:4;stroke-opacity:1;stroke-dasharray:none"
         id="path85-1"
         d="m 13.664357,12.586409 c 0.117354,-0.07211 0.384496,-0.146108 0.509872,-0.168847 1.011171,-0.183442 1.709731,-0.146553 2.918053,0.116798 1.740038,0.379369 4.144311,0.61397 6.799903,0.61397 3.89467,0 7.106941,-0.534173 8.62587,-1.234179 0.366777,-0.169065 0.562033,-0.399318 0.601151,-0.565935" />
      <path
         inkscape:connector-curvature="0"
         style="fill:none;stroke:#323232;stroke-width:0.23174119;stroke-linecap:round;stroke-linejoin:round;stroke-miterlimit:4;stroke-opacity:1;stroke-dasharray:none"
         id="path87-7"
         d="m 33.050333,13.183212 0,21.460254 c 0,1.223366 -1.153826,3.274234 -8.925892,3.274234 -7.771956,0 -8.925888,-2.050868 -8.925888,-3.274234 l 0,-19.600851 c 0,0 0.109331,-1.656565 -1.506892,-1.859403 -0.06698,-0.0083 -0.304587,0.06966 -0.37759,0.06698 -0.463288,-0.01747 -0.571284,-0.64729 0.212534,-1.383963 0.929922,-0.873645 0.493271,-1.833216 2.341305,-2.4854101 1.769909,-0.6245564 4.796065,-1.1140355 8.256531,-1.1140355 5.431767,0 9.834975,1.1104714 9.834975,2.4408276 0,0.963692 -0.909083,1.061769 -0.909083,2.475599 z" />
      <path
         inkscape:connector-curvature="0"
         style="fill:none;stroke:#1e1e1e;stroke-width:0.09269648;stroke-linecap:round;stroke-linejoin:round;stroke-miterlimit:4;stroke-opacity:1;stroke-dasharray:none"
         id="path89-3"
         d="m 14.654017,12.861351 c 1.204642,-0.129951 1.534419,0.01358 2.574116,0.277283 0.06809,0.01729 0.13898,0.03509 0.213202,0.05349" />
      <path
         inkscape:connector-curvature="0"
         style="fill:none;stroke:#1e1e1e;stroke-width:0.09269648;stroke-linecap:round;stroke-linejoin:round;stroke-miterlimit:4;stroke-opacity:1;stroke-dasharray:none"
         id="path91-3"
         d="m 32.800353,12.371983 c -1.601846,0.985202 -5.010712,1.516584 -8.682373,1.516584 -1.909446,0 -3.689719,-0.144212 -5.190706,-0.393408" />
      <path
         inkscape:connector-curvature="0"
         style="fill:none;stroke:#1e1e1e;stroke-width:0.09269648;stroke-linecap:round;stroke-linejoin:round;stroke-miterlimit:4;stroke-opacity:1;stroke-dasharray:none"
         id="path93-0"
         d="m 29.454567,9.4787826 c 1.430547,0.2652509 2.733712,0.7126044 3.253285,1.0633304 0.238832,0.161264 0.376917,0.347162 0.376917,0.566047" />
      <path
         inkscape:connector-curvature="0"
         style="fill:none;stroke:#1e1e1e;stroke-width:0.09269648;stroke-linecap:round;stroke-linejoin:round;stroke-miterlimit:4;stroke-opacity:1;stroke-dasharray:none"
         id="path95-7"
         d="m 14.749193,11.752219 c 0.309046,-0.755064 0.488589,-1.378392 2.191294,-1.8819143 1.756872,-0.519573 4.282735,-0.8454475 7.089667,-0.8454475 1.390879,0 2.712985,0.08002 3.906262,0.2240103" />
    </g>
    <g
       id="g9530"
       transform="matrix(0.37465114,0,0,0.37465114,-29.055306,12.035774)">
      <path
         inkscape:connector-curvature="0"
         style="fill:none;stroke:#1e1e1e;stroke-width:0.30000001;stroke-linecap:round;stroke-linejoin:round;stroke-miterlimit:4;stroke-opacity:1;stroke-dasharray:none"
         id="path116-4"
         d="m -65.713403,-13.01652 c 4.79474,-0.51747 6.10692,0.0541 10.24617,1.10346 0.27028,0.0685 0.55234,0.13971 0.84858,0.21305" />
      <path
         inkscape:connector-curvature="0"
         style="fill:none;stroke:#1e1e1e;stroke-width:0.30000001;stroke-linecap:round;stroke-linejoin:round;stroke-miterlimit:4;stroke-opacity:1;stroke-dasharray:none"
         id="path120-0"
         d="m -6.76237,-26.09481 c 5.6854,1.01954 10.86415,2.73786 12.92969,4.08562 0.94861,0.61919 1.49782,1.33335 1.49782,2.17423" />
      <path
         inkscape:connector-curvature="0"
         style="fill:none;stroke:#1e1e1e;stroke-width:0.30000001;stroke-linecap:round;stroke-linejoin:round;stroke-miterlimit:4;stroke-opacity:1;stroke-dasharray:none"
         id="path122-8"
         d="m -66.944073,-15.36388 c 1.07509,-0.7976 2.00687,-2.63374 2.13936,-2.94321 1.06211,-2.4796 2.29325,-4.56318 8.30904,-6.28318 6.98292,-1.99628 17.02085,-3.24835 28.17572,-3.24835 5.527663,0 10.781683,0.30755 15.524963,0.8606" />
      <path
         inkscape:connector-curvature="0"
         style="fill:none;stroke:#1e1e1e;stroke-width:0.5;stroke-linecap:round;stroke-linejoin:round;stroke-miterlimit:4;stroke-opacity:1;stroke-dasharray:none"
         id="path128-7"
         d="m -55.291453,76.31162 c -4.68293,-2.26055 -5.75489,-5.12585 -5.75489,-7.54414" />
      <path
         inkscape:connector-curvature="0"
         style="fill:none;stroke:#1e1e1e;stroke-width:0.5;stroke-linecap:round;stroke-linejoin:round;stroke-miterlimit:4;stroke-opacity:1;stroke-dasharray:none"
         id="path130-3"
         d="m 4.9203,68.76748 c 0,4.83658 -4.25852,11.46049 -32.94425,11.46049 -9.876343,0 -16.857093,-0.78534 -21.765333,-2.0124" />
      <path
         inkscape:connector-curvature="0"
         style="fill:none;stroke:#1e1e1e;stroke-width:0.5;stroke-linecap:round;stroke-linejoin:round;stroke-miterlimit:4;stroke-opacity:1;stroke-dasharray:none"
         id="path132-0"
         d="m 1.54354,73.35975 c 0,-2.39015 -5.15855,-4.49777 -13.00808,-5.74479" />
      <path
         inkscape:connector-curvature="0"
         style="fill:none;stroke:#1e1e1e;stroke-width:0.5;stroke-linecap:round;stroke-linejoin:round;stroke-miterlimit:4;stroke-opacity:1;stroke-dasharray:none"
         id="path134-7"
         d="m -20.23069,66.66972 c -2.48922,-0.15942 -5.1083,-0.24503 -7.81321,-0.24503 -16.340603,0 -29.587213,3.10456 -29.587213,6.93506" />
      <path
         inkscape:connector-curvature="0"
         style="fill:none;stroke:#1e1e1e;stroke-width:0.5;stroke-linecap:round;stroke-linejoin:round;stroke-miterlimit:4;stroke-opacity:1;stroke-dasharray:none"
         id="path136-6"
         d="m -16.07509,61.04443 c -3.72878,-0.40204 -7.75935,-0.62326 -11.96857,-0.62326 -14.056723,0 -26.146733,2.45003 -31.511363,5.96337" />
      <path
         inkscape:connector-curvature="0"
         style="fill:none;stroke:#1e1e1e;stroke-width:0.5;stroke-linecap:round;stroke-linejoin:round;stroke-miterlimit:4;stroke-opacity:1;stroke-dasharray:none"
         id="path138-4"
         d="M 3.46769,66.38454 C 1.61857,65.17359 -1.03008,64.08912 -4.28252,63.1874" />
      <path
         inkscape:connector-curvature="0"
         style="fill:none;stroke:#323232;stroke-width:0.80000001;stroke-linecap:round;stroke-linejoin:round;stroke-miterlimit:4;stroke-opacity:1;stroke-dasharray:none"
         id="path140-2"
         d="m -68.439003,-13.35461 c 0.46361,-0.32437 1.51874,-0.65693 2.0136,-0.75912 3.99402,-0.82526 6.7528,-0.6591 11.52493,0.52516 6.87327,1.70581 16.36849,2.7607 26.856813,2.7607 15.38308,0 27.66498,-2.40194 33.66442,-5.54954 1.44828,-0.75985 2.23963,-1.7955 2.394,-2.54477" />
      <path
         inkscape:connector-curvature="0"
         style="fill:none;stroke:#1e1e1e;stroke-width:0.30000001;stroke-linecap:round;stroke-linejoin:round;stroke-miterlimit:4;stroke-opacity:1;stroke-dasharray:none"
         id="path118-2"
         d="m 6.51598,-14.96472 c -6.37623,3.92116 -19.94434,6.03647 -34.55964,6.03647 -7.599453,0 -14.686483,-0.57421 -20.660673,-1.56538" />
      <path
         inkscape:connector-curvature="0"
         style="fill:none;stroke:#323232;stroke-width:0.80000001;stroke-linecap:round;stroke-linejoin:round;stroke-miterlimit:4;stroke-opacity:1;stroke-dasharray:none"
         id="path142-1"
         d="m 6.42677,-10.69321 0,80.13325 c 0,4.72453 -4.45569,12.64499 -34.47043,12.64499 -30.014513,0 -34.470443,-7.92022 -34.470443,-12.64499 l 0,-72.95244 c 0,0 0.41166,-6.69821 -5.58104,-7.6247 -0.32967,-0.051 -1.20782,0.2395 -1.57741,0.22555 -1.68994,-0.0637 -1.93232,-2.39232 0.7019,-4.86784 3.59077,-3.37411 1.90467,-7.07958 9.04172,-9.59838 6.83479,-2.41204 18.52155,-4.30228 31.885273,-4.30228 20.97663,0 37.98137,4.28858 37.98137,9.42597 -2.4e-4,3.72206 -3.51094,4.10126 -3.51094,9.56087 z" />
      <path
         d="m -12.24122,19.9852 c 2.52097,-0.32342 4.85991,-0.72162 6.97041,-1.18306"
         id="path154-3"
         style="fill:none;stroke:#161413;stroke-width:0.72137529;stroke-linecap:round;stroke-linejoin:round"
         inkscape:connector-curvature="0" />
      <path
         d="m -12.24122,30.75749 c 2.52097,-0.32341 4.85991,-0.72161 6.97041,-1.18305"
         id="path156-6"
         style="fill:none;stroke:#161413;stroke-width:0.72137529;stroke-linecap:round;stroke-linejoin:round"
         inkscape:connector-curvature="0" />
      <path
         d="m -12.24122,41.53003 c 2.52097,-0.32342 4.85991,-0.72161 6.97041,-1.18305"
         id="path158-2"
         style="fill:none;stroke:#161413;stroke-width:0.72137529;stroke-linecap:round;stroke-linejoin:round"
         inkscape:connector-curvature="0" />
      <path
         d="m -12.24122,52.30257 c 2.52097,-0.32342 4.85991,-0.72162 6.97041,-1.18306"
         id="path160-2"
         style="fill:none;stroke:#161413;stroke-width:0.72137529;stroke-linecap:round;stroke-linejoin:round"
         inkscape:connector-curvature="0" />
      <path
         d="m -5.27081,61.89181 c -2.1105,0.46144 -4.44944,0.85964 -6.97041,1.18306 l 0,-53.86221 C -9.72025,8.88924 -7.38131,8.49104 -5.27081,8.0296"
         id="path162-1"
         style="fill:none;stroke:#000000;stroke-width:0.5;stroke-linecap:round;stroke-linejoin:round;stroke-miterlimit:4;stroke-opacity:1;stroke-dasharray:none"
         inkscape:connector-curvature="0" />
    </g>
  </g>
</svg>
