<?xml version="1.0" encoding="UTF-8" standalone="no"?>
<svg
   xmlns:dc="http://purl.org/dc/elements/1.1/"
   xmlns:cc="http://creativecommons.org/ns#"
   xmlns:rdf="http://www.w3.org/1999/02/22-rdf-syntax-ns#"
   xmlns:svg="http://www.w3.org/2000/svg"
   xmlns="http://www.w3.org/2000/svg"
   xmlns:sodipodi="http://sodipodi.sourceforge.net/DTD/sodipodi-0.dtd"
   xmlns:inkscape="http://www.inkscape.org/namespaces/inkscape"
   version="1.1"
   id="Layer_1"
   x="0px"
   y="0px"
   viewBox="0 0 48 48"
   xml:space="preserve"
   inkscape:version="0.91 r13725"
   sodipodi:docname="25mLPipette.svg"
   width="48"
   height="48"><metadata
     id="metadata365"><rdf:rdf><cc:work
         rdf:about=""><dc:format>image/svg+xml</dc:format><dc:type
           rdf:resource="http://purl.org/dc/dcmitype/StillImage" /><dc:title /></cc:work></rdf:rdf><rdf:RDF><cc:Work
         rdf:about=""><dc:format>image/svg+xml</dc:format><dc:type
           rdf:resource="http://purl.org/dc/dcmitype/StillImage" /><dc:title></dc:title></cc:Work></rdf:RDF></metadata><defs
     id="defs363"><clipPath
       clipPathUnits="userSpaceOnUse"
       id="clipPath4315"><path
         sodipodi:nodetypes="sscccccccccsccsccsccccssssccsccscsccs"
         style="fill:none;stroke:#000000;stroke-width:0.29283202;stroke-linecap:round;stroke-linejoin:round;stroke-miterlimit:10"
         inkscape:connector-curvature="0"
         id="path4317"
         d="m 7.1983096,105.57368 0,47.56581 c 0,0.60351 -0.1918174,1.20702 -0.3452784,1.83289 -0.1533577,0.75998 -0.3836176,1.54231 -0.5370783,2.30229 -0.153358,0.69293 -0.3452612,1.38585 -0.4987219,2.05642 -0.038425,0.11176 -0.153358,0.26822 -0.2301741,0.29058 -0.3069045,0.0224 -0.6521655,0 -0.95907,-0.0224 -0.076679,0 -0.115104,-0.13411 -0.1535293,-0.20116 -0.076679,-0.31293 -0.1918174,-0.62587 -0.2685479,-0.96115 -0.1918174,-0.78234 -0.3069045,-1.58702 -0.575435,-2.36935 -0.4987219,-1.54231 -0.613809,-3.08463 -0.613809,-4.62694 0.038425,-15.26666 0,-30.53333 0,-45.79997 0,-0.4694 0.038425,-0.96115 -0.5754522,-1.34116 -0.2301741,-0.15646 -0.4987219,-0.29057 -0.7672698,-0.42468 -0.76725242,-0.35764 -1.15088731,-0.82704 -1.15088731,-1.40821 0,-4.962214 0.0384248,-9.902079 0,-14.864301 0,-0.715284 0.46036519,-1.25174 1.38107851,-1.631726 0.8439831,-0.357637 1.1125308,-0.827037 1.1125308,-1.408201 l 0,-0.201167 8.8e-6,-8.505051 8.7e-6,-16.954241 0,-7.845679 0,-0.15647 c 0,-0.111763 0.115104,-0.134111 0.3452611,-0.134111 l 3.4143226,0 c 0.3069045,0 0.4219915,0.04467 0.4219915,0.178818 l 0,0.111763 0.019178,24.900524 0.019178,8.449185 c 0,0.424703 -0.038425,0.827037 0.4219916,1.184684 0.1535294,0.111753 0.3069044,0.223515 0.4987218,0.290571 1.2276178,0.447052 1.572896,1.117619 1.572896,1.922308 l 0,6.482186 0,7.868018 c 0,0.78233 -0.3836348,1.40821 -1.4961656,1.85525 -0.7288959,0.29057 -0.9590699,0.73763 -1.0358087,1.25173 -0.038365,0.11175 6.01e-5,0.22353 6.01e-5,0.31294 z"
         class="st130" /></clipPath></defs><sodipodi:namedview
     pagecolor="#ffffff"
     bordercolor="#666666"
     borderopacity="1"
     objecttolerance="10"
     gridtolerance="10"
     guidetolerance="10"
     inkscape:pageopacity="0"
     inkscape:pageshadow="2"
     inkscape:window-width="1440"
     inkscape:window-height="791"
     id="namedview361"
     showgrid="false"
     inkscape:zoom="3.3712566"
     inkscape:cx="-12.550813"
     inkscape:cy="87.74347"
     inkscape:window-x="0"
     inkscape:window-y="0"
     inkscape:window-maximized="1"
     inkscape:current-layer="Layer_1" /><style
     type="text/css"
     id="style3">
        .st0{fill:#05884E;}
        .st1{fill:#0A8D47;}
        .st2{fill:#287F55;}
        .st3{fill:#6293B2;}
        .st4{fill:#668C9E;}
        .st5{fill:#6799BE;}
        .st6{fill:#08844B;}
        .st7{fill:#77A3C0;}
        .st8{fill:#459460;}
        .st9{fill:#6497B9;}
        .st10{fill:#709DBE;}
        .st11{fill:#6D9DBD;}
        .st12{fill:#32865C;}
        .st13{fill:#629AB8;}
        .st14{fill:#7DA4BF;}
        .st15{fill:#6491B2;}
        .st16{fill:#6A99B4;}
        .st17{fill:#85ADCD;}
        .st18{fill:#5B95AA;}
        .st19{fill:#81AAC8;}
        .st20{fill:#6A99BC;}
        .st21{fill:#76A4C2;}
        .st22{fill:#6496B8;}
        .st23{fill:#78A1C3;}
        .st24{fill:#80A5C2;}
        .st25{fill:#6794BA;}
        .st26{fill:#638DA5;}
        .st27{fill:#768992;}
        .st28{fill:#81A8C6;}
        .st29{fill:#6F96B4;}
        .st30{fill:#6594B6;}
        .st31{fill:#709BB1;}
        .st32{fill:#94B7D2;}
        .st33{fill:#759DB0;}
        .st34{fill:#C4CDD6;}
        .st35{fill:#BECEDC;}
        .st36{fill:#278D52;}
        .st37{fill:#72A1BA;}
        .st38{fill:#588CA7;}
        .st39{fill:#5B8EAD;}
        .st40{fill:#5990B6;}
        .st41{fill:#5599B5;}
        .st42{fill:#6F9DC3;}
        .st43{fill:#AEC7DE;}
        .st44{fill:#598AAD;}
        .st45{fill:#5B96B6;}
        .st46{fill:#6494B6;}
        .st47{fill:#69BD6D;}
        .st48{fill:#6687AD;}
        .st49{fill:#5291AB;}
        .st50{fill:#6084A5;}
        .st51{fill:#6F8792;}
        .st52{fill:#4189AE;}
        .st53{fill:#52939A;}
        .st54{fill:#C1D2D7;}
        .st55{fill:#6185A0;}
        .st56{fill:#5390A8;}
        .st57{fill:#61BA68;}
        .st58{fill:#0AA24D;}
        .st59{fill:#2FB24B;}
        .st60{fill:#BECFD6;}
        .st61{fill:#28AA56;}
        .st62{fill:#09A14C;}
        .st63{fill:#0BA74E;}
        .st64{fill:#09875B;}
        .st65{fill:#078246;}
        .st66{fill:#067F4A;}
        .st67{fill:#83979E;}
        .st68{fill:#BCC7D1;}
        .st69{fill:#88919C;}
        .st70{fill:#F1F2F4;}
        .st71{fill:#E5EBEE;}
        .st72{fill:#BFD5E5;}
        .st73{fill:#0AA64D;}
        .st74{fill:#D0DCDE;}
        .st75{fill:#0A834F;}
        .st76{fill:#0F954E;}
        .st77{fill:#EDF0F4;}
        .st78{fill:#CCDEE6;}
        .st79{fill:#E4EBEF;}
        .st80{fill:#5B93B7;}
        .st81{fill:#BBD0DC;}
        .st82{fill:#F0F2F6;}
        .st83{fill:#5F92A7;}
        .st84{fill:#4B88AC;}
        .st85{fill:#89C688;}
        .st86{fill:#098850;}
        .st87{fill:#489E5C;}
        .st88{fill:#0D844D;}
        .st89{fill:#EBEEF0;}
        .st90{fill:#739FB7;}
        .st91{fill:#F7F7F9;}
        .st92{fill:#C4D8E6;}
        .st93{fill:#F8F8F8;}
        .st94{fill:#EAEDEF;}
        .st95{fill:#7DA6C4;}
        .st96{fill:#3EB458;}
        .st97{fill:#EAF2F7;}
        .st98{fill:#039E53;}
        .st99{fill:#00A057;}
        .st100{fill:#468C6E;}
        .st101{fill:#478C66;}
        .st102{fill:#5AB565;}
        .st103{fill:#14AB4E;}
        .st104{fill:#247F4E;}
        .st105{fill:#CEDFEC;}
        .st106{fill:#478660;}
        .st107{fill:#388158;}
        .st108{fill:#5890B1;}
        .st109{fill:#E9EFF1;}
        .st110{fill:#DAEAF4;}
        .st111{fill:#D8E6F2;}
        .st112{fill:#D6E7F3;}
        .st113{fill:#5E9A72;}
        .st114{fill:#178150;}
        .st115{fill:#80AAC3;}
        .st116{fill:#7FA6C5;}
        .st117{fill:#6498BB;}
        .st118{fill:#76A3C1;}
        .st119{fill:#75A4C7;}
        .st120{fill:#8AAECA;}
        .st121{fill:#6495B7;}
        .st122{fill:#DDE6EF;}
        .st123{fill:#E4F1F8;}
        .st124{fill:#D6E4EE;}
        .st125{fill:#F1F5F8;}
        .st126{fill:#C3D3E1;}
        .st127{fill:#77A3C4;}
        .st128{fill:#EDF3F6;}
        .st129{fill:#DCE9F2;}
        .st130{fill:none;stroke:#000000;stroke-linecap:round;stroke-linejoin:round;stroke-miterlimit:10;}
    </style><path
     class="st0"
     d="m 22.784877,11.478575 c -0.0068,-0.04719 -0.01348,-0.08764 -0.01348,-0.134838 0,-3.1821588 0,-6.3643208 0.0068,-9.5532238 0.0068,-0.03371 0.0068,-0.06067 0.01347,-0.09438 0.404513,-0.02023 0.809023,-0.04045 1.213535,-0.06742 0.175289,0.02023 0.357319,0.04045 0.532608,0.06067 0,0.02698 0.0068,0.04719 0.0068,0.07416 0,0.02023 0.0068,0.04719 0.0068,0.06742 0.02023,0.161804 0.03371,0.323609 0.05394,0.485413 -0.02023,0.04045 -0.04719,0.07416 -0.06742,0.114614 -0.141579,0.101129 -0.175289,0.242708 -0.141579,0.404512 -0.02023,0 -0.04045,0 -0.06068,0 0,-0.182032 0,-0.357318 0,-0.539351 0.262933,-0.128095 0.0809,-0.337094 0.121354,-0.525864 -0.0809,-0.0068 -0.134836,-0.01347 -0.18877,-0.01347 -0.182033,0 -0.364063,0 -0.546093,0 -0.269674,0 -0.532607,0 -0.802282,0 -0.02695,0.08764 -0.06742,0.182029 -0.06742,0.269674 0,3.121483 0,6.24297 0,9.3577088 0,0.02698 -0.0068,0.04719 -0.0068,0.07416 -0.02023,0.02023 -0.04045,0.02023 -0.06068,0.02023 z"
     id="path5"
     inkscape:connector-curvature="0"
     style="fill:#05884e" /><path
     class="st1"
     d="m 22.852296,11.478575 c 0,-0.02698 0.0068,-0.04719 0.0068,-0.07416 0.02023,0 0.04719,0.0068 0.06742,0.0068 0.02023,0.02023 0.04045,0.04045 0.06068,0.06068 0.02695,0 0.04719,0 0.07416,0 0.22248,0 0.444963,0 0.667444,0 0.188773,0 0.377546,0 0.586542,0 0.175289,-0.586543 0.06068,-1.173085 0.08764,-1.7461438 0.06742,0.02023 0.134839,0.04045 0.202258,0.06742 0,0.3775438 -0.0068,0.7550878 0.0068,1.1326348 0,0.11461 0.04719,0.235964 0.06742,0.350575 l 0,0 c -0.01347,0.0068 -0.03371,0.02023 -0.04719,0.02698 0.01347,0.01347 0.02698,0.02023 0.04719,0.03371 0,0 0.02023,0 0.02023,0 -0.0068,0.02695 -0.0068,0.04719 -0.01347,0.07416 -0.0068,0.04045 -0.01347,0.0809 -0.02023,0.121354 -0.579802,0 -1.159601,0 -1.739403,-0.0068 -0.02695,0.01347 -0.05394,-0.02695 -0.07416,-0.04719 z"
     id="path7"
     inkscape:connector-curvature="0"
     style="fill:#0a8d47" /><path
     class="st2"
     d="m 22.852296,11.478575 c 0.02698,0.02023 0.04719,0.06068 0.07416,0.06068 0.579802,0.0068 1.159601,0.0068 1.739403,0.0068 0,0.04719 0,0.08764 0,0.134838 -0.02023,0.0068 -0.04045,0.01348 -0.06068,0.02023 -0.06742,0 -0.14158,-0.0068 -0.208999,-0.0068 -0.02023,-0.0068 -0.03371,-0.0068 -0.05394,0 -0.498898,0 -0.997796,0.0068 -1.496694,0.0068 -0.02023,-0.0068 -0.04045,-0.01348 -0.06742,-0.01348 0,-0.06742 0,-0.141579 0,-0.208995 0.02698,0 0.04719,0 0.07416,0 z"
     id="path9"
     inkscape:connector-curvature="0"
     style="fill:#287f55" /><path
     class="st3"
     d="m 25.340046,8.7144112 c 0,0.829248 0,1.6652388 0,2.4944898 -0.01347,0 -0.03371,0 -0.04719,0 -0.0068,-0.04719 -0.01347,-0.08764 -0.02023,-0.134838 0,-0.0472 0,-0.09439 0,-0.14158 0.0068,-0.741606 0.01347,-1.4832098 0.02023,-2.2248158 l 0.02698,0 0.02023,0.0068 z"
     id="path11"
     inkscape:connector-curvature="0"
     style="fill:#6293b2" /><path
     class="st4"
     d="m 25.292852,11.208901 c 0.01347,0 0.03371,0 0.04719,0 -0.02023,0.04719 -0.04045,0.08764 -0.05394,0.134836 -0.155064,0.02023 -0.316869,0.04045 -0.471932,0.06068 -0.02023,0 -0.04719,0 -0.06742,0 -0.01347,-0.02023 -0.02698,-0.04045 -0.04045,-0.05393 0,0 -0.02023,0 -0.02023,0 0.0068,-0.02023 0.0068,-0.04045 0.0068,-0.06068 l 0,0 c 0.02023,-0.10787 0.04719,-0.208999 0.04719,-0.316868 0.0068,-0.411254 0.01347,-0.822508 0.01347,-1.2337608 0.02023,0 0.04719,0.0068 0.06742,0.0068 0,0.5123818 0,1.0247648 0,1.5438878 0.15506,0 0.276414,0 0.404509,0 0.01347,-0.03371 0.04045,-0.06068 0.06742,-0.0809 z"
     id="path13"
     inkscape:connector-curvature="0"
     style="fill:#668c9e" /><path
     class="st5"
     d="m 22.784877,-0.0432748 c 0.573061,-0.0068 1.139375,-0.0068 1.712437,-0.0068 0.05393,0 0.11461,0.04045 0.168545,0.06742 -0.02023,0 -0.04719,0 -0.06742,0 -0.606768,0 -1.213536,-0.0068 -1.813563,-0.0068 0,-0.02023 0,-0.03371 0,-0.05393 z"
     id="path15"
     inkscape:connector-curvature="0"
     style="fill:#6799be" /><path
     class="st6"
     d="m 24.551248,3.6647512 c 0,0.242709 0,0.485414 0,0.728122 0.04045,0.02023 0.08764,0.04719 0.128095,0.06742 0.02023,0.0068 0.04045,0.0068 0.06068,0.02023 0,0.01347 0,0.03371 0,0.04719 -0.107869,0.0068 -0.215739,0.0068 -0.323609,0.01347 -0.02695,0 -0.04719,-0.0068 -0.07416,-0.0068 0,-0.02023 0,-0.04719 -0.0068,-0.06742 l 0,0 c 0.04045,-0.02023 0.08764,-0.04719 0.128098,-0.06742 0,-0.343834 0.0068,-0.694412 0,-1.038247 0,-0.0809 -0.04045,-0.161804 -0.06742,-0.242708 0,-0.02023 0,-0.04719 0,-0.06742 l 0,0 c 0.04719,0 0.08764,0 0.134836,0 0,0.02023 0,0.04719 0,0.06742 0,0.134839 0.0068,0.269677 0.0068,0.404513 0.01347,0.04719 0.01347,0.09439 0.01347,0.141579 z"
     id="path17"
     inkscape:connector-curvature="0"
     style="fill:#08844b" /><path
     class="st7"
     d="m 22.919716,1.2983562 c 0,-0.310125 0,-0.626993 0,-0.937118 l 0.0068,-0.01347 c 0.04719,0 0.08764,0.0068 0.134838,0.0068 0,0.04719 0,0.08764 0,0.134838 0,0.04719 0,0.08765 0,0.134836 0,0.229224 -0.0068,0.451707 -0.0068,0.680931 -0.05393,-0.0068 -0.09439,-0.0068 -0.134838,-0.0068 z"
     id="path19"
     inkscape:connector-curvature="0"
     style="fill:#77a3c0" /><path
     class="st8"
     d="m 22.919716,1.2983562 c 0.04045,0 0.08764,0 0.128094,0 0.161805,0 0.316869,0 0.478673,0 l 0.03371,0.0068 c 0,0 0.03371,-0.0068 0.03371,-0.0068 0.02695,0 0.05393,0 0.07416,0 0.04045,0 0.08764,0 0.128095,0 0.148323,0 0.296643,0 0.444963,0 0.04045,0 0.0809,0 0.121355,0 0.0809,0.02023 0.161804,0.04719 0.249449,0.06742 0,0 -0.02023,0.02023 -0.02023,0.02023 -0.620253,0 -1.240505,0 -1.860757,-0.0068 -0.0068,-0.0068 -0.01348,-0.01348 -0.02695,-0.02698 0.07416,-0.01348 0.141579,-0.03371 0.215739,-0.05393 z"
     id="path21"
     inkscape:connector-curvature="0"
     style="fill:#459460" /><path
     class="st9"
     d="m 24.665859,0.2870782 c -0.08764,0.02695 -0.168545,0.04719 -0.25619,0.07416 -0.02023,0.06742 -0.04045,0.134836 -0.06068,0.202255 0,0.08765 -0.0068,0.175289 -0.0068,0.262934 -0.04045,0.02023 -0.0809,0.04719 -0.121354,0.06742 -0.0068,-0.02023 -0.01348,-0.04719 -0.02023,-0.06742 0,-0.02698 -0.0068,-0.04719 -0.0068,-0.07416 0.0068,-0.02023 0.0068,-0.04045 0.0068,-0.06068 0.0068,-0.09439 0.0068,-0.18203 0.01347,-0.276415 0.02023,-0.04045 0.04045,-0.0809 0.06067,-0.121354 0.114613,0 0.229224,-0.0068 0.337094,-0.0068 0.01347,0 0.03371,0 0.05393,0 z"
     id="path23"
     inkscape:connector-curvature="0"
     style="fill:#6497b9" /><path
     class="st10"
     d="m 22.798361,12.152763 c 0,-0.06742 0,-0.134839 0,-0.202258 0.02023,0 0.04045,0 0.06068,0 0.02023,0 0.03371,0 0.05393,0 0.0068,0.02023 0.0068,0.04045 0.0068,0.06742 0,0.02023 0,0.04719 0,0.06742 0,0.202255 0.0068,0.40451 0.0068,0.606768 0,0.11461 0,0.22248 -0.0068,0.337094 -0.02023,0 -0.04719,0 -0.06742,0 -0.0068,-0.10787 -0.01347,-0.222484 -0.02023,-0.330353 0,-0.134836 0.0068,-0.269675 0.0068,-0.404513 -0.0068,-0.04719 -0.02695,-0.09438 -0.04045,-0.141576 z"
     id="path25"
     inkscape:connector-curvature="0"
     style="fill:#709dbe" /><path
     class="st11"
     d="m 24.605183,11.701056 c 0.02023,-0.0068 0.04045,-0.01348 0.06068,-0.02023 0,0.18203 0,0.357319 0,0.539349 -0.02023,0.04719 -0.04045,0.09439 -0.06742,0.141579 -0.02023,0 -0.03371,0 -0.05393,0 0,-0.11461 -0.0068,-0.22248 -0.0068,-0.337093 0,-0.02023 0,-0.04719 0,-0.06742 0,-0.02023 0,-0.04719 0,-0.06742 0,0 0.01347,0 0.01347,0 0.02023,-0.06742 0.03371,-0.128095 0.05393,-0.188773 z"
     id="path27"
     inkscape:connector-curvature="0"
     style="fill:#6d9dbd" /><path
     class="st12"
     d="m 25.077112,4.5344532 c 0.02023,0.04045 0.04719,0.08764 0.06742,0.128095 0,0.02698 0,0.05393 0,0.0809 -0.0068,0.242706 -0.0068,0.492155 -0.01347,0.734863 -0.02023,0 -0.03371,0 -0.05393,0 0,-0.08764 -0.0068,-0.175289 -0.0068,-0.269674 0,-0.202258 0,-0.411254 0,-0.613512 0,-0.02023 0,-0.03371 -0.01348,-0.04719 l 0.02023,-0.01347 z"
     id="path29"
     inkscape:connector-curvature="0"
     style="fill:#32865c" /><path
     class="st13"
     d="m 25.414206,7.4334562 c 0,0.195514 0.0068,0.391028 0,0.579799 0,0.05393 -0.04045,0.107869 -0.06068,0.161804 l -0.0068,0 c 0,-0.09439 0,-0.18877 -0.0068,-0.276415 0,-0.08764 0,-0.175289 0,-0.256192 0.01348,-0.114611 0.02023,-0.222481 0.03371,-0.337094 0.01347,0.04045 0.02695,0.0809 0.04045,0.128098 z"
     id="path31"
     inkscape:connector-curvature="0"
     style="fill:#629ab8" /><path
     class="st14"
     d="m 25.623205,4.8041272 c 0.11461,0.161804 0.0809,0.323609 -0.02023,0.478673 -0.01347,0 -0.03371,0 -0.04719,0 0,-0.10787 0,-0.222483 -0.0068,-0.330353 0.01347,-0.01347 0.02695,-0.02695 0.03371,-0.04719 -0.01348,-0.01348 -0.02695,-0.02698 -0.04045,-0.04045 0,-0.02023 0,-0.04045 0,-0.06068 l 0,-0.02023 c 0.03371,0.0068 0.06068,0.01347 0.0809,0.02023 z"
     id="path33"
     inkscape:connector-curvature="0"
     style="fill:#7da4bf" /><path
     class="st15"
     d="m 25.488366,6.4221752 c -0.0068,0.249449 -0.01347,0.492158 -0.01347,0.741607 -0.02695,0 -0.04719,0 -0.07416,0 0,-0.202258 0,-0.404513 0.0068,-0.600027 0.0068,-0.04045 0.01348,-0.08765 0.02023,-0.128095 0.02023,-0.0068 0.04045,-0.01348 0.06068,-0.01348 z"
     id="path35"
     inkscape:connector-curvature="0"
     style="fill:#6491b2" /><path
     class="st16"
     d="m 22.784877,-0.0432748 c 0,0.02023 0,0.03371 0,0.05394 -0.02023,0.02698 -0.03371,0.05393 -0.05394,0.0809 0,0.04045 0,0.0809 -0.0068,0.121351 0.06742,0.02698 0.128095,0.05393 0.195514,0.0809 0,0.02023 0,0.03371 0,0.05394 l -0.0068,0.01347 c -0.07416,-0.0068 -0.155064,-0.01347 -0.256193,-0.02023 0,-0.121354 0,-0.235968 0,-0.370803 0.04719,-0.0068 0.08764,-0.0068 0.128095,-0.01348 z"
     id="path37"
     inkscape:connector-curvature="0"
     style="fill:#6a99b4" /><path
     class="st17"
     d="m 24.544505,13.37978 c -0.02023,-0.07416 -0.04719,-0.14158 -0.06742,-0.21574 0,-0.08764 0,-0.175289 0,-0.26293 0.02023,-0.0068 0.04045,-0.0068 0.06068,-0.0068 0.02023,0.02023 0.04045,0.04045 0.06068,0.06068 -0.02023,0.14158 -0.04045,0.283156 -0.05394,0.424735 z"
     id="path39"
     inkscape:connector-curvature="0"
     style="fill:#85adcd" /><path
     class="st18"
     d="m 24.551248,1.8444482 c 0,-0.02023 -0.0068,-0.04719 -0.0068,-0.06742 0.02023,-0.0068 0.04045,-0.0068 0.06068,-0.01348 0.08764,0.0068 0.175286,0.01348 0.25619,0.02023 0.02698,0.01347 0.05393,0.02695 0.0809,0.04045 0.04045,0.02695 0.08764,0.05393 0.128095,0.0809 0,0.02023 0,0.03371 0.0068,0.05393 -0.02023,0.0068 -0.04045,0.0068 -0.06068,0.0068 -0.06742,-0.02698 -0.134839,-0.04719 -0.195514,-0.07416 -0.08764,-0.01347 -0.18203,-0.03371 -0.269674,-0.04719 z"
     id="path41"
     inkscape:connector-curvature="0"
     style="fill:#5b95aa" /><path
     class="st19"
     d="m 25.488366,2.3028962 c 0.06742,0.175289 0.188773,0.350575 0.06742,0.552833 -0.02023,-0.06742 -0.04045,-0.14158 -0.06068,-0.208999 -0.02023,-0.09438 -0.04045,-0.18203 -0.06068,-0.276418 0.01347,-0.02023 0.03371,-0.04045 0.05393,-0.06742 z"
     id="path43"
     inkscape:connector-curvature="0"
     style="fill:#81aac8" /><path
     class="st20"
     d="m 23.783769,15.167073 c -0.279762,0.0068 -0.559527,0.01348 -0.847765,0.01348 0,-0.02023 -0.0085,-0.04045 0,-0.06067 0.279761,0.0068 0.568003,0.0068 0.847765,0.01347 l 0,0.03371 z"
     id="path45"
     inkscape:connector-curvature="0"
     style="fill:#6a99bc" /><path
     class="st21"
     d="m 25.60972,5.5457332 c -0.02023,0.134836 -0.04719,0.269675 -0.06742,0.411254 -0.01347,0 -0.03371,0 -0.04719,0 0,-0.10787 -0.0068,-0.222483 -0.0068,-0.330353 0.02023,-0.02695 0.04045,-0.05394 0.06068,-0.07416 0.02023,-0.0068 0.04045,-0.0068 0.06068,-0.0068 z"
     id="path47"
     inkscape:connector-curvature="0"
     style="fill:#76a4c2" /><path
     class="st22"
     d="m 24.591699,12.955044 c -0.02023,-0.02023 -0.04045,-0.04045 -0.06068,-0.06068 0,-0.134836 -0.0068,-0.269674 -0.0068,-0.397769 0.0068,-0.04719 0.01348,-0.08764 0.01348,-0.134839 0.02023,0 0.03371,0 0.05394,0 0.0068,0.08765 0.0068,0.18203 0.01347,0.269674 0,0.10787 -0.0068,0.215743 -0.01347,0.323612 z"
     id="path49"
     inkscape:connector-curvature="0"
     style="fill:#6496b8" /><path
     class="st23"
     d="m 25.49511,2.6467302 c 0.02023,0.06742 0.04045,0.141579 0.06068,0.208999 -0.02023,0.08764 -0.04719,0.175289 -0.06742,0.26293 -0.02023,-0.02023 -0.03371,-0.04719 -0.05393,-0.06742 0.02023,-0.134839 0.04045,-0.269674 0.06068,-0.404513 z"
     id="path51"
     inkscape:connector-curvature="0"
     style="fill:#78a1c3" /><path
     class="st24"
     d="m 25.468141,3.1793382 c -0.08764,0.08764 -0.168545,0.18203 -0.25619,0.269674 0,-0.02695 0,-0.05393 0,-0.07416 0.06742,-0.08764 0.134836,-0.175289 0.202255,-0.256193 0.02023,0.02023 0.03371,0.04045 0.05393,0.06068 z"
     id="path53"
     inkscape:connector-curvature="0"
     style="fill:#80a5c2" /><path
     class="st25"
     d="m 25.340046,8.7144112 -0.02698,0 -0.02695,0 c 0,-0.182033 0.0068,-0.357319 0.0068,-0.539352 0.02023,0 0.03371,0 0.05393,0 l 0.0068,0.0068 c -0.0068,0.175289 -0.01347,0.357319 -0.01347,0.532608 z"
     id="path55"
     inkscape:connector-curvature="0"
     style="fill:#6794ba" /><path
     class="st26"
     d="m 25.151272,4.7434512 c 0,-0.02698 0,-0.05393 0,-0.0809 0.134839,0.02698 0.269675,0.05393 0.404513,0.0809 0,0.01348 0,0.02695 0.0068,0.04045 l 0,0.02023 c -0.01347,-0.0068 -0.03371,-0.0068 -0.05393,-0.0068 -0.128095,-0.02023 -0.242705,-0.03371 -0.357319,-0.05393 z"
     id="path57"
     inkscape:connector-curvature="0"
     style="fill:#638da5" /><path
     class="st27"
     d="m 24.807438,11.404415 c 0.155064,-0.02023 0.316869,-0.04045 0.471929,-0.06068 -0.15506,0.02023 -0.316865,0.04045 -0.471929,0.06068 z"
     id="path59"
     inkscape:connector-curvature="0"
     style="fill:#768992" /><path
     class="st8"
     d="m 22.784877,1.7028692 c -0.0068,0.03371 -0.0068,0.06068 -0.01348,0.09439 -0.182033,-0.121351 -0.141579,-0.276415 -0.06742,-0.43822 0.0068,0.0068 0.01347,0.01348 0.02695,0.02695 -0.0068,0.02023 -0.01347,0.04045 -0.0068,0.06068 0,0.02023 0,0.04045 0,0.06068 0.02023,0.06068 0.04045,0.128095 0.06067,0.195515 l 0,0 z"
     id="path61"
     inkscape:connector-curvature="0"
     style="fill:#459460" /><path
     class="st28"
     d="m 25.488366,6.4221752 c -0.02023,0 -0.04045,0 -0.06068,0.0068 -0.0067,-0.06742 -0.0067,-0.134835 -0.01347,-0.202255 0.02023,-0.02698 0.04045,-0.04719 0.06068,-0.07416 0.02023,0 0.04045,0 0.06068,0 -0.01347,0.08765 -0.02698,0.18203 -0.04719,0.269674 z"
     id="path63"
     inkscape:connector-curvature="0"
     style="fill:#81a8c6" /><path
     class="st29"
     d="m 24.551248,3.6647512 c 0,-0.04719 -0.0068,-0.08764 -0.0068,-0.134835 0.08764,0 0.175289,0 0.262934,0 0.02023,0 0.04045,0.0068 0.06067,0.01347 0,0.02023 0,0.04045 0,0.06068 -0.101126,0.02023 -0.208996,0.04045 -0.316865,0.06067 z"
     id="path65"
     inkscape:connector-curvature="0"
     style="fill:#6f96b4" /><path
     class="st30"
     d="m 24.214155,0.8938462 c 0.04045,-0.02023 0.0809,-0.04719 0.121351,-0.06742 0,0.06742 -0.0068,0.134835 -0.0068,0.202255 -0.02023,0.02023 -0.04045,0.04045 -0.05393,0.06742 -0.02023,0 -0.03371,0 -0.05393,0.0068 0,-0.07416 0,-0.14158 -0.0068,-0.208996 z"
     id="path67"
     inkscape:connector-curvature="0"
     style="fill:#6594b6" /><path
     class="st31"
     d="m 25.400721,7.1570382 c 0.02698,0 0.04719,0 0.07416,0 -0.02023,0.08764 -0.04045,0.18203 -0.06068,0.269674 -0.01347,-0.04719 -0.02695,-0.08764 -0.04045,-0.134835 -0.0068,-0.04045 -0.01347,-0.0809 -0.02023,-0.121355 0.01347,0 0.03371,-0.0068 0.04719,-0.01347 z"
     id="path69"
     inkscape:connector-curvature="0"
     style="fill:#709bb1" /><path
     class="st32"
     d="m 23.168093,15.119888 c 0,0.02023 0,0.04045 0,0.06068 -0.09439,-0.02023 -0.182032,-0.04045 -0.276418,-0.05394 0,-0.02698 0.0068,-0.05393 0.0068,-0.07416 0.04045,0 0.0809,0.0068 0.128098,0.0068 0.04719,0.02023 0.09438,0.04045 0.14158,0.06068 z"
     id="path71"
     inkscape:connector-curvature="0"
     style="fill:#94b7d2" /><path
     class="st33"
     d="m 23.842277,15.167079 c 0,0 0,-0.03371 0,-0.03371 0.08764,-0.02695 0.168549,-0.05393 0.256193,-0.0809 0.02695,0 0.04719,0 0.07416,0.0068 -0.107869,0.03371 -0.215739,0.06742 -0.330353,0.107869 z"
     id="path73"
     inkscape:connector-curvature="0"
     style="fill:#759db0" /><path
     class="st34"
     d="m 22.852296,12.294339 c 0,0.134838 -0.0068,0.269677 -0.0068,0.404513 -0.01347,-0.134836 -0.03371,-0.276415 -0.04719,-0.411254 0.01348,0 0.03371,0 0.05393,0.0068 z"
     id="path75"
     inkscape:connector-curvature="0"
     style="fill:#c4cdd6" /><path
     class="st35"
     d="m 24.611924,12.624692 c -0.0067,-0.08764 -0.0067,-0.18203 -0.01347,-0.269675 0.02023,-0.04719 0.04045,-0.09439 0.06742,-0.141579 -0.02023,0.141579 -0.03371,0.276415 -0.05393,0.411254 z"
     id="path77"
     inkscape:connector-curvature="0"
     style="fill:#becedc" /><path
     class="st36"
     d="m 24.740019,4.5277122 c 0,-0.01347 0,-0.03371 0,-0.04719 0.114613,0.02023 0.229224,0.04045 0.337093,0.06068 l -0.01347,0.0068 c -0.02023,-0.0068 -0.04045,-0.0068 -0.06068,-0.0068 -0.06068,0 -0.128094,0.0068 -0.188773,0.0068 -0.02695,-0.01348 -0.05394,-0.01348 -0.07416,-0.02023 z"
     id="path79"
     inkscape:connector-curvature="0"
     style="fill:#278d52" /><path
     class="st37"
     d="m 25.211951,1.9792872 c 0.06742,0.06742 0.128095,0.134835 0.195514,0.202255 -0.02698,0 -0.04719,0 -0.07416,0 -0.04045,-0.04045 -0.0809,-0.08765 -0.128095,-0.128095 0.0068,-0.02698 0.0068,-0.05393 0.0068,-0.07416 z"
     id="path81"
     inkscape:connector-curvature="0"
     style="fill:#72a1ba" /><path
     class="st38"
     d="m 24.220896,1.0961012 c 0.02023,0 0.03371,0 0.05393,-0.0068 0.02023,0 0.04045,0 0.06068,0 0.0068,0.06742 0.01348,0.134836 0.02698,0.202255 -0.04045,0 -0.0809,0 -0.121355,0 -0.0068,-0.06068 -0.01348,-0.128095 -0.02023,-0.195514 z"
     id="path83"
     inkscape:connector-curvature="0"
     style="fill:#588ca7" /><path
     class="st8"
     d="m 24.605183,1.3657752 c 0,0.114614 0,0.222483 0,0.337094 0,0 -0.02023,-0.01348 -0.02023,-0.01348 0,-0.101126 0,-0.202255 0,-0.303384 0,0 0.02023,-0.02023 0.02023,-0.02023 z"
     id="path85"
     inkscape:connector-curvature="0"
     style="fill:#459460" /><path
     class="st39"
     d="m 25.60972,5.5457332 c -0.02023,0 -0.04045,0 -0.06068,0 0,-0.06742 -0.0068,-0.134838 -0.0068,-0.202258 0.0068,-0.02023 0.01348,-0.04719 0.02023,-0.06742 0.01347,0 0.03371,0 0.04719,0 0,0.09439 0,0.18203 0,0.269674 z"
     id="path87"
     inkscape:connector-curvature="0"
     style="fill:#5b8ead" /><path
     class="st40"
     d="m 24.665859,0.2870782 c -0.02023,0 -0.04045,0 -0.06068,0 0,-0.02698 -0.0068,-0.04719 -0.0068,-0.07416 0,-0.04045 0,-0.0809 0,-0.128095 0,-0.02023 0.0068,-0.04719 0.0068,-0.06742 0.02023,0 0.04719,0 0.06742,0 -0.0068,0.08764 -0.0068,0.182033 -0.0068,0.269677 z"
     id="path89"
     inkscape:connector-curvature="0"
     style="fill:#5990b6" /><path
     class="st41"
     d="m 24.874857,3.5973322 c 0,-0.02023 0,-0.04045 0,-0.06068 0.06742,-0.02698 0.134836,-0.04719 0.202255,-0.07416 0,0.02023 0,0.04045 0,0.05393 -0.06742,0.03371 -0.134835,0.06068 -0.202255,0.0809 z"
     id="path91"
     inkscape:connector-curvature="0"
     style="fill:#5599b5" /><path
     class="st42"
     d="m 22.852296,11.950505 c -0.02023,0 -0.04045,0 -0.06068,0 -0.0068,-0.08764 -0.0068,-0.175289 -0.01348,-0.262934 0.02023,0.0068 0.04045,0.01348 0.06742,0.01348 0.0068,0.08764 0.0068,0.168548 0.0068,0.249449 z"
     id="path93"
     inkscape:connector-curvature="0"
     style="fill:#6f9dc3" /><path
     class="st43"
     d="m 24.34225,0.5634932 c 0.02023,-0.06742 0.04045,-0.134835 0.06068,-0.202255 -0.02023,0.06742 -0.04045,0.134836 -0.06068,0.202255 z"
     id="path95"
     inkscape:connector-curvature="0"
     style="fill:#aec7de" /><path
     class="st44"
     d="m 25.542301,6.1525012 c -0.02023,0 -0.04045,0.0068 -0.06068,0 0,-0.06742 -0.0068,-0.134839 -0.0068,-0.202258 l 0.01347,0.0068 c 0.01347,0 0.03371,-0.0068 0.04719,0 0.0067,0.06068 0.0067,0.128095 0.0067,0.195514 z"
     id="path97"
     inkscape:connector-curvature="0"
     style="fill:#598aad" /><path
     class="st45"
     d="m 25.488366,2.3028962 c -0.02023,0.02023 -0.03371,0.04719 -0.05393,0.06742 -0.0068,-0.04045 -0.01348,-0.0809 -0.02023,-0.128095 l 0.01347,-0.01347 c 0.01347,0.02695 0.04045,0.05394 0.06068,0.07416 z"
     id="path99"
     inkscape:connector-curvature="0"
     style="fill:#5b96b6" /><path
     class="st46"
     d="m 25.468141,3.1793382 c -0.02023,-0.02023 -0.03371,-0.04045 -0.05393,-0.06068 0,-0.02023 0.0068,-0.04719 0.02023,-0.06068 0.02023,0.02023 0.03371,0.04719 0.05393,0.06742 0,0.02023 -0.0068,0.04045 -0.02023,0.05394 z"
     id="path101"
     inkscape:connector-curvature="0"
     style="fill:#6494b6" /><path
     class="st42"
     d="m 22.852296,12.294339 c -0.02023,0 -0.04045,-0.0068 -0.06068,-0.0068 0,-0.04045 0.0067,-0.0809 0.0067,-0.128095 0.01348,0.04045 0.03371,0.08764 0.05394,0.134836 z"
     id="path103"
     inkscape:connector-curvature="0"
     style="fill:#6f9dc3" /><path
     class="st47"
     d="m 24.679343,4.4602932 c -0.04045,-0.02023 -0.08764,-0.04719 -0.128095,-0.06742 0.04045,0.02023 0.08764,0.04719 0.128095,0.06742 z"
     id="path105"
     inkscape:connector-curvature="0"
     style="fill:#69bd6d" /><path
     class="st48"
     d="m 25.211951,1.9792872 c 0,0.02695 0,0.04719 0,0.07416 -0.02023,-0.0068 -0.04045,-0.0068 -0.06068,-0.0068 0,-0.02023 0,-0.04719 0,-0.06742 l 0,0 c 0.01347,-0.0068 0.04045,-0.0068 0.06068,0 z"
     id="path107"
     inkscape:connector-curvature="0"
     style="fill:#6687ad" /><path
     class="st49"
     d="m 25.083853,1.9590582 c 0,-0.02023 -0.0068,-0.03371 -0.0068,-0.05393 0.02023,0.02023 0.04719,0.04045 0.06742,0.06742 0,0 0,0 0,0 -0.02023,0.0068 -0.04719,0.0068 -0.06742,0.01347 l 0.0068,-0.02698 z"
     id="path109"
     inkscape:connector-curvature="0"
     style="fill:#5291ab" /><path
     class="st50"
     d="m 25.211951,3.3748522 c 0,0.02695 0,0.05394 0,0.07416 -0.02023,0 -0.04719,0 -0.06742,0 0,0 0,0 0,0 0.02023,-0.02023 0.04045,-0.04719 0.06742,-0.07416 z"
     id="path111"
     inkscape:connector-curvature="0"
     style="fill:#6084a5" /><path
     class="st51"
     d="m 25.549045,4.7839022 c 0,-0.01348 0,-0.02698 -0.0068,-0.04045 0.02698,0.02023 0.05393,0.04045 0.07416,0.06068 -0.01347,-0.0068 -0.04045,-0.01347 -0.06742,-0.02023 z"
     id="path113"
     inkscape:connector-curvature="0"
     style="fill:#6f8792" /><path
     class="st52"
     d="m 24.335506,1.0961012 c -0.02023,0 -0.04045,0 -0.06068,0 0.02023,-0.02023 0.04045,-0.04045 0.05393,-0.06742 0,0.02698 0.0068,0.04719 0.0068,0.06742 z"
     id="path115"
     inkscape:connector-curvature="0"
     style="fill:#4189ae" /><path
     class="st53"
     d="m 25.077112,3.5231722 c 0,-0.02023 0,-0.04045 0,-0.05394 0.02023,0 0.04045,-0.0068 0.06742,-0.0068 0,0 0,0 0,0 -0.02023,0.01348 -0.04719,0.04045 -0.06742,0.06068 z"
     id="path117"
     inkscape:connector-curvature="0"
     style="fill:#52939a" /><path
     class="st54"
     d="m 24.949017,1.8242232 c -0.02698,-0.01348 -0.05394,-0.02698 -0.0809,-0.04045 0.02023,0.01348 0.04719,0.02695 0.0809,0.04045 z"
     id="path119"
     inkscape:connector-curvature="0"
     style="fill:#c1d2d7" /><path
     class="st8"
     d="m 24.605183,1.7635442 c -0.02023,0.0068 -0.04045,0.0068 -0.06068,0.01348 0,-0.02695 -0.0068,-0.04719 -0.0068,-0.07416 l 0,0 c 0.02023,0 0.03371,0 0.05393,-0.01348 l 0.01347,0.01348 c 0,0.02023 0,0.04045 0,0.06067 z"
     id="path121"
     inkscape:connector-curvature="0"
     style="fill:#459460" /><path
     class="st27"
     d="m 24.699568,11.343737 c 0.01347,0.02023 0.02695,0.04045 0.04045,0.05393 -0.02023,0.0068 -0.03371,0.01347 -0.05393,0.01347 0,-0.01347 0.0068,-0.04045 0.01348,-0.06742 z"
     id="path123"
     inkscape:connector-curvature="0"
     style="fill:#768992" /><path
     class="st55"
     d="m 22.90516,15.045725 c 0,0.02698 -0.0068,0.05393 -0.0068,0.07416 -0.02023,-0.02023 -0.04719,-0.04719 -0.06742,-0.06742 0,0 0.0068,0 0.0068,0 0.02023,0 0.04045,0 0.06742,-0.0068 l 0,0 z"
     id="path125"
     inkscape:connector-curvature="0"
     style="fill:#6185a0" /><path
     class="st56"
     d="m 25.333302,2.1748012 c 0.02698,0 0.04719,0 0.07416,0 0.01348,0.02023 0.02023,0.03371 0.01348,0.06067 l -0.01348,0.01348 c -0.02023,-0.02698 -0.04719,-0.04719 -0.07416,-0.07416 z"
     id="path127"
     inkscape:connector-curvature="0"
     style="fill:#5390a8" /><path
     class="st57"
     d="m 23.721997,11.478575 c -0.22248,0 -0.444963,0 -0.667443,0 0,-3.1754208 0,-6.3508388 0,-9.5599668 -0.02698,-0.03371 -0.0809,-0.08764 -0.128098,-0.141579 0.269677,0 0.532608,0 0.802282,0 0,1.173085 0.0068,2.34617 0,3.519255 -0.0068,0.660703 -0.04719,1.321406 -0.06068,1.975367 -0.0068,0.208996 0.06068,0.417995 0.06068,0.626993 0,1.193311 0,2.3866208 -0.0068,3.5799308 z"
     id="path129"
     inkscape:connector-curvature="0"
     style="fill:#61ba68" /><path
     class="st58"
     d="m 23.721997,11.478575 c 0,-1.19331 0.0067,-2.3798798 0,-3.5731898 0,-0.208999 -0.06068,-0.417994 -0.06068,-0.626993 0.01347,-0.660702 0.05393,-1.321405 0.06068,-1.975367 0.0067,-1.173085 0,-2.34617 0,-3.519253 0.18203,0 0.36406,0 0.546093,0 0.07416,0.155061 0.128095,0.310125 0,0.47193 -0.01347,-0.01348 -0.02023,-0.02695 0,0 -0.02698,-0.02023 -0.01347,-0.01348 0,0 0.02023,0.02023 0.04719,0.04719 0.06742,0.06742 0,0.18203 0,0.357319 0,0.539348 0,0.06742 0,0.134839 0,0.202255 0,0.02023 0,0.0472 0,0.06742 -0.02695,0.121354 -0.06068,0.242708 -0.0809,0.364062 -0.01348,0.0809 -0.01348,0.161805 -0.0068,0.235965 0.02695,0.249449 0.05393,0.498898 0.08764,0.748347 0,0.02023 0,0.04719 0.0068,0.06742 0,1.638274 0,3.276547 0,4.914821 0,0.09439 0.04045,0.18877 0.06068,0.276415 -0.03371,0.5730578 0.08764,1.1596008 -0.08764,1.7461428 -0.21574,-0.0068 -0.40451,-0.0068 -0.593284,-0.0068 z m 0.431479,-4.4294068 c 0.01347,0 0.02023,0 0.03371,0 0,-0.33035 0,-0.653962 0,-0.984311 -0.01348,0 -0.02023,0 -0.03371,0 0,0.330349 0,0.653961 0,0.984311 z m -0.0068,1.611308 c 0.01347,0 0.02023,-0.0068 0.03371,-0.0068 0,-0.141579 0,-0.276415 0,-0.417994 -0.01347,0 -0.02023,0 -0.03371,0 0,0.141579 0,0.283159 0,0.424738 z"
     id="path131"
     inkscape:connector-curvature="0"
     style="fill:#0aa24d" /><path
     class="st59"
     d="m 22.926456,1.7770292 c 0.05393,0.05394 0.101129,0.114613 0.128098,0.141579 0,3.209128 0,6.384546 0,9.5599668 -0.02698,0 -0.04719,0 -0.07416,0 -0.02023,-0.02023 -0.04045,-0.04045 -0.06068,-0.06068 -0.02023,0 -0.04719,-0.0068 -0.06742,-0.0068 0,-3.1214828 0,-6.2429668 0,-9.3577088 0,-0.101129 0.04719,-0.188774 0.07416,-0.276418 z"
     id="path133"
     inkscape:connector-curvature="0"
     style="fill:#2fb24b" /><path
     class="st60"
     d="m 24.396185,2.8489852 c -0.03371,-0.161805 0,-0.303384 0.141579,-0.40451 0.06068,0.0068 0.128095,0.0068 0.18877,0.01348 0.04719,0.04045 0.09439,0.0809 0.14158,0.128097 0.06742,0.168546 -0.03371,0.283156 -0.14158,0.391029 -0.06068,0 -0.121351,0 -0.18877,0 -0.04045,-0.03371 -0.08764,-0.06742 -0.128095,-0.107873 l -0.01347,-0.02023 z"
     id="path135"
     inkscape:connector-curvature="0"
     style="fill:#becfd6" /><path
     class="st61"
     d="m 23.998415,1.6354492 c -0.404512,0.02023 -0.809025,0.04045 -1.213538,0.06742 0,0 0,0 0,0 0,-0.02023 0,-0.04719 0,-0.06742 0.06742,0 0.134839,0 0.202258,0 0.215739,0 0.431479,0 0.653962,0 0.0068,-0.09439 0.01348,-0.14832 0.01348,-0.202255 0.114613,0 0.222483,0 0.337093,0 0.0068,0.06742 0.0068,0.134836 0.0068,0.202255 z"
     id="path137"
     inkscape:connector-curvature="0"
     style="fill:#28aa56" /><path
     class="st62"
     d="m 23.998415,1.6354492 c 0,-0.06742 0,-0.134835 0,-0.202255 0.134836,0 0.269675,0 0.40451,0 0,0.09439 -0.02023,0.202255 0.128095,0.202255 0,0.02023 0,0.04045 0,0.06742 l 0,0 c -0.175286,-0.02695 -0.357319,-0.04719 -0.532605,-0.06742 z"
     id="path139"
     inkscape:connector-curvature="0"
     style="fill:#09a14c" /><path
     class="st63"
     d="m 24.335506,2.3096362 c -0.02023,-0.02023 -0.04719,-0.04719 -0.06742,-0.06742 l 0,0 c 0.128095,-0.155061 0.07416,-0.310124 0,-0.471929 0.05393,0.0068 0.10787,0.0068 0.18877,0.01347 -0.03371,0.188771 0.148324,0.39777 -0.121354,0.525864 z"
     id="path141"
     inkscape:connector-curvature="0"
     style="fill:#0ba74e" /><path
     class="st54"
     d="m 24.551248,1.8444482 c 0.08764,0.02023 0.18203,0.03371 0.269675,0.05394 -0.06068,0.01347 -0.128095,0.02023 -0.21574,0.03371 0,0.134835 0,0.249449 0,0.370803 l 0,0.03371 c -0.02023,-0.168548 -0.03371,-0.330352 -0.05393,-0.492157 z"
     id="path143"
     inkscape:connector-curvature="0"
     style="fill:#c1d2d7" /><path
     class="st64"
     d="m 24.726534,2.4579572 c -0.06068,-0.0068 -0.128095,-0.0068 -0.18877,-0.01348 0.02023,-0.04045 0.04719,-0.07416 0.06742,-0.114613 l 0,-0.03371 c 0.04045,0.0068 0.0809,0.01347 0.121351,0.02023 0.02698,0.01348 0.06068,0.02698 0.08764,0.04045 l -0.0067,0.02023 c -0.02698,0.03371 -0.05394,0.05393 -0.0809,0.0809 z"
     id="path145"
     inkscape:connector-curvature="0"
     style="fill:#09875b" /><path
     class="st65"
     d="m 24.335506,3.0512432 c 0,-0.06742 0,-0.134839 0,-0.202258 0.02023,0 0.04045,0 0.06068,0 0,0 0.01347,0.02023 0.01347,0.02023 0,0.06068 -0.0068,0.121354 -0.0068,0.182033 0,0 0,0 0,0 -0.02023,0 -0.04719,0 -0.06742,0 z"
     id="path147"
     inkscape:connector-curvature="0"
     style="fill:#078246" /><path
     class="st66"
     d="m 24.402925,9.7256882 c -0.02023,-0.09439 -0.06068,-0.18877 -0.06068,-0.276415 0,-1.638273 0,-3.276547 0,-4.91482 0.02695,0 0.04719,0.0068 0.07416,0.0068 0,1.678727 0,3.350708 0,5.063144 0.161805,-0.03371 0.283159,-0.05394 0.397769,-0.0809 0.10787,0 0.21574,-0.0068 0.323612,-0.0068 0.02023,0.02695 0.04045,0.05393 0.06068,0.07416 0,0.02023 0,0.04719 0,0.06742 -0.02023,0.02023 -0.04045,0.04045 -0.05393,0.05394 -0.114613,0.0068 -0.222483,0.01347 -0.337093,0.02023 -0.02023,0 -0.04719,-0.0068 -0.06742,-0.0068 -0.04719,0.02023 -0.09438,0.04719 -0.134836,0.06742 -0.06742,-0.02023 -0.134838,-0.04045 -0.202258,-0.06742 z"
     id="path149"
     inkscape:connector-curvature="0"
     style="fill:#067f4a" /><path
     class="st2"
     d="m 24.605183,9.7931082 c 0.04719,-0.02023 0.09438,-0.04719 0.134836,-0.06742 -0.0068,0.4112538 -0.0068,0.8225078 -0.01347,1.2337638 0,0.10787 -0.03371,0.208996 -0.04719,0.316866 -0.02698,-0.114611 -0.06742,-0.235965 -0.06742,-0.350575 -0.01348,-0.377547 -0.0068,-0.755091 -0.0068,-1.1326348 z"
     id="path151"
     inkscape:connector-curvature="0"
     style="fill:#287f55" /><path
     class="st2"
     d="m 24.679343,11.283061 c 0.0068,0.02023 0.0068,0.04045 -0.0068,0.06068 -0.01347,-0.01348 -0.02695,-0.02023 -0.04719,-0.03371 0.02023,-0.01347 0.03371,-0.02023 0.05393,-0.02698 z"
     id="path153"
     inkscape:connector-curvature="0"
     style="fill:#287f55" /><path
     class="st57"
     d="m 22.926456,11.411156 c 0.02023,0.02023 0.04045,0.04045 0.06068,0.06068 -0.02698,-0.02023 -0.04045,-0.04045 -0.06068,-0.06068 z"
     id="path155"
     inkscape:connector-curvature="0"
     style="fill:#61ba68" /><path
     class="st67"
     d="m 22.852296,11.950505 c 0,-0.0809 0,-0.161805 -0.0068,-0.242706 0.498898,0 0.997796,-0.0068 1.496694,-0.0068 -0.02698,0.02023 -0.05393,0.04045 -0.07416,0.06068 -0.06742,0 -0.134838,0 -0.202258,0 -0.15506,0 -0.316865,0 -0.471929,0 -0.06742,0 -0.134838,0 -0.202255,0.0068 -0.182032,0.0068 -0.397772,-0.06068 -0.478672,0.195514 -0.02023,-0.01347 -0.04045,-0.01347 -0.06068,-0.01347 z"
     id="path157"
     inkscape:connector-curvature="0"
     style="fill:#83979e" /><path
     class="st68"
     d="m 24.26809,11.75499 c 0.02695,-0.02023 0.05393,-0.04045 0.07416,-0.06068 0.02023,-0.0068 0.03371,-0.0068 0.05393,0 0.05393,0.06068 0.101129,0.128095 0.155063,0.18877 0,0 -0.01347,0 -0.01347,0 -0.06742,0 -0.134838,0 -0.202257,0 -0.02023,-0.04045 -0.04719,-0.08764 -0.06742,-0.128095 z"
     id="path159"
     inkscape:connector-curvature="0"
     style="fill:#bcc7d1" /><path
     class="st69"
     d="m 24.551248,11.883085 c -0.05394,-0.06067 -0.101129,-0.128095 -0.155063,-0.18877 0.06742,0 0.141579,0.0068 0.208998,0.0068 -0.02023,0.06068 -0.03371,0.121354 -0.05393,0.182029 z"
     id="path161"
     inkscape:connector-curvature="0"
     style="fill:#88919c" /><path
     class="st70"
     d="m 24.807438,9.7324322 c 0.114611,-0.0068 0.22248,-0.01347 0.337094,-0.02023 l 0.03371,0.0068 0.03371,-0.0068 c 0,0.276415 -0.0068,0.5595738 0.0068,0.8359888 0.0068,0.128097 0.03371,0.256192 0.05393,0.384287 0,0.04719 0,0.09439 0,0.14158 -0.02023,0.06742 -0.03371,0.134838 -0.05393,0.202254 -0.121354,0 -0.242709,0 -0.404513,0 -0.0068,-0.519123 -0.0068,-1.031505 -0.0068,-1.5438848 z"
     id="path163"
     inkscape:connector-curvature="0"
     style="fill:#f1f2f4" /><path
     class="st71"
     d="m 25.265886,10.939224 c -0.02023,-0.128095 -0.04719,-0.25619 -0.05393,-0.384285 -0.0068,-0.276418 -0.0068,-0.5595758 -0.0068,-0.8359908 0.0068,-0.02023 0,-0.04045 -0.0068,-0.06068 0,-0.02023 0,-0.04719 0,-0.06742 0,-0.289903 0,-0.586543 0,-0.876442 0,-0.269677 0,-0.539352 0,-0.809026 0.0068,-0.11461 0.01347,-0.22248 0.02023,-0.337093 0.04045,0.02023 0.07416,0.04719 0.11461,0.06742 0,0.08764 0,0.175289 0,0.25619 -0.01347,0.09439 -0.03371,0.188773 -0.04719,0.283158 0,0.182033 -0.0068,0.357319 -0.0068,0.539352 0,0.741603 -0.0068,1.4832098 -0.01347,2.2248128 z"
     id="path165"
     inkscape:connector-curvature="0"
     style="fill:#e5ebee" /><path
     class="st71"
     d="m 25.211951,11.276318 c 0.02023,-0.06742 0.03371,-0.134836 0.05393,-0.202255 0.0068,0.04719 0.01348,0.08764 0.02023,0.134838 -0.02023,0.02023 -0.04719,0.04719 -0.07416,0.06742 z"
     id="path167"
     inkscape:connector-curvature="0"
     style="fill:#e5ebee" /><path
     class="st72"
     d="m 24.598439,0.0174012 c 0,0.02023 -0.0068,0.04719 -0.0068,0.06742 -0.289899,0 -0.573058,0 -0.86296,0 -0.33035,0 -0.667443,0 -0.997796,0 0.02023,-0.02695 0.03371,-0.05394 0.05393,-0.0809 0.60677,0.0068 1.206794,0.01347 1.813562,0.01347 z"
     id="path169"
     inkscape:connector-curvature="0"
     style="fill:#bfd5e5" /><path
     class="st47"
     d="m 24.814179,9.5234342 c -0.114611,0.02695 -0.235965,0.04719 -0.397769,0.0809 0,-1.712436 0,-3.384417 0,-5.063144 0.107869,-0.0068 0.215739,-0.0068 0.323609,-0.01347 0.02698,0.0068 0.04719,0.01347 0.07416,0.01347 0,0.168549 -0.0068,0.343838 -0.0068,0.512383 0,1.085441 0,2.170881 0,3.256322 0,0.208999 -0.02698,0.417994 -0.03371,0.546092 0.01347,0.276415 0.02698,0.471929 0.04045,0.667444 z"
     id="path171"
     inkscape:connector-curvature="0"
     style="fill:#69bd6d" /><path
     class="st73"
     d="m 24.335506,4.4670332 c -0.02695,-0.249449 -0.06068,-0.498898 -0.08764,-0.748347 -0.0068,-0.0809 -0.0068,-0.161804 0.0068,-0.235964 0.02023,-0.121354 0.05393,-0.242709 0.0809,-0.364063 0.02023,0 0.04719,0 0.06742,0 0.02023,0.0809 0.06068,0.161808 0.06742,0.242709 0.0068,0.343834 0,0.694412 0,1.038246 -0.04719,0.02023 -0.09438,0.04719 -0.134839,0.06742 l 0,0 z"
     id="path173"
     inkscape:connector-curvature="0"
     style="fill:#0aa64d" /><path
     class="st74"
     d="m 24.814179,3.5299162 c -0.08764,0 -0.175286,0 -0.262931,0 0,-0.134839 -0.0068,-0.269677 -0.0068,-0.404513 0.04719,0 0.08764,0 0.134839,-0.0068 -0.0068,0.101129 -0.01347,0.208999 -0.02023,0.323612 0.04045,0.02695 0.09438,0.05394 0.155061,0.08765 z"
     id="path175"
     inkscape:connector-curvature="0"
     style="fill:#d0dcde" /><path
     class="st75"
     d="m 24.6726,3.1186592 c -0.04719,0 -0.08764,0 -0.134836,0.0068 0,-0.02023 0,-0.04719 0,-0.06742 0,-0.02695 0,-0.05393 0,-0.0809 0.06068,0 0.121354,0 0.18877,0 0.02698,0.02695 0.05393,0.04719 0.0809,0.07416 l 0.0068,0.02023 c -0.03371,0.01348 -0.06068,0.02695 -0.09439,0.04719 -0.02023,-0.02023 -0.03371,-0.01347 -0.04719,0 z"
     id="path177"
     inkscape:connector-curvature="0"
     style="fill:#0a834f" /><path
     class="st76"
     d="m 24.537764,2.9770832 c 0,0.02695 0,0.05394 0,0.0809 -0.04719,0 -0.08764,0 -0.134839,0 0,-0.06068 0.0068,-0.121354 0.0068,-0.18203 0.04719,0.02695 0.08764,0.06068 0.128095,0.101129 z"
     id="path179"
     inkscape:connector-curvature="0"
     style="fill:#0f954e" /><path
     class="st58"
     d="m 24.335506,4.4670332 c 0.04045,-0.02023 0.08764,-0.04719 0.128098,-0.06742 -0.04045,0.02023 -0.08764,0.04719 -0.128098,0.06742 z"
     id="path181"
     inkscape:connector-curvature="0"
     style="fill:#0aa24d" /><path
     class="st76"
     d="m 24.402925,3.1186592 c -0.02023,0 -0.04719,0 -0.06742,0 0,-0.02023 0,-0.04719 0,-0.06742 0.02023,0 0.04719,0 0.06742,0 0,0.02023 0,0.04719 0,0.06742 z"
     id="path183"
     inkscape:connector-curvature="0"
     style="fill:#0f954e" /><path
     class="st77"
     d="m 23.526483,1.2983562 c -0.161804,0 -0.316868,0 -0.478673,0 0,-0.229224 0.0068,-0.451704 0.0068,-0.680928 0.155061,0.188773 0.316866,0.0809 0.47193,0 0,0.235965 0,0.458448 0,0.680928 z"
     id="path185"
     inkscape:connector-curvature="0"
     style="fill:#edf0f4" /><path
     class="st78"
     d="m 23.526483,1.2983562 c 0,-0.22248 0,-0.451704 0,-0.674187 0,-0.05394 0,-0.10787 0,-0.114611 -0.168545,-0.0068 -0.323609,-0.01347 -0.471929,-0.02023 0,-0.04719 0,-0.08764 0,-0.134838 0.175286,0 0.350575,0.0068 0.525864,0.0068 l 0,0 c 0.0067,0.269675 0.01347,0.539349 0.01347,0.802282 -0.0068,0.04719 -0.0068,0.08765 -0.01347,0.134836 l -0.03371,0.0068 -0.02023,-0.0068 z"
     id="path187"
     inkscape:connector-curvature="0"
     style="fill:#ccdee6" /><path
     class="st79"
     d="m 23.054554,0.4893332 c 0.14832,0.0068 0.29664,0.01348 0.471929,0.02023 0,0.0068 0,0.06068 0,0.114611 -0.155064,0.0809 -0.316868,0.188773 -0.471929,0 0,-0.04719 0,-0.08764 0,-0.134836 z"
     id="path189"
     inkscape:connector-curvature="0"
     style="fill:#e4ebef" /><path
     class="st80"
     d="m 23.587159,0.3612382 c -0.175286,0 -0.350575,-0.0068 -0.525864,-0.0068 -0.04719,0 -0.08764,-0.0068 -0.134839,-0.0068 0,-0.02023 0,-0.03371 0,-0.05393 0.222483,0 0.451707,0 0.674187,0 -0.0068,0.02695 -0.01348,0.04719 -0.01348,0.06742 z"
     id="path191"
     inkscape:connector-curvature="0"
     style="fill:#5b93b7" /><path
     class="st81"
     d="m 24.20067,0.4219142 c -0.0068,0.09438 -0.0068,0.18203 -0.01347,0.276418 -0.22248,-0.03371 -0.276415,0.128095 -0.323609,0.289899 -0.03371,0.101129 -0.04719,0.208999 -0.06742,0.310125 -0.04045,0 -0.08764,0 -0.134835,0 0,-0.04045 -0.0068,-0.08765 -0.0068,-0.128095 0.01348,-0.215739 0.03371,-0.431479 0.04719,-0.606768 0.134835,-0.09439 0.215739,-0.14832 0.296643,-0.202255 0.07416,0.02023 0.134835,0.04045 0.202255,0.06068 z"
     id="path193"
     inkscape:connector-curvature="0"
     style="fill:#bbd0dc" /><path
     class="st82"
     d="m 23.796158,1.2916152 c 0.02023,-0.101129 0.04045,-0.208999 0.06742,-0.310124 0.04719,-0.155064 0.101129,-0.323613 0.323609,-0.289903 0,0.02023 0,0.04045 -0.0068,0.06068 -0.01347,0.01348 -0.02023,0.02695 -0.03371,0.04045 0.01347,0.01348 0.02695,0.02023 0.04045,0.03371 0.0068,0.02023 0.01347,0.04719 0.02023,0.06742 0,0.06742 0,0.134836 0.0068,0.202255 0.0068,0.06742 0.01347,0.128095 0.02023,0.195514 -0.14158,0.0068 -0.2899,0 -0.438223,0 z"
     id="path195"
     inkscape:connector-curvature="0"
     style="fill:#f0f2f6" /><path
     class="st0"
     d="m 24.402925,1.4331942 c -0.134835,0 -0.269674,0 -0.40451,0 -0.114613,0 -0.222483,0 -0.337093,0 -0.222483,0 -0.444963,0 -0.667446,0 -0.08764,0 -0.175289,0.0068 -0.269675,0.0068 0,-0.02023 0,-0.04045 0.0068,-0.06067 0.620253,0 1.240505,0 1.860757,0.0068 0,0.101129 0,0.202258 0,0.303384 -0.01347,0.01348 -0.03371,0.01348 -0.05393,0.01348 0,-0.02023 0,-0.04045 0,-0.06742 0,-0.101126 0.02023,-0.208995 -0.134838,-0.202254 z"
     id="path197"
     inkscape:connector-curvature="0"
     style="fill:#05884e" /><path
     class="st83"
     d="m 23.661322,1.1635202 c 0,0.04045 0.0068,0.08765 0.0068,0.128095 -0.02695,0 -0.05393,0 -0.07416,0 0.0068,-0.04719 0.0068,-0.08764 0.01347,-0.134839 l 0.02695,0 0.02698,0.0068 z"
     id="path199"
     inkscape:connector-curvature="0"
     style="fill:#5f92a7" /><path
     class="st43"
     d="m 23.593903,0.2938192 c -0.222484,0 -0.451704,0 -0.674187,0 -0.06742,-0.02698 -0.128095,-0.05394 -0.195515,-0.0809 0.357319,0 0.714638,0 1.071957,0.0068 0.269674,0 0.532607,0 0.802281,-0.0068 0,0.02698 0.0068,0.04719 0.0068,0.07416 -0.114613,0 -0.229223,0.0068 -0.337093,0.0068 -0.229224,0 -0.451707,0 -0.674187,0 z"
     id="path201"
     inkscape:connector-curvature="0"
     style="fill:#aec7de" /><path
     class="st84"
     d="m 23.593903,0.2938192 c 0.22248,0 0.444963,0 0.667443,0 -0.02023,0.04045 -0.04045,0.0809 -0.06068,0.121354 -0.06742,-0.02023 -0.134839,-0.04045 -0.195514,-0.06068 -0.14158,0 -0.276418,0 -0.417998,0 0,0 0,0 0,0 0,-0.01348 0.0068,-0.03371 0.0068,-0.06068 z"
     id="path203"
     inkscape:connector-curvature="0"
     style="fill:#4b88ac" /><path
     class="st81"
     d="m 24.19393,0.8264272 c -0.01348,-0.01348 -0.02698,-0.02023 -0.04045,-0.03371 0.01347,-0.01347 0.02023,-0.02698 0.03371,-0.04045 0,0.02695 0.0067,0.05393 0.0067,0.07416 z"
     id="path205"
     inkscape:connector-curvature="0"
     style="fill:#bbd0dc" /><path
     class="st34"
     d="m 23.256809,12.085343 c -0.06742,0.03371 -0.128095,0.06742 -0.215739,0.10787 -0.03371,-0.02698 -0.07416,-0.06742 -0.121354,-0.10787 0,-0.02023 0,-0.04719 0,-0.06742 0.155063,-0.08764 0.316868,-0.175289 0.471932,-0.262934 0.06742,0 0.134835,0 0.202255,-0.0068 0,0.02023 0,0.04045 0,0.06068 -0.0809,0.02023 -0.161805,0.04045 -0.235965,0.06742 -0.01347,0.0068 -0.02023,0.04045 -0.03371,0.06742 -0.02023,0.05393 -0.04719,0.09439 -0.06742,0.141579 0,0 0,0 0,0 z"
     id="path207"
     inkscape:connector-curvature="0"
     style="fill:#c4cdd6" /><path
     class="st68"
     d="m 23.391648,11.75499 c -0.155064,0.08764 -0.316869,0.175289 -0.471932,0.262934 0,-0.02023 0,-0.04719 -0.0068,-0.06742 0.0809,-0.249449 0.289899,-0.188771 0.478672,-0.195515 z"
     id="path209"
     inkscape:connector-curvature="0"
     style="fill:#bcc7d1" /><path
     class="st34"
     d="m 22.9332,12.692111 c 0.02023,0.11461 0.03371,0.229224 0.05393,0.337094 -0.02023,0 -0.04045,0 -0.06068,0 0,-0.114614 0,-0.222484 0.0067,-0.337094 z"
     id="path211"
     inkscape:connector-curvature="0"
     style="fill:#c4cdd6" /><path
     class="st35"
     d="m 24.335506,11.883085 c 0.06742,0 0.134839,0 0.202258,0 0,0.02023 0,0.04719 0,0.06742 -0.02023,0.02023 -0.04719,0.04719 -0.06742,0.06742 0,0 0,0 0,0 -0.06742,0.02023 -0.134839,0.04719 -0.202255,0.06742 0.02023,-0.06742 0.04719,-0.134838 0.06742,-0.202258 z"
     id="path213"
     inkscape:connector-curvature="0"
     style="fill:#becedc" /><path
     class="st34"
     d="m 24.470345,12.017924 c 0.02023,-0.02023 0.04719,-0.04719 0.06742,-0.06742 0,0.02023 0,0.04719 0,0.06742 -0.02023,0 -0.04719,0 -0.06742,0 z"
     id="path215"
     inkscape:connector-curvature="0"
     style="fill:#c4cdd6" /><path
     class="st85"
     d="m 24.814179,9.5234342 c -0.01347,-0.195515 -0.02695,-0.391029 -0.04719,-0.660703 0.0068,-0.128095 0.03371,-0.337094 0.03371,-0.546092 0.0068,-1.085441 0,-2.170882 0,-3.256322 0,-0.168546 0,-0.343835 0.0068,-0.51238 0.06068,0 0.128095,-0.0068 0.188773,-0.0068 0,0.02023 0.0068,0.04045 0.01348,0.06068 0.02023,0.202255 0.04045,0.40451 0.06068,0.613508 0,0.08765 0.0068,0.175289 0.0068,0.269675 0.0068,0.316868 0.01347,0.626996 0.01347,0.943861 0.01348,0.492157 0.03371,0.991055 0.04719,1.483213 0,0.269674 0,0.539348 0,0.809022 0,0.269675 -0.0068,0.532608 -0.0068,0.802282 -0.101129,-0.0068 -0.208998,-0.0068 -0.316868,0 z"
     id="path217"
     inkscape:connector-curvature="0"
     style="fill:#89c688" /><path
     class="st71"
     d="m 25.151272,4.7434512 c 0.114614,0.01348 0.235968,0.03371 0.350578,0.04719 -0.04719,0.02023 -0.101129,0.04045 -0.128094,0.0472 -0.03371,0.188773 -0.06068,0.357318 -0.09439,0.519123 0.03371,0.134838 0.07416,0.262933 0.114613,0.431479 -0.08764,-0.03371 -0.134839,-0.04719 -0.18203,-0.06068 -0.0068,0.06068 -0.01348,0.11461 -0.01348,0.168545 -0.01347,-0.01347 -0.03371,-0.02023 -0.04719,-0.02695 -0.0068,-0.128094 -0.01347,-0.262933 -0.01347,-0.391028 0,-0.242708 0.0068,-0.485414 0.01347,-0.734863 z"
     id="path219"
     inkscape:connector-curvature="0"
     style="fill:#e5ebee" /><path
     class="st86"
     d="m 25.137791,5.4783142 c 0.0068,0.128095 0.01347,0.262934 0.01347,0.391028 -0.0068,0.18203 -0.01347,0.370804 -0.02023,0.552833 -0.01347,0 -0.02695,0 -0.03371,0 -0.0068,-0.316868 -0.01347,-0.626993 -0.01347,-0.943861 0.01347,0 0.03371,0 0.05394,0 z"
     id="path221"
     inkscape:connector-curvature="0"
     style="fill:#098850" /><path
     class="st87"
     d="m 25.077112,5.2086402 c -0.02023,-0.202258 -0.04045,-0.404513 -0.06067,-0.613512 l 0.03371,0 c 0,0 0.02695,-0.0068 0.02695,-0.0068 0,0.208998 0,0.417994 0,0.620252 z"
     id="path223"
     inkscape:connector-curvature="0"
     style="fill:#489e5c" /><path
     class="st88"
     d="m 25.077112,4.5951282 -0.02695,0.0068 -0.03371,0 c -0.0068,-0.02023 -0.0068,-0.04045 -0.01347,-0.06068 0.02023,0 0.04045,0 0.06068,0.0068 0.0068,0.01348 0.01347,0.02695 0.01347,0.04719 z"
     id="path225"
     inkscape:connector-curvature="0"
     style="fill:#0d844d" /><path
     class="st89"
     d="m 25.205207,5.8963082 c 0.0068,-0.05393 0.01347,-0.107869 0.01347,-0.168545 0.04719,0.01347 0.08764,0.03371 0.18203,0.06068 -0.04719,-0.168546 -0.0809,-0.296641 -0.11461,-0.431479 0.02695,-0.161805 0.06068,-0.323609 0.09438,-0.519123 0.02698,-0.0068 0.07416,-0.02698 0.128094,-0.0472 0.02023,0 0.03371,0 0.05393,0.0068 0,0.02023 0,0.04045 0,0.06068 0,0.02698 0,0.06068 0,0.08764 0,0.10787 0,0.222483 0.0068,0.330353 -0.0068,0.02023 -0.01347,0.04719 -0.02023,0.06742 -0.02023,0.09439 -0.03371,0.182033 -0.05393,0.276418 0,0.10787 0.0068,0.222481 0.0068,0.33035 0,0 -0.01347,-0.0068 -0.01347,-0.0068 -0.02023,0.09439 -0.04045,0.18203 -0.06068,0.276418 0.0068,0.06742 0.0068,0.134836 0.01347,0.202255 -0.0068,0.04045 -0.01347,0.08765 -0.02023,0.128095 -0.02023,0 -0.04045,0 -0.06068,0 -0.0068,-0.03371 -0.01348,-0.06742 -0.02023,-0.09438 -0.01347,0.0068 -0.02698,0.01347 -0.04045,0.02023 0.02023,0.02698 0.04045,0.04719 0.06068,0.07416 0,0.208999 0,0.411254 0.0068,0.620252 0.0068,0.04045 0.01348,0.0809 0.02023,0.121355 -0.01347,0.11461 -0.02023,0.22248 -0.03371,0.337093 -0.04045,-0.02023 -0.07416,-0.04719 -0.114613,-0.06742 0,-0.02023 0,-0.04719 0,-0.06742 0.01347,-0.01348 0.02698,-0.02023 0.03371,-0.03371 -0.01347,-0.01348 -0.02695,-0.02023 -0.03371,-0.03371 -0.0068,-0.337093 -0.02023,-0.674187 -0.02695,-1.011277 -0.01347,-0.168549 -0.01347,-0.343838 -0.0068,-0.519127 z"
     id="path227"
     inkscape:connector-curvature="0"
     style="fill:#ebeef0" /><path
     class="st90"
     d="m 25.292852,8.1750592 c 0.01347,-0.09439 0.03371,-0.18877 0.04719,-0.283158 0,0.09439 0,0.188773 0.0068,0.276418 -0.02023,0.0068 -0.03371,0.0068 -0.05394,0.0068 z"
     id="path229"
     inkscape:connector-curvature="0"
     style="fill:#739fb7" /><path
     class="st71"
     d="m 25.555785,4.9524472 c 0,-0.02695 0,-0.06068 0,-0.08764 0.01347,0.01347 0.02695,0.02695 0.04045,0.04045 -0.02023,0.01347 -0.02695,0.03371 -0.04045,0.04719 z"
     id="path231"
     inkscape:connector-curvature="0"
     style="fill:#e5ebee" /><path
     class="st71"
     d="m 25.346787,6.5570112 c 0.02023,0 0.04045,0 0.06068,0 0,0.202258 0,0.404513 -0.0067,0.600027 -0.02023,0 -0.03371,0.0068 -0.05394,0.01347 0,-0.202255 0,-0.404512 0,-0.613511 l 0,0 z"
     id="path233"
     inkscape:connector-curvature="0"
     style="fill:#e5ebee" /><path
     class="st91"
     d="m 23.796158,0.2196592 c -0.357319,0 -0.714638,0 -1.071957,-0.0068 0,-0.04045 0,-0.0809 0.0068,-0.121351 0.330353,0 0.667447,0 0.997797,0 0.02023,0.04045 0.04719,0.0809 0.06742,0.128095 z"
     id="path235"
     inkscape:connector-curvature="0"
     style="fill:#f7f7f9" /><path
     class="st92"
     d="m 24.477085,12.90111 c 0.02023,-0.134839 0.03371,-0.269678 0.05394,-0.411257 0,0.134839 0.0067,0.269677 0.0067,0.397772 -0.02023,0.0068 -0.04045,0.0068 -0.06068,0.01348 z"
     id="path237"
     inkscape:connector-curvature="0"
     style="fill:#c4d8e6" /><path
     class="st93"
     d="m 24.6726,3.1186592 c 0.01347,-0.01347 0.02698,-0.02023 0.04719,-0.01347 0.02698,0.0068 0.06068,0.0068 0.08764,0.01347 0,0.02023 0,0.04719 0,0.06742 -0.02023,0.02698 -0.04045,0.04719 -0.06068,0.07416 0.01348,0.0068 0.02695,0.01347 0.04045,0.02023 0.0068,-0.03371 0.01347,-0.06742 0.02023,-0.09439 0.01347,-0.01348 0.02695,-0.02023 0.04719,-0.03371 -0.01347,-0.01348 -0.02698,-0.02023 -0.04045,-0.03371 0,-0.02023 0.0068,-0.03371 0.0068,-0.05394 l -0.0068,-0.02023 c 0.06068,-0.06742 0.128097,-0.134835 0.188773,-0.202255 0,-0.08764 0,-0.175289 0,-0.262933 0.0068,-0.02023 0.0068,-0.03371 0.0068,-0.05393 0.0068,-0.06068 0.04045,-0.134836 0.01347,-0.168545 -0.09438,-0.134839 -0.06068,-0.262934 0,-0.391029 0.02023,0 0.04045,0 0.06068,-0.0068 l -0.0068,0.02023 c 0.02698,0.02023 0.04719,0.03371 0.07416,0.05393 0.02023,0 0.04045,0.0068 0.06068,0.0068 0.04045,0.04045 0.0809,0.08764 0.128095,0.128095 0.02695,0.02023 0.04719,0.04719 0.07416,0.06742 0.0068,0.04045 0.01348,0.0809 0.02023,0.128095 0.02023,0.09439 0.04045,0.18203 0.06068,0.276418 -0.02023,0.134836 -0.04045,0.269675 -0.06068,0.40451 -0.01347,0.02023 -0.02023,0.04045 -0.02023,0.06068 -0.06742,0.08764 -0.134839,0.175289 -0.202255,0.25619 -0.02023,0.02698 -0.04719,0.05393 -0.06742,0.0809 -0.02023,0 -0.04045,0.0068 -0.06742,0.0068 -0.06742,0.02698 -0.134836,0.04719 -0.202255,0.07416 -0.02023,-0.0068 -0.04045,-0.01347 -0.06068,-0.01347 -0.05393,-0.03371 -0.10787,-0.06068 -0.161804,-0.08764 0.0068,-0.09439 0.01347,-0.202258 0.02023,-0.303387 z"
     id="path239"
     inkscape:connector-curvature="0"
     style="fill:#f8f8f8" /><path
     class="st94"
     d="m 25.016437,1.9658022 c -0.06068,0.128095 -0.09439,0.25619 0,0.391029 0.02695,0.03371 -0.0068,0.11461 -0.01348,0.168545 -0.06742,-0.04719 -0.134839,-0.09439 -0.195514,-0.14158 0,0 0.0068,-0.02023 0.0068,-0.02023 -0.02695,-0.01347 -0.06068,-0.02695 -0.08764,-0.04045 -0.04045,-0.0068 -0.0809,-0.01348 -0.121351,-0.02023 0,-0.121354 0,-0.235968 0,-0.370803 0.09438,-0.01348 0.15506,-0.02698 0.215739,-0.03371 0.06742,0.02023 0.128095,0.04719 0.195514,0.06742 z"
     id="path241"
     inkscape:connector-curvature="0"
     style="fill:#eaedef" /><path
     class="st95"
     d="m 22.974356,14.850211 c 0.0068,0.06742 0.0068,0.128098 0.01347,0.195514 -0.02023,0 -0.04045,0 -0.06742,0.0068 0.02023,-0.06742 0.04045,-0.134839 0.05394,-0.202258 z"
     id="path243"
     inkscape:connector-curvature="0"
     style="fill:#7da6c4" /><path
     class="st71"
     d="m 25.488366,5.6198932 c 0.02023,-0.09438 0.03371,-0.182029 0.05393,-0.276418 0,0.06742 0.0068,0.134839 0.0068,0.202258 -0.02023,0.02695 -0.04045,0.05394 -0.06068,0.07416 z"
     id="path245"
     inkscape:connector-curvature="0"
     style="fill:#e5ebee" /><path
     class="st96"
     d="m 22.724201,1.4399352 c 0.08764,0 0.175289,-0.0068 0.269675,-0.0068 0,0.06742 0,0.134836 0,0.195515 -0.06742,0 -0.134836,0 -0.202255,0 -0.02023,-0.0472 -0.04719,-0.08765 -0.06742,-0.134839 -0.0067,-0.01348 0,-0.03371 0,-0.05394 z"
     id="path247"
     inkscape:connector-curvature="0"
     style="fill:#3eb458" /><path
     class="st0"
     d="m 22.717461,1.5006142 c 0.02023,0.04719 0.04719,0.08764 0.06742,0.134835 0,0.02023 0,0.04719 0,0.06742 -0.02023,-0.06742 -0.04045,-0.134839 -0.06742,-0.202255 z"
     id="path249"
     inkscape:connector-curvature="0"
     style="fill:#05884e" /><path
     class="st71"
     d="m 25.414206,6.2266612 c 0.02023,-0.09439 0.04045,-0.18203 0.06068,-0.276418 0,0.06742 0.0068,0.134839 0.0068,0.202258 -0.02023,0.02695 -0.04045,0.04719 -0.06742,0.07416 z"
     id="path251"
     inkscape:connector-curvature="0"
     style="fill:#e5ebee" /><path
     class="st97"
     d="m 23.796158,0.2196592 c -0.02023,-0.04719 -0.04719,-0.08765 -0.06742,-0.134839 0.289902,0 0.573061,0 0.86296,0 0,0.04045 0,0.0809 0,0.128095 -0.262933,0 -0.532608,0.0068 -0.795541,0.0068 z"
     id="path253"
     inkscape:connector-curvature="0"
     style="fill:#eaf2f7" /><path
     class="st94"
     d="m 25.144532,2.0399622 c -0.02698,-0.02023 -0.04719,-0.03371 -0.07416,-0.05394 0.02023,-0.0068 0.04719,-0.0068 0.06742,-0.01347 0.0068,0.02023 0.0068,0.04719 0.0068,0.06742 z"
     id="path255"
     inkscape:connector-curvature="0"
     style="fill:#eaedef" /><path
     class="st98"
     d="m 24.153476,7.0491682 c 0,-0.33035 0,-0.653962 0,-0.984311 0.01347,0 0.02023,0 0.03371,0 0,0.330349 0,0.653961 0,0.984311 -0.01348,0 -0.02695,0 -0.03371,0 z"
     id="path257"
     inkscape:connector-curvature="0"
     style="fill:#039e53" /><path
     class="st99"
     d="m 24.146736,8.6604762 c 0,-0.141579 0,-0.283159 0,-0.424738 0.01347,0 0.02023,0 0.03371,0 0,0.141579 0,0.276415 0,0.417994 -0.01347,0 -0.02698,0 -0.03371,0.0068 z"
     id="path259"
     inkscape:connector-curvature="0"
     style="fill:#00a057" /><path
     class="st63"
     d="m 24.26809,2.2422172 c -0.01347,-0.01347 -0.02698,-0.02023 0,0 -0.02023,-0.02695 -0.01347,-0.01347 0,0 l 0,0 z"
     id="path261"
     inkscape:connector-curvature="0"
     style="fill:#0ba74e" /><path
     class="st100"
     d="m 24.996212,2.8422442 c -0.06068,0.06742 -0.128098,0.134839 -0.188774,0.202255 -0.02698,-0.02695 -0.05394,-0.04719 -0.0809,-0.07416 0.10787,-0.10787 0.208999,-0.215739 0.14158,-0.391028 0.02698,0 0.05394,0 0.0809,0 0.01348,0.08764 0.03371,0.175289 0.04719,0.262933 z"
     id="path263"
     inkscape:connector-curvature="0"
     style="fill:#468c6e" /><path
     class="st101"
     d="m 24.949017,2.5793112 c -0.02698,0 -0.05394,0 -0.0809,0 -0.04719,-0.04045 -0.09439,-0.0809 -0.141579,-0.128095 0.02698,-0.02695 0.05393,-0.04719 0.07416,-0.07416 0.06742,0.04719 0.134836,0.09438 0.195514,0.141579 0,0.02023 0,0.04045 -0.0068,0.05394 -0.01347,0.01347 -0.02695,0.01347 -0.04045,0.0068 z"
     id="path265"
     inkscape:connector-curvature="0"
     style="fill:#478c66" /><path
     class="st102"
     d="m 22.987135,1.6354492 c 0,-0.06742 0,-0.134835 0,-0.195514 0.22248,0 0.444963,0 0.667443,0 -0.0068,0.05394 -0.0068,0.10787 -0.01347,0.202258 -0.222483,-0.0068 -0.438222,-0.0068 -0.653962,-0.0068 z"
     id="path267"
     inkscape:connector-curvature="0"
     style="fill:#5ab565" /><path
     class="st103"
     d="m 24.402925,1.4331942 c 0.155064,-0.0068 0.134839,0.101129 0.128095,0.202255 -0.14832,0 -0.128095,-0.107869 -0.128095,-0.202255 z"
     id="path269"
     inkscape:connector-curvature="0"
     style="fill:#14ab4e" /><path
     class="st54"
     d="m 24.719794,2.3231212 c 0.02698,0.01347 0.06068,0.02695 0.08764,0.04045 -0.02698,-0.01347 -0.05394,-0.02695 -0.08764,-0.04045 z"
     id="path271"
     inkscape:connector-curvature="0"
     style="fill:#c1d2d7" /><path
     class="st104"
     d="m 25.137791,9.5166932 c 0,-0.269677 0.0068,-0.532608 0.0068,-0.802282 0.02023,0 0.03371,0 0.05393,0 0,0.289899 0,0.586539 0,0.876442 -0.02023,-0.02698 -0.04045,-0.05393 -0.06068,-0.07416 z"
     id="path273"
     inkscape:connector-curvature="0"
     style="fill:#247f4e" /><path
     class="st104"
     d="m 25.198467,9.6582722 c 0.01347,0.02023 0.01347,0.04045 0.0068,0.06068 l -0.03371,0.0068 -0.03371,-0.0068 c 0.02695,-0.02023 0.04719,-0.04045 0.06068,-0.06068 z"
     id="path275"
     inkscape:connector-curvature="0"
     style="fill:#247f4e" /><path
     class="st105"
     d="m 23.593903,11.815669 c 0,-0.02023 0,-0.04045 0,-0.06068 0.155063,0 0.316868,0 0.471929,0 0,0.04045 0,0.08764 0,0.128095 -0.04719,0.02023 -0.08765,0.04719 -0.134836,0.06742 -0.06068,-0.168546 -0.208999,-0.128095 -0.337093,-0.134836 z"
     id="path277"
     inkscape:connector-curvature="0"
     style="fill:#cedfec" /><path
     class="st34"
     d="m 24.065832,11.883085 c 0,-0.04045 0,-0.08764 0,-0.128095 0.06742,0 0.134838,0 0.202258,0 0.02023,0.04045 0.04719,0.08764 0.06742,0.128095 -0.02023,0.06742 -0.04719,0.134839 -0.06742,0.202258 -0.06742,-0.06742 -0.134839,-0.134838 -0.202258,-0.202258 z"
     id="path279"
     inkscape:connector-curvature="0"
     style="fill:#c4cdd6" /><path
     class="st106"
     d="m 25.198467,6.4221752 c 0.0068,0.337094 0.02023,0.674187 0.02695,1.011281 -0.01347,0.02023 -0.01347,0.04045 0,0.06742 0,0.02023 0,0.04719 0,0.06742 -0.0068,0.114613 -0.01347,0.222483 -0.02023,0.337093 -0.02023,0 -0.04045,0 -0.05394,0 -0.01347,-0.492154 -0.03371,-0.991052 -0.04719,-1.48321 0.01347,0 0.02695,0 0.03371,0 0.02023,0 0.04045,0 0.06068,0 z"
     id="path281"
     inkscape:connector-curvature="0"
     style="fill:#478660" /><path
     class="st107"
     d="m 25.144532,7.9053852 c 0.02023,0 0.04045,0 0.05393,0 0,0.269674 0,0.539349 0,0.809026 -0.02023,0 -0.03371,0 -0.05393,0 0,-0.269677 0,-0.539352 0,-0.809026 z"
     id="path283"
     inkscape:connector-curvature="0"
     style="fill:#388158" /><path
     class="st74"
     d="m 24.814179,3.0647242 c 0,0.02023 0,0.03371 -0.0068,0.05394 l 0,0 c -0.02698,-0.0068 -0.06068,-0.0068 -0.08764,-0.01347 0.03371,-0.01348 0.06068,-0.02698 0.09438,-0.04045 z"
     id="path285"
     inkscape:connector-curvature="0"
     style="fill:#d0dcde" /><path
     class="st108"
     d="m 23.587159,0.3612382 c 0.141579,0 0.276418,0 0.417997,0 -0.0809,0.05394 -0.161804,0.10787 -0.296643,0.202255 -0.01347,0.175289 -0.02695,0.391029 -0.04719,0.606768 l -0.02698,0 -0.02695,0 c -0.0068,-0.276415 -0.01347,-0.539349 -0.02023,-0.809023 z"
     id="path287"
     inkscape:connector-curvature="0"
     style="fill:#5890b1" /><path
     class="st109"
     d="m 23.593903,11.815669 c 0.128094,0.0068 0.276415,-0.03371 0.337093,0.134836 -0.04719,0 -0.08764,0 -0.134838,0 -0.155061,0 -0.316869,0 -0.47193,0 0.01348,-0.02023 0.01348,-0.06068 0.03371,-0.06742 0.07416,-0.02695 0.155061,-0.04719 0.235965,-0.06742 z"
     id="path289"
     inkscape:connector-curvature="0"
     style="fill:#e9eff1" /><path
     class="st105"
     d="m 23.324228,11.950505 c 0.155061,0 0.316869,0 0.47193,0 -0.02023,0.04719 -0.04719,0.08764 -0.06742,0.134838 -0.04719,0 -0.08764,0 -0.134836,0 -0.114614,0 -0.222483,0 -0.337094,0 0.02023,-0.04719 0.04719,-0.08764 0.06742,-0.134838 z"
     id="path291"
     inkscape:connector-curvature="0"
     style="fill:#cedfec" /><path
     class="st92"
     d="m 23.863577,12.085343 -0.03371,0 -0.03371,0 c -0.02023,0 -0.04719,0 -0.06742,0 l 0,0 c 0.02023,-0.04719 0.04719,-0.08764 0.06742,-0.134838 0.04719,0 0.08764,0 0.134838,0 0.04719,-0.02023 0.08765,-0.04719 0.134836,-0.06742 0.06742,0.06742 0.134839,0.134839 0.202258,0.202258 0.06742,-0.02023 0.134836,-0.04719 0.202255,-0.06742 -0.04045,0.07416 -0.0809,0.14832 -0.134839,0.242708 0,0.21574 0,0.458445 0,0.694412 l -0.03371,0 -0.03371,0 c 0,-0.229223 0,-0.465191 0,-0.694412 -0.02023,0 -0.04719,0 -0.06742,0 0,0.25619 0,0.51238 0,0.761829 -0.02023,0 -0.04719,0 -0.06742,0 0,-0.188771 0.0068,-0.377544 0,-0.566315 -0.0068,-0.128097 -0.04045,-0.249449 -0.06068,-0.377547 -0.02023,0 -0.04719,0 -0.06742,0 -0.02023,0 -0.04719,0 -0.06742,0 -0.02695,0.0068 -0.05394,0.0068 -0.07416,0.0068 z"
     id="path293"
     inkscape:connector-curvature="0"
     style="fill:#c4d8e6" /><path
     class="st110"
     d="m 23.930996,12.085343 c 0.02023,0 0.04719,0 0.06742,0 0,0.323609 0,0.640478 0,0.964087 -0.02023,0 -0.04719,0 -0.06742,0 0,-0.316869 0,-0.640478 0,-0.964087 z"
     id="path295"
     inkscape:connector-curvature="0"
     style="fill:#daeaf4" /><path
     class="st111"
     d="m 24.065832,12.085343 c 0.02023,0.128095 0.05393,0.249449 0.06068,0.377544 0.01347,0.188774 0,0.377544 0,0.566318 -0.02023,-0.128095 -0.05393,-0.24945 -0.06742,-0.377544 0,-0.188774 0.0068,-0.377547 0.0068,-0.566318 z"
     id="path297"
     inkscape:connector-curvature="0"
     style="fill:#d8e6f2" /><path
     class="st112"
     d="m 24.20067,13.029205 c 0,-0.256193 0,-0.512383 0,-0.761832 0.02023,0 0.04719,0 0.06742,0 0,0.229224 0,0.465188 0,0.694412 -0.02023,0.02023 -0.04719,0.04719 -0.06742,0.06742 z"
     id="path299"
     inkscape:connector-curvature="0"
     style="fill:#d6e7f3" /><path
     class="st113"
     d="m 25.198467,6.4221752 c -0.02023,0 -0.04045,0 -0.06068,0 0.0068,-0.182029 0.01347,-0.370803 0.02023,-0.552833 0.02023,0.0068 0.03371,0.02023 0.04719,0.02695 -0.0068,0.175289 -0.0068,0.350578 -0.0068,0.525867 z"
     id="path301"
     inkscape:connector-curvature="0"
     style="fill:#5e9a72" /><path
     class="st71"
     d="m 25.346787,6.5570112 c -0.02023,-0.02695 -0.04045,-0.04719 -0.06068,-0.07416 0.01348,-0.0068 0.02695,-0.01348 0.04045,-0.02023 0.0067,0.02698 0.01347,0.06068 0.02023,0.09438 l 0,0 z"
     id="path303"
     inkscape:connector-curvature="0"
     style="fill:#e5ebee" /><path
     class="st71"
     d="m 25.225432,7.5008722 c -0.01347,-0.02023 -0.01347,-0.04045 0,-0.06742 0.01347,0.01347 0.02698,0.02023 0.03371,0.03371 -0.01348,0.01347 -0.02695,0.02023 -0.03371,0.03371 z"
     id="path305"
     inkscape:connector-curvature="0"
     style="fill:#e5ebee" /><path
     class="st114"
     d="m 24.949017,2.5793112 c 0.01348,0 0.02695,0 0.04045,0 0,0.08764 0,0.175289 0,0.262933 -0.0068,-0.08764 -0.02695,-0.175289 -0.04045,-0.262933 z"
     id="path307"
     inkscape:connector-curvature="0"
     style="fill:#178150" /><path
     class="st74"
     d="m 24.807438,3.1860792 c -0.0068,0.03371 -0.01347,0.06742 -0.02023,0.09439 -0.01348,-0.0068 -0.02698,-0.01348 -0.04045,-0.02023 0.02023,-0.02695 0.04045,-0.04719 0.06068,-0.07416 l 0,0 z"
     id="path309"
     inkscape:connector-curvature="0"
     style="fill:#d0dcde" /><path
     class="st74"
     d="m 24.807438,3.1860792 c 0,-0.02023 0,-0.04719 0,-0.06742 0,0 0,0 0,0 0.01347,0.01348 0.02695,0.02023 0.04045,0.03371 -0.01347,0.01347 -0.02695,0.02023 -0.04045,0.03371 l 0,0 z"
     id="path311"
     inkscape:connector-curvature="0"
     style="fill:#d0dcde" /><path
     class="st105"
     d="m 23.728738,12.085343 c 0.02023,0 0.04719,0 0.06742,0 0,0.05394 0,0.101126 0,0.155061 -0.01347,0 -0.02695,0 -0.04719,0.0068 -0.0068,-0.05393 -0.01347,-0.10787 -0.02023,-0.161805 z"
     id="path313"
     inkscape:connector-curvature="0"
     style="fill:#cedfec" /><path
     class="st115"
     d="m 24.544505,13.37978 c -0.02023,0.222483 -0.04719,0.444963 -0.06742,0.674187 -0.02023,-0.07416 -0.04045,-0.14158 -0.06742,-0.21574 0,-0.04045 -0.0067,-0.08764 -0.0067,-0.128095 0.01347,-0.09439 0.03371,-0.182029 0.04719,-0.276418 0.0068,-0.08764 0.01347,-0.175286 0.02023,-0.269674 0.02698,0.07416 0.05394,0.141579 0.07416,0.21574 z"
     id="path315"
     inkscape:connector-curvature="0"
     style="fill:#80aac3" /><path
     class="st116"
     d="m 22.980391,14.323641 c -0.01347,-0.14158 -0.03371,-0.283159 -0.04719,-0.424735 0.02023,0 0.04045,0 0.06068,0 0.02023,0 0.04045,0 0.06068,0.0068 0,0.107869 0,0.22248 0,0.330349 -0.02698,0.03371 -0.05393,0.06068 -0.07416,0.08764 z"
     id="path317"
     inkscape:connector-curvature="0"
     style="fill:#7fa6c5" /><path
     class="st117"
     d="m 22.987135,13.905647 c -0.02023,0 -0.04045,0 -0.06068,0 -0.0068,-0.155064 -0.0068,-0.310125 -0.01348,-0.465189 0.02023,-0.06742 0.04045,-0.134839 0.06068,-0.202258 0.0068,0.08764 0.01347,0.175289 0.02023,0.262934 0,0.134838 0,0.269674 -0.0068,0.404513 z"
     id="path319"
     inkscape:connector-curvature="0"
     style="fill:#6498bb" /><path
     class="st118"
     d="m 24.409669,13.838227 c 0.02023,0.07416 0.04045,0.14158 0.06742,0.21574 -0.0068,0.155063 -0.01347,0.303383 -0.01347,0.458447 -0.02023,-0.02698 -0.04045,-0.04719 -0.06068,-0.07416 0,-0.202258 0.0068,-0.397772 0.0068,-0.600027 z"
     id="path321"
     inkscape:connector-curvature="0"
     style="fill:#76a3c1" /><path
     class="st95"
     d="m 22.980391,14.323641 c 0.02698,-0.02695 0.04719,-0.05393 0.07416,-0.0809 0.0068,0.128095 0.0068,0.262934 0.01347,0.391028 -0.02023,0.09439 -0.04045,0.18203 -0.06067,0.276415 -0.01348,-0.195514 -0.02023,-0.391028 -0.02698,-0.586542 z"
     id="path323"
     inkscape:connector-curvature="0"
     style="fill:#7da6c4" /><path
     class="st119"
     d="m 24.396185,14.431511 c 0.02023,0.02698 0.04045,0.04719 0.06068,0.07416 -0.02023,0.134835 -0.03371,0.276415 -0.05393,0.411253 -0.0068,-0.02023 -0.0068,-0.04719 -0.01347,-0.06742 -0.01347,-0.04719 -0.03371,-0.09439 -0.04719,-0.134839 0.02023,-0.09439 0.04045,-0.18877 0.05393,-0.283158 z"
     id="path325"
     inkscape:connector-curvature="0"
     style="fill:#75a4c7" /><path
     class="st116"
     d="m 23.000619,14.910183 c 0.02023,-0.09439 0.04045,-0.182029 0.06067,-0.276415 0.02023,0.114611 0.03371,0.235965 0.05393,0.350575 -0.02023,0.06742 -0.03371,0.134839 -0.05393,0.202258 0,0 -0.0068,0 -0.0068,0 -0.02023,-0.08764 -0.04045,-0.182029 -0.05393,-0.276418 z"
     id="path327"
     inkscape:connector-curvature="0"
     style="fill:#7fa6c5" /><path
     class="st120"
     d="m 22.980391,13.2382 c -0.02023,0.06742 -0.04045,0.134839 -0.06068,0.202258 -0.02023,-0.134839 -0.03371,-0.276418 -0.05393,-0.411253 0.02023,0 0.04719,0 0.06742,0 0.02023,0 0.04045,0 0.06068,0 -0.01347,0.06742 -0.01347,0.134835 -0.01347,0.208995 z"
     id="path329"
     inkscape:connector-curvature="0"
     style="fill:#8aaeca" /><path
     class="st121"
     d="m 24.396185,15.186601 c -0.02698,0 -0.04719,0 -0.07416,-0.0068 0.0068,-0.10787 0.01347,-0.222481 0.02023,-0.33035 l 0.02695,0 0.02698,0.0068 c 0.0068,0.02023 0.0068,0.04719 0.01347,0.06742 -0.0068,0.08764 -0.0068,0.175289 -0.01347,0.262933 z"
     id="path331"
     inkscape:connector-curvature="0"
     style="fill:#6495b7" /><path
     class="st122"
     d="m 22.980391,13.2382 c 0,-0.06742 0.0068,-0.134835 0.0068,-0.202255 -0.02023,-0.11461 -0.03371,-0.229224 -0.05394,-0.337093 0,-0.202255 -0.0067,-0.404513 -0.0067,-0.606768 0.04719,0.04045 0.09439,0.0809 0.121354,0.10787 0.08764,-0.04719 0.148323,-0.07416 0.21574,-0.10787 0,0.471932 0,0.943861 0,1.415793 -0.08764,0 -0.175289,0 -0.262931,0 -0.0068,-0.09439 -0.01348,-0.182032 -0.02023,-0.269677 z"
     id="path333"
     inkscape:connector-curvature="0"
     style="fill:#dde6ef" /><path
     class="st123"
     d="m 24.34899,14.849508 c -0.0068,0.10787 -0.01347,0.22248 -0.02023,0.33035 -0.08764,0.02698 -0.168545,0.05393 -0.256189,0.0809 -0.222483,-0.0068 -0.451707,-0.0068 -0.674187,-0.01347 -0.04719,-0.02023 -0.09438,-0.04719 -0.14158,-0.06742 0.14832,0 0.303384,0 0.478673,0 0,-0.357319 0,-0.667444 0,-0.977568 0,-0.188774 0.101126,-0.384288 0,-0.573061 0.202255,-0.02023 0.404513,-0.04719 0.606768,-0.06742 0.02695,0.04719 0.04719,0.09439 0.07416,0.14158 0,0.04045 0.0068,0.08764 0.0068,0.128095 -0.0068,0.195514 -0.0068,0.397769 -0.01347,0.593283 -0.01348,0.09439 -0.03371,0.188773 -0.04719,0.283159 -0.01347,0.05393 -0.01347,0.101128 -0.01347,0.141579 z"
     id="path335"
     inkscape:connector-curvature="0"
     style="fill:#e4f1f8" /><path
     class="st105"
     d="m 24.402925,13.710132 c -0.02695,-0.04719 -0.04719,-0.09439 -0.07416,-0.141579 -0.155064,-0.02023 -0.316868,-0.04719 -0.471929,-0.06742 0,-0.471929 0,-0.943862 0,-1.415791 0.02023,0 0.04719,0 0.06742,0 0,0.323609 0,0.647218 0,0.964087 0.02023,0 0.04719,0 0.06742,0 0,-0.323609 0,-0.640478 0,-0.964087 0.02023,0 0.04719,0 0.06742,0 0,0.188771 -0.0068,0.377544 0,0.566318 0.0068,0.128094 0.04045,0.249449 0.06742,0.377544 0.02023,0 0.04719,0 0.06742,0 0.02023,-0.02023 0.04719,-0.0472 0.06742,-0.06742 l 0.03371,0 0.03371,0 c 0,0.114611 -0.0068,0.235965 0.0068,0.350578 0.0068,0.04719 0.07416,0.0809 0.114614,0.121351 -0.01347,0.08765 -0.02698,0.182033 -0.04719,0.276418 z"
     id="path337"
     inkscape:connector-curvature="0"
     style="fill:#cedfec" /><path
     class="st124"
     d="m 24.45686,13.433714 c -0.04045,-0.04045 -0.10787,-0.07416 -0.11461,-0.121351 -0.01347,-0.114613 -0.0068,-0.235967 -0.0068,-0.350578 0,-0.242708 0,-0.485413 0,-0.694412 0.05394,-0.101129 0.09439,-0.175289 0.134838,-0.242708 l 0,0 c 0.02023,0 0.04719,0 0.06742,0 0,0.114613 0.0068,0.222483 0.0068,0.337093 -0.0068,0.04719 -0.01347,0.08765 -0.01347,0.134839 -0.02023,0.134835 -0.03371,0.269674 -0.05393,0.411253 0,0.08765 0,0.175289 0,0.262934 -0.0068,0.0809 -0.01347,0.175289 -0.02023,0.26293 z"
     id="path339"
     inkscape:connector-curvature="0"
     style="fill:#d6e4ee" /><path
     class="st125"
     d="m 23.728738,13.635972 c 0.101129,0.188771 0,0.384285 0,0.573058 0,0.310125 0,0.620253 0,0.977571 -0.175286,0 -0.323609,0 -0.47867,0 -0.04045,0 -0.0809,-0.0068 -0.128098,-0.0068 l 0,0 c -0.0068,-0.06742 -0.0068,-0.128095 -0.01347,-0.195515 -0.02023,-0.11461 -0.03371,-0.235964 -0.05394,-0.350575 -0.0068,-0.128094 -0.0068,-0.262933 -0.01347,-0.391028 0,-0.10787 0,-0.222483 0,-0.330353 0,-0.09439 0.0068,-0.18203 0.0068,-0.276415 0.235965,0 0.458448,0 0.680928,0 l 0,0 z"
     id="path341"
     inkscape:connector-curvature="0"
     style="fill:#f1f5f8" /><path
     class="st126"
     d="m 23.054554,13.635972 c 0,0.09439 -0.0068,0.18203 -0.0068,0.276415 -0.02023,-0.0068 -0.04045,-0.0068 -0.06068,-0.0068 0,-0.134838 0.0068,-0.269674 0.0068,-0.404512 0.08764,0 0.175289,0 0.262934,0 0.11461,0 0.22248,0 0.337093,0 0.08764,0 0.18203,0 0.269674,0 0.155064,0.02023 0.316869,0.04719 0.47193,0.06742 -0.202255,0.02023 -0.40451,0.04719 -0.606768,0.06742 l 0,0 c -0.22248,-0.101129 -0.451704,-0.107869 -0.674184,0 z"
     id="path343"
     inkscape:connector-curvature="0"
     style="fill:#c3d3e1" /><path
     class="st127"
     d="m 24.34899,14.849508 c 0,-0.04719 0,-0.08764 0,-0.134839 0.01347,0.04719 0.03371,0.09439 0.04719,0.134839 0,0 -0.02698,-0.0068 -0.02698,-0.0068 l -0.02023,0.0068 z"
     id="path345"
     inkscape:connector-curvature="0"
     style="fill:#77a3c4" /><path
     class="st128"
     d="m 23.593903,13.501134 c -0.114614,0 -0.222484,0 -0.337094,0 0,-0.471929 0,-0.943862 0,-1.415791 l 0,0 c 0.11461,0 0.22248,0 0.337094,0 0,0.471929 0,0.943862 0,1.415791 z"
     id="path347"
     inkscape:connector-curvature="0"
     style="fill:#edf3f6" /><path
     class="st129"
     d="m 23.593903,12.085343 c 0.04719,0 0.08764,0 0.134835,0 0,0 0,0 0,0 0.0068,0.05394 0.01347,0.10787 0.02023,0.155061 0.01347,0 0.02695,0 0.04719,-0.0068 0,-0.05393 0,-0.101129 0,-0.155064 l 0.03371,0 0.03371,0 c 0,0.471933 0,0.943862 0,1.415794 -0.08764,0 -0.182029,0 -0.269674,0 0,-0.465189 0,-0.937121 0,-1.40905 z"
     id="path349"
     inkscape:connector-curvature="0"
     style="fill:#dce9f2" /><path
     class="st123"
     d="m 23.054554,13.635972 c 0.22248,-0.107869 0.451704,-0.101129 0.674184,0 -0.22248,0 -0.444963,0 -0.674184,0 z"
     id="path351"
     inkscape:connector-curvature="0"
     style="fill:#e4f1f8" /><path
     class="st130"
     d="m 24.361247,31.709505 0,14.339357 c 0,0.18194 -0.05783,0.36387 -0.104089,0.55255 -0.04623,0.22911 -0.115647,0.46495 -0.16191,0.69406 -0.04623,0.20889 -0.104083,0.41778 -0.150346,0.61993 -0.01158,0.0337 -0.04623,0.0809 -0.06939,0.0876 -0.09252,0.007 -0.196604,0 -0.289125,-0.007 -0.02312,0 -0.0347,-0.0404 -0.04628,-0.0606 -0.02312,-0.0943 -0.05783,-0.18868 -0.08096,-0.28975 -0.05783,-0.23585 -0.09252,-0.47843 -0.173473,-0.71428 -0.150346,-0.46495 -0.185041,-0.9299 -0.185041,-1.39485 0.01158,-4.602342 0,-9.204687 0,-13.807023 0,-0.141507 0.01158,-0.289752 -0.173478,-0.404311 -0.06939,-0.04696 -0.150347,-0.08739 -0.231304,-0.127815 C 22.464552,31.089557 22.3489,30.94805 22.3489,30.772849 c 0,-1.495927 0.01158,-2.985116 0,-4.481045 0,-0.215632 0.138783,-0.377354 0.416345,-0.491906 0.25443,-0.107815 0.335387,-0.249322 0.335387,-0.424522 l 0,-0.06064 3e-6,-2.563963 3e-6,-5.111086 0,-2.365186 0,-0.04717 c 0,-0.03369 0.0347,-0.04043 0.104083,-0.04043 l 1.029294,0 c 0.09252,0 0.127215,0.01347 0.127215,0.05391 l 0,0.03369 0.0058,7.5066 0.0058,2.547122 c 0,0.128032 -0.01158,0.249321 0.127215,0.357139 0.04628,0.03369 0.09252,0.06738 0.150347,0.0876 0.370082,0.13477 0.474171,0.336922 0.474171,0.579506 l 0,1.954143 0,2.371921 c 0,0.235844 -0.115652,0.424524 -0.45104,0.55929 -0.219735,0.0876 -0.289124,0.222369 -0.312258,0.377351 -0.01157,0.03369 1.8e-5,0.06739 1.8e-5,0.09434 z"
     id="path357"
     inkscape:connector-curvature="0"
     style="fill:none;stroke:#000000;stroke-width:0.08827818;stroke-linecap:round;stroke-linejoin:round;stroke-miterlimit:10"
     sodipodi:nodetypes="sscccccccccsccsccsccccssssccsccscsccs" /><path
     class="st130"
     d="m 23.181591,18.893028 c 0.196609,0 0.38165,0.0067 0.578254,0.0067 0.208173,0 0.416345,-0.0067 0.624518,-0.0067"
     id="path359"
     inkscape:connector-curvature="0"
     style="fill:none;stroke:#000000;stroke-width:0.08827818;stroke-linecap:round;stroke-linejoin:round;stroke-miterlimit:10" /></svg>