<?xml version="1.0" encoding="UTF-8" standalone="no"?>
<!-- Generator: Adobe Illustrator 19.0.0, SVG Export Plug-In . SVG Version: 6.00 Build 0)  -->

<svg
   xmlns:dc="http://purl.org/dc/elements/1.1/"
   xmlns:cc="http://creativecommons.org/ns#"
   xmlns:rdf="http://www.w3.org/1999/02/22-rdf-syntax-ns#"
   xmlns:svg="http://www.w3.org/2000/svg"
   xmlns="http://www.w3.org/2000/svg"
   xmlns:sodipodi="http://sodipodi.sourceforge.net/DTD/sodipodi-0.dtd"
   xmlns:inkscape="http://www.inkscape.org/namespaces/inkscape"
   version="1.1"
   id="Layer_1"
   x="0px"
   y="0px"
   viewBox="0 0 48 48"
   xml:space="preserve"
   inkscape:version="0.91 r13725"
   sodipodi:docname="500mLVolumetricFlask.svg"
   width="48"
   height="48"><metadata
     id="metadata3481"><rdf:RDF><cc:Work
         rdf:about=""><dc:format>image/svg+xml</dc:format><dc:type
           rdf:resource="http://purl.org/dc/dcmitype/StillImage" /><dc:title></dc:title></cc:Work></rdf:RDF></metadata><defs
     id="defs3479" /><sodipodi:namedview
     pagecolor="#ffffff"
     bordercolor="#666666"
     borderopacity="1"
     objecttolerance="10"
     gridtolerance="10"
     guidetolerance="10"
     inkscape:pageopacity="0"
     inkscape:pageshadow="2"
     inkscape:window-width="1920"
     inkscape:window-height="949"
     id="namedview3477"
     showgrid="false"
     inkscape:zoom="1.1919192"
     inkscape:cx="14.872883"
     inkscape:cy="60.406782"
     inkscape:window-x="0"
     inkscape:window-y="0"
     inkscape:window-maximized="1"
     inkscape:current-layer="Layer_1" /><style
     type="text/css"
     id="style3415">
        .st0{fill:none;stroke:#000000;stroke-miterlimit:10;}
        .st1{fill:none;stroke:#000000;stroke-width:0.5;stroke-miterlimit:10;}
        .st2{fill:#CBE9FA;stroke:#000000;stroke-miterlimit:10;}
        .st3{fill:none;stroke:#4D4D4F;stroke-miterlimit:10;}
        .st4{fill:none;stroke:#010101;stroke-miterlimit:10;}
        .st5{fill:none;stroke:#010101;stroke-width:0.5;stroke-miterlimit:10;}
        .st6{fill:#CBE8F9;stroke:#010101;stroke-miterlimit:10;}
    </style><g
     id="vf500"
     inkscape:label="#g3565"
     transform="matrix(0.133334,0,0,0.133334,-8.7134969,-35.113628)"><line
       y2="331.60001"
       x2="254.3"
       y1="457.20001"
       x1="254.3"
       class="st0"
       id="XMLID_63_"
       style="fill:none;stroke:#000000;stroke-miterlimit:10" /><polyline
       points="241.3,561.7 253.8,561.7 261.6,560.9 268.6,560.1 273,558.9 275.5,558.2 278.4,557.4   279.6,556.5 281.7,555.5 284.9,553.7 288.2,551.2 291.2,548.5 294.2,544.9 295.9,541.5 297.3,537.4 298.7,527.7 298.7,520.7   297.5,515.4 296.7,512.2 295.9,510.2 293.2,506 290.3,501.8 285.9,496 282.8,492 279.7,489.1 276.3,485.9 272.4,481.9 267.5,477.3   263.4,472.6 260,468.8 257.1,464.8 255.1,460.7 254.3,458.1 254.3,456 "
       class="st0"
       id="XMLID_59_"
       style="fill:none;stroke:#000000;stroke-miterlimit:10" /><polyline
       points="249.4,561.7 236.9,561.7 229.1,560.9 222.1,560.1 217.7,558.9 215.2,558.2   212.3,557.4 211.1,556.5 209,555.5 205.8,553.7 202.5,551.2 199.4,548.5 196.5,544.9 194.8,541.5 193.3,537.4 192,527.7 192,520.7   193.2,515.4 194,512.2 194.8,510.2 197.4,506 200.3,501.8 204.7,496 207.9,492 210.9,489.1 214.4,485.9 218.2,481.9 223.1,477.3   227.2,472.6 230.7,468.8 233.6,464.8 235.6,460.7 236.4,458.1 236.4,456 "
       class="st0"
       id="XMLID_58_"
       style="fill:none;stroke:#000000;stroke-miterlimit:10" /><line
       y2="331.60001"
       x2="236.39999"
       y1="457.20001"
       x1="236.39999"
       class="st0"
       id="XMLID_57_"
       style="fill:none;stroke:#000000;stroke-miterlimit:10" /><path
       d="m 210.9,552.6 c -0.1,3.2 9.4,6 21.1,6.2"
       class="st0"
       id="XMLID_56_"
       inkscape:connector-curvature="0"
       style="fill:none;stroke:#000000;stroke-miterlimit:10" /><path
       d="m 275.1,552.8 c 0.1,-4.6 -10.9,-8.5 -24.6,-8.8"
       class="st0"
       id="XMLID_55_"
       inkscape:connector-curvature="0"
       style="fill:none;stroke:#000000;stroke-miterlimit:10" /><path
       d="m 275.1,554.4 c -0.1,2.8 -18.3,4.7 -40.7,4.4"
       class="st0"
       id="XMLID_54_"
       inkscape:connector-curvature="0"
       style="fill:none;stroke:#000000;stroke-miterlimit:10" /><path
       d="m 210.9,550.7 c 0.1,-4 16.6,-7 36.9,-6.7"
       class="st0"
       id="XMLID_53_"
       inkscape:connector-curvature="0"
       style="fill:none;stroke:#000000;stroke-miterlimit:10" /><ellipse
       ry="1.8"
       rx="8.8999996"
       cy="391.60001"
       cx="245.3"
       class="st1"
       id="XMLID_52_"
       style="fill:none;stroke:#000000;stroke-width:0.5;stroke-miterlimit:10" /><line
       y2="330.10001"
       x2="234.39999"
       y1="327.89999"
       x1="234.39999"
       class="st0"
       id="XMLID_50_"
       style="fill:none;stroke:#000000;stroke-miterlimit:10" /><line
       y2="330.10001"
       x2="256.29999"
       y1="327.89999"
       x1="256.20001"
       class="st0"
       id="XMLID_49_"
       style="fill:none;stroke:#000000;stroke-miterlimit:10" /><path
       d="M 233.5,327.2"
       class="st2"
       id="XMLID_47_"
       inkscape:connector-curvature="0"
       style="fill:#cbe9fa;stroke:#000000;stroke-miterlimit:10" /><path
       d="m 255.6,329.2 c 0.4,0.3 0.6,0.6 0.6,0.9 0,1.6 -4.9,2.9 -10.9,2.9 -6,0 -10.9,-1.3 -10.9,-2.9 0,-0.3 0.2,-0.6 0.5,-0.9"
       class="st0"
       id="XMLID_10_"
       inkscape:connector-curvature="0"
       style="fill:none;stroke:#000000;stroke-miterlimit:10" /><path
       d="m 234.9,329.3 c 1.4,-1.2 5.5,-2 10.4,-2 4.8,0 8.9,0.8 10.3,1.9"
       class="st3"
       id="XMLID_2_"
       inkscape:connector-curvature="0"
       style="fill:none;stroke:#4d4d4f;stroke-miterlimit:10" /><ellipse
       ry="2.9000001"
       rx="10.9"
       cy="327.89999"
       cx="245.3"
       class="st0"
       id="XMLID_51_"
       style="fill:none;stroke:#000000;stroke-miterlimit:10" /></g></svg>