<?xml version="1.0" encoding="UTF-8" standalone="no"?>
<svg
   xmlns:dc="http://purl.org/dc/elements/1.1/"
   xmlns:cc="http://creativecommons.org/ns#"
   xmlns:rdf="http://www.w3.org/1999/02/22-rdf-syntax-ns#"
   xmlns:svg="http://www.w3.org/2000/svg"
   xmlns="http://www.w3.org/2000/svg"
   xmlns:sodipodi="http://sodipodi.sourceforge.net/DTD/sodipodi-0.dtd"
   xmlns:inkscape="http://www.inkscape.org/namespaces/inkscape"
   version="1.1"
   id="Layer_1"
   x="0px"
   y="0px"
   viewBox="0 0 48 48"
   xml:space="preserve"
   inkscape:version="0.91 r13725"
   sodipodi:docname="5mLPipette.svg"
   width="48"
   height="48"><metadata
     id="metadata365"><rdf:rdf><cc:work
         rdf:about=""><dc:format>image/svg+xml</dc:format><dc:type
           rdf:resource="http://purl.org/dc/dcmitype/StillImage" /><dc:title /></cc:work></rdf:rdf><rdf:RDF><cc:Work
         rdf:about=""><dc:format>image/svg+xml</dc:format><dc:type
           rdf:resource="http://purl.org/dc/dcmitype/StillImage" /><dc:title></dc:title></cc:Work></rdf:RDF></metadata><defs
     id="defs363"><clipPath
       clipPathUnits="userSpaceOnUse"
       id="clipPath5754"><path
         sodipodi:nodetypes="sscccccccccsccsccsccccssssccsccscsccs"
         style="fill:none;stroke:#000000;stroke-width:0.22363783;stroke-linecap:round;stroke-linejoin:round;stroke-miterlimit:10"
         inkscape:connector-curvature="0"
         id="path5756"
         d="m 5.2496077,105.80307 0,47.59013 c 0,0.60382 -0.11182,1.20764 -0.20128,1.83383 -0.0894,0.76037 -0.22363,1.5431 -0.31309,2.30347 -0.0894,0.69328 -0.20127,1.38656 -0.29073,2.05747 -0.0224,0.11182 -0.0894,0.26836 -0.13418,0.29073 -0.17891,0.0224 -0.38018,0 -0.55909,-0.0224 -0.0447,0 -0.0671,-0.13418 -0.0895,-0.20127 -0.0447,-0.31309 -0.11182,-0.62619 -0.15655,-0.96164 -0.11182,-0.78274 -0.17891,-1.58783 -0.33545,-2.37056 -0.29073,-1.5431 -0.35782,-3.08621 -0.35782,-4.62931 0.0224,-15.27446 0,-30.54893 0,-45.82339 0,-0.46964 0.0224,-0.96164 -0.33546,-1.34183 -0.13418,-0.15654 -0.29073,-0.29073 -0.44728,-0.42491 -0.44727,-0.35782 -0.67091,-0.82746 -0.67091,-1.40892 0,-4.964757 0.0224,-9.907147 0,-14.871907 0,-0.71565 0.26837,-1.25238 0.8051,-1.63256 0.492,-0.35782 0.64855,-0.82746 0.64855,-1.40892 l 0,-0.20127 5e-6,-8.509405 5e-6,-16.962915 0,-7.84969 0,-0.15655 c 0,-0.11182 0.0671,-0.13418 0.20127,-0.13418 l 1.99038,0 c 0.17891,0 0.246,0.0447 0.246,0.17891 l 0,0.11182 0.01118,24.913255 0.01118,8.453505 c 0,0.42492 -0.0224,0.82746 0.246,1.18529 0.0895,0.11181 0.17891,0.22363 0.29073,0.29072 0.71564,0.44728 0.91692,1.11819 0.91692,1.92329 l 0,6.4855 0,7.872047 c 0,0.78273 -0.22364,1.40892 -0.87219,1.85619 -0.42491,0.29073 -0.55909,0.73801 -0.603825,1.25237 -0.022365,0.11177 3.5e-5,0.22364 3.5e-5,0.3131 z"
         class="st130" /></clipPath></defs><sodipodi:namedview
     pagecolor="#ffffff"
     bordercolor="#666666"
     borderopacity="1"
     objecttolerance="10"
     gridtolerance="10"
     guidetolerance="10"
     inkscape:pageopacity="0"
     inkscape:pageshadow="2"
     inkscape:window-width="1440"
     inkscape:window-height="791"
     id="namedview361"
     showgrid="false"
     inkscape:zoom="3.3712566"
     inkscape:cx="-8.0839964"
     inkscape:cy="75.308539"
     inkscape:window-x="0"
     inkscape:window-y="0"
     inkscape:window-maximized="1"
     inkscape:current-layer="Layer_1" /><style
     type="text/css"
     id="style3">
        .st0{fill:#05884E;}
        .st1{fill:#0A8D47;}
        .st2{fill:#287F55;}
        .st3{fill:#6293B2;}
        .st4{fill:#668C9E;}
        .st5{fill:#6799BE;}
        .st6{fill:#08844B;}
        .st7{fill:#77A3C0;}
        .st8{fill:#459460;}
        .st9{fill:#6497B9;}
        .st10{fill:#709DBE;}
        .st11{fill:#6D9DBD;}
        .st12{fill:#32865C;}
        .st13{fill:#629AB8;}
        .st14{fill:#7DA4BF;}
        .st15{fill:#6491B2;}
        .st16{fill:#6A99B4;}
        .st17{fill:#85ADCD;}
        .st18{fill:#5B95AA;}
        .st19{fill:#81AAC8;}
        .st20{fill:#6A99BC;}
        .st21{fill:#76A4C2;}
        .st22{fill:#6496B8;}
        .st23{fill:#78A1C3;}
        .st24{fill:#80A5C2;}
        .st25{fill:#6794BA;}
        .st26{fill:#638DA5;}
        .st27{fill:#768992;}
        .st28{fill:#81A8C6;}
        .st29{fill:#6F96B4;}
        .st30{fill:#6594B6;}
        .st31{fill:#709BB1;}
        .st32{fill:#94B7D2;}
        .st33{fill:#759DB0;}
        .st34{fill:#C4CDD6;}
        .st35{fill:#BECEDC;}
        .st36{fill:#278D52;}
        .st37{fill:#72A1BA;}
        .st38{fill:#588CA7;}
        .st39{fill:#5B8EAD;}
        .st40{fill:#5990B6;}
        .st41{fill:#5599B5;}
        .st42{fill:#6F9DC3;}
        .st43{fill:#AEC7DE;}
        .st44{fill:#598AAD;}
        .st45{fill:#5B96B6;}
        .st46{fill:#6494B6;}
        .st47{fill:#69BD6D;}
        .st48{fill:#6687AD;}
        .st49{fill:#5291AB;}
        .st50{fill:#6084A5;}
        .st51{fill:#6F8792;}
        .st52{fill:#4189AE;}
        .st53{fill:#52939A;}
        .st54{fill:#C1D2D7;}
        .st55{fill:#6185A0;}
        .st56{fill:#5390A8;}
        .st57{fill:#61BA68;}
        .st58{fill:#0AA24D;}
        .st59{fill:#2FB24B;}
        .st60{fill:#BECFD6;}
        .st61{fill:#28AA56;}
        .st62{fill:#09A14C;}
        .st63{fill:#0BA74E;}
        .st64{fill:#09875B;}
        .st65{fill:#078246;}
        .st66{fill:#067F4A;}
        .st67{fill:#83979E;}
        .st68{fill:#BCC7D1;}
        .st69{fill:#88919C;}
        .st70{fill:#F1F2F4;}
        .st71{fill:#E5EBEE;}
        .st72{fill:#BFD5E5;}
        .st73{fill:#0AA64D;}
        .st74{fill:#D0DCDE;}
        .st75{fill:#0A834F;}
        .st76{fill:#0F954E;}
        .st77{fill:#EDF0F4;}
        .st78{fill:#CCDEE6;}
        .st79{fill:#E4EBEF;}
        .st80{fill:#5B93B7;}
        .st81{fill:#BBD0DC;}
        .st82{fill:#F0F2F6;}
        .st83{fill:#5F92A7;}
        .st84{fill:#4B88AC;}
        .st85{fill:#89C688;}
        .st86{fill:#098850;}
        .st87{fill:#489E5C;}
        .st88{fill:#0D844D;}
        .st89{fill:#EBEEF0;}
        .st90{fill:#739FB7;}
        .st91{fill:#F7F7F9;}
        .st92{fill:#C4D8E6;}
        .st93{fill:#F8F8F8;}
        .st94{fill:#EAEDEF;}
        .st95{fill:#7DA6C4;}
        .st96{fill:#3EB458;}
        .st97{fill:#EAF2F7;}
        .st98{fill:#039E53;}
        .st99{fill:#00A057;}
        .st100{fill:#468C6E;}
        .st101{fill:#478C66;}
        .st102{fill:#5AB565;}
        .st103{fill:#14AB4E;}
        .st104{fill:#247F4E;}
        .st105{fill:#CEDFEC;}
        .st106{fill:#478660;}
        .st107{fill:#388158;}
        .st108{fill:#5890B1;}
        .st109{fill:#E9EFF1;}
        .st110{fill:#DAEAF4;}
        .st111{fill:#D8E6F2;}
        .st112{fill:#D6E7F3;}
        .st113{fill:#5E9A72;}
        .st114{fill:#178150;}
        .st115{fill:#80AAC3;}
        .st116{fill:#7FA6C5;}
        .st117{fill:#6498BB;}
        .st118{fill:#76A3C1;}
        .st119{fill:#75A4C7;}
        .st120{fill:#8AAECA;}
        .st121{fill:#6495B7;}
        .st122{fill:#DDE6EF;}
        .st123{fill:#E4F1F8;}
        .st124{fill:#D6E4EE;}
        .st125{fill:#F1F5F8;}
        .st126{fill:#C3D3E1;}
        .st127{fill:#77A3C4;}
        .st128{fill:#EDF3F6;}
        .st129{fill:#DCE9F2;}
        .st130{fill:none;stroke:#000000;stroke-linecap:round;stroke-linejoin:round;stroke-miterlimit:10;}
    </style><path
     class="st0"
     d="m 22.620432,11.446458 c -0.0067,-0.04706 -0.01344,-0.0874 -0.01344,-0.134463 0,-3.1733067 0,-6.3466157 0.0067,-9.5266467 0.0067,-0.03362 0.0067,-0.06051 0.01344,-0.09412 0.403387,-0.02017 0.806772,-0.04034 1.210159,-0.06723 0.174801,0.02017 0.356325,0.04034 0.531126,0.06051 0,0.02691 0.0067,0.04706 0.0067,0.07395 0,0.02017 0.0067,0.04706 0.0067,0.06723 0.02017,0.161354 0.03361,0.322708 0.05378,0.484063 -0.02017,0.04034 -0.04706,0.07396 -0.06723,0.114294 -0.141185,0.100848 -0.174801,0.242034 -0.141185,0.403388 -0.02017,0 -0.04034,0 -0.06051,0 0,-0.181526 0,-0.356325 0,-0.537851 0.262202,-0.127739 0.08068,-0.336156 0.121016,-0.524401 -0.08068,-0.0067 -0.13446,-0.01344 -0.188245,-0.01344 -0.181526,0 -0.36305,0 -0.544573,0 -0.268924,0 -0.531126,0 -0.80005,0 -0.02688,0.0874 -0.06723,0.181523 -0.06723,0.268924 0,3.1128 0,6.225602 0,9.3316767 0,0.02691 -0.0067,0.04706 -0.0067,0.07396 -0.02017,0.02017 -0.04034,0.02017 -0.06051,0.02017 z"
     id="path5"
     inkscape:connector-curvature="0"
     style="fill:#05884e" /><path
     class="st1"
     d="m 22.687663,11.446458 c 0,-0.02691 0.0067,-0.04706 0.0067,-0.07395 0.02017,0 0.04706,0.0067 0.06723,0.0067 0.02017,0.02017 0.04034,0.04034 0.06051,0.06051 0.02688,0 0.04706,0 0.07395,0 0.221862,0 0.443726,0 0.665587,0 0.188248,0 0.376497,0 0.584911,0 0.174801,-0.584911 0.06051,-1.169821 0.0874,-1.7412847 0.06723,0.02017 0.134463,0.04034 0.201695,0.06723 0,0.3764937 -0.0067,0.7529877 0.0067,1.1294837 0,0.114292 0.04706,0.235308 0.06723,0.3496 l 0,0 c -0.01344,0.0067 -0.03362,0.02017 -0.04706,0.02691 0.01344,0.01344 0.02691,0.02017 0.04706,0.03362 0,0 0.02017,0 0.02017,0 -0.0067,0.02688 -0.0067,0.04706 -0.01344,0.07395 -0.0067,0.04034 -0.01344,0.08067 -0.02017,0.121016 -0.578189,0 -1.156375,0 -1.734564,-0.0067 -0.02688,0.01344 -0.05379,-0.02688 -0.07395,-0.04706 z"
     id="path7"
     inkscape:connector-curvature="0"
     style="fill:#0a8d47" /><path
     class="st2"
     d="m 22.687663,11.446458 c 0.02691,0.02017 0.04706,0.06051 0.07395,0.06051 0.578189,0.0067 1.156375,0.0067 1.734564,0.0067 0,0.04706 0,0.0874 0,0.134463 -0.02017,0.0067 -0.04034,0.01344 -0.06051,0.02017 -0.06723,0 -0.141186,-0.0067 -0.208417,-0.0067 -0.02017,-0.0067 -0.03362,-0.0067 -0.05379,0 -0.49751,0 -0.995021,0.0067 -1.492531,0.0067 -0.02017,-0.0067 -0.04034,-0.01344 -0.06723,-0.01344 0,-0.06723 0,-0.141185 0,-0.208414 0.02691,0 0.04706,0 0.07395,0 z"
     id="path9"
     inkscape:connector-curvature="0"
     style="fill:#287f55" /><path
     class="st3"
     d="m 25.168492,8.6899833 c 0,0.826941 0,1.6606067 0,2.4875507 -0.01344,0 -0.03362,0 -0.04706,0 -0.0067,-0.04706 -0.01344,-0.0874 -0.02017,-0.134463 0,-0.04706 0,-0.09412 0,-0.141186 0.0067,-0.739543 0.01344,-1.4790827 0.02017,-2.2186267 l 0.02691,0 0.02017,0.0067 z"
     id="path11"
     inkscape:connector-curvature="0"
     style="fill:#6293b2" /><path
     class="st4"
     d="m 25.121429,11.177534 c 0.01344,0 0.03362,0 0.04706,0 -0.02017,0.04706 -0.04034,0.0874 -0.05379,0.134461 -0.154632,0.02017 -0.315986,0.04034 -0.470619,0.06051 -0.02017,0 -0.04706,0 -0.06723,0 -0.01344,-0.02017 -0.02691,-0.04034 -0.04034,-0.05378 0,0 -0.02017,0 -0.02017,0 0.0067,-0.02017 0.0067,-0.04034 0.0067,-0.06051 l 0,0 c 0.02017,-0.10757 0.04706,-0.208417 0.04706,-0.315987 0.0067,-0.410109 0.01344,-0.820219 0.01344,-1.2303277 0.02017,0 0.04706,0.0067 0.06723,0.0067 0,0.5109567 0,1.0219137 0,1.5395927 0.15463,0 0.275646,0 0.403385,0 0.01344,-0.03362 0.04034,-0.06051 0.06723,-0.08068 z"
     id="path13"
     inkscape:connector-curvature="0"
     style="fill:#668c9e" /><path
     class="st5"
     d="m 22.620432,-0.04333766 c 0.571466,-0.0067 1.136205,-0.0067 1.707672,-0.0067 0.05379,0 0.114292,0.04034 0.168077,0.06723 -0.02017,0 -0.04706,0 -0.06723,0 -0.60508,0 -1.21016,-0.0067 -1.808518,-0.0067 0,-0.02017 0,-0.03362 0,-0.05378 z"
     id="path15"
     inkscape:connector-curvature="0"
     style="fill:#6799be" /><path
     class="st6"
     d="m 24.381889,3.6543723 c 0,0.242033 0,0.484063 0,0.726096 0.04034,0.02017 0.0874,0.04706 0.127739,0.06723 0.02017,0.0067 0.04034,0.0067 0.06051,0.02017 0,0.01344 0,0.03362 0,0.04706 -0.10757,0.0067 -0.21514,0.0067 -0.322709,0.01344 -0.02688,0 -0.04706,-0.0067 -0.07395,-0.0067 0,-0.02017 0,-0.04706 -0.0067,-0.06723 l 0,0 c 0.04034,-0.02017 0.0874,-0.04706 0.127741,-0.06723 0,-0.342878 0.0067,-0.69248 0,-1.035358 0,-0.08068 -0.04034,-0.161354 -0.06723,-0.242033 0,-0.02017 0,-0.04706 0,-0.06723 l 0,0 c 0.04706,0 0.0874,0 0.134461,0 0,0.02017 0,0.04706 0,0.06723 0,0.134463 0.0067,0.268927 0.0067,0.403387 0.01344,0.04706 0.01344,0.09412 0.01344,0.141186 z"
     id="path17"
     inkscape:connector-curvature="0"
     style="fill:#08844b" /><path
     class="st7"
     d="m 22.754895,1.2945603 c 0,-0.30926196 0,-0.62524896 0,-0.93451096 l 0.0067,-0.01344 c 0.04706,0 0.0874,0.0067 0.134464,0.0067 0,0.04706 0,0.0874 0,0.134464 0,0.04706 0,0.0874 0,0.13446 0,0.228586 -0.0067,0.45044996 -0.0067,0.67903696 -0.05378,-0.0067 -0.09413,-0.0067 -0.134464,-0.0067 z"
     id="path19"
     inkscape:connector-curvature="0"
     style="fill:#77a3c0" /><path
     class="st8"
     d="m 22.754895,1.2945603 c 0.04034,0 0.0874,0 0.127739,0 0.161354,0 0.315986,0 0.477341,0 l 0.03362,0.0067 c 0,0 0.03362,-0.0067 0.03362,-0.0067 0.02688,0 0.05379,0 0.07395,0 0.04034,0 0.0874,0 0.127738,0 0.147911,0 0.295818,0 0.443726,0 0.04034,0 0.08068,0 0.121016,0 0.08068,0.02017 0.161355,0.04706 0.248755,0.06723 0,0 -0.02017,0.02017 -0.02017,0.02017 -0.618526,0 -1.237053,0 -1.85558,-0.0067 -0.0067,-0.0067 -0.01344,-0.01344 -0.02688,-0.02691 0.07395,-0.01344 0.141186,-0.03361 0.215139,-0.05378 z"
     id="path21"
     inkscape:connector-curvature="0"
     style="fill:#459460" /><path
     class="st9"
     d="m 24.496181,0.28609534 c -0.0874,0.02688 -0.168077,0.04706 -0.255477,0.07395 -0.02017,0.06723 -0.04034,0.134461 -0.06051,0.201692 0,0.0874 -0.0067,0.174802 -0.0067,0.262202 -0.04034,0.02017 -0.08068,0.04706 -0.121017,0.06723 -0.0067,-0.02017 -0.01344,-0.04706 -0.02017,-0.06723 0,-0.02691 -0.0067,-0.04706 -0.0067,-0.07395 0.0067,-0.02017 0.0067,-0.04034 0.0067,-0.06051 0.0067,-0.09412 0.0067,-0.181523 0.01344,-0.275646 0.02017,-0.04034 0.04034,-0.08068 0.06051,-0.121017 0.114295,0 0.228586,-0.0067 0.336156,-0.0067 0.01344,0 0.03362,0 0.05379,0 z"
     id="path23"
     inkscape:connector-curvature="0"
     style="fill:#6497b9" /><path
     class="st10"
     d="m 22.633879,12.11877 c 0,-0.06723 0,-0.134464 0,-0.201696 0.02017,0 0.04034,0 0.06051,0 0.02017,0 0.03362,0 0.05378,0 0.0067,0.02017 0.0067,0.04034 0.0067,0.06723 0,0.02017 0,0.04706 0,0.06723 0,0.201692 0.0067,0.403384 0.0067,0.60508 0,0.114291 0,0.221861 -0.0067,0.336156 -0.02017,0 -0.04706,0 -0.06723,0 -0.0067,-0.10757 -0.01344,-0.221865 -0.02017,-0.329434 0,-0.134461 0.0067,-0.268924 0.0067,-0.403388 -0.0067,-0.04706 -0.02688,-0.09412 -0.04034,-0.141182 z"
     id="path25"
     inkscape:connector-curvature="0"
     style="fill:#709dbe" /><path
     class="st11"
     d="m 24.435674,11.668319 c 0.02017,-0.0067 0.04034,-0.01344 0.06051,-0.02017 0,0.181524 0,0.356325 0,0.537848 -0.02017,0.04706 -0.04034,0.09413 -0.06723,0.141186 -0.02017,0 -0.03362,0 -0.05378,0 0,-0.114292 -0.0067,-0.221861 -0.0067,-0.336156 0,-0.02017 0,-0.04706 0,-0.06723 0,-0.02017 0,-0.04706 0,-0.06723 0,0 0.01344,0 0.01344,0 0.02017,-0.06723 0.03361,-0.127739 0.05378,-0.188249 z"
     id="path27"
     inkscape:connector-curvature="0"
     style="fill:#6d9dbd" /><path
     class="st12"
     d="m 24.90629,4.5216543 c 0.02017,0.04034 0.04706,0.0874 0.06723,0.127738 0,0.02691 0,0.05379 0,0.08068 -0.0067,0.24203 -0.0067,0.490785 -0.01344,0.732818 -0.02017,0 -0.03362,0 -0.05378,0 0,-0.0874 -0.0067,-0.174801 -0.0067,-0.268924 0,-0.201695 0,-0.410109 0,-0.611804 0,-0.02017 0,-0.03362 -0.01344,-0.04706 l 0.02017,-0.01344 z"
     id="path29"
     inkscape:connector-curvature="0"
     style="fill:#32865c" /><path
     class="st13"
     d="m 25.242446,7.4125923 c 0,0.19497 0.0067,0.389941 0,0.578186 0,0.05379 -0.04034,0.10757 -0.06051,0.161354 l -0.0067,0 c 0,-0.09412 0,-0.188245 -0.0067,-0.275646 0,-0.0874 0,-0.174801 0,-0.25548 0.01344,-0.114291 0.02017,-0.221861 0.03362,-0.336155 0.01344,0.04034 0.02688,0.08068 0.04034,0.127741 z"
     id="path31"
     inkscape:connector-curvature="0"
     style="fill:#629ab8" /><path
     class="st14"
     d="m 25.450863,4.7905783 c 0.114292,0.161354 0.08068,0.322709 -0.02017,0.477341 -0.01344,0 -0.03362,0 -0.04706,0 0,-0.10757 0,-0.221864 -0.0067,-0.329434 0.01344,-0.01344 0.02688,-0.02688 0.03361,-0.04706 -0.01344,-0.01344 -0.02688,-0.02691 -0.04034,-0.04034 0,-0.02017 0,-0.04034 0,-0.06051 l 0,-0.02017 c 0.03362,0.0067 0.06051,0.01344 0.08068,0.02017 z"
     id="path33"
     inkscape:connector-curvature="0"
     style="fill:#7da4bf" /><path
     class="st15"
     d="m 25.3164,6.4041253 c -0.0067,0.248755 -0.01344,0.490788 -0.01344,0.739543 -0.02688,0 -0.04706,0 -0.07395,0 0,-0.201695 0,-0.403387 0.0067,-0.598358 0.0067,-0.04034 0.01344,-0.0874 0.02017,-0.127738 0.02017,-0.0067 0.04034,-0.01344 0.06051,-0.01344 z"
     id="path35"
     inkscape:connector-curvature="0"
     style="fill:#6491b2" /><path
     class="st16"
     d="m 22.620432,-0.04333766 c 0,0.02017 0,0.03361 0,0.05378 -0.02017,0.02691 -0.03361,0.05378 -0.05379,0.08068 0,0.04034 0,0.08068 -0.0067,0.121014 0.06723,0.02691 0.127738,0.05378 0.19497,0.08068 0,0.02017 0,0.03362 0,0.05379 l -0.0067,0.01344 c -0.07396,-0.0067 -0.154633,-0.01344 -0.25548,-0.02017 0,-0.121016 0,-0.235311 0,-0.369772 0.04706,-0.0067 0.0874,-0.0067 0.127738,-0.01344 z"
     id="path37"
     inkscape:connector-curvature="0"
     style="fill:#6a99b4" /><path
     class="st17"
     d="m 24.375164,13.342373 c -0.02017,-0.07395 -0.04706,-0.141185 -0.06723,-0.215139 0,-0.0874 0,-0.174801 0,-0.262199 0.02017,-0.0067 0.04034,-0.0067 0.06051,-0.0067 0.02017,0.02017 0.04034,0.04034 0.06051,0.06051 -0.02017,0.141185 -0.04034,0.282368 -0.05378,0.423553 z"
     id="path39"
     inkscape:connector-curvature="0"
     style="fill:#85adcd" /><path
     class="st18"
     d="m 24.381889,1.8391333 c 0,-0.02017 -0.0067,-0.04706 -0.0067,-0.06723 0.02017,-0.0067 0.04034,-0.0067 0.06051,-0.01344 0.0874,0.0067 0.174799,0.01344 0.255477,0.02017 0.02691,0.01344 0.05379,0.02688 0.08068,0.04034 0.04034,0.02688 0.0874,0.05379 0.127739,0.08067 0,0.02017 0,0.03362 0.0067,0.05379 -0.02017,0.0067 -0.04034,0.0067 -0.06051,0.0067 -0.06723,-0.02691 -0.134464,-0.04706 -0.19497,-0.07395 -0.0874,-0.01344 -0.181524,-0.03362 -0.268924,-0.04706 z"
     id="path41"
     inkscape:connector-curvature="0"
     style="fill:#5b95aa" /><path
     class="st19"
     d="m 25.3164,2.2963053 c 0.06723,0.174801 0.188248,0.3496 0.06723,0.551295 -0.02017,-0.06723 -0.04034,-0.141186 -0.06051,-0.208417 -0.02017,-0.09412 -0.04034,-0.181524 -0.06051,-0.275649 0.01344,-0.02017 0.03362,-0.04034 0.05379,-0.06723 z"
     id="path43"
     inkscape:connector-curvature="0"
     style="fill:#81aac8" /><path
     class="st20"
     d="m 23.897823,15.25846 c -0.221861,0.0067 -0.443725,0.01344 -0.672309,0.01344 0,-0.02017 -0.0067,-0.04034 0,-0.06051 0.221862,0.0067 0.450448,0.0067 0.672309,0.01344 l 0,0.03362 z"
     id="path45"
     inkscape:connector-curvature="0"
     style="fill:#6a99bc" /><path
     class="st21"
     d="m 25.437416,5.5301213 c -0.02017,0.134461 -0.04706,0.268924 -0.06723,0.41011 -0.01344,0 -0.03362,0 -0.04706,0 0,-0.10757 -0.0067,-0.221865 -0.0067,-0.329434 0.02017,-0.02688 0.04034,-0.05379 0.06051,-0.07395 0.02017,-0.0067 0.04034,-0.0067 0.06051,-0.0067 z"
     id="path47"
     inkscape:connector-curvature="0"
     style="fill:#76a4c2" /><path
     class="st22"
     d="m 24.422227,12.91882 c -0.02017,-0.02017 -0.04034,-0.04034 -0.06051,-0.06051 0,-0.13446 -0.0067,-0.268924 -0.0067,-0.396663 0.0067,-0.04706 0.01344,-0.0874 0.01344,-0.134463 0.02017,0 0.03362,0 0.05379,0 0.0067,0.0874 0.0067,0.181523 0.01344,0.268924 0,0.10757 -0.0067,0.215142 -0.01344,0.322712 z"
     id="path49"
     inkscape:connector-curvature="0"
     style="fill:#6496b8" /><path
     class="st23"
     d="m 25.323125,2.6391833 c 0.02017,0.06723 0.04034,0.141185 0.06051,0.208417 -0.02017,0.0874 -0.04706,0.174801 -0.06723,0.262199 -0.02017,-0.02017 -0.03362,-0.04706 -0.05379,-0.06723 0.02017,-0.134463 0.04034,-0.268924 0.06051,-0.403387 z"
     id="path51"
     inkscape:connector-curvature="0"
     style="fill:#78a1c3" /><path
     class="st24"
     d="m 25.296231,3.1703093 c -0.0874,0.0874 -0.168077,0.181523 -0.255477,0.268924 0,-0.02688 0,-0.05378 0,-0.07395 0.06723,-0.0874 0.13446,-0.174801 0.201692,-0.25548 0.02017,0.02017 0.03362,0.04034 0.05378,0.06051 z"
     id="path53"
     inkscape:connector-curvature="0"
     style="fill:#80a5c2" /><path
     class="st25"
     d="m 25.168492,8.6899833 -0.02691,0 -0.02688,0 c 0,-0.181526 0.0067,-0.356324 0.0067,-0.537851 0.02017,0 0.03362,0 0.05379,0 l 0.0067,0.0067 c -0.0067,0.174802 -0.01344,0.356325 -0.01344,0.531126 z"
     id="path55"
     inkscape:connector-curvature="0"
     style="fill:#6794ba" /><path
     class="st26"
     d="m 24.980244,4.7300713 c 0,-0.02691 0,-0.05378 0,-0.08068 0.134463,0.02691 0.268924,0.05379 0.403387,0.08068 0,0.01344 0,0.02688 0.0067,0.04034 l 0,0.02017 c -0.01344,-0.0067 -0.03362,-0.0067 -0.05378,-0.0067 -0.127738,-0.02017 -0.24203,-0.03362 -0.356324,-0.05378 z"
     id="path57"
     inkscape:connector-curvature="0"
     style="fill:#638da5" /><path
     class="st27"
     d="m 24.637366,11.372504 c 0.154633,-0.02017 0.315987,-0.04034 0.470616,-0.06051 -0.154629,0.02017 -0.315983,0.04034 -0.470616,0.06051 z"
     id="path59"
     inkscape:connector-curvature="0"
     style="fill:#768992" /><path
     class="st8"
     d="m 22.620432,1.6979473 c -0.0067,0.03362 -0.0067,0.06051 -0.01344,0.09412 -0.181527,-0.121014 -0.141186,-0.275646 -0.06723,-0.437001 0.0067,0.0067 0.01344,0.01344 0.02688,0.02688 -0.0067,0.02017 -0.01344,0.04034 -0.0067,0.06051 0,0.02017 0,0.04034 0,0.06051 0.02017,0.06051 0.04034,0.127738 0.06051,0.19497 l 0,0 z"
     id="path61"
     inkscape:connector-curvature="0"
     style="fill:#459460" /><path
     class="st28"
     d="m 25.3164,6.4041253 c -0.02017,0 -0.04034,0 -0.06051,0.0067 -0.0067,-0.06723 -0.0067,-0.134461 -0.01344,-0.201692 0.02017,-0.02691 0.04034,-0.04706 0.06051,-0.07395 0.02017,0 0.04034,0 0.06051,0 -0.01344,0.0874 -0.02691,0.181523 -0.04706,0.268924 z"
     id="path63"
     inkscape:connector-curvature="0"
     style="fill:#81a8c6" /><path
     class="st29"
     d="m 24.381889,3.6543723 c 0,-0.04706 -0.0067,-0.0874 -0.0067,-0.134461 0.0874,0 0.174801,0 0.262202,0 0.02017,0 0.04034,0.0067 0.06051,0.01344 0,0.02017 0,0.04034 0,0.06051 -0.100845,0.02017 -0.208414,0.04034 -0.315984,0.06051 z"
     id="path65"
     inkscape:connector-curvature="0"
     style="fill:#6f96b4" /><path
     class="st30"
     d="m 24.045733,0.89117534 c 0.04034,-0.02017 0.08068,-0.04706 0.121014,-0.06723 0,0.06723 -0.0067,0.134461 -0.0067,0.20169296 -0.02017,0.02017 -0.04034,0.04034 -0.05379,0.06723 -0.02017,0 -0.03362,0 -0.05378,0.0067 0,-0.07395 0,-0.14118496 -0.0067,-0.20841396 z"
     id="path67"
     inkscape:connector-curvature="0"
     style="fill:#6594b6" /><path
     class="st31"
     d="m 25.228999,7.1369433 c 0.02691,0 0.04706,0 0.07395,0 -0.02017,0.0874 -0.04034,0.181523 -0.06051,0.268924 -0.01344,-0.04706 -0.02688,-0.0874 -0.04034,-0.13446 -0.0067,-0.04034 -0.01344,-0.08068 -0.02017,-0.121017 0.01344,0 0.03362,-0.0067 0.04706,-0.01344 z"
     id="path69"
     inkscape:connector-curvature="0"
     style="fill:#709bb1" /><path
     class="st32"
     d="m 23.225514,15.2114 c 0,0.02017 0,0.04034 0,0.06051 -0.09413,-0.02017 -0.181526,-0.04034 -0.275649,-0.05379 0,-0.02691 0.0067,-0.05378 0.0067,-0.07395 0.04034,0 0.08068,0.0067 0.127742,0.0067 0.04706,0.02017 0.09412,0.04034 0.141185,0.06051 z"
     id="path71"
     inkscape:connector-curvature="0"
     style="fill:#94b7d2" /><path
     class="st33"
     d="m 23.897823,15.25846 c 0,0 0,-0.03362 0,-0.03362 0.0874,-0.02688 0.168079,-0.05378 0.25548,-0.08067 0.02688,0 0.04706,0 0.07395,0.0067 -0.10757,0.03361 -0.215139,0.06723 -0.329434,0.107569 z"
     id="path73"
     inkscape:connector-curvature="0"
     style="fill:#759db0" /><path
     class="st34"
     d="m 22.687663,12.259952 c 0,0.134464 -0.0067,0.268927 -0.0067,0.403388 -0.01344,-0.134461 -0.03362,-0.275646 -0.04706,-0.41011 0.01344,0 0.03362,0 0.05378,0.0067 z"
     id="path75"
     inkscape:connector-curvature="0"
     style="fill:#c4cdd6" /><path
     class="st35"
     d="m 24.442396,12.589386 c -0.0067,-0.0874 -0.0067,-0.181523 -0.01344,-0.268924 0.02017,-0.04706 0.04034,-0.09412 0.06723,-0.141185 -0.02017,0.141185 -0.03362,0.275645 -0.05378,0.410109 z"
     id="path77"
     inkscape:connector-curvature="0"
     style="fill:#becedc" /><path
     class="st36"
     d="m 24.570134,4.5149323 c 0,-0.01344 0,-0.03362 0,-0.04706 0.114295,0.02017 0.228587,0.04034 0.336156,0.06051 l -0.01344,0.0067 c -0.02017,-0.0067 -0.04034,-0.0067 -0.06051,-0.0067 -0.06051,0 -0.127738,0.0067 -0.188248,0.0067 -0.02688,-0.01344 -0.05378,-0.01344 -0.07395,-0.02017 z"
     id="path79"
     inkscape:connector-curvature="0"
     style="fill:#278d52" /><path
     class="st37"
     d="m 25.040754,1.9735963 c 0.06723,0.06723 0.127738,0.134461 0.19497,0.201692 -0.02691,0 -0.04706,0 -0.07396,0 -0.04034,-0.04034 -0.08068,-0.0874 -0.127739,-0.127738 0.0067,-0.02691 0.0067,-0.05378 0.0067,-0.07395 z"
     id="path81"
     inkscape:connector-curvature="0"
     style="fill:#72a1ba" /><path
     class="st38"
     d="m 24.052455,1.0928673 c 0.02017,0 0.03362,0 0.05379,-0.0067 0.02017,0 0.04034,0 0.06051,0 0.0067,0.06723 0.01344,0.134461 0.02691,0.201693 -0.04034,0 -0.08068,0 -0.121016,0 -0.0067,-0.06051 -0.01344,-0.127739 -0.02017,-0.194971 z"
     id="path83"
     inkscape:connector-curvature="0"
     style="fill:#588ca7" /><path
     class="st8"
     d="m 24.435674,1.3617913 c 0,0.114295 0,0.221865 0,0.336156 0,0 -0.02017,-0.01344 -0.02017,-0.01344 0,-0.100844 0,-0.201692 0,-0.30254 0,0 0.02017,-0.02017 0.02017,-0.02017 z"
     id="path85"
     inkscape:connector-curvature="0"
     style="fill:#459460" /><path
     class="st39"
     d="m 25.437416,5.5301213 c -0.02017,0 -0.04034,0 -0.06051,0 0,-0.06723 -0.0067,-0.134463 -0.0067,-0.201695 0.0067,-0.02017 0.01344,-0.04706 0.02017,-0.06723 0.01344,0 0.03362,0 0.04706,0 0,0.09412 0,0.181523 0,0.268924 z"
     id="path87"
     inkscape:connector-curvature="0"
     style="fill:#5b8ead" /><path
     class="st40"
     d="m 24.496181,0.28609534 c -0.02017,0 -0.04034,0 -0.06051,0 0,-0.02691 -0.0067,-0.04706 -0.0067,-0.07396 0,-0.04034 0,-0.08068 0,-0.127739 0,-0.02017 0.0067,-0.04706 0.0067,-0.06723 0.02017,0 0.04706,0 0.06723,0 -0.0067,0.0874 -0.0067,0.181527 -0.0067,0.268927 z"
     id="path89"
     inkscape:connector-curvature="0"
     style="fill:#5990b6" /><path
     class="st41"
     d="m 24.704598,3.5871403 c 0,-0.02017 0,-0.04034 0,-0.06051 0.06723,-0.02691 0.13446,-0.04706 0.201692,-0.07395 0,0.02017 0,0.04034 0,0.05378 -0.06723,0.03362 -0.13446,0.06051 -0.201692,0.08068 z"
     id="path91"
     inkscape:connector-curvature="0"
     style="fill:#5599b5" /><path
     class="st42"
     d="m 22.687663,11.917074 c -0.02017,0 -0.04034,0 -0.06051,0 -0.0067,-0.0874 -0.0067,-0.174801 -0.01344,-0.262202 0.02017,0.0067 0.04034,0.01344 0.06723,0.01344 0.0067,0.0874 0.0067,0.16808 0.0067,0.248755 z"
     id="path93"
     inkscape:connector-curvature="0"
     style="fill:#6f9dc3" /><path
     class="st43"
     d="m 24.173472,0.56174134 c 0.02017,-0.06723 0.04034,-0.13446 0.06051,-0.201692 -0.02017,0.06723 -0.04034,0.134461 -0.06051,0.201692 z"
     id="path95"
     inkscape:connector-curvature="0"
     style="fill:#aec7de" /><path
     class="st44"
     d="m 25.370185,6.1352013 c -0.02017,0 -0.04034,0.0067 -0.06051,0 0,-0.06723 -0.0067,-0.134464 -0.0067,-0.201695 l 0.01344,0.0067 c 0.01344,0 0.03362,-0.0067 0.04706,0 0.0067,0.06051 0.0067,0.127738 0.0067,0.19497 z"
     id="path97"
     inkscape:connector-curvature="0"
     style="fill:#598aad" /><path
     class="st45"
     d="m 25.3164,2.2963053 c -0.02017,0.02017 -0.03362,0.04706 -0.05379,0.06723 -0.0067,-0.04034 -0.01344,-0.08068 -0.02017,-0.127739 l 0.01344,-0.01344 c 0.01344,0.02688 0.04034,0.05378 0.06051,0.07395 z"
     id="path99"
     inkscape:connector-curvature="0"
     style="fill:#5b96b6" /><path
     class="st46"
     d="m 25.296231,3.1703093 c -0.02017,-0.02017 -0.03362,-0.04034 -0.05378,-0.06051 0,-0.02017 0.0067,-0.04706 0.02017,-0.06051 0.02017,0.02017 0.03362,0.04706 0.05379,0.06723 0,0.02017 -0.0067,0.04034 -0.02017,0.05379 z"
     id="path101"
     inkscape:connector-curvature="0"
     style="fill:#6494b6" /><path
     class="st42"
     d="m 22.687663,12.259952 c -0.02017,0 -0.04034,-0.0067 -0.06051,-0.0067 0,-0.04034 0.0067,-0.08067 0.0067,-0.127738 0.01344,0.04034 0.03362,0.0874 0.05379,0.13446 z"
     id="path103"
     inkscape:connector-curvature="0"
     style="fill:#6f9dc3" /><path
     class="st47"
     d="m 24.509628,4.4477003 c -0.04034,-0.02017 -0.0874,-0.04706 -0.127739,-0.06723 0.04034,0.02017 0.0874,0.04706 0.127739,0.06723 z"
     id="path105"
     inkscape:connector-curvature="0"
     style="fill:#69bd6d" /><path
     class="st48"
     d="m 25.040754,1.9735963 c 0,0.02688 0,0.04706 0,0.07395 -0.02017,-0.0067 -0.04034,-0.0067 -0.06051,-0.0067 0,-0.02017 0,-0.04706 0,-0.06723 l 0,0 c 0.01344,-0.0067 0.04034,-0.0067 0.06051,0 z"
     id="path107"
     inkscape:connector-curvature="0"
     style="fill:#6687ad" /><path
     class="st49"
     d="m 24.913012,1.9534243 c 0,-0.02017 -0.0067,-0.03361 -0.0067,-0.05378 0.02017,0.02017 0.04706,0.04034 0.06723,0.06723 0,0 0,0 0,0 -0.02017,0.0067 -0.04706,0.0067 -0.06723,0.01344 l 0.0067,-0.02691 z"
     id="path109"
     inkscape:connector-curvature="0"
     style="fill:#5291ab" /><path
     class="st50"
     d="m 25.040754,3.3652793 c 0,0.02688 0,0.05378 0,0.07395 -0.02017,0 -0.04706,0 -0.06723,0 0,0 0,0 0,0 0.02017,-0.02017 0.04034,-0.04706 0.06723,-0.07395 z"
     id="path111"
     inkscape:connector-curvature="0"
     style="fill:#6084a5" /><path
     class="st51"
     d="m 25.37691,4.7704093 c 0,-0.01344 0,-0.02691 -0.0067,-0.04034 0.02691,0.02017 0.05378,0.04034 0.07395,0.06051 -0.01344,-0.0067 -0.04034,-0.01344 -0.06723,-0.02017 z"
     id="path113"
     inkscape:connector-curvature="0"
     style="fill:#6f8792" /><path
     class="st52"
     d="m 24.166747,1.0928673 c -0.02017,0 -0.04034,0 -0.06051,0 0.02017,-0.02017 0.04034,-0.04034 0.05379,-0.06723 0,0.02691 0.0067,0.04706 0.0067,0.06723 z"
     id="path115"
     inkscape:connector-curvature="0"
     style="fill:#4189ae" /><path
     class="st53"
     d="m 24.90629,3.5131863 c 0,-0.02017 0,-0.04034 0,-0.05378 0.02017,0 0.04034,-0.0067 0.06723,-0.0067 0,0 0,0 0,0 -0.02017,0.01344 -0.04706,0.04034 -0.06723,0.06051 z"
     id="path117"
     inkscape:connector-curvature="0"
     style="fill:#52939a" /><path
     class="st54"
     d="m 24.778552,1.8189643 c -0.02691,-0.01344 -0.05379,-0.02691 -0.08068,-0.04034 0.02017,0.01344 0.04706,0.02688 0.08068,0.04034 z"
     id="path119"
     inkscape:connector-curvature="0"
     style="fill:#c1d2d7" /><path
     class="st8"
     d="m 24.435674,1.7584543 c -0.02017,0.0067 -0.04034,0.0067 -0.06051,0.01344 0,-0.02688 -0.0067,-0.04706 -0.0067,-0.07395 l 0,0 c 0.02017,0 0.03362,0 0.05378,-0.01344 l 0.01344,0.01344 c 0,0.02017 0,0.04034 0,0.06051 z"
     id="path121"
     inkscape:connector-curvature="0"
     style="fill:#459460" /><path
     class="st27"
     d="m 24.529797,11.311995 c 0.01344,0.02017 0.02688,0.04034 0.04034,0.05379 -0.02017,0.0067 -0.03362,0.01344 -0.05379,0.01344 0,-0.01344 0.0067,-0.04034 0.01344,-0.06723 z"
     id="path123"
     inkscape:connector-curvature="0"
     style="fill:#768992" /><path
     class="st55"
     d="m 22.963312,15.137444 c 0,0.02691 -0.0067,0.05378 -0.0067,0.07396 -0.02017,-0.02017 -0.04706,-0.04706 -0.06723,-0.06723 0,0 0.0067,0 0.0067,0 0.02017,0 0.04034,0 0.06723,-0.0067 l 0,0 z"
     id="path125"
     inkscape:connector-curvature="0"
     style="fill:#6185a0" /><path
     class="st56"
     d="m 25.161767,2.1685663 c 0.02691,0 0.04706,0 0.07396,0 0.01344,0.02017 0.02017,0.03361 0.01344,0.06051 l -0.01344,0.01344 c -0.02017,-0.02691 -0.04706,-0.04706 -0.07396,-0.07395 z"
     id="path127"
     inkscape:connector-curvature="0"
     style="fill:#5390a8" /><path
     class="st57"
     d="m 23.554945,11.446458 c -0.221861,0 -0.443725,0 -0.665586,0 0,-3.1665867 0,-6.3331707 0,-9.5333717 -0.02691,-0.03362 -0.08068,-0.0874 -0.127742,-0.141185 0.268927,0 0.531126,0 0.80005,0 0,1.169822 0.0067,2.339643 0,3.509465 -0.0067,0.658865 -0.04706,1.317729 -0.06051,1.969872 -0.0067,0.208414 0.06051,0.416831 0.06051,0.625248 0,1.189991 0,2.3799817 -0.0067,3.5699717 z"
     id="path129"
     inkscape:connector-curvature="0"
     style="fill:#61ba68" /><path
     class="st58"
     d="m 23.554945,11.446458 c 0,-1.18999 0.0067,-2.3732587 0,-3.5632497 0,-0.208417 -0.06051,-0.416831 -0.06051,-0.625248 0.01344,-0.658865 0.05379,-1.317729 0.06051,-1.969872 0.0067,-1.169822 0,-2.339643 0,-3.509462 0.181523,0 0.363047,0 0.544573,0 0.07395,0.154629 0.127739,0.309262 0,0.470616 -0.01344,-0.01344 -0.02017,-0.02688 0,0 -0.02691,-0.02017 -0.01344,-0.01344 0,0 0.02017,0.02017 0.04706,0.04706 0.06723,0.06723 0,0.181523 0,0.356325 0,0.537848 0,0.06723 0,0.134463 0,0.201692 0,0.02017 0,0.04706 0,0.06723 -0.02688,0.121016 -0.06051,0.242033 -0.08068,0.36305 -0.01344,0.08067 -0.01344,0.161354 -0.0067,0.235308 0.02688,0.248755 0.05379,0.49751 0.0874,0.746265 0,0.02017 0,0.04706 0.0067,0.06723 0,1.633716 0,3.267432 0,4.901148 0,0.09412 0.04034,0.188245 0.06051,0.275646 -0.03362,0.5714637 0.0874,1.1563737 -0.0874,1.7412847 -0.215139,-0.0067 -0.403384,-0.0067 -0.591633,-0.0067 z m 0.430279,-4.4170837 c 0.01344,0 0.02017,0 0.03362,0 0,-0.329431 0,-0.652143 0,-0.981574 -0.01344,0 -0.02017,0 -0.03362,0 0,0.329431 0,0.652143 0,0.981574 z m -0.0067,1.606825 c 0.01344,0 0.02017,-0.0067 0.03362,-0.0067 0,-0.141186 0,-0.275646 0,-0.416832 -0.01344,0 -0.02017,0 -0.03362,0 0,0.141186 0,0.282371 0,0.423557 z"
     id="path131"
     inkscape:connector-curvature="0"
     style="fill:#0aa24d" /><path
     class="st59"
     d="m 22.761617,1.7719013 c 0.05378,0.05379 0.100848,0.114294 0.127742,0.141185 0,3.200201 0,6.366785 0,9.5333717 -0.02691,0 -0.04706,0 -0.07396,0 -0.02017,-0.02017 -0.04034,-0.04034 -0.06051,-0.06051 -0.02017,0 -0.04706,-0.0067 -0.06723,-0.0067 0,-3.1127987 0,-6.2255987 0,-9.3316757 0,-0.100848 0.04706,-0.188248 0.07395,-0.275649 z"
     id="path133"
     inkscape:connector-curvature="0"
     style="fill:#2fb24b" /><path
     class="st60"
     d="m 24.227257,2.8408753 c -0.03362,-0.161354 0,-0.30254 0.141185,-0.403385 0.06051,0.0067 0.127739,0.0067 0.188245,0.01344 0.04706,0.04034 0.09413,0.08068 0.141186,0.127742 0.06723,0.168076 -0.03362,0.282368 -0.141186,0.38994 -0.06051,0 -0.121013,0 -0.188245,0 -0.04034,-0.03361 -0.0874,-0.06723 -0.127738,-0.107572 l -0.01344,-0.02017 z"
     id="path135"
     inkscape:connector-curvature="0"
     style="fill:#becfd6" /><path
     class="st61"
     d="m 23.830594,1.6307153 c -0.403387,0.02017 -0.806775,0.04034 -1.210162,0.06723 0,0 0,0 0,0 0,-0.02017 0,-0.04706 0,-0.06723 0.06723,0 0.134463,0 0.201695,0 0.215139,0 0.430278,0 0.652142,0 0.0067,-0.09412 0.01344,-0.147907 0.01344,-0.201692 0.114295,0 0.221865,0 0.336156,0 0.0067,0.06723 0.0067,0.134461 0.0067,0.201692 z"
     id="path137"
     inkscape:connector-curvature="0"
     style="fill:#28aa56" /><path
     class="st62"
     d="m 23.830594,1.6307153 c 0,-0.06723 0,-0.13446 0,-0.201692 0.134461,0 0.268924,0 0.403385,0 0,0.09412 -0.02017,0.201692 0.127738,0.201692 0,0.02017 0,0.04034 0,0.06723 l 0,0 c -0.174798,-0.02688 -0.356325,-0.04706 -0.531123,-0.06723 z"
     id="path139"
     inkscape:connector-curvature="0"
     style="fill:#09a14c" /><path
     class="st63"
     d="m 24.166747,2.3030273 c -0.02017,-0.02017 -0.04706,-0.04706 -0.06723,-0.06723 l 0,0 c 0.127738,-0.154629 0.07395,-0.309262 0,-0.470616 0.05379,0.0067 0.107569,0.0067 0.188245,0.01344 -0.03362,0.188245 0.147911,0.396662 -0.121016,0.524401 z"
     id="path141"
     inkscape:connector-curvature="0"
     style="fill:#0ba74e" /><path
     class="st54"
     d="m 24.381889,1.8391333 c 0.0874,0.02017 0.181523,0.03361 0.268924,0.05378 -0.06051,0.01344 -0.127738,0.02017 -0.215139,0.03362 0,0.134461 0,0.248755 0,0.369772 l 0,0.03362 c -0.02017,-0.16808 -0.03362,-0.329434 -0.05378,-0.490788 z"
     id="path143"
     inkscape:connector-curvature="0"
     style="fill:#c1d2d7" /><path
     class="st64"
     d="m 24.556687,2.4509343 c -0.06051,-0.0067 -0.127738,-0.0067 -0.188245,-0.01344 0.02017,-0.04034 0.04706,-0.07396 0.06723,-0.114294 l 0,-0.03362 c 0.04034,0.0067 0.08068,0.01344 0.121014,0.02017 0.02691,0.01344 0.06051,0.02691 0.0874,0.04034 l -0.0067,0.02017 c -0.02691,0.03362 -0.05379,0.05378 -0.08068,0.08067 z"
     id="path145"
     inkscape:connector-curvature="0"
     style="fill:#09875b" /><path
     class="st65"
     d="m 24.166747,3.0425703 c 0,-0.06723 0,-0.134463 0,-0.201695 0.02017,0 0.04034,0 0.06051,0 0,0 0.01344,0.02017 0.01344,0.02017 0,0.06051 -0.0067,0.121016 -0.0067,0.181526 0,0 0,0 0,0 -0.02017,0 -0.04706,0 -0.06723,0 z"
     id="path147"
     inkscape:connector-curvature="0"
     style="fill:#078246" /><path
     class="st66"
     d="m 24.233979,9.6984483 c -0.02017,-0.09412 -0.06051,-0.188246 -0.06051,-0.275646 0,-1.633716 0,-3.267432 0,-4.901148 0.02688,0 0.04706,0.0067 0.07395,0.0067 0,1.674057 0,3.341385 0,5.049058 0.161354,-0.03362 0.282371,-0.05379 0.396662,-0.08068 0.10757,0 0.215139,-0.0067 0.322712,-0.0067 0.02017,0.02688 0.04034,0.05378 0.06051,0.07395 0,0.02017 0,0.04706 0,0.06723 -0.02017,0.02017 -0.04034,0.04034 -0.05379,0.05378 -0.114295,0.0067 -0.221864,0.01344 -0.336156,0.02017 -0.02017,0 -0.04706,-0.0067 -0.06723,-0.0067 -0.04706,0.02017 -0.09412,0.04706 -0.13446,0.06723 -0.06723,-0.02017 -0.134464,-0.04034 -0.201696,-0.06723 z"
     id="path149"
     inkscape:connector-curvature="0"
     style="fill:#067f4a" /><path
     class="st2"
     d="m 24.435674,9.7656793 c 0.04706,-0.02017 0.09412,-0.04706 0.13446,-0.06723 -0.0067,0.4101087 -0.0067,0.8202187 -0.01344,1.2303307 0,0.10757 -0.03361,0.208414 -0.04706,0.315984 -0.02691,-0.114292 -0.06723,-0.235308 -0.06723,-0.3496 -0.01344,-0.376496 -0.0067,-0.75299 -0.0067,-1.1294837 z"
     id="path151"
     inkscape:connector-curvature="0"
     style="fill:#287f55" /><path
     class="st2"
     d="m 24.509628,11.251488 c 0.0067,0.02017 0.0067,0.04034 -0.0067,0.06051 -0.01344,-0.01344 -0.02688,-0.02017 -0.04706,-0.03362 0.02017,-0.01344 0.03362,-0.02017 0.05379,-0.02691 z"
     id="path153"
     inkscape:connector-curvature="0"
     style="fill:#287f55" /><path
     class="st57"
     d="m 22.761617,11.379226 c 0.02017,0.02017 0.04034,0.04034 0.06051,0.06051 -0.02691,-0.02017 -0.04034,-0.04034 -0.06051,-0.06051 z"
     id="path155"
     inkscape:connector-curvature="0"
     style="fill:#61ba68" /><path
     class="st67"
     d="m 22.687663,11.917074 c 0,-0.08067 0,-0.161354 -0.0067,-0.24203 0.497511,0 0.995021,-0.0067 1.492531,-0.0067 -0.02691,0.02017 -0.05378,0.04034 -0.07395,0.06051 -0.06723,0 -0.134464,0 -0.201695,0 -0.15463,0 -0.315984,0 -0.470617,0 -0.06723,0 -0.134463,0 -0.201692,0.0067 -0.181526,0.0067 -0.396665,-0.06051 -0.477341,0.19497 -0.02017,-0.01344 -0.04034,-0.01344 -0.06051,-0.01344 z"
     id="path157"
     inkscape:connector-curvature="0"
     style="fill:#83979e" /><path
     class="st68"
     d="m 24.099518,11.722104 c 0.02688,-0.02017 0.05379,-0.04034 0.07395,-0.06051 0.02017,-0.0067 0.03362,-0.0067 0.05379,0 0.05378,0.06051 0.100848,0.127739 0.154633,0.188246 0,0 -0.01344,0 -0.01344,0 -0.06723,0 -0.134464,0 -0.201696,0 -0.02017,-0.04034 -0.04706,-0.0874 -0.06723,-0.127739 z"
     id="path159"
     inkscape:connector-curvature="0"
     style="fill:#bcc7d1" /><path
     class="st69"
     d="m 24.381889,11.849843 c -0.05379,-0.06051 -0.100848,-0.127739 -0.154632,-0.188246 0.06723,0 0.141185,0.0067 0.208417,0.0067 -0.02017,0.06051 -0.03362,0.121017 -0.05378,0.181524 z"
     id="path161"
     inkscape:connector-curvature="0"
     style="fill:#88919c" /><path
     class="st70"
     d="m 24.637366,9.7051733 c 0.114292,-0.0067 0.221861,-0.01344 0.336156,-0.02017 l 0.03362,0.0067 0.03362,-0.0067 c 0,0.275646 -0.0067,0.5580167 0.0067,0.8336627 0.0067,0.127741 0.03362,0.25548 0.05378,0.383218 0,0.04706 0,0.09412 0,0.141186 -0.02017,0.06723 -0.03362,0.134463 -0.05378,0.201692 -0.121017,0 -0.242033,0 -0.403388,0 -0.0067,-0.517679 -0.0067,-1.028636 -0.0067,-1.5395897 z"
     id="path163"
     inkscape:connector-curvature="0"
     style="fill:#f1f2f4" /><path
     class="st71"
     d="m 25.094538,10.908607 c -0.02017,-0.127738 -0.04706,-0.255477 -0.05379,-0.383215 -0.0067,-0.275649 -0.0067,-0.5580197 -0.0067,-0.8336657 0.0067,-0.02017 0,-0.04034 -0.0067,-0.06051 0,-0.02017 0,-0.04706 0,-0.06723 0,-0.289096 0,-0.584911 0,-0.874004 0,-0.268927 0,-0.537851 0,-0.806775 0.0067,-0.114291 0.01344,-0.221861 0.02017,-0.336155 0.04034,0.02017 0.07395,0.04706 0.114292,0.06723 0,0.0874 0,0.174802 0,0.255477 -0.01344,0.09413 -0.03361,0.188249 -0.04706,0.282371 0,0.181527 -0.0067,0.356325 -0.0067,0.537851 0,0.739541 -0.0067,1.4790837 -0.01344,2.2186237 z"
     id="path165"
     inkscape:connector-curvature="0"
     style="fill:#e5ebee" /><path
     class="st71"
     d="m 25.040754,11.244763 c 0.02017,-0.06723 0.03362,-0.134461 0.05379,-0.201692 0.0067,0.04706 0.01344,0.0874 0.02017,0.134463 -0.02017,0.02017 -0.04706,0.04706 -0.07395,0.06723 z"
     id="path167"
     inkscape:connector-curvature="0"
     style="fill:#e5ebee" /><path
     class="st72"
     d="m 24.428949,0.01716834 c 0,0.02017 -0.0067,0.04706 -0.0067,0.06723 -0.289093,0 -0.571464,0 -0.86056,0 -0.329431,0 -0.665586,0 -0.99502,0 0.02017,-0.02688 0.03362,-0.05378 0.05379,-0.08068 0.605083,0.0067 1.203437,0.01344 1.808517,0.01344 z"
     id="path169"
     inkscape:connector-curvature="0"
     style="fill:#bfd5e5" /><path
     class="st47"
     d="m 24.644088,9.4967553 c -0.114291,0.02688 -0.235308,0.04706 -0.396662,0.08068 0,-1.707673 0,-3.375001 0,-5.049058 0.107569,-0.0067 0.215139,-0.0067 0.322708,-0.01344 0.02691,0.0067 0.04706,0.01344 0.07395,0.01344 0,0.168079 -0.0067,0.34288 -0.0067,0.510957 0,1.082421 0,2.164842 0,3.247263 0,0.208417 -0.02691,0.416831 -0.03362,0.544573 0.01344,0.275646 0.02691,0.470616 0.04034,0.665586 z"
     id="path171"
     inkscape:connector-curvature="0"
     style="fill:#69bd6d" /><path
     class="st73"
     d="m 24.166747,4.4544223 c -0.02688,-0.248755 -0.06051,-0.49751 -0.0874,-0.746265 -0.0067,-0.08068 -0.0067,-0.161355 0.0067,-0.235308 0.02017,-0.121017 0.05378,-0.242033 0.08068,-0.36305 0.02017,0 0.04706,0 0.06723,0 0.02017,0.08068 0.06051,0.161357 0.06723,0.242033 0.0067,0.342878 0,0.692481 0,1.035358 -0.04706,0.02017 -0.09412,0.04706 -0.134464,0.06723 l 0,0 z"
     id="path173"
     inkscape:connector-curvature="0"
     style="fill:#0aa64d" /><path
     class="st74"
     d="m 24.644088,3.5199113 c -0.0874,0 -0.174798,0 -0.262199,0 0,-0.134463 -0.0067,-0.268927 -0.0067,-0.403387 0.04706,0 0.0874,0 0.134464,-0.0067 -0.0067,0.100848 -0.01344,0.208417 -0.02017,0.322712 0.04034,0.02688 0.09412,0.05379 0.154629,0.0874 z"
     id="path175"
     inkscape:connector-curvature="0"
     style="fill:#d0dcde" /><path
     class="st75"
     d="m 24.502903,3.1097993 c -0.04706,0 -0.0874,0 -0.134461,0.0067 0,-0.02017 0,-0.04706 0,-0.06723 0,-0.02688 0,-0.05378 0,-0.08068 0.06051,0 0.121017,0 0.188245,0 0.02691,0.02688 0.05379,0.04706 0.08068,0.07395 l 0.0067,0.02017 c -0.03362,0.01344 -0.06051,0.02688 -0.09412,0.04706 -0.02017,-0.02017 -0.03362,-0.01344 -0.04706,0 z"
     id="path177"
     inkscape:connector-curvature="0"
     style="fill:#0a834f" /><path
     class="st76"
     d="m 24.368442,2.9686163 c 0,0.02688 0,0.05378 0,0.08068 -0.04706,0 -0.0874,0 -0.134463,0 0,-0.06051 0.0067,-0.121016 0.0067,-0.181523 0.04706,0.02688 0.0874,0.06051 0.127738,0.100847 z"
     id="path179"
     inkscape:connector-curvature="0"
     style="fill:#0f954e" /><path
     class="st58"
     d="m 24.166747,4.4544223 c 0.04034,-0.02017 0.0874,-0.04706 0.127741,-0.06723 -0.04034,0.02017 -0.0874,0.04706 -0.127741,0.06723 z"
     id="path181"
     inkscape:connector-curvature="0"
     style="fill:#0aa24d" /><path
     class="st76"
     d="m 24.233979,3.1097993 c -0.02017,0 -0.04706,0 -0.06723,0 0,-0.02017 0,-0.04706 0,-0.06723 0.02017,0 0.04706,0 0.06723,0 0,0.02017 0,0.04706 0,0.06723 z"
     id="path183"
     inkscape:connector-curvature="0"
     style="fill:#0f954e" /><path
     class="st77"
     d="m 23.359975,1.2945603 c -0.161355,0 -0.315987,0 -0.477341,0 0,-0.228587 0.0067,-0.45044796 0.0067,-0.67903396 0.154629,0.188248 0.315983,0.08068 0.470616,0 0,0.235308 0,0.45717196 0,0.67903396 z"
     id="path185"
     inkscape:connector-curvature="0"
     style="fill:#edf0f4" /><path
     class="st78"
     d="m 23.359975,1.2945603 c 0,-0.221862 0,-0.45044796 0,-0.67231196 0,-0.05378 0,-0.10757 0,-0.114291 -0.168077,-0.0067 -0.322709,-0.01344 -0.470616,-0.02017 0,-0.04706 0,-0.0874 0,-0.134464 0.174798,0 0.349599,0.0067 0.524401,0.0067 l 0,0 c 0.0067,0.268924 0.01344,0.537848 0.01344,0.80004996 -0.0067,0.04706 -0.0067,0.0874 -0.01344,0.134461 l -0.03362,0.0067 -0.02017,-0.0067 z"
     id="path187"
     inkscape:connector-curvature="0"
     style="fill:#ccdee6" /><path
     class="st79"
     d="m 22.889359,0.48778834 c 0.147907,0.0067 0.295815,0.01344 0.470616,0.02017 0,0.0067 0,0.06051 0,0.114291 -0.154633,0.08068 -0.315987,0.188248 -0.470616,0 0,-0.04706 0,-0.0874 0,-0.13446 z"
     id="path189"
     inkscape:connector-curvature="0"
     style="fill:#e4ebef" /><path
     class="st80"
     d="m 23.420482,0.36004934 c -0.174799,0 -0.3496,-0.0067 -0.524401,-0.0067 -0.04706,0 -0.0874,-0.0067 -0.134464,-0.0067 0,-0.02017 0,-0.03362 0,-0.05378 0.221864,0 0.45045,0 0.672312,0 -0.0067,0.02688 -0.01344,0.04706 -0.01344,0.06723 z"
     id="path191"
     inkscape:connector-curvature="0"
     style="fill:#5b93b7" /><path
     class="st81"
     d="m 24.032286,0.42055634 c -0.0067,0.09412 -0.0067,0.181523 -0.01344,0.275649 -0.221861,-0.03362 -0.275646,0.127738 -0.322708,0.289093 -0.03362,0.10084696 -0.04706,0.20841696 -0.06723,0.30926196 -0.04034,0 -0.0874,0 -0.134461,0 0,-0.04034 -0.0067,-0.0874 -0.0067,-0.127739 0.01344,-0.21513896 0.03362,-0.43027796 0.04706,-0.60507996 0.134461,-0.09412 0.215139,-0.147907 0.295818,-0.201692 0.07395,0.02017 0.13446,0.04034 0.201692,0.06051 z"
     id="path193"
     inkscape:connector-curvature="0"
     style="fill:#bbd0dc" /><path
     class="st82"
     d="m 23.628899,1.2878383 c 0.02017,-0.100848 0.04034,-0.208418 0.06723,-0.30926196 0.04706,-0.154633 0.100847,-0.322712 0.322709,-0.289096 0,0.02017 0,0.04034 -0.0067,0.06051 -0.01344,0.01344 -0.02017,0.02687 -0.03362,0.04034 0.01344,0.01344 0.02688,0.02017 0.04034,0.03362 0.0067,0.02017 0.01344,0.04706 0.02017,0.06723 0,0.06723 0,0.13446096 0.0067,0.20169196 0.0067,0.06723 0.01344,0.127739 0.02017,0.194971 -0.141186,0.0067 -0.289093,0 -0.437004,0 z"
     id="path195"
     inkscape:connector-curvature="0"
     style="fill:#f0f2f6" /><path
     class="st0"
     d="m 24.233979,1.4290233 c -0.134461,0 -0.268924,0 -0.403385,0 -0.114294,0 -0.221864,0 -0.336156,0 -0.221864,0 -0.443725,0 -0.665589,0 -0.0874,0 -0.174802,0.0067 -0.268924,0.0067 0,-0.02017 0,-0.04034 0.0067,-0.06051 0.618527,0 1.237053,0 1.85558,0.0067 0,0.100848 0,0.201696 0,0.30254 -0.01344,0.01344 -0.03362,0.01344 -0.05379,0.01344 0,-0.02017 0,-0.04034 0,-0.06723 0,-0.100844 0.02017,-0.208414 -0.134464,-0.201692 z"
     id="path197"
     inkscape:connector-curvature="0"
     style="fill:#05884e" /><path
     class="st83"
     d="m 23.494438,1.1600993 c 0,0.04034 0.0067,0.0874 0.0067,0.127739 -0.02688,0 -0.05379,0 -0.07395,0 0.0067,-0.04706 0.0067,-0.0874 0.01344,-0.134464 l 0.02688,0 0.02691,0.0067 z"
     id="path199"
     inkscape:connector-curvature="0"
     style="fill:#5f92a7" /><path
     class="st43"
     d="m 23.427207,0.29281734 c -0.221865,0 -0.450448,0 -0.672312,0 -0.06723,-0.02691 -0.127738,-0.05378 -0.19497,-0.08068 0.356325,0 0.712649,0 1.068974,0.0067 0.268924,0 0.531126,0 0.80005,-0.0067 0,0.02691 0.0067,0.04706 0.0067,0.07396 -0.114295,0 -0.228586,0.0067 -0.336156,0.0067 -0.228586,0 -0.45045,0 -0.672311,0 z"
     id="path201"
     inkscape:connector-curvature="0"
     style="fill:#aec7de" /><path
     class="st84"
     d="m 23.427207,0.29281734 c 0.221861,0 0.443725,0 0.665586,0 -0.02017,0.04034 -0.04034,0.08068 -0.06051,0.121017 -0.06723,-0.02017 -0.134463,-0.04034 -0.19497,-0.06051 -0.141186,0 -0.275649,0 -0.416835,0 0,0 0,0 0,0 0,-0.01344 0.0067,-0.03362 0.0067,-0.06051 z"
     id="path203"
     inkscape:connector-curvature="0"
     style="fill:#4b88ac" /><path
     class="st81"
     d="m 24.025564,0.82394334 c -0.01344,-0.01344 -0.02691,-0.02017 -0.04034,-0.03362 0.01344,-0.01344 0.02017,-0.02691 0.03362,-0.04034 0,0.02687 0.0067,0.05378 0.0067,0.07395 z"
     id="path205"
     inkscape:connector-curvature="0"
     style="fill:#bbd0dc" /><path
     class="st34"
     d="m 23.091051,12.051538 c -0.06723,0.03362 -0.127739,0.06723 -0.215139,0.10757 -0.03362,-0.02691 -0.07395,-0.06723 -0.121017,-0.10757 0,-0.02017 0,-0.04706 0,-0.06723 0.154633,-0.0874 0.315987,-0.174801 0.470619,-0.262202 0.06723,0 0.134461,0 0.201693,-0.0067 0,0.02017 0,0.04034 0,0.06051 -0.08068,0.02017 -0.161355,0.04034 -0.235309,0.06723 -0.01344,0.0067 -0.02017,0.04034 -0.03362,0.06723 -0.02017,0.05379 -0.04706,0.09412 -0.06723,0.141186 0,0 0,0 0,0 z"
     id="path207"
     inkscape:connector-curvature="0"
     style="fill:#c4cdd6" /><path
     class="st68"
     d="m 23.225514,11.722104 c -0.154632,0.0874 -0.315986,0.174802 -0.470619,0.262202 0,-0.02017 0,-0.04706 -0.0067,-0.06723 0.08068,-0.248755 0.289093,-0.188245 0.477341,-0.19497 z"
     id="path209"
     inkscape:connector-curvature="0"
     style="fill:#bcc7d1" /><path
     class="st34"
     d="m 22.768342,12.656618 c 0.02017,0.114291 0.03362,0.228586 0.05378,0.336156 -0.02017,0 -0.04034,0 -0.06051,0 0,-0.114295 0,-0.221865 0.0067,-0.336156 z"
     id="path211"
     inkscape:connector-curvature="0"
     style="fill:#c4cdd6" /><path
     class="st35"
     d="m 24.166747,11.849843 c 0.06723,0 0.134463,0 0.201695,0 0,0.02017 0,0.04706 0,0.06723 -0.02017,0.02017 -0.04706,0.04706 -0.06723,0.06723 0,0 0,0 0,0 -0.06723,0.02017 -0.134463,0.04706 -0.201692,0.06723 0.02017,-0.06723 0.04706,-0.134464 0.06723,-0.201695 z"
     id="path213"
     inkscape:connector-curvature="0"
     style="fill:#becedc" /><path
     class="st34"
     d="m 24.30121,11.984306 c 0.02017,-0.02017 0.04706,-0.04706 0.06723,-0.06723 0,0.02017 0,0.04706 0,0.06723 -0.02017,0 -0.04706,0 -0.06723,0 z"
     id="path215"
     inkscape:connector-curvature="0"
     style="fill:#c4cdd6" /><path
     class="st85"
     d="m 24.644088,9.4967553 c -0.01344,-0.19497 -0.02688,-0.38994 -0.04706,-0.658864 0.0067,-0.127739 0.03362,-0.336156 0.03362,-0.544573 0.0067,-1.082421 0,-2.164842 0,-3.247263 0,-0.168077 0,-0.342878 0.0067,-0.510954 0.06051,0 0.127739,-0.0067 0.188248,-0.0067 0,0.02017 0.0067,0.04034 0.01344,0.06051 0.02017,0.201693 0.04034,0.403385 0.06051,0.611802 0,0.0874 0.0067,0.174802 0.0067,0.268924 0.0067,0.315987 0.01344,0.625252 0.01344,0.941236 0.01344,0.490788 0.03362,0.988298 0.04706,1.479086 0,0.268924 0,0.537848 0,0.806772 0,0.268924 -0.0067,0.531126 -0.0067,0.80005 -0.100847,-0.0067 -0.208417,-0.0067 -0.315986,0 z"
     id="path217"
     inkscape:connector-curvature="0"
     style="fill:#89c688" /><path
     class="st71"
     d="m 24.980244,4.7300713 c 0.114294,0.01344 0.235311,0.03362 0.349603,0.04706 -0.04706,0.02017 -0.100848,0.04034 -0.127739,0.04706 -0.03362,0.188248 -0.06051,0.356324 -0.09413,0.517679 0.03362,0.134463 0.07396,0.262202 0.114295,0.430278 -0.0874,-0.03362 -0.134464,-0.04706 -0.181524,-0.06051 -0.0067,0.06051 -0.01344,0.114292 -0.01344,0.168077 -0.01344,-0.01344 -0.03362,-0.02017 -0.04706,-0.02688 -0.0067,-0.127739 -0.01344,-0.262202 -0.01344,-0.389941 0,-0.242033 0.0067,-0.484063 0.01344,-0.732818 z"
     id="path219"
     inkscape:connector-curvature="0"
     style="fill:#e5ebee" /><path
     class="st86"
     d="m 24.9668,5.4628893 c 0.0067,0.127739 0.01344,0.262202 0.01344,0.389941 -0.0067,0.181523 -0.01344,0.369771 -0.02017,0.551295 -0.01344,0 -0.02688,0 -0.03362,0 -0.0067,-0.315987 -0.01344,-0.625249 -0.01344,-0.941236 0.01344,0 0.03362,0 0.05379,0 z"
     id="path221"
     inkscape:connector-curvature="0"
     style="fill:#098850" /><path
     class="st87"
     d="m 24.90629,5.1939653 c -0.02017,-0.201695 -0.04034,-0.403387 -0.06051,-0.611804 l 0.03362,0 c 0,0 0.02688,-0.0067 0.02688,-0.0067 0,0.208417 0,0.416831 0,0.618526 z"
     id="path223"
     inkscape:connector-curvature="0"
     style="fill:#489e5c" /><path
     class="st88"
     d="m 24.90629,4.5821613 -0.02688,0.0067 -0.03362,0 c -0.0067,-0.02017 -0.0067,-0.04034 -0.01344,-0.06051 0.02017,0 0.04034,0 0.06051,0.0067 0.0067,0.01344 0.01344,0.02688 0.01344,0.04706 z"
     id="path225"
     inkscape:connector-curvature="0"
     style="fill:#0d844d" /><path
     class="st89"
     d="m 25.034029,5.8797213 c 0.0067,-0.05379 0.01344,-0.10757 0.01344,-0.168077 0.04706,0.01344 0.0874,0.03362 0.181523,0.06051 -0.04706,-0.168076 -0.08068,-0.295815 -0.114292,-0.430278 0.02688,-0.161355 0.06051,-0.322709 0.09412,-0.517679 0.02691,-0.0067 0.07395,-0.02691 0.127739,-0.04706 0.02017,0 0.03362,0 0.05379,0.0067 0,0.02017 0,0.04034 0,0.06051 0,0.02691 0,0.06051 0,0.0874 0,0.10757 0,0.221864 0.0067,0.329434 -0.0067,0.02017 -0.01344,0.04706 -0.02017,0.06723 -0.02017,0.09413 -0.03362,0.181526 -0.05378,0.275649 0,0.107569 0.0067,0.221861 0.0067,0.329431 0,0 -0.01344,-0.0067 -0.01344,-0.0067 -0.02017,0.09412 -0.04034,0.181523 -0.06051,0.275649 0.0067,0.06723 0.0067,0.13446 0.01344,0.201692 -0.0067,0.04034 -0.01344,0.0874 -0.02017,0.127738 -0.02017,0 -0.04034,0 -0.06051,0 -0.0067,-0.03362 -0.01344,-0.06723 -0.02017,-0.09412 -0.01344,0.0067 -0.02691,0.01344 -0.04034,0.02017 0.02017,0.02691 0.04034,0.04706 0.06051,0.07395 0,0.208418 0,0.41011 0.0067,0.618527 0.0067,0.04034 0.01344,0.08068 0.02017,0.121017 -0.01344,0.114291 -0.02017,0.221861 -0.03362,0.336155 -0.04034,-0.02017 -0.07396,-0.04706 -0.114295,-0.06723 0,-0.02017 0,-0.04706 0,-0.06723 0.01344,-0.01344 0.02691,-0.02017 0.03362,-0.03362 -0.01344,-0.01344 -0.02688,-0.02017 -0.03362,-0.03362 -0.0067,-0.336156 -0.02017,-0.672311 -0.02688,-1.008464 -0.01344,-0.16808 -0.01344,-0.342881 -0.0067,-0.517682 z"
     id="path227"
     inkscape:connector-curvature="0"
     style="fill:#ebeef0" /><path
     class="st90"
     d="m 25.121429,8.1521323 c 0.01344,-0.09412 0.03362,-0.188245 0.04706,-0.282371 0,0.09413 0,0.188249 0.0067,0.275649 -0.02017,0.0067 -0.03362,0.0067 -0.05379,0.0067 z"
     id="path229"
     inkscape:connector-curvature="0"
     style="fill:#739fb7" /><path
     class="st71"
     d="m 25.383631,4.9384853 c 0,-0.02688 0,-0.06051 0,-0.0874 0.01344,0.01344 0.02688,0.02687 0.04034,0.04034 -0.02017,0.01344 -0.02688,0.03362 -0.04034,0.04706 z"
     id="path231"
     inkscape:connector-curvature="0"
     style="fill:#e5ebee" /><path
     class="st71"
     d="m 25.175214,6.5385853 c 0.02017,0 0.04034,0 0.06051,0 0,0.201696 0,0.403388 -0.0067,0.598358 -0.02017,0 -0.03362,0.0067 -0.05379,0.01344 0,-0.201692 0,-0.403387 0,-0.611805 l 0,0 z"
     id="path233"
     inkscape:connector-curvature="0"
     style="fill:#e5ebee" /><path
     class="st91"
     d="m 23.628899,0.21886434 c -0.356325,0 -0.712649,0 -1.068974,-0.0067 0,-0.04034 0,-0.08068 0.0067,-0.121014 0.329434,0 0.665589,0 0.99502,0 0.02017,0.04034 0.04706,0.08068 0.06723,0.127739 z"
     id="path235"
     inkscape:connector-curvature="0"
     style="fill:#f7f7f9" /><path
     class="st92"
     d="m 24.307932,12.865035 c 0.02017,-0.134464 0.03362,-0.268927 0.05378,-0.410113 0,0.134464 0.0067,0.268928 0.0067,0.396666 -0.02017,0.0067 -0.04034,0.0067 -0.06051,0.01344 z"
     id="path237"
     inkscape:connector-curvature="0"
     style="fill:#c4d8e6" /><path
     class="st93"
     d="m 24.502903,3.1097993 c 0.01344,-0.01344 0.02691,-0.02017 0.04706,-0.01344 0.02691,0.0067 0.06051,0.0067 0.0874,0.01344 0,0.02017 0,0.04706 0,0.06723 -0.02017,0.02691 -0.04034,0.04706 -0.06051,0.07395 0.01344,0.0067 0.02688,0.01344 0.04034,0.02017 0.0067,-0.03362 0.01344,-0.06723 0.02017,-0.09413 0.01344,-0.01344 0.02688,-0.02017 0.04706,-0.03362 -0.01344,-0.01344 -0.02691,-0.02017 -0.04034,-0.03362 0,-0.02017 0.0067,-0.03361 0.0067,-0.05378 l -0.0067,-0.02017 c 0.06051,-0.06723 0.127741,-0.13446 0.188248,-0.201692 0,-0.0874 0,-0.174801 0,-0.262202 0.0067,-0.02017 0.0067,-0.03362 0.0067,-0.05378 0.0067,-0.06051 0.04034,-0.13446 0.01344,-0.168076 -0.09412,-0.134464 -0.06051,-0.262202 0,-0.389941 0.02017,0 0.04034,0 0.06051,-0.0067 l -0.0067,0.02017 c 0.02691,0.02017 0.04706,0.03361 0.07395,0.05378 0.02017,0 0.04034,0.0067 0.06051,0.0067 0.04034,0.04034 0.08068,0.0874 0.127738,0.127738 0.02688,0.02017 0.04706,0.04706 0.07395,0.06723 0.0067,0.04034 0.01344,0.08068 0.02017,0.127739 0.02017,0.09412 0.04034,0.181523 0.06051,0.275649 -0.02017,0.13446 -0.04034,0.268924 -0.06051,0.403384 -0.01344,0.02017 -0.02017,0.04034 -0.02017,0.06051 -0.06723,0.0874 -0.134463,0.174801 -0.201692,0.255477 -0.02017,0.02691 -0.04706,0.05378 -0.06723,0.08068 -0.02017,0 -0.04034,0.0067 -0.06723,0.0067 -0.06723,0.02691 -0.13446,0.04706 -0.201692,0.07395 -0.02017,-0.0067 -0.04034,-0.01344 -0.06051,-0.01344 -0.05378,-0.03361 -0.10757,-0.06051 -0.161354,-0.0874 0.0067,-0.09413 0.01344,-0.201695 0.02017,-0.302543 z"
     id="path239"
     inkscape:connector-curvature="0"
     style="fill:#f8f8f8" /><path
     class="st94"
     d="m 24.845783,1.9601493 c -0.06051,0.127739 -0.09413,0.255477 0,0.389941 0.02688,0.03362 -0.0067,0.114291 -0.01344,0.168076 -0.06723,-0.04706 -0.134463,-0.09412 -0.19497,-0.141185 0,0 0.0067,-0.02017 0.0067,-0.02017 -0.02688,-0.01344 -0.06051,-0.02688 -0.0874,-0.04034 -0.04034,-0.0067 -0.08068,-0.01344 -0.121013,-0.02017 0,-0.121017 0,-0.235311 0,-0.369772 0.09412,-0.01344 0.154629,-0.02691 0.215139,-0.03362 0.06723,0.02017 0.127738,0.04706 0.19497,0.06723 z"
     id="path241"
     inkscape:connector-curvature="0"
     style="fill:#eaedef" /><path
     class="st95"
     d="m 22.943143,14.942473 c 0.0067,0.06723 0.0067,0.127742 0.01344,0.194971 -0.02017,0 -0.04034,0 -0.06723,0.0067 0.02017,-0.06723 0.04034,-0.134464 0.05379,-0.201696 z"
     id="path243"
     inkscape:connector-curvature="0"
     style="fill:#7da6c4" /><path
     class="st71"
     d="m 25.3164,5.6040753 c 0.02017,-0.09412 0.03362,-0.181524 0.05378,-0.275649 0,0.06723 0.0067,0.134463 0.0067,0.201695 -0.02017,0.02688 -0.04034,0.05378 -0.06051,0.07395 z"
     id="path245"
     inkscape:connector-curvature="0"
     style="fill:#e5ebee" /><path
     class="st96"
     d="m 22.559925,1.4357453 c 0.0874,0 0.174801,-0.0067 0.268924,-0.0067 0,0.06723 0,0.134461 0,0.19497 -0.06723,0 -0.134461,0 -0.201692,0 -0.02017,-0.04706 -0.04706,-0.0874 -0.06723,-0.134463 -0.0067,-0.01344 0,-0.03362 0,-0.05379 z"
     id="path247"
     inkscape:connector-curvature="0"
     style="fill:#3eb458" /><path
     class="st0"
     d="m 22.553203,1.4962553 c 0.02017,0.04706 0.04706,0.0874 0.06723,0.13446 0,0.02017 0,0.04706 0,0.06723 -0.02017,-0.06723 -0.04034,-0.134463 -0.06723,-0.201692 z"
     id="path249"
     inkscape:connector-curvature="0"
     style="fill:#05884e" /><path
     class="st71"
     d="m 25.242446,6.2091553 c 0.02017,-0.09412 0.04034,-0.181524 0.06051,-0.275649 0,0.06723 0.0067,0.134463 0.0067,0.201695 -0.02017,0.02688 -0.04034,0.04706 -0.06723,0.07395 z"
     id="path251"
     inkscape:connector-curvature="0"
     style="fill:#e5ebee" /><path
     class="st97"
     d="m 23.628899,0.21886434 c -0.02017,-0.04706 -0.04706,-0.0874 -0.06723,-0.134464 0.289096,0 0.571467,0 0.86056,0 0,0.04034 0,0.08068 0,0.127739 -0.262202,0 -0.531126,0.0067 -0.793328,0.0067 z"
     id="path253"
     inkscape:connector-curvature="0"
     style="fill:#eaf2f7" /><path
     class="st94"
     d="m 24.973522,2.0341033 c -0.02691,-0.02017 -0.04706,-0.03362 -0.07395,-0.05378 0.02017,-0.0067 0.04706,-0.0067 0.06723,-0.01344 0.0067,0.02017 0.0067,0.04706 0.0067,0.06723 z"
     id="path255"
     inkscape:connector-curvature="0"
     style="fill:#eaedef" /><path
     class="st98"
     d="m 23.985224,7.0293743 c 0,-0.329431 0,-0.652143 0,-0.981574 0.01344,0 0.02017,0 0.03362,0 0,0.329431 0,0.652143 0,0.981574 -0.01344,0 -0.02688,0 -0.03362,0 z"
     id="path257"
     inkscape:connector-curvature="0"
     style="fill:#039e53" /><path
     class="st99"
     d="m 23.978502,8.6361993 c 0,-0.141186 0,-0.282371 0,-0.423557 0.01344,0 0.02017,0 0.03362,0 0,0.141186 0,0.275646 0,0.416832 -0.01344,0 -0.02691,0 -0.03362,0.0067 z"
     id="path259"
     inkscape:connector-curvature="0"
     style="fill:#00a057" /><path
     class="st63"
     d="m 24.099518,2.2357953 c -0.01344,-0.01344 -0.02691,-0.02017 0,0 -0.02017,-0.02688 -0.01344,-0.01344 0,0 l 0,0 z"
     id="path261"
     inkscape:connector-curvature="0"
     style="fill:#0ba74e" /><path
     class="st100"
     d="m 24.825614,2.8341533 c -0.06051,0.06723 -0.127741,0.134463 -0.188248,0.201692 -0.02691,-0.02688 -0.05379,-0.04706 -0.08068,-0.07395 0.10757,-0.10757 0.208417,-0.21514 0.141186,-0.389941 0.02691,0 0.05378,0 0.08068,0 0.01344,0.0874 0.03362,0.174801 0.04706,0.262202 z"
     id="path263"
     inkscape:connector-curvature="0"
     style="fill:#468c6e" /><path
     class="st101"
     d="m 24.778552,2.5719513 c -0.02691,0 -0.05379,0 -0.08068,0 -0.04706,-0.04034 -0.09412,-0.08068 -0.141186,-0.127739 0.02691,-0.02687 0.05379,-0.04706 0.07396,-0.07395 0.06723,0.04706 0.134461,0.09412 0.19497,0.141185 0,0.02017 0,0.04034 -0.0067,0.05378 -0.01344,0.01344 -0.02688,0.01344 -0.04034,0.0067 z"
     id="path265"
     inkscape:connector-curvature="0"
     style="fill:#478c66" /><path
     class="st102"
     d="m 22.822127,1.6307153 c 0,-0.06723 0,-0.13446 0,-0.19497 0.221861,0 0.443725,0 0.665586,0 -0.0067,0.05378 -0.0067,0.10757 -0.01344,0.201695 -0.221864,-0.0067 -0.437003,-0.0067 -0.652142,-0.0067 z"
     id="path267"
     inkscape:connector-curvature="0"
     style="fill:#5ab565" /><path
     class="st103"
     d="m 24.233979,1.4290233 c 0.154632,-0.0067 0.134463,0.100848 0.127738,0.201692 -0.147907,0 -0.127738,-0.107569 -0.127738,-0.201692 z"
     id="path269"
     inkscape:connector-curvature="0"
     style="fill:#14ab4e" /><path
     class="st54"
     d="m 24.549965,2.3164743 c 0.02691,0.01344 0.06051,0.02688 0.0874,0.04034 -0.02691,-0.01344 -0.05379,-0.02688 -0.0874,-0.04034 z"
     id="path271"
     inkscape:connector-curvature="0"
     style="fill:#c1d2d7" /><path
     class="st104"
     d="m 24.9668,9.4900333 c 0,-0.268927 0.0067,-0.531126 0.0067,-0.80005 0.02017,0 0.03362,0 0.05379,0 0,0.289093 0,0.584908 0,0.874004 -0.02017,-0.02691 -0.04034,-0.05379 -0.06051,-0.07395 z"
     id="path273"
     inkscape:connector-curvature="0"
     style="fill:#247f4e" /><path
     class="st104"
     d="m 25.027307,9.6312193 c 0.01344,0.02017 0.01344,0.04034 0.0067,0.06051 l -0.03362,0.0067 -0.03361,-0.0067 c 0.02688,-0.02017 0.04706,-0.04034 0.06051,-0.06051 z"
     id="path275"
     inkscape:connector-curvature="0"
     style="fill:#247f4e" /><path
     class="st105"
     d="m 23.427207,11.782614 c 0,-0.02017 0,-0.04034 0,-0.06051 0.154632,0 0.315986,0 0.470616,0 0,0.04034 0,0.0874 0,0.127739 -0.04706,0.02017 -0.0874,0.04706 -0.134461,0.06723 -0.06051,-0.168076 -0.208417,-0.127738 -0.336155,-0.13446 z"
     id="path277"
     inkscape:connector-curvature="0"
     style="fill:#cedfec" /><path
     class="st34"
     d="m 23.897823,11.849843 c 0,-0.04034 0,-0.0874 0,-0.127739 0.06723,0 0.134463,0 0.201695,0 0.02017,0.04034 0.04706,0.0874 0.06723,0.127739 -0.02017,0.06723 -0.04706,0.134463 -0.06723,0.201695 -0.06723,-0.06723 -0.134463,-0.134464 -0.201695,-0.201695 z"
     id="path279"
     inkscape:connector-curvature="0"
     style="fill:#c4cdd6" /><path
     class="st106"
     d="m 25.027307,6.4041253 c 0.0067,0.336156 0.02017,0.672311 0.02688,1.008467 -0.01344,0.02017 -0.01344,0.04034 0,0.06723 0,0.02017 0,0.04706 0,0.06723 -0.0067,0.114294 -0.01344,0.221864 -0.02017,0.336155 -0.02017,0 -0.04034,0 -0.05379,0 -0.01344,-0.490785 -0.03362,-0.988295 -0.04706,-1.479083 0.01344,0 0.02688,0 0.03362,0 0.02017,0 0.04034,0 0.06051,0 z"
     id="path281"
     inkscape:connector-curvature="0"
     style="fill:#478660" /><path
     class="st107"
     d="m 24.973522,7.8832083 c 0.02017,0 0.04034,0 0.05379,0 0,0.268924 0,0.537848 0,0.806775 -0.02017,0 -0.03362,0 -0.05379,0 0,-0.268927 0,-0.537851 0,-0.806775 z"
     id="path283"
     inkscape:connector-curvature="0"
     style="fill:#388158" /><path
     class="st74"
     d="m 24.644088,3.0560143 c 0,0.02017 0,0.03362 -0.0067,0.05378 l 0,0 c -0.02691,-0.0067 -0.06051,-0.0067 -0.0874,-0.01344 0.03362,-0.01344 0.06051,-0.02691 0.09412,-0.04034 z"
     id="path285"
     inkscape:connector-curvature="0"
     style="fill:#d0dcde" /><path
     class="st108"
     d="m 23.420482,0.36004934 c 0.141185,0 0.275649,0 0.416834,0 -0.08068,0.05378 -0.161354,0.10757 -0.295818,0.201692 -0.01344,0.174802 -0.02688,0.389941 -0.04706,0.60507996 l -0.02691,0 -0.02688,0 c -0.0067,-0.27564596 -0.01344,-0.53784796 -0.02017,-0.80677196 z"
     id="path287"
     inkscape:connector-curvature="0"
     style="fill:#5890b1" /><path
     class="st109"
     d="m 23.427207,11.782614 c 0.127738,0.0067 0.275646,-0.03362 0.336155,0.13446 -0.04706,0 -0.0874,0 -0.134463,0 -0.15463,0 -0.315987,0 -0.470616,0 0.01344,-0.02017 0.01344,-0.06051 0.03362,-0.06723 0.07395,-0.02688 0.154629,-0.04706 0.235308,-0.06723 z"
     id="path289"
     inkscape:connector-curvature="0"
     style="fill:#e9eff1" /><path
     class="st105"
     d="m 23.158283,11.917074 c 0.154629,0 0.315986,0 0.470616,0 -0.02017,0.04706 -0.04706,0.0874 -0.06723,0.134464 -0.04706,0 -0.0874,0 -0.134461,0 -0.114294,0 -0.221864,0 -0.336155,0 0.02017,-0.04706 0.04706,-0.0874 0.06723,-0.134464 z"
     id="path291"
     inkscape:connector-curvature="0"
     style="fill:#cedfec" /><path
     class="st92"
     d="m 23.696131,12.051538 -0.03362,0 -0.03362,0 c -0.02017,0 -0.04706,0 -0.06723,0 l 0,0 c 0.02017,-0.04706 0.04706,-0.0874 0.06723,-0.134464 0.04706,0 0.0874,0 0.134463,0 0.04706,-0.02017 0.0874,-0.04706 0.134461,-0.06723 0.06723,0.06723 0.134463,0.134463 0.201695,0.201695 0.06723,-0.02017 0.13446,-0.04706 0.201692,-0.06723 -0.04034,0.07395 -0.08068,0.147908 -0.134463,0.242033 0,0.21514 0,0.45717 0,0.692481 l -0.03361,0 -0.03362,0 c 0,-0.228586 0,-0.463898 0,-0.692481 -0.02017,0 -0.04706,0 -0.06723,0 0,0.255477 0,0.510954 0,0.75971 -0.02017,0 -0.04706,0 -0.06723,0 0,-0.188246 0.0067,-0.376494 0,-0.564739 -0.0067,-0.127742 -0.04034,-0.248755 -0.06051,-0.376497 -0.02017,0 -0.04706,0 -0.06723,0 -0.02017,0 -0.04706,0 -0.06723,0 -0.02688,0.0067 -0.05379,0.0067 -0.07395,0.0067 z"
     id="path293"
     inkscape:connector-curvature="0"
     style="fill:#c4d8e6" /><path
     class="st110"
     d="m 23.763362,12.051538 c 0.02017,0 0.04706,0 0.06723,0 0,0.322709 0,0.638696 0,0.961404 -0.02017,0 -0.04706,0 -0.06723,0 0,-0.315986 0,-0.638695 0,-0.961404 z"
     id="path295"
     inkscape:connector-curvature="0"
     style="fill:#daeaf4" /><path
     class="st111"
     d="m 23.897823,12.051538 c 0.02017,0.127739 0.05379,0.248755 0.06051,0.376494 0.01344,0.188248 0,0.376493 0,0.564742 -0.02017,-0.127739 -0.05379,-0.248756 -0.06723,-0.376494 0,-0.188248 0.0067,-0.376497 0.0067,-0.564742 z"
     id="path297"
     inkscape:connector-curvature="0"
     style="fill:#d8e6f2" /><path
     class="st112"
     d="m 24.032286,12.992774 c 0,-0.255481 0,-0.510958 0,-0.759713 0.02017,0 0.04706,0 0.06723,0 0,0.228586 0,0.463895 0,0.692481 -0.02017,0.02017 -0.04706,0.04706 -0.06723,0.06723 z"
     id="path299"
     inkscape:connector-curvature="0"
     style="fill:#d6e7f3" /><path
     class="st113"
     d="m 25.027307,6.4041253 c -0.02017,0 -0.04034,0 -0.06051,0 0.0067,-0.181524 0.01344,-0.369772 0.02017,-0.551295 0.02017,0.0067 0.03362,0.02017 0.04706,0.02688 -0.0067,0.174801 -0.0067,0.349602 -0.0067,0.524404 z"
     id="path301"
     inkscape:connector-curvature="0"
     style="fill:#5e9a72" /><path
     class="st71"
     d="m 25.175214,6.5385853 c -0.02017,-0.02688 -0.04034,-0.04706 -0.06051,-0.07395 0.01344,-0.0067 0.02688,-0.01344 0.04034,-0.02017 0.0067,0.02691 0.01344,0.06051 0.02017,0.09412 l 0,0 z"
     id="path303"
     inkscape:connector-curvature="0"
     style="fill:#e5ebee" /><path
     class="st71"
     d="m 25.054198,7.4798213 c -0.01344,-0.02017 -0.01344,-0.04034 0,-0.06723 0.01344,0.01344 0.02691,0.02017 0.03362,0.03362 -0.01344,0.01344 -0.02688,0.02017 -0.03362,0.03361 z"
     id="path305"
     inkscape:connector-curvature="0"
     style="fill:#e5ebee" /><path
     class="st114"
     d="m 24.778552,2.5719513 c 0.01344,0 0.02688,0 0.04034,0 0,0.0874 0,0.174801 0,0.262202 -0.0067,-0.0874 -0.02688,-0.174801 -0.04034,-0.262202 z"
     id="path307"
     inkscape:connector-curvature="0"
     style="fill:#178150" /><path
     class="st74"
     d="m 24.637366,3.1770313 c -0.0067,0.03362 -0.01344,0.06723 -0.02017,0.09413 -0.01344,-0.0067 -0.02691,-0.01344 -0.04034,-0.02017 0.02017,-0.02688 0.04034,-0.04706 0.06051,-0.07395 l 0,0 z"
     id="path309"
     inkscape:connector-curvature="0"
     style="fill:#d0dcde" /><path
     class="st74"
     d="m 24.637366,3.1770313 c 0,-0.02017 0,-0.04706 0,-0.06723 0,0 0,0 0,0 0.01344,0.01344 0.02688,0.02017 0.04034,0.03362 -0.01344,0.01344 -0.02688,0.02017 -0.04034,0.03362 l 0,0 z"
     id="path311"
     inkscape:connector-curvature="0"
     style="fill:#d0dcde" /><path
     class="st105"
     d="m 23.561667,12.051538 c 0.02017,0 0.04706,0 0.06723,0 0,0.05379 0,0.100845 0,0.154629 -0.01344,0 -0.02688,0 -0.04706,0.0067 -0.0067,-0.05378 -0.01344,-0.107569 -0.02017,-0.161354 z"
     id="path313"
     inkscape:connector-curvature="0"
     style="fill:#cedfec" /><path
     class="st115"
     d="m 24.375164,13.342373 c -0.02017,0.221864 -0.04706,0.443726 -0.06723,0.672312 -0.02017,-0.07395 -0.04034,-0.141186 -0.06723,-0.215139 0,-0.04034 -0.0067,-0.0874 -0.0067,-0.127739 0.01344,-0.09412 0.03362,-0.181523 0.04706,-0.275649 0.0067,-0.0874 0.01344,-0.174798 0.02017,-0.268924 0.02691,0.07395 0.05379,0.141185 0.07395,0.215139 z"
     id="path315"
     inkscape:connector-curvature="0"
     style="fill:#80aac3" /><path
     class="st116"
     d="m 22.815402,14.283609 c -0.01344,-0.141186 -0.03361,-0.282371 -0.04706,-0.423554 0.02017,0 0.04034,0 0.06051,0 0.02017,0 0.04034,0 0.06051,0.0067 0,0.10757 0,0.221861 0,0.329431 -0.02691,0.03362 -0.05378,0.06051 -0.07396,0.0874 z"
     id="path317"
     inkscape:connector-curvature="0"
     style="fill:#7fa6c5" /><path
     class="st117"
     d="m 22.822127,13.866777 c -0.02017,0 -0.04034,0 -0.06051,0 -0.0067,-0.154632 -0.0067,-0.309262 -0.01344,-0.463894 0.02017,-0.06723 0.04034,-0.134464 0.06051,-0.201695 0.0067,0.0874 0.01344,0.174801 0.02017,0.262202 0,0.134463 0,0.268924 -0.0067,0.403387 z"
     id="path319"
     inkscape:connector-curvature="0"
     style="fill:#6498bb" /><path
     class="st118"
     d="m 24.240704,13.799546 c 0.02017,0.07395 0.04034,0.141185 0.06723,0.215139 -0.0067,0.154632 -0.01344,0.30254 -0.01344,0.457172 -0.02017,-0.02691 -0.04034,-0.04706 -0.06051,-0.07395 0,-0.201695 0.0067,-0.396665 0.0067,-0.598357 z"
     id="path321"
     inkscape:connector-curvature="0"
     style="fill:#76a3c1" /><path
     class="st95"
     d="m 22.815402,14.283609 c 0.02691,-0.02688 0.04706,-0.05379 0.07396,-0.08068 0.0067,0.127739 0.0067,0.262202 0.01344,0.389941 -0.02017,0.09412 -0.04034,0.181523 -0.06051,0.275646 -0.01344,-0.194967 -0.02017,-0.389937 -0.02691,-0.584907 z"
     id="path323"
     inkscape:connector-curvature="0"
     style="fill:#7da6c4" /><path
     class="st119"
     d="m 24.227257,14.391178 c 0.02017,0.02691 0.04034,0.04706 0.06051,0.07396 -0.02017,0.134461 -0.03362,0.275646 -0.05378,0.41011 -0.0067,-0.02017 -0.0067,-0.04706 -0.01344,-0.06723 -0.01344,-0.04706 -0.03362,-0.09412 -0.04706,-0.134464 0.02017,-0.09412 0.04034,-0.188245 0.05379,-0.282371 z"
     id="path325"
     inkscape:connector-curvature="0"
     style="fill:#75a4c7" /><path
     class="st116"
     d="m 22.835574,14.86852 c 0.02017,-0.09412 0.04034,-0.181524 0.06051,-0.275646 0.02017,0.114291 0.03362,0.235308 0.05379,0.349599 -0.02017,0.06723 -0.03362,0.134464 -0.05379,0.201696 0,0 -0.0067,0 -0.0067,0 -0.02017,-0.0874 -0.04034,-0.181524 -0.05379,-0.275649 z"
     id="path327"
     inkscape:connector-curvature="0"
     style="fill:#7fa6c5" /><path
     class="st120"
     d="m 22.815402,13.201188 c -0.02017,0.06723 -0.04034,0.134463 -0.06051,0.201695 -0.02017,-0.134464 -0.03362,-0.275649 -0.05379,-0.410109 0.02017,0 0.04706,0 0.06723,0 0.02017,0 0.04034,0 0.06051,0 -0.01344,0.06723 -0.01344,0.13446 -0.01344,0.208414 z"
     id="path329"
     inkscape:connector-curvature="0"
     style="fill:#8aaeca" /><path
     class="st121"
     d="m 24.227257,15.144169 c -0.02691,0 -0.04706,0 -0.07395,-0.0067 0.0067,-0.10757 0.01344,-0.221862 0.02017,-0.329431 l 0.02688,0 0.02691,0.0067 c 0.0067,0.02017 0.0067,0.04706 0.01344,0.06723 -0.0067,0.0874 -0.0067,0.174801 -0.01344,0.262202 z"
     id="path331"
     inkscape:connector-curvature="0"
     style="fill:#6495b7" /><path
     class="st122"
     d="m 22.815402,13.201188 c 0,-0.06723 0.0067,-0.134461 0.0067,-0.201693 -0.02017,-0.114291 -0.03362,-0.228586 -0.05379,-0.336155 0,-0.201693 -0.0067,-0.403388 -0.0067,-0.60508 0.04706,0.04034 0.09413,0.08068 0.121016,0.10757 0.0874,-0.04706 0.147911,-0.07395 0.21514,-0.10757 0,0.470619 0,0.941235 0,1.411855 -0.0874,0 -0.174802,0 -0.262199,0 -0.0067,-0.09413 -0.01344,-0.181527 -0.02017,-0.268927 z"
     id="path333"
     inkscape:connector-curvature="0"
     style="fill:#dde6ef" /><path
     class="st123"
     d="m 24.180194,14.808013 c -0.0067,0.107569 -0.01344,0.221861 -0.02017,0.329431 -0.0874,0.02691 -0.168077,0.05378 -0.255477,0.08068 -0.221864,-0.0067 -0.450451,-0.0067 -0.672312,-0.01344 -0.04706,-0.02017 -0.09412,-0.04706 -0.141185,-0.06723 0.147907,0 0.30254,0 0.477341,0 0,-0.356325 0,-0.665587 0,-0.974849 0,-0.188248 0.100845,-0.383218 0,-0.571467 0.201692,-0.02017 0.403388,-0.04706 0.60508,-0.06723 0.02688,0.04706 0.04706,0.09412 0.07395,0.141185 0,0.04034 0.0067,0.0874 0.0067,0.127739 -0.0067,0.19497 -0.0067,0.396662 -0.01344,0.591632 -0.01344,0.09412 -0.03362,0.188249 -0.04706,0.282371 -0.01344,0.05379 -0.01344,0.100848 -0.01344,0.141186 z"
     id="path335"
     inkscape:connector-curvature="0"
     style="fill:#e4f1f8" /><path
     class="st105"
     d="m 24.233979,13.671807 c -0.02688,-0.04706 -0.04706,-0.09412 -0.07395,-0.141185 -0.154633,-0.02017 -0.315987,-0.04706 -0.470617,-0.06723 0,-0.470616 0,-0.941236 0,-1.411852 0.02017,0 0.04706,0 0.06723,0 0,0.322709 0,0.645418 0,0.961404 0.02017,0 0.04706,0 0.06723,0 0,-0.322708 0,-0.638695 0,-0.961404 0.02017,0 0.04706,0 0.06723,0 0,0.188245 -0.0067,0.376494 0,0.564742 0.0067,0.127738 0.04034,0.248755 0.06723,0.376494 0.02017,0 0.04706,0 0.06723,0 0.02017,-0.02017 0.04706,-0.04706 0.06723,-0.06723 l 0.03362,0 0.03362,0 c 0,0.114291 -0.0067,0.235308 0.0067,0.349602 0.0067,0.04706 0.07396,0.08068 0.114295,0.121014 -0.01344,0.0874 -0.02691,0.181526 -0.04706,0.275649 z"
     id="path337"
     inkscape:connector-curvature="0"
     style="fill:#cedfec" /><path
     class="st124"
     d="m 24.287763,13.396158 c -0.04034,-0.04034 -0.107569,-0.07395 -0.114291,-0.121014 -0.01344,-0.114294 -0.0067,-0.235311 -0.0067,-0.349602 0,-0.242033 0,-0.484063 0,-0.692481 0.05379,-0.100847 0.09413,-0.174801 0.134463,-0.242033 l 0,0 c 0.02017,0 0.04706,0 0.06723,0 0,0.114295 0.0067,0.221864 0.0067,0.336156 -0.0067,0.04706 -0.01344,0.0874 -0.01344,0.134463 -0.02017,0.134461 -0.03361,0.268924 -0.05379,0.41011 0,0.0874 0,0.174801 0,0.262202 -0.0067,0.08068 -0.01344,0.174801 -0.02017,0.262199 z"
     id="path339"
     inkscape:connector-curvature="0"
     style="fill:#d6e4ee" /><path
     class="st125"
     d="m 23.561667,13.597853 c 0.100848,0.188246 0,0.383216 0,0.571464 0,0.309262 0,0.618527 0,0.974852 -0.174798,0 -0.322709,0 -0.477338,0 -0.04034,0 -0.08068,-0.0067 -0.127742,-0.0067 l 0,0 c -0.0067,-0.06723 -0.0067,-0.127739 -0.01344,-0.194971 -0.02017,-0.114291 -0.03362,-0.235308 -0.05378,-0.349599 -0.0067,-0.127739 -0.0067,-0.262202 -0.01344,-0.389941 0,-0.10757 0,-0.221864 0,-0.329434 0,-0.09412 0.0067,-0.181523 0.0067,-0.275646 0.235309,0 0.457173,0 0.679034,0 l 0,0 z"
     id="path341"
     inkscape:connector-curvature="0"
     style="fill:#f1f5f8" /><path
     class="st126"
     d="m 22.889359,13.597853 c 0,0.09412 -0.0067,0.181524 -0.0067,0.275646 -0.02017,-0.0067 -0.04034,-0.0067 -0.06051,-0.0067 0,-0.134463 0.0067,-0.268924 0.0067,-0.403387 0.0874,0 0.174801,0 0.262202,0 0.114291,0 0.221861,0 0.336155,0 0.0874,0 0.181524,0 0.268924,0 0.154633,0.02017 0.315987,0.04706 0.470617,0.06723 -0.201693,0.02017 -0.403385,0.04706 -0.60508,0.06723 l 0,0 c -0.221861,-0.100847 -0.450447,-0.107569 -0.672309,0 z"
     id="path343"
     inkscape:connector-curvature="0"
     style="fill:#c3d3e1" /><path
     class="st127"
     d="m 24.180194,14.808013 c 0,-0.04706 0,-0.0874 0,-0.134464 0.01344,0.04706 0.03362,0.09413 0.04706,0.134464 0,0 -0.02691,-0.0067 -0.02691,-0.0067 l -0.02017,0.0067 z"
     id="path345"
     inkscape:connector-curvature="0"
     style="fill:#77a3c4" /><path
     class="st128"
     d="m 23.427207,13.46339 c -0.114295,0 -0.221865,0 -0.336156,0 0,-0.470616 0,-0.941236 0,-1.411852 l 0,0 c 0.114291,0 0.221861,0 0.336156,0 0,0.470616 0,0.941236 0,1.411852 z"
     id="path347"
     inkscape:connector-curvature="0"
     style="fill:#edf3f6" /><path
     class="st129"
     d="m 23.427207,12.051538 c 0.04706,0 0.0874,0 0.13446,0 0,0 0,0 0,0 0.0067,0.05379 0.01344,0.10757 0.02017,0.154629 0.01344,0 0.02688,0 0.04706,-0.0067 0,-0.05378 0,-0.100847 0,-0.154632 l 0.03362,0 0.03362,0 c 0,0.470619 0,0.941236 0,1.411855 -0.0874,0 -0.181523,0 -0.268924,0 0,-0.463895 0,-0.934514 0,-1.40513 z"
     id="path349"
     inkscape:connector-curvature="0"
     style="fill:#dce9f2" /><path
     class="st123"
     d="m 22.889359,13.597853 c 0.221861,-0.107569 0.450447,-0.100847 0.672308,0 -0.221861,0 -0.443725,0 -0.672308,0 z"
     id="path351"
     inkscape:connector-curvature="0"
     style="fill:#e4f1f8" /><path
     class="st130"
     d="m 23.924726,31.756973 0,14.306776 c 0,0.18153 -0.03362,0.36305 -0.06051,0.5513 -0.02688,0.22858 -0.06723,0.46389 -0.09412,0.69248 -0.02688,0.20842 -0.06051,0.41683 -0.0874,0.61852 -0.0067,0.0336 -0.02688,0.0807 -0.04034,0.0874 -0.05379,0.007 -0.114292,0 -0.168077,-0.007 -0.01344,0 -0.02017,-0.0403 -0.02691,-0.0605 -0.01344,-0.0941 -0.03362,-0.18824 -0.04706,-0.28909 -0.03362,-0.23531 -0.05378,-0.47734 -0.100844,-0.71265 -0.0874,-0.46389 -0.10757,-0.92779 -0.10757,-1.39168 0.0067,-4.591887 0,-9.183773 0,-13.775656 0,-0.141185 0.0067,-0.289093 -0.100847,-0.403387 -0.04034,-0.04706 -0.0874,-0.0874 -0.134464,-0.127739 -0.13446,-0.107569 -0.201692,-0.248755 -0.201692,-0.423556 0,-1.49253 0.0067,-2.978335 0,-4.470866 0,-0.215142 0.08068,-0.376496 0.242033,-0.490788 0.147907,-0.10757 0.19497,-0.248755 0.19497,-0.423556 l 0,-0.06051 2e-6,-2.558139 10e-7,-5.099475 0,-2.359812 0,-0.04706 c 0,-0.03362 0.02017,-0.04034 0.06051,-0.04034 l 0.598358,0 c 0.05379,0 0.07395,0.01344 0.07395,0.05378 l 0,0.03362 0.0034,7.489545 0.0034,2.541334 c 0,0.127741 -0.0067,0.248755 0.07395,0.356327 0.02691,0.03361 0.05379,0.06723 0.0874,0.0874 0.215139,0.134464 0.275649,0.336156 0.275649,0.578189 l 0,1.949703 0,2.366533 c 0,0.235308 -0.06723,0.423557 -0.262202,0.558017 -0.127739,0.0874 -0.168076,0.221864 -0.181525,0.376494 -0.0067,0.0336 1.1e-5,0.06723 1.1e-5,0.09412 z"
     id="path357"
     inkscape:connector-curvature="0"
     style="fill:none;stroke:#000000;stroke-width:0.0672311;stroke-linecap:round;stroke-linejoin:round;stroke-miterlimit:10"
     sodipodi:nodetypes="sscccccccccsccsccsccccssssccsccscsccs" /><path
     class="st130"
     d="m 23.238958,18.969617 c 0.114295,0 0.221864,0.0067 0.336156,0.0067 0.121017,0 0.242033,-0.0067 0.36305,-0.0067"
     id="path359"
     inkscape:connector-curvature="0"
     style="fill:none;stroke:#000000;stroke-width:0.0672311;stroke-linecap:round;stroke-linejoin:round;stroke-miterlimit:10" /></svg>