<?xml version="1.0" encoding="UTF-8" standalone="no"?>
<!-- Created with Inkscape (http://www.inkscape.org/) -->

<svg
   xmlns:dc="http://purl.org/dc/elements/1.1/"
   xmlns:cc="http://creativecommons.org/ns#"
   xmlns:rdf="http://www.w3.org/1999/02/22-rdf-syntax-ns#"
   xmlns:svg="http://www.w3.org/2000/svg"
   xmlns="http://www.w3.org/2000/svg"
   xmlns:sodipodi="http://sodipodi.sourceforge.net/DTD/sodipodi-0.dtd"
   xmlns:inkscape="http://www.inkscape.org/namespaces/inkscape"
   width="48px"
   height="48px"
   id="svg5120"
   version="1.1"
   inkscape:version="0.48.4 r9939"
   sodipodi:docname="250mlBeaker.svg">
  <defs
     id="defs5122" />
  <sodipodi:namedview
     id="base"
     pagecolor="#ffffff"
     bordercolor="#666666"
     borderopacity="1.0"
     inkscape:pageopacity="0.0"
     inkscape:pageshadow="2"
     inkscape:zoom="5.349102"
     inkscape:cx="72.627044"
     inkscape:cy="-4.6314699"
     inkscape:current-layer="layer1"
     showgrid="true"
     inkscape:grid-bbox="true"
     inkscape:document-units="px"
     inkscape:window-width="1200"
     inkscape:window-height="791"
     inkscape:window-x="183"
     inkscape:window-y="170"
     inkscape:window-maximized="0" />
  <metadata
     id="metadata5125">
    <rdf:RDF>
      <cc:Work
         rdf:about="">
        <dc:format>image/svg+xml</dc:format>
        <dc:type
           rdf:resource="http://purl.org/dc/dcmitype/StillImage" />
        <dc:title></dc:title>
      </cc:Work>
    </rdf:RDF>
  </metadata>
  <g
     id="layer1"
     inkscape:label="Layer 1"
     inkscape:groupmode="layer">
    <path
       d="m 17.515996,41.960745 c -1.25813,-0.593452 -1.546174,-1.345363 -1.546174,-1.980337"
       id="path46-3"
       style="fill:none;stroke:#1e1e1e;stroke-width:0.1304902;stroke-linecap:round;stroke-linejoin:round;stroke-miterlimit:4;stroke-opacity:1;stroke-dasharray:none"
       inkscape:connector-curvature="0" />
    <path
       d="m 33.695997,39.980408 c 0,1.269635 -1.144234,3.008469 -8.852733,3.008469 -2.653906,0 -4.529759,-0.206357 -5.848658,-0.528498"
       id="path48-8"
       style="fill:none;stroke:#1e1e1e;stroke-width:0.1304902;stroke-linecap:round;stroke-linejoin:round;stroke-miterlimit:4;stroke-opacity:1;stroke-dasharray:none"
       inkscape:connector-curvature="0" />
    <path
       d="m 32.788559,41.071924 c 0,-0.642508 -1.386254,-1.208557 -3.495449,-1.543773"
       id="path50-2"
       style="fill:none;stroke:#1e1e1e;stroke-width:0.1304902;stroke-linecap:round;stroke-linejoin:round;stroke-miterlimit:4;stroke-opacity:1;stroke-dasharray:none"
       inkscape:connector-curvature="0" />
    <path
       d="m 26.937501,39.274204 c -0.668863,-0.04289 -1.372766,-0.066 -2.099466,-0.066 -4.39086,0 -7.950632,0.834328 -7.950632,1.863613"
       id="path52-3"
       style="fill:none;stroke:#1e1e1e;stroke-width:0.1304902;stroke-linecap:round;stroke-linejoin:round;stroke-miterlimit:4;stroke-opacity:1;stroke-dasharray:none"
       inkscape:connector-curvature="0" />
    <path
       d="m 28.054118,37.797581 c -1.001882,-0.108041 -2.085033,-0.167766 -3.216083,-0.167766 -3.777117,0 -7.026462,0.658614 -8.46763,1.602554"
       id="path54-2"
       style="fill:none;stroke:#1e1e1e;stroke-width:0.1304902;stroke-linecap:round;stroke-linejoin:round;stroke-miterlimit:4;stroke-opacity:1;stroke-dasharray:none"
       inkscape:connector-curvature="0" />
    <path
       d="m 33.305557,39.232473 c -0.516789,-0.338461 -1.186591,-0.61092 -2.082523,-0.859221"
       id="path56-1"
       style="fill:none;stroke:#1e1e1e;stroke-width:0.1304902;stroke-linecap:round;stroke-linejoin:round;stroke-miterlimit:4;stroke-opacity:1;stroke-dasharray:none"
       inkscape:connector-curvature="0" />
    <path
       inkscape:connector-curvature="0"
       style="fill:none;stroke:#000000;stroke-width:0.21748365;stroke-linecap:round;stroke-linejoin:round;stroke-miterlimit:4;stroke-opacity:1;stroke-dasharray:none"
       id="path26-7"
       d="m 30.538586,36.276818 c -0.575775,0.125828 -1.21368,0.234704 -1.901577,0.322772 l 0,-19.784749 c 0.687792,-0.08828 1.325802,-0.196944 1.901577,-0.322767" />
    <path
       d="m 13.821301,7.8321006 c 0.124252,-0.079908 0.406859,-0.1618034 0.539377,-0.1870098 1.069658,-0.2033255 1.808494,-0.1624298 3.086915,0.129381 1.840707,0.4204568 4.383748,0.6802628 7.192867,0.6802628 4.119967,0 7.51804,-0.5918861 9.124984,-1.3675372 0.387721,-0.1872187 0.5945,-0.4424227 0.635604,-0.6271272"
       id="path30-0"
       style="fill:none;stroke:#323232;stroke-width:0.17398693;stroke-linecap:round;stroke-linejoin:round;stroke-miterlimit:4;stroke-opacity:1;stroke-dasharray:none"
       inkscape:connector-curvature="0" />
    <path
       d="m 34.245313,8.4915502 0,31.7787858 c 0,1.288986 -1.215669,3.449639 -9.403828,3.449639 -8.18816,0 -9.403828,-2.160653 -9.403828,-3.449639 l 0,-29.819889 c 0,0 0.113483,-1.7461586 -1.54607,-1.9849383 C 13.808643,8.4535906 13.542039,8.5713537 13.45,8.5679 12.918256,8.5478046 12.795778,7.9314602 13.67623,7.1039349 14.655838,6.1834223 14.195947,5.1725452 16.142917,4.4853795 18.007683,3.8272914 21.195841,3.311655 24.841485,3.311655 c 5.722621,0 10.361573,1.1699577 10.361573,2.5714876 0,1.0155834 -0.957745,1.119023 -0.957745,2.6084076 z"
       id="path32-8"
       style="fill:none;stroke:#323232;stroke-width:0.21748365;stroke-linecap:round;stroke-linejoin:round;stroke-miterlimit:4;stroke-opacity:1;stroke-dasharray:none"
       inkscape:connector-curvature="0" />
    <path
       inkscape:connector-curvature="0"
       style="fill:none;stroke:#000000;stroke-width:0.17398693;stroke-linecap:round;stroke-linejoin:round;stroke-miterlimit:4;stroke-opacity:1;stroke-dasharray:none"
       id="path22-4"
       d="m 28.637009,23.393652 c 0.687792,-0.08817 1.325802,-0.196844 1.901577,-0.322876" />
    <path
       inkscape:connector-curvature="0"
       style="fill:none;stroke:#000000;stroke-width:0.17398693;stroke-linecap:round;stroke-linejoin:round;stroke-miterlimit:4;stroke-opacity:1;stroke-dasharray:none"
       id="path24-0"
       d="m 28.637009,29.986056 c 0.687792,-0.08828 1.325802,-0.196736 1.901577,-0.322768" />
    <path
       d="m 14.715559,8.0922198 c 1.288355,-0.1391069 1.640831,0.014528 2.753164,0.2965172 0.07269,0.018399 0.14852,0.037451 0.22811,0.057211"
       id="path34-1"
       style="fill:none;stroke:#1e1e1e;stroke-width:0.08699346;stroke-linecap:round;stroke-linejoin:round;stroke-miterlimit:4;stroke-opacity:1;stroke-dasharray:none"
       inkscape:connector-curvature="0" />
    <path
       d="m 34.124718,7.5687366 c -1.713315,1.0536561 -5.35948,1.6220062 -9.286683,1.6220062 -2.042154,0 -3.946449,-0.1542699 -5.551722,-0.4205612"
       id="path36-4"
       style="fill:none;stroke:#1e1e1e;stroke-width:0.08699346;stroke-linecap:round;stroke-linejoin:round;stroke-miterlimit:4;stroke-opacity:1;stroke-dasharray:none"
       inkscape:connector-curvature="0" />
    <path
       d="m 30.46004,4.4740834 c 1.521703,0.2838597 2.907852,0.7622628 3.460726,1.1374352 0.253738,0.1722601 0.400792,0.3711924 0.400792,0.60527"
       id="path38-0"
       style="fill:none;stroke:#1e1e1e;stroke-width:0.08699346;stroke-linecap:round;stroke-linejoin:round;stroke-miterlimit:4;stroke-opacity:1;stroke-dasharray:none"
       inkscape:connector-curvature="0" />
    <path
       d="m 14.817532,6.9057334 c 0.32884,-0.8075516 0.519612,-1.4742173 2.330721,-2.0127591 1.86905,-0.5556968 4.555799,-0.904197 7.541472,-0.904197 1.47955,0 2.885886,0.085558 4.155421,0.2395148"
       id="path40-7"
       style="fill:none;stroke:#1e1e1e;stroke-width:0.08699346;stroke-linecap:round;stroke-linejoin:round;stroke-miterlimit:4;stroke-opacity:1;stroke-dasharray:none"
       inkscape:connector-curvature="0" />
    <g
       id="g9576"
       transform="translate(52.193033,1.9922698)">
      <path
         inkscape:connector-curvature="0"
         style="fill:none;stroke:#1e1e1e;stroke-width:0.13904472;stroke-linecap:round;stroke-linejoin:round;stroke-miterlimit:4;stroke-opacity:1;stroke-dasharray:none"
         id="path105-8"
         d="m 31.551241,35.432183 c 0,-0.600372 -1.296032,-1.129975 -3.268107,-1.443368" />
      <path
         inkscape:connector-curvature="0"
         style="fill:none;stroke:#1e1e1e;stroke-width:0.13904472;stroke-linecap:round;stroke-linejoin:round;stroke-miterlimit:4;stroke-opacity:1;stroke-dasharray:none"
         id="path101-0"
         d="m 17.272271,36.263253 c -1.176448,-0.554788 -1.44582,-1.257914 -1.44582,-1.85138" />
      <path
         inkscape:connector-curvature="0"
         style="fill:none;stroke:#1e1e1e;stroke-width:0.13904472;stroke-linecap:round;stroke-linejoin:round;stroke-miterlimit:4;stroke-opacity:1;stroke-dasharray:none"
         id="path107-9"
         d="m 26.080693,33.751434 c -0.625112,-0.04 -1.283327,-0.06152 -1.962713,-0.06152 -4.105421,0 -7.433488,0.780027 -7.433488,1.742272" />
      <path
         inkscape:connector-curvature="0"
         style="fill:none;stroke:#1e1e1e;stroke-width:0.13904472;stroke-linecap:round;stroke-linejoin:round;stroke-miterlimit:4;stroke-opacity:1;stroke-dasharray:none"
         id="path103-2"
         d="m 32.399474,34.411873 c 0,1.186927 -1.069903,2.812508 -8.276702,2.812508 -2.481285,0 -4.235038,-0.192693 -5.4681,-0.493826" />
      <path
         inkscape:connector-curvature="0"
         style="fill:none;stroke:#1e1e1e;stroke-width:0.13904472;stroke-linecap:round;stroke-linejoin:round;stroke-miterlimit:4;stroke-opacity:1;stroke-dasharray:none"
         id="path111-9"
         d="M 32.034592,33.693035 C 31.569965,33.388893 30.904506,33.116514 30.08748,32.889936" />
      <path
         inkscape:connector-curvature="0"
         style="fill:none;stroke:#1e1e1e;stroke-width:0.13904472;stroke-linecap:round;stroke-linejoin:round;stroke-miterlimit:4;stroke-opacity:1;stroke-dasharray:none"
         id="path109-8"
         d="m 27.124627,32.351531 c -0.936721,-0.100974 -1.949342,-0.156471 -3.006759,-0.156471 -3.531573,0 -6.568875,0.615305 -7.916728,1.497975" />
      <path
         d="m 27.900529,22.014039 c 0.652755,-0.08381 1.258475,-0.186788 1.805018,-0.306482"
         id="path75-2"
         style="fill:none;stroke:#000000;stroke-width:0.18539296;stroke-linecap:round;stroke-linejoin:round;stroke-miterlimit:4;stroke-opacity:1;stroke-dasharray:none"
         inkscape:connector-curvature="0" />
      <path
         d="m 27.900529,24.879259 c 0.652755,-0.08358 1.258475,-0.186788 1.805018,-0.30626"
         id="path77-0"
         style="fill:none;stroke:#000000;stroke-width:0.18539296;stroke-linecap:round;stroke-linejoin:round;stroke-miterlimit:4;stroke-opacity:1;stroke-dasharray:none"
         inkscape:connector-curvature="0" />
      <path
         d="m 27.900529,27.764321 c 0.652755,-0.08358 1.258475,-0.186788 1.805018,-0.30626"
         id="path79-9"
         style="fill:none;stroke:#000000;stroke-width:0.18539296;stroke-linecap:round;stroke-linejoin:round;stroke-miterlimit:4;stroke-opacity:1;stroke-dasharray:none"
         inkscape:connector-curvature="0" />
      <path
         d="m 29.705547,30.390264 c -0.546543,0.119472 -1.152263,0.222675 -1.805018,0.306482 l 0,-11.648902 c 0.652755,-0.08381 1.258475,-0.18701 1.805018,-0.306259"
         id="path81-8"
         style="fill:none;stroke:#000000;stroke-width:0.23174119;stroke-linecap:round;stroke-linejoin:round;stroke-miterlimit:4;stroke-opacity:1;stroke-dasharray:none"
         inkscape:connector-curvature="0" />
      <path
         inkscape:connector-curvature="0"
         style="fill:none;stroke:#323232;stroke-width:0.18539296;stroke-linecap:round;stroke-linejoin:round;stroke-miterlimit:4;stroke-opacity:1;stroke-dasharray:none"
         id="path85-1"
         d="m 13.664357,12.586409 c 0.117354,-0.07211 0.384496,-0.146108 0.509872,-0.168847 1.011171,-0.183442 1.709731,-0.146553 2.918053,0.116798 1.740038,0.379369 4.144311,0.61397 6.799903,0.61397 3.89467,0 7.106941,-0.534173 8.62587,-1.234179 0.366777,-0.169065 0.562033,-0.399318 0.601151,-0.565935" />
      <path
         inkscape:connector-curvature="0"
         style="fill:none;stroke:#323232;stroke-width:0.23174119;stroke-linecap:round;stroke-linejoin:round;stroke-miterlimit:4;stroke-opacity:1;stroke-dasharray:none"
         id="path87-7"
         d="m 33.050333,13.183212 0,21.460254 c 0,1.223366 -1.153826,3.274234 -8.925892,3.274234 -7.771956,0 -8.925888,-2.050868 -8.925888,-3.274234 l 0,-19.600851 c 0,0 0.109331,-1.656565 -1.506892,-1.859403 -0.06698,-0.0083 -0.304587,0.06966 -0.37759,0.06698 -0.463288,-0.01747 -0.571284,-0.64729 0.212534,-1.383963 0.929922,-0.873645 0.493271,-1.833216 2.341305,-2.4854101 1.769909,-0.6245564 4.796065,-1.1140355 8.256531,-1.1140355 5.431767,0 9.834975,1.1104714 9.834975,2.4408276 0,0.963692 -0.909083,1.061769 -0.909083,2.475599 z" />
      <path
         inkscape:connector-curvature="0"
         style="fill:none;stroke:#1e1e1e;stroke-width:0.09269648;stroke-linecap:round;stroke-linejoin:round;stroke-miterlimit:4;stroke-opacity:1;stroke-dasharray:none"
         id="path89-3"
         d="m 14.654017,12.861351 c 1.204642,-0.129951 1.534419,0.01358 2.574116,0.277283 0.06809,0.01729 0.13898,0.03509 0.213202,0.05349" />
      <path
         inkscape:connector-curvature="0"
         style="fill:none;stroke:#1e1e1e;stroke-width:0.09269648;stroke-linecap:round;stroke-linejoin:round;stroke-miterlimit:4;stroke-opacity:1;stroke-dasharray:none"
         id="path91-3"
         d="m 32.800353,12.371983 c -1.601846,0.985202 -5.010712,1.516584 -8.682373,1.516584 -1.909446,0 -3.689719,-0.144212 -5.190706,-0.393408" />
      <path
         inkscape:connector-curvature="0"
         style="fill:none;stroke:#1e1e1e;stroke-width:0.09269648;stroke-linecap:round;stroke-linejoin:round;stroke-miterlimit:4;stroke-opacity:1;stroke-dasharray:none"
         id="path93-0"
         d="m 29.454567,9.4787826 c 1.430547,0.2652509 2.733712,0.7126044 3.253285,1.0633304 0.238832,0.161264 0.376917,0.347162 0.376917,0.566047" />
      <path
         inkscape:connector-curvature="0"
         style="fill:none;stroke:#1e1e1e;stroke-width:0.09269648;stroke-linecap:round;stroke-linejoin:round;stroke-miterlimit:4;stroke-opacity:1;stroke-dasharray:none"
         id="path95-7"
         d="m 14.749193,11.752219 c 0.309046,-0.755064 0.488589,-1.378392 2.191294,-1.8819143 1.756872,-0.519573 4.282735,-0.8454475 7.089667,-0.8454475 1.390879,0 2.712985,0.08002 3.906262,0.2240103" />
    </g>
    <g
       id="g9530"
       transform="matrix(0.37465114,0,0,0.37465114,-29.055306,12.035774)">
      <path
         inkscape:connector-curvature="0"
         style="fill:none;stroke:#1e1e1e;stroke-width:0.30000001;stroke-linecap:round;stroke-linejoin:round;stroke-miterlimit:4;stroke-opacity:1;stroke-dasharray:none"
         id="path116-4"
         d="m -65.713403,-13.01652 c 4.79474,-0.51747 6.10692,0.0541 10.24617,1.10346 0.27028,0.0685 0.55234,0.13971 0.84858,0.21305" />
      <path
         inkscape:connector-curvature="0"
         style="fill:none;stroke:#1e1e1e;stroke-width:0.30000001;stroke-linecap:round;stroke-linejoin:round;stroke-miterlimit:4;stroke-opacity:1;stroke-dasharray:none"
         id="path120-0"
         d="m -6.76237,-26.09481 c 5.6854,1.01954 10.86415,2.73786 12.92969,4.08562 0.94861,0.61919 1.49782,1.33335 1.49782,2.17423" />
      <path
         inkscape:connector-curvature="0"
         style="fill:none;stroke:#1e1e1e;stroke-width:0.30000001;stroke-linecap:round;stroke-linejoin:round;stroke-miterlimit:4;stroke-opacity:1;stroke-dasharray:none"
         id="path122-8"
         d="m -66.944073,-15.36388 c 1.07509,-0.7976 2.00687,-2.63374 2.13936,-2.94321 1.06211,-2.4796 2.29325,-4.56318 8.30904,-6.28318 6.98292,-1.99628 17.02085,-3.24835 28.17572,-3.24835 5.527663,0 10.781683,0.30755 15.524963,0.8606" />
      <path
         inkscape:connector-curvature="0"
         style="fill:none;stroke:#1e1e1e;stroke-width:0.5;stroke-linecap:round;stroke-linejoin:round;stroke-miterlimit:4;stroke-opacity:1;stroke-dasharray:none"
         id="path128-7"
         d="m -55.291453,76.31162 c -4.68293,-2.26055 -5.75489,-5.12585 -5.75489,-7.54414" />
      <path
         inkscape:connector-curvature="0"
         style="fill:none;stroke:#1e1e1e;stroke-width:0.5;stroke-linecap:round;stroke-linejoin:round;stroke-miterlimit:4;stroke-opacity:1;stroke-dasharray:none"
         id="path130-3"
         d="m 4.9203,68.76748 c 0,4.83658 -4.25852,11.46049 -32.94425,11.46049 -9.876343,0 -16.857093,-0.78534 -21.765333,-2.0124" />
      <path
         inkscape:connector-curvature="0"
         style="fill:none;stroke:#1e1e1e;stroke-width:0.5;stroke-linecap:round;stroke-linejoin:round;stroke-miterlimit:4;stroke-opacity:1;stroke-dasharray:none"
         id="path132-0"
         d="m 1.54354,73.35975 c 0,-2.39015 -5.15855,-4.49777 -13.00808,-5.74479" />
      <path
         inkscape:connector-curvature="0"
         style="fill:none;stroke:#1e1e1e;stroke-width:0.5;stroke-linecap:round;stroke-linejoin:round;stroke-miterlimit:4;stroke-opacity:1;stroke-dasharray:none"
         id="path134-7"
         d="m -20.23069,66.66972 c -2.48922,-0.15942 -5.1083,-0.24503 -7.81321,-0.24503 -16.340603,0 -29.587213,3.10456 -29.587213,6.93506" />
      <path
         inkscape:connector-curvature="0"
         style="fill:none;stroke:#1e1e1e;stroke-width:0.5;stroke-linecap:round;stroke-linejoin:round;stroke-miterlimit:4;stroke-opacity:1;stroke-dasharray:none"
         id="path136-6"
         d="m -16.07509,61.04443 c -3.72878,-0.40204 -7.75935,-0.62326 -11.96857,-0.62326 -14.056723,0 -26.146733,2.45003 -31.511363,5.96337" />
      <path
         inkscape:connector-curvature="0"
         style="fill:none;stroke:#1e1e1e;stroke-width:0.5;stroke-linecap:round;stroke-linejoin:round;stroke-miterlimit:4;stroke-opacity:1;stroke-dasharray:none"
         id="path138-4"
         d="M 3.46769,66.38454 C 1.61857,65.17359 -1.03008,64.08912 -4.28252,63.1874" />
      <path
         inkscape:connector-curvature="0"
         style="fill:none;stroke:#323232;stroke-width:0.80000001;stroke-linecap:round;stroke-linejoin:round;stroke-miterlimit:4;stroke-opacity:1;stroke-dasharray:none"
         id="path140-2"
         d="m -68.439003,-13.35461 c 0.46361,-0.32437 1.51874,-0.65693 2.0136,-0.75912 3.99402,-0.82526 6.7528,-0.6591 11.52493,0.52516 6.87327,1.70581 16.36849,2.7607 26.856813,2.7607 15.38308,0 27.66498,-2.40194 33.66442,-5.54954 1.44828,-0.75985 2.23963,-1.7955 2.394,-2.54477" />
      <path
         inkscape:connector-curvature="0"
         style="fill:none;stroke:#1e1e1e;stroke-width:0.30000001;stroke-linecap:round;stroke-linejoin:round;stroke-miterlimit:4;stroke-opacity:1;stroke-dasharray:none"
         id="path118-2"
         d="m 6.51598,-14.96472 c -6.37623,3.92116 -19.94434,6.03647 -34.55964,6.03647 -7.599453,0 -14.686483,-0.57421 -20.660673,-1.56538" />
      <path
         inkscape:connector-curvature="0"
         style="fill:none;stroke:#323232;stroke-width:0.80000001;stroke-linecap:round;stroke-linejoin:round;stroke-miterlimit:4;stroke-opacity:1;stroke-dasharray:none"
         id="path142-1"
         d="m 6.42677,-10.69321 0,80.13325 c 0,4.72453 -4.45569,12.64499 -34.47043,12.64499 -30.014513,0 -34.470443,-7.92022 -34.470443,-12.64499 l 0,-72.95244 c 0,0 0.41166,-6.69821 -5.58104,-7.6247 -0.32967,-0.051 -1.20782,0.2395 -1.57741,0.22555 -1.68994,-0.0637 -1.93232,-2.39232 0.7019,-4.86784 3.59077,-3.37411 1.90467,-7.07958 9.04172,-9.59838 6.83479,-2.41204 18.52155,-4.30228 31.885273,-4.30228 20.97663,0 37.98137,4.28858 37.98137,9.42597 -2.4e-4,3.72206 -3.51094,4.10126 -3.51094,9.56087 z" />
      <path
         d="m -12.24122,19.9852 c 2.52097,-0.32342 4.85991,-0.72162 6.97041,-1.18306"
         id="path154-3"
         style="fill:none;stroke:#161413;stroke-width:0.72137529;stroke-linecap:round;stroke-linejoin:round"
         inkscape:connector-curvature="0" />
      <path
         d="m -12.24122,30.75749 c 2.52097,-0.32341 4.85991,-0.72161 6.97041,-1.18305"
         id="path156-6"
         style="fill:none;stroke:#161413;stroke-width:0.72137529;stroke-linecap:round;stroke-linejoin:round"
         inkscape:connector-curvature="0" />
      <path
         d="m -12.24122,41.53003 c 2.52097,-0.32342 4.85991,-0.72161 6.97041,-1.18305"
         id="path158-2"
         style="fill:none;stroke:#161413;stroke-width:0.72137529;stroke-linecap:round;stroke-linejoin:round"
         inkscape:connector-curvature="0" />
      <path
         d="m -12.24122,52.30257 c 2.52097,-0.32342 4.85991,-0.72162 6.97041,-1.18306"
         id="path160-2"
         style="fill:none;stroke:#161413;stroke-width:0.72137529;stroke-linecap:round;stroke-linejoin:round"
         inkscape:connector-curvature="0" />
      <path
         d="m -5.27081,61.89181 c -2.1105,0.46144 -4.44944,0.85964 -6.97041,1.18306 l 0,-53.86221 C -9.72025,8.88924 -7.38131,8.49104 -5.27081,8.0296"
         id="path162-1"
         style="fill:none;stroke:#000000;stroke-width:0.5;stroke-linecap:round;stroke-linejoin:round;stroke-miterlimit:4;stroke-opacity:1;stroke-dasharray:none"
         inkscape:connector-curvature="0" />
    </g>
  </g>
</svg>
