<?xml version="1.0" encoding="UTF-8" standalone="no"?>
<!-- Created with Inkscape (http://www.inkscape.org/) -->

<svg
   xmlns:dc="http://purl.org/dc/elements/1.1/"
   xmlns:cc="http://creativecommons.org/ns#"
   xmlns:rdf="http://www.w3.org/1999/02/22-rdf-syntax-ns#"
   xmlns:svg="http://www.w3.org/2000/svg"
   xmlns="http://www.w3.org/2000/svg"
   xmlns:sodipodi="http://sodipodi.sourceforge.net/DTD/sodipodi-0.dtd"
   xmlns:inkscape="http://www.inkscape.org/namespaces/inkscape"
   width="800px"
   height="600px"
   id="svg6766"
   version="1.1"
   inkscape:version="0.48.4 r9939"
   sodipodi:docname="New document 26">
  <defs
     id="defs6768" />
  <sodipodi:namedview
     id="base"
     pagecolor="#ffffff"
     bordercolor="#666666"
     borderopacity="1.0"
     inkscape:pageopacity="0.0"
     inkscape:pageshadow="2"
     inkscape:zoom="0.6"
     inkscape:cx="400"
     inkscape:cy="300"
     inkscape:current-layer="layer1"
     inkscape:document-units="px"
     showgrid="false"
     inkscape:window-width="1036"
     inkscape:window-height="592"
     inkscape:window-x="156"
     inkscape:window-y="156"
     inkscape:window-maximized="0" />
  <metadata
     id="metadata6771">
    <rdf:RDF>
      <cc:Work
         rdf:about="">
        <dc:format>image/svg+xml</dc:format>
        <dc:type
           rdf:resource="http://purl.org/dc/dcmitype/StillImage" />
        <dc:title></dc:title>
      </cc:Work>
    </rdf:RDF>
  </metadata>
  <g
     id="layer1"
     inkscape:label="Layer 1"
     inkscape:groupmode="layer">
    <g
       transform="translate(-275.91299,-115.45593)"
       id="g6674">
      <path
         inkscape:connector-curvature="0"
         style="fill:none;stroke:#161413;stroke-width:0.24045843;stroke-linecap:round;stroke-linejoin:round"
         id="path116-4"
         d="m 297.37128,141.23692 c 4.79474,-0.51747 6.10692,0.0541 10.24617,1.10346 0.27028,0.0685 0.55234,0.13971 0.84858,0.21305" />
      <path
         inkscape:connector-curvature="0"
         style="fill:none;stroke:#161413;stroke-width:0.24045843;stroke-linecap:round;stroke-linejoin:round"
         id="path118-2"
         d="m 369.60066,139.28872 c -6.37623,3.92116 -19.94434,6.03647 -34.55964,6.03647 -7.59945,0 -14.68648,-0.57421 -20.66067,-1.56538" />
      <path
         inkscape:connector-curvature="0"
         style="fill:none;stroke:#161413;stroke-width:0.24045843;stroke-linecap:round;stroke-linejoin:round"
         id="path120-0"
         d="m 356.32231,128.15863 c 5.6854,1.01954 10.86415,2.73786 12.92969,4.08562 0.94861,0.61919 1.49782,1.33335 1.49782,2.17423" />
      <path
         inkscape:connector-curvature="0"
         style="fill:none;stroke:#161413;stroke-width:0.24045843;stroke-linecap:round;stroke-linejoin:round"
         id="path122-8"
         d="m 296.14061,138.88956 c 1.07509,-0.7976 2.00687,-2.63374 2.13936,-2.94321 1.06211,-2.4796 2.29325,-4.56318 8.30904,-6.28318 6.98292,-1.99628 17.02085,-3.24835 28.17572,-3.24835 5.52766,0 10.78168,0.30755 15.52496,0.8606" />
      <path
         inkscape:connector-curvature="0"
         style="fill:none;stroke:#161413;stroke-width:0.24045843;stroke-linecap:round;stroke-linejoin:round"
         id="path128-7"
         d="m 307.79323,230.56506 c -4.68293,-2.26055 -5.75489,-5.12585 -5.75489,-7.54414" />
      <path
         inkscape:connector-curvature="0"
         style="fill:none;stroke:#161413;stroke-width:0.24045843;stroke-linecap:round;stroke-linejoin:round"
         id="path130-3"
         d="m 368.00498,223.02092 c 0,4.83658 -4.25852,11.46049 -32.94425,11.46049 -9.87634,0 -16.85709,-0.78534 -21.76533,-2.0124" />
      <path
         inkscape:connector-curvature="0"
         style="fill:none;stroke:#161413;stroke-width:0.24045843;stroke-linecap:round;stroke-linejoin:round"
         id="path132-0"
         d="m 364.62822,227.61319 c 0,-2.39015 -5.15855,-4.49777 -13.00808,-5.74479" />
      <path
         inkscape:connector-curvature="0"
         style="fill:none;stroke:#161413;stroke-width:0.24045843;stroke-linecap:round;stroke-linejoin:round"
         id="path134-7"
         d="m 342.85399,220.92316 c -2.48922,-0.15942 -5.1083,-0.24503 -7.81321,-0.24503 -16.3406,0 -29.58721,3.10456 -29.58721,6.93506" />
      <path
         inkscape:connector-curvature="0"
         style="fill:none;stroke:#161413;stroke-width:0.24045843;stroke-linecap:round;stroke-linejoin:round"
         id="path136-6"
         d="m 347.00959,215.29787 c -3.72878,-0.40204 -7.75935,-0.62326 -11.96857,-0.62326 -14.05672,0 -26.14673,2.45003 -31.51136,5.96337" />
      <path
         inkscape:connector-curvature="0"
         style="fill:none;stroke:#161413;stroke-width:0.24045843;stroke-linecap:round;stroke-linejoin:round"
         id="path138-4"
         d="m 366.55237,220.63798 c -1.84912,-1.21095 -4.49777,-2.29542 -7.75021,-3.19714" />
      <path
         inkscape:connector-curvature="0"
         style="fill:none;stroke:#161413;stroke-width:0.48091686;stroke-linecap:round;stroke-linejoin:round"
         id="path140-2"
         d="m 294.64568,140.89883 c 0.46361,-0.32437 1.51874,-0.65693 2.0136,-0.75912 3.99402,-0.82526 6.7528,-0.6591 11.52493,0.52516 6.87327,1.70581 16.36849,2.7607 26.85681,2.7607 15.38308,0 27.66498,-2.40194 33.66442,-5.54954 1.44828,-0.75985 2.23963,-1.7955 2.394,-2.54477" />
      <path
         inkscape:connector-curvature="0"
         style="fill:none;stroke:#161413;stroke-width:0.96183372;stroke-linecap:round;stroke-linejoin:round"
         id="path142-1"
         d="m 369.51145,143.56023 0,80.13325 c 0,4.72453 -4.45569,12.64499 -34.47043,12.64499 -30.01451,0 -34.47044,-7.92022 -34.47044,-12.64499 l 0,-72.95244 c 0,0 0.41166,-6.69821 -5.58104,-7.6247 -0.32967,-0.051 -1.20782,0.2395 -1.57741,0.22555 -1.68994,-0.0637 -1.93232,-2.39232 0.7019,-4.86784 3.59077,-3.37411 1.90467,-7.07958 9.04172,-9.59838 6.83479,-2.41204 18.52155,-4.30228 31.88527,-4.30228 20.97663,0 37.98137,4.28858 37.98137,9.42597 -2.4e-4,3.72206 -3.51094,4.10126 -3.51094,9.56087 z" />
      <path
         inkscape:connector-curvature="0"
         style="fill:#161413;fill-opacity:1;stroke:#161413;stroke-width:0.24045843;stroke-linecap:round;stroke-linejoin:round"
         id="path148-6"
         d="m 343.383,204.5792 c 0,1.3545 -1.14723,2.62196 -2.5693,2.7583 -4.4783,0.43138 -8.99483,0.35492 -13.45942,-0.23012 -1.41774,-0.18491 -2.55992,-1.4918 -2.55992,-2.84631 0,-1.44179 0,-2.88333 0,-4.32488 0,-1.35619 1.14242,-2.24661 2.55992,-2.06169 4.46435,0.58503 8.98112,0.6615 13.45942,0.23012 1.42183,-0.1361 2.5693,0.79375 2.5693,2.14969 0,1.44155 0,2.88334 0,4.32489 z" />
      <path
         d="m 350.84346,174.23864 c 2.52097,-0.32342 4.85991,-0.72162 6.97041,-1.18306"
         id="path154-3"
         style="fill:none;stroke:#161413;stroke-width:0.72137529;stroke-linecap:round;stroke-linejoin:round"
         inkscape:connector-curvature="0" />
      <path
         d="m 350.84346,185.01093 c 2.52097,-0.32341 4.85991,-0.72161 6.97041,-1.18305"
         id="path156-6"
         style="fill:none;stroke:#161413;stroke-width:0.72137529;stroke-linecap:round;stroke-linejoin:round"
         inkscape:connector-curvature="0" />
      <path
         d="m 350.84346,195.78347 c 2.52097,-0.32342 4.85991,-0.72161 6.97041,-1.18305"
         id="path158-2"
         style="fill:none;stroke:#161413;stroke-width:0.72137529;stroke-linecap:round;stroke-linejoin:round"
         inkscape:connector-curvature="0" />
      <path
         d="m 350.84346,206.55601 c 2.52097,-0.32342 4.85991,-0.72162 6.97041,-1.18306"
         id="path160-2"
         style="fill:none;stroke:#161413;stroke-width:0.72137529;stroke-linecap:round;stroke-linejoin:round"
         inkscape:connector-curvature="0" />
      <path
         d="m 357.81387,216.14525 c -2.1105,0.46144 -4.44944,0.85964 -6.97041,1.18306 l 0,-53.86221 c 2.52097,-0.32342 4.85991,-0.72162 6.97041,-1.18306"
         id="path162-1"
         style="fill:none;stroke:#161413;stroke-width:0.72137529;stroke-linecap:round;stroke-linejoin:round"
         inkscape:connector-curvature="0" />
    </g>
  </g>
</svg>
