<?xml version="1.0" encoding="UTF-8" standalone="no"?>
<svg
   xmlns:dc="http://purl.org/dc/elements/1.1/"
   xmlns:cc="http://creativecommons.org/ns#"
   xmlns:rdf="http://www.w3.org/1999/02/22-rdf-syntax-ns#"
   xmlns:svg="http://www.w3.org/2000/svg"
   xmlns="http://www.w3.org/2000/svg"
   xmlns:sodipodi="http://sodipodi.sourceforge.net/DTD/sodipodi-0.dtd"
   xmlns:inkscape="http://www.inkscape.org/namespaces/inkscape"
   version="1.1"
   id="Layer_1"
   sodipodi:docname="DisposablePipette.svg"
   inkscape:version="0.91 r13725"
   x="0px"
   y="0px"
   viewBox="-302 359 48 48"
   xml:space="preserve"
   width="48"
   height="48"><metadata
     id="metadata10"><rdf:rdf><cc:work
         rdf:about=""><dc:format>image/svg+xml</dc:format><dc:type
           rdf:resource="http://purl.org/dc/dcmitype/StillImage" /></cc:work></rdf:rdf><rdf:RDF><cc:Work
         rdf:about=""><dc:format>image/svg+xml</dc:format><dc:type
           rdf:resource="http://purl.org/dc/dcmitype/StillImage" /><dc:title></dc:title></cc:Work></rdf:RDF></metadata><defs
     id="defs8"><clipPath
       clipPathUnits="userSpaceOnUse"
       id="clipPath4142"><path
         id="path4144"
         d="m -297.8,379.4 c 0,-0.5 0.2,-1.4 0.6,-1.7 0.6,-0.4 0.9,-1.1 0.9,-1.9 l 0,-7.8 0,-6.5 c 0,-0.8 -0.1,-1.9 -3,-1.9 l 0.2,0 c -1.7,0.1 -2.5,0.8 -2.5,1.5 0,5 -0.1,10.1 -0.1,15.1 0,0.6 0.2,1.1 0.7,1.4 0.2,0.1 0.3,0.3 0.4,0.4 0.4,0.4 0.3,0.9 0.3,1.3 0,15.3 0,30.5 0,45.8 0,1.5 0.1,3.1 0.4,4.6 0.2,0.8 0.2,1.6 0.3,2.4 0,0.3 0.1,0.6 0.2,1 0,0.1 0,0.2 0.1,0.2 0.2,0 0.4,0 0.6,0 0,0 0.1,-0.2 0.1,-0.3 0.1,-0.7 0.2,-1.4 0.3,-2.1 0.1,-0.8 0.2,-1.5 0.3,-2.3 0.1,-0.6 0.2,-1.2 0.2,-1.8 l 0,-47.6"
         class="st0"
         inkscape:connector-curvature="0"
         style="fill:none;stroke:#000000;stroke-width:0.2236;stroke-linecap:round;stroke-linejoin:round;stroke-miterlimit:10" /></clipPath></defs><style
     type="text/css"
     id="style3">
        .st0{fill:none;stroke:#000000;stroke-width:0.2236;stroke-linecap:round;stroke-linejoin:round;stroke-miterlimit:10;}
    </style><sodipodi:namedview
     inkscape:cy="44.198877"
     inkscape:zoom="6.742513"
     showgrid="false"
     guidetolerance="10"
     gridtolerance="10"
     objecttolerance="10"
     borderopacity="1"
     pagecolor="#ffffff"
     bordercolor="#666666"
     id="namedview361"
     inkscape:cx="0.18030644"
     inkscape:current-layer="Layer_1"
     inkscape:window-maximized="1"
     inkscape:window-y="0"
     inkscape:window-x="0"
     inkscape:window-height="791"
     inkscape:pageopacity="0"
     inkscape:pageshadow="2"
     inkscape:window-width="1440" /><path
     class="st0"
     d="m -277.60879,377.44149 c 0,-0.16301 0.0652,-0.45642 0.19561,-0.55422 0.19561,-0.1304 0.29341,-0.35861 0.29341,-0.61942 l 0,-2.5429 0,-2.11908 c 0,-0.26081 -0.0326,-0.61942 -0.97803,-0.61942 l 0.0652,0 c -0.55422,0.0326 -0.81503,0.26081 -0.81503,0.48902 0,1.63006 -0.0326,3.29272 -0.0326,4.92278 0,0.19561 0.0652,0.35862 0.22821,0.45642 0.0652,0.0326 0.0978,0.0978 0.1304,0.1304 0.13041,0.13041 0.0978,0.29341 0.0978,0.42382 0,4.98799 0,9.94337 0,14.93136 0,0.48902 0.0326,1.01064 0.13041,1.49966 0.0652,0.26081 0.0652,0.52162 0.0978,0.78243 0,0.0978 0.0326,0.1956 0.0652,0.32601 0,0.0326 0,0.0652 0.0326,0.0652 0.0652,0 0.1304,0 0.1956,0 0,0 0.0326,-0.0652 0.0326,-0.0978 0.0326,-0.22821 0.0652,-0.45642 0.0978,-0.68463 0.0326,-0.26081 0.0652,-0.48902 0.0978,-0.74983 0.0326,-0.1956 0.0652,-0.39121 0.0652,-0.58682 l 0,-15.51818"
     id="path6"
     inkscape:connector-curvature="0"
     style="fill:none;stroke:#000000;stroke-width:0.07289634;stroke-linecap:round;stroke-linejoin:round;stroke-miterlimit:10" /></svg>