<?xml version="1.0" encoding="UTF-8" standalone="no"?>
<!-- Created with Inkscape (http://www.inkscape.org/) -->

<svg
   xmlns:dc="http://purl.org/dc/elements/1.1/"
   xmlns:cc="http://creativecommons.org/ns#"
   xmlns:rdf="http://www.w3.org/1999/02/22-rdf-syntax-ns#"
   xmlns:svg="http://www.w3.org/2000/svg"
   xmlns="http://www.w3.org/2000/svg"
   xmlns:sodipodi="http://sodipodi.sourceforge.net/DTD/sodipodi-0.dtd"
   xmlns:inkscape="http://www.inkscape.org/namespaces/inkscape"
   width="48px"
   height="48px"
   id="svg4114"
   version="1.1"
   inkscape:version="0.48.4 r9939"
   sodipodi:docname="glassware.svg">
  <defs
     id="defs4116" />
  <sodipodi:namedview
     id="base"
     pagecolor="#ffffff"
     bordercolor="#666666"
     borderopacity="1.0"
     inkscape:pageopacity="0.0"
     inkscape:pageshadow="2"
     inkscape:zoom="7"
     inkscape:cx="19.774585"
     inkscape:cy="43.761443"
     inkscape:current-layer="layer1"
     showgrid="true"
     inkscape:grid-bbox="true"
     inkscape:document-units="px"
     inkscape:window-width="1261"
     inkscape:window-height="889"
     inkscape:window-x="267"
     inkscape:window-y="81"
     inkscape:window-maximized="0" />
  <metadata
     id="metadata4119">
    <rdf:RDF>
      <cc:Work
         rdf:about="">
        <dc:format>image/svg+xml</dc:format>
        <dc:type
           rdf:resource="http://purl.org/dc/dcmitype/StillImage" />
        <dc:title />
      </cc:Work>
    </rdf:RDF>
  </metadata>
  <g
     id="layer1"
     inkscape:label="Layer 1"
     inkscape:groupmode="layer">
    <g
       id="g16533"
       transform="matrix(0.26283891,0,0,0.2697631,13.049919,19.528846)">
      <path
         inkscape:connector-curvature="0"
         style="fill:none;stroke:#1e1e1e;stroke-width:0.30468458;stroke-linecap:round;stroke-linejoin:round;stroke-miterlimit:4;stroke-opacity:1;stroke-dasharray:none"
         id="path116-4-0"
         d="m 107.74511,7.3524186 c -4.94566,-0.51747 -6.29914,0.0541 -10.568663,1.10346 -0.27879,0.0685 -0.56973,0.13971 -0.87529,0.21305" />
      <path
         inkscape:connector-curvature="0"
         style="fill:none;stroke:#1e1e1e;stroke-width:0.30468458;stroke-linecap:round;stroke-linejoin:round;stroke-miterlimit:4;stroke-opacity:1;stroke-dasharray:none"
         id="path120-0-4"
         d="m 46.938637,-5.7258714 c -5.86435,1.01954 -11.20609,2.73786 -13.33665,4.08562 -0.97846,0.61919 -1.54496,1.33334998 -1.54496,2.17422998" />
      <path
         inkscape:connector-curvature="0"
         style="fill:none;stroke:#1e1e1e;stroke-width:0.30468458;stroke-linecap:round;stroke-linejoin:round;stroke-miterlimit:4;stroke-opacity:1;stroke-dasharray:none"
         id="path122-8-8"
         d="m 109.01451,5.0050586 c -1.10893,-0.7976 -2.07004,-2.63374 -2.2067,-2.94321 -1.09553,-2.47960002 -2.36542,-4.56318 -8.570563,-6.28318 -7.2027,-1.99628 -17.55656,-3.24835 -29.06252,-3.24835 -5.70165,0 -11.12103,0.30755 -16.0136,0.8606" />
      <path
         inkscape:connector-curvature="0"
         style="fill:none;stroke:#1e1e1e;stroke-width:0.50780761;stroke-linecap:round;stroke-linejoin:round;stroke-miterlimit:4;stroke-opacity:1;stroke-dasharray:none"
         id="path128-7-3"
         d="m 96.995127,96.680559 c 4.830323,-2.26055 5.936023,-5.12585 5.936023,-7.54414" />
      <path
         inkscape:connector-curvature="0"
         style="fill:none;stroke:#1e1e1e;stroke-width:0.50780761;stroke-linecap:round;stroke-linejoin:round;stroke-miterlimit:4;stroke-opacity:1;stroke-dasharray:none"
         id="path130-3-0"
         d="m 34.888257,89.136419 c 0,4.83658 4.39256,11.460491 33.98115,11.460491 10.18719,0 17.38765,-0.785341 22.45038,-2.012401" />
      <path
         inkscape:connector-curvature="0"
         style="fill:none;stroke:#1e1e1e;stroke-width:0.50780761;stroke-linecap:round;stroke-linejoin:round;stroke-miterlimit:4;stroke-opacity:1;stroke-dasharray:none"
         id="path132-0-1"
         d="m 38.371297,93.728689 c 0,-2.39015 5.32091,-4.49777 13.4175,-5.74479" />
      <path
         inkscape:connector-curvature="0"
         style="fill:none;stroke:#1e1e1e;stroke-width:0.50780761;stroke-linecap:round;stroke-linejoin:round;stroke-miterlimit:4;stroke-opacity:1;stroke-dasharray:none"
         id="path134-7-2"
         d="m 60.830857,87.038659 c 2.56757,-0.15942 5.26908,-0.24503 8.05912,-0.24503 16.85492,0 30.51845,3.10456 30.51845,6.93506" />
      <path
         inkscape:connector-curvature="0"
         style="fill:none;stroke:#1e1e1e;stroke-width:0.50780761;stroke-linecap:round;stroke-linejoin:round;stroke-miterlimit:4;stroke-opacity:1;stroke-dasharray:none"
         id="path136-6-9"
         d="m 56.544467,81.413369 c 3.84614,-0.40204 8.00357,-0.62326 12.34527,-0.62326 14.49914,0 26.96968,2.45003 32.503153,5.96337" />
      <path
         inkscape:connector-curvature="0"
         style="fill:none;stroke:#1e1e1e;stroke-width:0.50780761;stroke-linecap:round;stroke-linejoin:round;stroke-miterlimit:4;stroke-opacity:1;stroke-dasharray:none"
         id="path138-4-0"
         d="m 36.386587,86.753479 c 1.90732,-1.21095 4.63934,-2.29542 7.99414,-3.19714" />
      <path
         inkscape:connector-curvature="0"
         style="fill:none;stroke:#323232;stroke-width:0.81249213;stroke-linecap:round;stroke-linejoin:round;stroke-miterlimit:4;stroke-opacity:1;stroke-dasharray:none"
         id="path140-2-7"
         d="m 110.55649,7.0143286 c -0.4782,-0.32437 -1.56654,-0.65693 -2.07698,-0.75912 -4.11972,-0.82526 -6.96533,-0.6591 -11.887663,0.52516 -7.0896,1.70581 -16.88368,2.7607 -27.70211,2.7607 -15.86725,0 -28.53572,-2.40194 -34.72398,-5.54954 -1.49387,-0.75985 -2.31012,-1.7955 -2.46935,-2.54477" />
      <path
         inkscape:connector-curvature="0"
         style="fill:none;stroke:#1e1e1e;stroke-width:0.30468458;stroke-linecap:round;stroke-linejoin:round;stroke-miterlimit:4;stroke-opacity:1;stroke-dasharray:none"
         id="path118-2-0"
         d="m 33.242357,5.4042186 c 6.57692,3.92116 20.57207,6.0364704 35.64738,6.0364704 7.83864,0 15.14873,-0.57421 21.31095,-1.5653804" />
      <path
         inkscape:connector-curvature="0"
         style="fill:none;stroke:#323232;stroke-width:0.81199998;stroke-linecap:round;stroke-linejoin:round;stroke-miterlimit:4;stroke-opacity:1;stroke-dasharray:none"
         id="path142-1-8"
         d="m 33.334377,9.6757286 0,80.1332504 c 0,4.72453 4.59593,12.644991 35.55536,12.644991 30.95919,0 35.555373,-7.920221 35.555373,-12.644991 l 0,-72.95244 c 0,0 -0.42462,-6.69821 5.7567,-7.6247004 0.34004,-0.051 1.24583,0.2395 1.62706,0.22555 1.74313,-0.0637 1.99313,-2.39232 -0.724,-4.86784 -3.70378,-3.37411 -1.96461,-7.07958 -9.3263,-9.59838 -7.049913,-2.41204 -19.104503,-4.30228 -32.888833,-4.30228 -21.63686,0 -39.17681,4.28858 -39.17681,9.42596998 2.5e-4,3.72206002 3.62145,4.10126002 3.62145,9.56087002 z" />
    </g>
    <g
       id="g16641"
       transform="matrix(0.18833489,0,0,0.19329635,7.8229417,28.382972)">
      <path
         sodipodi:nodetypes="cc"
         inkscape:connector-curvature="0"
         id="path8368"
         d="m 51.376331,-54.478493 c -0.0138,-2.74522 -21.07775,-2.67822 -20.83095,0"
         style="fill:none;stroke:#333333;stroke-width:0.59299999;stroke-linecap:round;stroke-linejoin:miter;stroke-miterlimit:4;stroke-opacity:1;stroke-dasharray:none" />
      <path
         sodipodi:nodetypes="cccccccccc"
         inkscape:connector-curvature="0"
         id="path8321"
         d="m 29.728431,-22.304125 c -1.04489,17.6239601 -36.6723096,40.53849 -36.6723096,68.43387 0.29995,31.78481 23.8559596,35.17274 44.9209196,34.95485 32.92263,0.48417 49.75148,-4.57391 49.89827,-37.45485 -1.40796,-28.83235 -36.8334,-49.8749299 -36.29167,-65.40354 l 0,-111.359635 c 0.0882,-1.11098 1.67453,-2.59678 -0.33492,-3.80435 -3.83324,-2.6186 -18.70703,-2.53938 -22.06553,0.26955 -1.35334,1.66309 0.24452,2.01111 0.54524,3.6743 0,37.765777 0.90003,105.873775 0,110.689805 z"
         style="fill:none;stroke:#323232;stroke-width:0.79799998;stroke-linecap:butt;stroke-linejoin:miter;stroke-miterlimit:4;stroke-opacity:1;stroke-dasharray:none" />
      <path
         sodipodi:nodetypes="cc"
         inkscape:connector-curvature="0"
         id="path8349"
         d="m 7.8500614,70.141005 c 0.39953,-6.90579 24.5295196,-9.2958 37.4987796,-9.0049"
         style="fill:none;stroke:#323232;stroke-width:0.5;stroke-linecap:round;stroke-linejoin:miter;stroke-miterlimit:4;stroke-opacity:1;stroke-dasharray:none" />
      <path
         sodipodi:nodetypes="cc"
         inkscape:connector-curvature="0"
         id="path8351"
         d="m 48.425171,61.304435 c 14.20452,-0.2844 28.07027,5.59686 25.12831,10.06644"
         style="fill:none;stroke:#323232;stroke-width:0.5;stroke-linecap:round;stroke-linejoin:miter;stroke-miterlimit:4;stroke-opacity:1;stroke-dasharray:none" />
      <path
         sodipodi:nodetypes="cc"
         inkscape:connector-curvature="0"
         id="path8353"
         d="m 72.087491,72.893015 c -5.43601,3.36418 -24.78976,6.75142 -42.07948,4.61763"
         style="fill:none;stroke:#323232;stroke-width:0.5;stroke-linecap:round;stroke-linejoin:miter;stroke-miterlimit:4;stroke-opacity:1;stroke-dasharray:none" />
      <path
         sodipodi:nodetypes="cc"
         inkscape:connector-curvature="0"
         id="path8355"
         d="m 26.604701,77.445595 c -5.28294,-0.66111 -16.02943,-2.76523 -18.2228196,-5.61137"
         style="fill:none;stroke:#323232;stroke-width:0.5;stroke-linecap:round;stroke-linejoin:miter;stroke-miterlimit:4;stroke-opacity:1;stroke-dasharray:none" />
      <path
         sodipodi:nodetypes="cc"
         inkscape:connector-curvature="0"
         id="path8364"
         d="m 30.535681,-54.481983 c -0.25525,2.95664 21.11816,3.65906 20.84425,0"
         style="fill:none;stroke:#323232;stroke-width:0.59600002;stroke-linecap:round;stroke-linejoin:miter;stroke-miterlimit:4;stroke-opacity:1;stroke-dasharray:none" />
      <path
         transform="matrix(1.0898954,0,0,1.4775801,-461.28494,-206.78336)"
         d="m 469.91666,48.303085 c 0,0.781049 -4.24418,1.414214 -9.47965,1.414214 -5.23546,0 -9.47965,-0.633165 -9.47965,-1.414214 0,-0.781048 4.24419,-1.414213 9.47965,-1.414213 5.23547,0 9.47965,0.633165 9.47965,1.414213 z"
         sodipodi:ry="1.4142135"
         sodipodi:rx="9.4796505"
         sodipodi:cy="48.303085"
         sodipodi:cx="460.43701"
         id="path4869"
         style="fill:none;stroke:#333333;stroke-width:0.40000001;stroke-miterlimit:4;stroke-opacity:1;stroke-dasharray:none"
         sodipodi:type="arc" />
      <path
         sodipodi:nodetypes="ccccc"
         inkscape:connector-curvature="0"
         id="rect8335"
         d="m 31.357291,-136.12799 18.66252,0 0,25.16364 c -3.33964,4.49905 -16.10867,4.2254 -18.66252,0 z"
         style="fill:#cbe347;fill-opacity:1;stroke:#323232;stroke-width:0.66500002;stroke-linecap:round;stroke-linejoin:round;stroke-miterlimit:4;stroke-opacity:1;stroke-dasharray:none" />
      <g
         style="stroke-width:0.82352889;stroke-miterlimit:4;stroke-dasharray:none"
         transform="matrix(1,0,0,0.65205711,-366.79031,16.009165)"
         id="g8420">
        <path
           style="fill:#cbe347;fill-opacity:1;stroke:#323232;stroke-width:0.82352889;stroke-linecap:round;stroke-linejoin:round;stroke-miterlimit:4;stroke-opacity:1;stroke-dasharray:none"
           d="m 422.11959,-235.58437 c 0,2.47263 -6.54862,4.47709 -14.62676,4.47709 -8.07814,0 -14.62677,-2.00446 -14.62677,-4.47709 0,-2.47263 6.54863,-4.4771 14.62677,-4.4771 8.07814,0 14.62676,2.00447 14.62676,4.4771 z"
           id="path8331"
           inkscape:connector-curvature="0" />
        <rect
           style="fill:#cbe347;fill-opacity:1;stroke:none"
           id="rect8406"
           width="29.164524"
           height="2.9604213"
           x="392.70578"
           y="-238.55605" />
        <path
           style="fill:#e0ee90;fill-opacity:1;stroke:#323232;stroke-width:0.82352889;stroke-linecap:round;stroke-linejoin:round;stroke-miterlimit:4;stroke-opacity:1;stroke-dasharray:none"
           d="m 422.05411,-238.34395 c 0,2.47263 -6.54862,4.47709 -14.62676,4.47709 -8.07814,0 -14.62677,-2.00446 -14.62677,-4.47709 0,-2.47263 6.54863,-4.4771 14.62677,-4.4771 8.07814,0 14.62676,2.00447 14.62676,4.4771 z"
           id="path8331-6"
           inkscape:connector-curvature="0" />
        <path
           style="fill:none;stroke:#323232;stroke-width:0.82352889;stroke-linecap:butt;stroke-linejoin:miter;stroke-miterlimit:4;stroke-opacity:1;stroke-dasharray:none"
           d="m 392.80265,-238.34154 0.0931,3.11988"
           id="path8408"
           inkscape:connector-curvature="0" />
        <path
           style="fill:none;stroke:#323232;stroke-width:0.82352889;stroke-linecap:butt;stroke-linejoin:miter;stroke-miterlimit:4;stroke-opacity:1;stroke-dasharray:none"
           d="m 422.0923,-238.5511 0.0466,3.05003"
           id="path8410"
           inkscape:connector-curvature="0" />
      </g>
      <path
         sodipodi:nodetypes="cc"
         inkscape:connector-curvature="0"
         id="path8357-1"
         d="m 30.415761,-133.335 c 1.89441,1.63497 17.30348,2.15181 20.36236,-0.0549"
         style="fill:none;stroke:#323232;stroke-width:0.32191411;stroke-linecap:round;stroke-linejoin:miter;stroke-miterlimit:4;stroke-opacity:1;stroke-dasharray:none" />
      <path
         sodipodi:nodetypes="cc"
         inkscape:connector-curvature="0"
         id="path4871"
         d="m 30.165171,-135.43379 c -0.42699,2.08533 20.88072,2.80357 20.68288,-0.0884"
         style="fill:none;stroke:#333333;stroke-width:0.69999999;stroke-linecap:round;stroke-linejoin:miter;stroke-miterlimit:4;stroke-opacity:1;stroke-dasharray:none" />
    </g>
    <g
       transform="translate(47.828228,-50.021842)"
       id="g16407">
      <path
         inkscape:connector-curvature="0"
         id="path14330"
         d="m 15.630246,17.315125 -6.597469,23.157561 0.1328349,0.929845 0.7084531,1.328349 1.372628,1.151236 1.815411,0.929845 3.497987,0.79701 1.32835,-0.04428 3.010925,0.487062 4.73778,-0.08856 4.782059,-0.309948 4.162162,-1.151236 2.346751,-1.284071 0.929844,-1.372628 0.309949,-1.372628 L 31.216215,17.3594 z"
         style="opacity:0.57964597;fill:#cce347;fill-opacity:1;stroke:none" />
      <path
         transform="matrix(1.0420168,0,0,1,-1.3102631,0)"
         d="m 31.184262,17.441929 c 0,1.037505 -3.336222,1.87857 -7.451661,1.87857 -4.115438,0 -7.45166,-0.841065 -7.45166,-1.87857 0,-1.037506 3.336222,-1.87857 7.45166,-1.87857 4.115439,0 7.451661,0.841064 7.451661,1.87857 z"
         sodipodi:ry="1.87857"
         sodipodi:rx="7.4516606"
         sodipodi:cy="17.441929"
         sodipodi:cx="23.732601"
         id="path14328"
         style="fill:#cbe347;fill-opacity:1;stroke:none"
         sodipodi:type="arc" />
    </g>
  </g>
</svg>
