<?xml version="1.0" encoding="UTF-8" standalone="no"?>
<!-- Created with Inkscape (http://www.inkscape.org/) -->

<svg
   xmlns:dc="http://purl.org/dc/elements/1.1/"
   xmlns:cc="http://creativecommons.org/ns#"
   xmlns:rdf="http://www.w3.org/1999/02/22-rdf-syntax-ns#"
   xmlns:svg="http://www.w3.org/2000/svg"
   xmlns="http://www.w3.org/2000/svg"
   xmlns:sodipodi="http://sodipodi.sourceforge.net/DTD/sodipodi-0.dtd"
   xmlns:inkscape="http://www.inkscape.org/namespaces/inkscape"
   width="48px"
   height="48px"
   id="svg5120"
   version="1.1"
   inkscape:version="0.48.4 r9939"
   sodipodi:docname="1000mlFlask.svg">
  <defs
     id="defs5122">
    <inkscape:path-effect
       effect="bend_path"
       id="path-effect6253"
       is_visible="true"
       bendpath="m 1211.3945,390.30752 c 7.7558,0.90515 15.1116,3.72442 27.5938,1.53487"
       prop_scale="1"
       scale_y_rel="false"
       vertical="false"
       bendpath-nodetypes="cc" />
    <inkscape:path-effect
       effect="bend_path"
       id="path-effect6550"
       is_visible="false"
       bendpath="m 98.527973,9.8318304 c 0.34919,0.07529 0.628785,-0.01944 0.871902,-0.203311"
       prop_scale="1"
       scale_y_rel="false"
       vertical="false"
       bendpath-nodetypes="cc" />
    <inkscape:path-effect
       effect="bend_path"
       id="path-effect6414"
       is_visible="true"
       bendpath="m 960.6877,378.54776 c 10.47341,2.02123 25.28264,3.97467 36.24569,1.41345"
       prop_scale="1"
       scale_y_rel="false"
       vertical="false"
       bendpath-nodetypes="cc" />
  </defs>
  <sodipodi:namedview
     id="base"
     pagecolor="#ffffff"
     bordercolor="#666666"
     borderopacity="1.0"
     inkscape:pageopacity="0.0"
     inkscape:pageshadow="2"
     inkscape:zoom="7.9847971"
     inkscape:cx="16.131525"
     inkscape:cy="19.990687"
     inkscape:current-layer="layer1"
     showgrid="true"
     inkscape:grid-bbox="true"
     inkscape:document-units="px"
     inkscape:window-width="1920"
     inkscape:window-height="1017"
     inkscape:window-x="-8"
     inkscape:window-y="-8"
     inkscape:window-maximized="1" />
  <metadata
     id="metadata5125">
    <rdf:RDF>
      <cc:Work
         rdf:about="">
        <dc:format>image/svg+xml</dc:format>
        <dc:type
           rdf:resource="http://purl.org/dc/dcmitype/StillImage" />
        <dc:title></dc:title>
      </cc:Work>
    </rdf:RDF>
  </metadata>
  <g
     id="layer1"
     inkscape:label="Layer 1"
     inkscape:groupmode="layer">
    <path
       id="path4968"
       style="fill:none;stroke:#1e1e1e;stroke-width:0.09884961;stroke-linecap:round;stroke-linejoin:round;stroke-miterlimit:4;stroke-opacity:1;stroke-dasharray:none"
       d="m 26.073509,2.0093425 c 0.843319,0.063366 1.42785,0.045405 2.331533,0.1988393 0.455664,0.077366 0.801176,0.2824792 0.801176,0.3123252"
       inkscape:connector-curvature="0" />
    <path
       id="path4970"
       style="fill:none;stroke:#1e1e1e;stroke-width:0.09884961;stroke-linecap:round;stroke-linejoin:round;stroke-miterlimit:4;stroke-opacity:1;stroke-dasharray:none"
       d="m 17.086334,2.6870785 c 0.6559,-0.2871812 0.122046,-0.067976 0.919664,-0.3411333 1.130641,-0.2530649 2.374038,-0.3628604 4.326812,-0.4379037 0.969714,-0.037662 1.451441,-0.00781 2.650289,0.037378"
       inkscape:connector-curvature="0" />
    <path
       id="path4972"
       style="fill:none;stroke:#1e1e1e;stroke-width:0.16474934;stroke-linecap:round;stroke-linejoin:round;stroke-miterlimit:4;stroke-opacity:1;stroke-dasharray:none"
       d="m 28.684819,36.841348 c -1.574806,-0.176154 -3.277095,-0.273082 -5.054839,-0.273082 -5.936743,0 -11.042852,1.07346 -13.308551,2.612796"
       inkscape:connector-curvature="0" />
    <path
       id="path4974"
       style="fill:none;stroke:#1e1e1e;stroke-width:0.16474934;stroke-linecap:round;stroke-linejoin:round;stroke-miterlimit:4;stroke-opacity:1;stroke-dasharray:none"
       d="m 36.938564,39.181062 c -0.780978,-0.530569 -1.899593,-1.005716 -3.27324,-1.400795"
       inkscape:connector-curvature="0" />
    <path
       inkscape:connector-curvature="0"
       d="m 29.277983,3.4312414 c -0.86612,0.6399194 -1.830233,0.9509794 -3.369519,1.1661058 -1.871158,0.205706 -3.366752,0.2731741 -5.514886,0.033121"
       style="fill:none;stroke:#1e1e1e;stroke-width:0.09884961;stroke-linecap:round;stroke-linejoin:round;stroke-miterlimit:4;stroke-opacity:1;stroke-dasharray:none"
       id="path4982" />
    <path
       inkscape:connector-curvature="0"
       d="M 12.014657,43.612651 C 10.036841,42.622214 9.5841099,41.366808 9.5841099,40.307259"
       style="fill:none;stroke:#1e1e1e;stroke-width:0.16474934;stroke-linecap:round;stroke-linejoin:round;stroke-miterlimit:4;stroke-opacity:1;stroke-dasharray:none"
       id="path4984" />
    <path
       inkscape:connector-curvature="0"
       d="m 37.444575,40.307259 c 0,2.119101 -1.798536,5.021303 -13.913741,5.021303 -4.17119,0 -7.119445,-0.344089 -9.192387,-0.881712"
       style="fill:none;stroke:#1e1e1e;stroke-width:0.16474934;stroke-linecap:round;stroke-linejoin:round;stroke-miterlimit:4;stroke-opacity:1;stroke-dasharray:none"
       id="path4986" />
    <path
       inkscape:connector-curvature="0"
       d="m 17.36509,3.3302237 c 0.567298,0.1716556 0.308443,0.078707 1.127412,0.2895404 1.179507,0.3036858 2.80901,0.4914901 4.608896,0.4914901 2.639911,0 4.747615,-0.4276201 5.7772,-0.9879886 0.248541,-0.1352757 0.384327,-0.3196533 0.410819,-0.4530442"
       style="fill:none;stroke:#323232;stroke-width:0.26359895;stroke-linecap:round;stroke-linejoin:round;stroke-miterlimit:4;stroke-opacity:1;stroke-dasharray:none"
       id="path4988" />
    <path
       id="path5004"
       style="fill:none;stroke:#1e1e1e;stroke-width:0.09884961;stroke-linecap:round;stroke-linejoin:round;stroke-miterlimit:4;stroke-opacity:1;stroke-dasharray:none"
       d="m 17.594981,3.9917516 c 1.218717,0.3315746 1.864567,0.5260249 1.989678,0.5581576"
       inkscape:connector-curvature="0" />
    <path
       style="fill:#cce347;stroke:none;stroke-width:1px;stroke-linecap:butt;stroke-linejoin:miter;stroke-opacity:1;fill-opacity:1;opacity:0.57964602"
       d="m 15.630246,17.315125 -6.597469,23.157561 0.1328349,0.929845 0.7084531,1.328349 1.372628,1.151236 1.815411,0.929845 3.497987,0.79701 1.32835,-0.04428 3.010925,0.487062 4.73778,-0.08856 4.782059,-0.309948 4.162162,-1.151236 2.346751,-1.284071 0.929844,-1.372628 0.309949,-1.372628 L 31.216215,17.3594 z"
       id="path14330"
       inkscape:connector-curvature="0" />
    <path
       sodipodi:type="arc"
       style="fill:#cbe347;fill-opacity:1;stroke:none"
       id="path14328"
       sodipodi:cx="23.732601"
       sodipodi:cy="17.441929"
       sodipodi:rx="7.4516606"
       sodipodi:ry="1.87857"
       d="m 31.184262,17.441929 a 7.4516606,1.87857 0 1 1 -14.903321,0 7.4516606,1.87857 0 1 1 14.903321,0 z"
       transform="matrix(1.0420168,0,0,1,-1.3102631,0)" />
    <path
       inkscape:connector-curvature="0"
       d="m 29.774142,4.5806679 0,7.9015931 8.379251,28.010621 c 0,2.070003 -1.8818,5.540276 -14.558307,5.540276 -12.676375,0 -14.5583064,-3.470168 -14.5583064,-5.540276 l 8.0428984,-28.010621 0,-7.9015931 c -0.02274,-1.8153203 -0.55135,-1.1902316 -0.61435,-2.2539654 -0.0168,-0.6309801 4.035106,-1.0409589 6.664704,-1.0406656 2.629564,2.702e-4 0.08465,4.28e-5 0.126626,9.23e-5 5.178204,0.00932 6.845895,0.4359696 6.845434,1.0539839 -0.05825,1.0879981 -0.32795,0.029391 -0.32795,2.2405285 z"
       style="fill:none;stroke:#323232;stroke-width:0.26359895;stroke-linecap:round;stroke-linejoin:round;stroke-miterlimit:4;stroke-opacity:1;stroke-dasharray:none"
       id="path5008" />
  </g>
</svg>
