<?xml version="1.0" encoding="UTF-8" standalone="no"?>
<!-- Generator: Adobe Illustrator 19.0.0, SVG Export Plug-In . SVG Version: 6.00 Build 0)  -->

<svg
   xmlns:dc="http://purl.org/dc/elements/1.1/"
   xmlns:cc="http://creativecommons.org/ns#"
   xmlns:rdf="http://www.w3.org/1999/02/22-rdf-syntax-ns#"
   xmlns:svg="http://www.w3.org/2000/svg"
   xmlns="http://www.w3.org/2000/svg"
   xmlns:sodipodi="http://sodipodi.sourceforge.net/DTD/sodipodi-0.dtd"
   xmlns:inkscape="http://www.inkscape.org/namespaces/inkscape"
   version="1.1"
   id="svg5907"
   x="0px"
   y="0px"
   viewBox="66 -130.4 48.000001 47.999999"
   xml:space="preserve"
   inkscape:version="0.91 r13725"
   sodipodi:docname="solidBottle.svg"
   width="48"
   height="48"><metadata
     id="metadata83"><rdf:RDF><cc:Work
         rdf:about=""><dc:format>image/svg+xml</dc:format><dc:type
           rdf:resource="http://purl.org/dc/dcmitype/StillImage" /><dc:title></dc:title></cc:Work></rdf:RDF></metadata><sodipodi:namedview
     pagecolor="#ffffff"
     bordercolor="#666666"
     borderopacity="1"
     objecttolerance="10"
     gridtolerance="10"
     guidetolerance="10"
     inkscape:pageopacity="0"
     inkscape:pageshadow="2"
     inkscape:window-width="1920"
     inkscape:window-height="947"
     id="namedview81"
     showgrid="false"
     inkscape:zoom="8"
     inkscape:cx="32.769718"
     inkscape:cy="33.503723"
     inkscape:window-x="0"
     inkscape:window-y="0"
     inkscape:window-maximized="1"
     inkscape:current-layer="svg5907" /><style
     type="text/css"
     id="style3">
	.st0{fill:#CC7229;}
	.st1{opacity:0.7184;fill:#CC7229;enable-background:new    ;}
	.st2{fill:#A8602A;fill-opacity:0.92;}
	.st3{fill:#5A1F23;fill-opacity:0.75;stroke:#1E1E1E;stroke-width:0.4869;}
	.st4{fill:none;stroke:#1E1E1E;stroke-width:0.3;stroke-linecap:round;}
	.st5{fill:none;stroke:#1F1F1F;stroke-width:0.484;}
	.st6{opacity:0.8;}
	.st7{opacity:0.5;}
	.st8{fill:#2F2F2F;stroke:#000000;stroke-width:0.5121;stroke-linecap:round;stroke-linejoin:round;}
	.st9{fill:#36363B;stroke:#000000;stroke-width:0.5121;}
	.st10{fill:#63636E;stroke:#000000;stroke-width:0.5121;stroke-linecap:round;stroke-linejoin:round;}
	.st11{fill:#36363B;stroke:#000000;stroke-width:0.5121;stroke-linecap:round;stroke-linejoin:round;}
	.st12{fill:#E5965C;stroke:#161413;stroke-width:0.2087;}
	.st13{stroke:#000000;stroke-width:0.5911;stroke-linecap:round;stroke-linejoin:round;}
	.st14{fill:#63636E;stroke:#000000;stroke-width:0.5111;}
	.st15{fill:#36363B;stroke:#000000;stroke-width:0.539;stroke-linecap:round;stroke-linejoin:round;}
	.st16{fill:#63636E;stroke:#000000;stroke-width:0.5375;}
	.st17{fill:#63636E;stroke:#000000;stroke-width:0.503;stroke-linecap:round;stroke-linejoin:round;}
	.st18{fill:#63636E;stroke:#000000;stroke-width:0.5044;stroke-linecap:round;stroke-linejoin:round;}
	.st19{fill:#63636E;stroke:#000000;stroke-width:0.5075;stroke-linecap:round;stroke-linejoin:round;}
	.st20{fill:#63636E;stroke:#000000;stroke-width:0.5092;stroke-linecap:round;stroke-linejoin:round;}
	.st21{fill:#63636E;stroke:#000000;stroke-width:0.51;stroke-linecap:round;stroke-linejoin:round;}
	.st22{fill:#63636E;stroke:#000000;stroke-width:0.5071;stroke-linecap:round;stroke-linejoin:round;}
	.st23{fill:#63636E;stroke:#000000;stroke-width:0.5057;stroke-linecap:round;stroke-linejoin:round;}
	.st24{fill:#63636E;stroke:#000000;stroke-width:0.5039;stroke-linecap:round;stroke-linejoin:round;}
	.st25{opacity:0.7212;fill:#99643D;enable-background:new    ;}
	.st26{fill:#A8602A;}
	.st27{fill:#F7FAFA;}
	.st28{fill:none;stroke:#1E1E1E;stroke-width:0.2962;stroke-linecap:round;}
	.st29{fill:none;stroke:#1E1E1E;stroke-width:1.0268;}
	.st30{fill:#09090A;}
	.st31{fill:none;stroke:#1E1E1E;stroke-width:0.2516;stroke-linecap:round;}
	.st32{fill:none;stroke:#1E1E1E;stroke-width:0.484;}
	.st33{fill:none;stroke:#161413;stroke-width:0.2074;}
	.st34{fill:none;}
	.st35{fill:none;stroke:#1E1E1E;stroke-width:0.4843;}
</style><defs
     id="defs7"><inkscape:path-effect
       id="path-effect6414"
       effect="bend_path"
       is_visible="true"
       bendpath="M 0,0 1,0"
       prop_scale="1"
       scale_y_rel="false"
       vertical="false" /></defs><g
     id="g9577"
     transform="translate(0,-1004.4)" /><g
     id="g3410"
     transform="matrix(0.42424,0,0,0.42424,52.689689,-68.260821)"><g
       inkscape:label="#g5256"
       id="back"><polygon
         style="opacity:0.5;fill:#cc7229"
         class="st0"
         points="101.4,-98.3 74.2,-98.4 74,-98.2 73.9,-97.7 74.2,-97.2 74.1,-96.4 73.2,-95.7 71.9,-95.4 70.3,-94.4 68.7,-92.5 67.4,-89.6 66.9,-87 66.7,-35.9 108.5,-36.8 108.4,-88.7 106.9,-92.5 104.5,-94.8 102.4,-95.6 101.4,-96.8 101.8,-97.4 101.8,-97.8 "
         id="polygon5"
         transform="translate(1.1682792,-19.255405)" /><path
         style="opacity:0.71840001;fill:#cc7229;enable-background:new"
         inkscape:connector-curvature="0"
         id="path12379"
         class="st1"
         d="M 67.728925,-54.537344" /><path
         style="fill:#a8602a;fill-opacity:0.92000002"
         inkscape:connector-curvature="0"
         id="path4709"
         class="st2"
         d="m 75.728925,-117.23734 -0.1,-4.1 c 9.5,2.4 18.1,1.9 26.400005,0 l 0.1,4.1 c -8.699995,0.8 -17.499995,0.7 -26.399995,0 z" /><path
         style="fill:#5a1f23;fill-opacity:0.75;stroke:#1e1e1e;stroke-width:0.4869"
         inkscape:connector-curvature="0"
         id="path4084"
         class="st3"
         d="m 109.42893,-54.437344 c 0,2.4 -9.3,4.3 -20.900005,4.3 -11.5,0 -20.9,-1.9 -20.9,-4.3 0,0 0,0 0,0 0,-2.4 9.3,-4.3 20.9,-4.3 11.599995,0.1 20.900005,2 20.900005,4.3 0,0 0,0 0,0 z" /><path
         style="fill:none;stroke:#1e1e1e;stroke-width:0.30000001;stroke-linecap:round"
         inkscape:connector-curvature="0"
         id="path12401"
         class="st4"
         d="m 85.028925,-119.13734 c 5.8,0.3 12.3,-0.1 15.700005,-0.7" /><path
         style="fill:none;stroke:#1e1e1e;stroke-width:0.30000001;stroke-linecap:round"
         inkscape:connector-curvature="0"
         id="path12403"
         class="st4"
         d="m 83.228925,-119.23734 c -3.2,-0.2 -3.5,-0.2 -5.9,-0.8" /><path
         style="fill:none;stroke:#1f1f1f;stroke-width:0.484"
         inkscape:connector-curvature="0"
         id="path4703"
         class="st5"
         d="m 102.22893,-117.23734 0,-4.1" /><path
         style="fill:none;stroke:#1f1f1f;stroke-width:0.484"
         inkscape:connector-curvature="0"
         id="path4705"
         class="st5"
         d="m 75.828925,-121.43734 0,4" /><g
         style="opacity:0.8"
         id="g7527"
         class="st6"
         transform="translate(1.028925,-18.837344)"><ellipse
           cx="87.699997"
           cy="-36.799999"
           rx="20.700001"
           ry="4"
           id="ellipse18" /><g
           style="opacity:0.5"
           class="st7"
           id="g20"><rect
             x="67"
             y="-36.799999"
             width="41.400002"
             height="2"
             id="rect22" /></g></g><path
         style="fill:#2f2f2f;stroke:#000000;stroke-width:0.51209998;stroke-linecap:round;stroke-linejoin:round"
         inkscape:connector-curvature="0"
         id="rect5886-8-4-8-5"
         class="st8"
         d="m 76.928925,-128.23734 1.3,-0.1 -0.2,7.3 -1.4,-0.3 0.3,-6.9 z" /><path
         style="fill:#2f2f2f;stroke:#000000;stroke-width:0.51209998;stroke-linecap:round;stroke-linejoin:round"
         inkscape:connector-curvature="0"
         id="rect5886-8-4-8-0"
         class="st8"
         d="m 99.028925,-128.43734 1.200005,0.2 0.59999,7.1 -1.399995,-0.3 -0.4,-7 z" /><path
         style="fill:#2f2f2f;stroke:#000000;stroke-width:0.51209998;stroke-linecap:round;stroke-linejoin:round"
         inkscape:connector-curvature="0"
         id="rect5886-8-4-8-9"
         class="st8"
         d="m 101.22893,-128.03734 1.09999,0.3 -0.59999,6.9 -0.2,-0.3 -0.3,-6.9 z" /><path
         style="fill:#2f2f2f;stroke:#000000;stroke-width:0.51209998;stroke-linecap:round;stroke-linejoin:round"
         inkscape:connector-curvature="0"
         id="rect5886-8-4-8"
         class="st8"
         d="m 74.628925,-127.73734 1.1,-0.2 0.6,7.3 -1.4,-0.3 -0.3,-6.8 z" /><path
         style="fill:#36363b;stroke:#000000;stroke-width:0.51209998"
         inkscape:connector-curvature="0"
         id="path5864"
         class="st9"
         d="m 73.228925,-119.83734 c 0,1 0,0.1 0,1.1 1.5,2.3 29.300005,2.2 30.700005,0 l 0,-1.3 -30.700005,0.2 z" /><path
         style="fill:#63636e;stroke:#000000;stroke-width:0.51209998;stroke-linecap:round;stroke-linejoin:round"
         inkscape:connector-curvature="0"
         id="path5861"
         class="st10"
         d="m 104.02893,-120.13734 c -0.1,2.7 -30.100005,2.9 -30.900005,0.1 -0.1,-1.9 30.799995,-1.9 30.900005,-0.1 z" /><path
         style="fill:#36363b;stroke:#000000;stroke-width:0.51209998;stroke-linecap:round;stroke-linejoin:round"
         inkscape:connector-curvature="0"
         id="rect5485"
         class="st11"
         d="m 75.228925,-127.13734 27.300005,0 0,6.9 c -5.000005,2.1 -26.200005,1.6 -27.300005,0 l 0,-6.9 z" /><path
         style="fill:#e5965c;stroke:#161413;stroke-width:0.2087"
         inkscape:connector-curvature="0"
         id="path5347-2"
         class="st12"
         d="m 67.928925,-94.437344 c 0,-1.6 23.9,-1.4 28.3,-1.4 l -0.2,11.6 -28,1.5" /><path
         style="stroke:#000000;stroke-width:0.59109998;stroke-linecap:round;stroke-linejoin:round"
         inkscape:connector-curvature="0"
         id="path5481"
         class="st13"
         d="m 101.52893,-127.13734 c 0,0.3 -5.700005,0.5 -12.700005,0.5 -7,0 -12.7,-0.2 -12.7,-0.5 0,0 0,0 0,0 0,-0.3 5.7,-0.5 12.7,-0.5 7,0.1 12.700005,0.3 12.700005,0.5 0,0 0,0 0,0 z" /><path
         style="fill:#63636e;stroke:#000000;stroke-width:0.51109999"
         inkscape:connector-curvature="0"
         id="path5789-3"
         class="st14"
         d="m 102.52893,-127.33734 c 0,0.7 -3.700005,2.2 -14.300005,2 -11.8,-0.1 -13.9,-1.1 -13.9,-2 0,-0.8 6.6,-1.5 14.1,-1.5 7.4,0.1 13.999995,0.6 14.099995,1.5 z" /><path
         style="fill:#36363b;stroke:#000000;stroke-width:0.53899997;stroke-linecap:round;stroke-linejoin:round"
         inkscape:connector-curvature="0"
         id="path5769"
         class="st15"
         d="m 99.728925,-128.53734 c 0.1,1.2 0,0 0.1,1.2 -2.8,1.3 -19,1.6 -22,0 -0.1,-1.2 0.1,0 -0.1,-1.2 4.3,-0.1 7.3,0 10.8,0 5.3,-0.1 9,-0.4 11.2,0 l 0,0 z" /><path
         style="fill:#63636e;stroke:#000000;stroke-width:0.53750002"
         inkscape:connector-curvature="0"
         id="path5789"
         class="st16"
         d="m 99.828925,-128.53734 c 0,0.6 -5.4,1.4 -11.5,1.4 -6.1,0 -10.7,-0.8 -10.7,-1.4 0,-0.7 5.1,-1.1 11.2,-1.1 6.1,0 11,0.5 11,1.1 z" /><path
         style="fill:#63636e;stroke:#000000;stroke-width:0.50300002;stroke-linecap:round;stroke-linejoin:round"
         inkscape:connector-curvature="0"
         id="rect5886"
         class="st17"
         d="m 77.028925,-126.23734 1.4,0.3 -0.1,6.9 -1.2,-0.2 -0.1,-7 z" /><path
         style="fill:#63636e;stroke:#000000;stroke-width:0.50440001;stroke-linecap:round;stroke-linejoin:round"
         inkscape:connector-curvature="0"
         id="rect5886-9"
         class="st18"
         d="m 80.028925,-125.83734 1.4,0.2 0,6.8 -1.4,-0.1 0,-6.9 z" /><path
         style="fill:#63636e;stroke:#000000;stroke-width:0.50749999;stroke-linecap:round;stroke-linejoin:round"
         inkscape:connector-curvature="0"
         id="rect5886-8"
         class="st19"
         d="m 82.828925,-125.63734 1.4,0.1 0,6.8 -1.4,-0.1 0,-6.8 z" /><path
         style="fill:#63636e;stroke:#000000;stroke-width:0.50919998;stroke-linecap:round;stroke-linejoin:round"
         inkscape:connector-curvature="0"
         id="rect5886-8-5"
         class="st20"
         d="m 85.728925,-125.43734 1.4,0.1 0,6.8 -1.4,0 0,-6.9 z" /><path
         style="fill:#63636e;stroke:#000000;stroke-width:0.50999999;stroke-linecap:round;stroke-linejoin:round"
         inkscape:connector-curvature="0"
         id="rect5886-8-0"
         class="st21"
         d="m 88.728925,-125.43734 1.4,0 0.1,6.9 -1.5,0 0,-6.9 z" /><path
         style="fill:#63636e;stroke:#000000;stroke-width:0.50919998;stroke-linecap:round;stroke-linejoin:round"
         inkscape:connector-curvature="0"
         id="rect5886-8-2"
         class="st20"
         d="m 91.928925,-125.53734 1.4,-0.1 0,6.9 -1.3,0.1 -0.1,-6.9 z" /><path
         style="fill:#63636e;stroke:#000000;stroke-width:0.50709999;stroke-linecap:round;stroke-linejoin:round"
         inkscape:connector-curvature="0"
         id="rect5886-8-8"
         class="st22"
         d="m 94.928925,-125.63734 1.5,-0.2 0,6.9 -1.4,0.1 -0.1,-6.8 z" /><path
         style="fill:#63636e;stroke:#000000;stroke-width:0.50569999;stroke-linecap:round;stroke-linejoin:round"
         inkscape:connector-curvature="0"
         id="rect5886-8-6"
         class="st23"
         d="m 98.028925,-126.03734 1.4,-0.2 0,7 -1.2,0.2 -0.2,-7 z" /><path
         style="fill:#63636e;stroke:#000000;stroke-width:0.50389999;stroke-linecap:round;stroke-linejoin:round"
         inkscape:connector-curvature="0"
         id="rect5886-8-02"
         class="st24"
         d="m 100.72893,-126.53734 1.2,-0.2 0.2,7 -1.3,0.3 -0.1,-7.1 z" /><path
         style="fill:#63636e;stroke:#000000;stroke-width:0.50389999;stroke-linecap:round;stroke-linejoin:round"
         inkscape:connector-curvature="0"
         id="rect5886-8-4"
         class="st24"
         d="m 74.328925,-126.93734 1.4,0.4 0,6.9 -1.3,-0.4 -0.1,-6.9 z" /><path
         style="opacity:0.72119996;fill:#99643d;enable-background:new"
         inkscape:connector-curvature="0"
         id="path7531"
         class="st25"
         d="m 109.42893,-54.437344 c 0,2.4 -9.3,4.4 -20.900005,4.4 -11.6,0 -20.9,-2 -20.9,-4.4 l 0,0 c 0.1,-2.4 9.4,-4.4 20.9,-4.4 11.500005,0 20.900005,2 20.900005,4.4 z" /><path
         style="fill:#a8602a"
         inkscape:connector-curvature="0"
         id="path12399"
         class="st26"
         d="m 75.728925,-116.13734 c -1.2,-0.2 -0.7,-1 0,-1.1 8.4,1 17.1,1.2 26.800005,0 0.5,0 0.9,0.5 0,1 -8.600005,1.7 -19.400005,1.3 -26.800005,0.1 l 0,0 z" /><path
         style="fill:none;stroke:#1e1e1e;stroke-width:0.484"
         inkscape:connector-curvature="0"
         id="path12355"
         class="st32"
         d="m 75.228925,-116.03734 c 7.4,0.9 19.8,1.3 27.600005,-0.1" /><path
         style="fill:none;stroke:#1e1e1e;stroke-width:0.484"
         inkscape:connector-curvature="0"
         id="path12355-2"
         class="st32"
         d="m 75.428925,-117.43734 c 5.6,0.9 20.1,1.1 26.800005,0" /><path
         style="fill:none;stroke:#1e1e1e;stroke-width:0.48429999"
         inkscape:connector-curvature="0"
         id="path4088_1_"
         class="st35"
         d="m 102.62892,-117.03734 c 0.5,-0.2 0.8,0.8 0.2,1.3 0.20001,0.9 0.6,1.5 1.1,1.5 2.8,0.2 5.8,4.3 5.8,9.5 l -0.2,50.399996" /><path
         style="fill:none;stroke:#1e1e1e;stroke-width:0.30000001;stroke-linecap:round"
         inkscape:connector-curvature="0"
         id="path12401_1_"
         class="st4"
         d="m 78.628925,-118.33734 c 3.4,0.5 9.9,0.7 15.7,0.5" /><path
         style="fill:none;stroke:#1e1e1e;stroke-width:0.48429999"
         inkscape:connector-curvature="0"
         id="path4086"
         class="st35"
         d="m 67.728925,-54.737344 0.1,-49.599996 c 0,-5.8 3.5,-10.1 6.3,-10.4 0.7,-0.2 1,-0.3 1.1,-1.4 -0.9,-0.5 -0.2,-1.5 0.1,-1.4" /></g><g
       transform="translate(-0.107522,-0.074153)"
       inkscape:label="#g5299"
       id="front"><path
         style="opacity:0.5;fill:#cc7229"
         d="m 75.368551,-117.09727 -0.201172,0.19922 -0.09961,0.5 0.300781,0.5 -0.09961,0.80078 -0.900391,0.69922 -1.300781,0.30078 -1.59961,1 -1.599609,1.89844 -1.30078,2.90039 -0.5,2.59961 -0.195313,49.962902 c -0.13745,0.197462 -0.23563,0.397322 -0.24414,0.601563 0,2.4 9.300389,4.400391 20.900389,4.400391 11.600005,0 20.900395,-2.000391 20.900395,-4.400391 0,-0.120305 -0.0299,-0.239329 -0.0762,-0.357422 l 0.31445,-0.0059 -0.0996,-51.900403 -1.5,-3.80078 -2.40039,-2.29883 -2.09961,-0.80078 -1,-1.19922 0.40039,-0.59961 0,-0.40039 -0.40039,-0.5 -27.199219,-0.0996 z"
         id="polygon5243"
         inkscape:connector-curvature="0" /><g
         id="g5214"
         transform="translate(-2.8420128e-7,-0.27870744)"><path
           d="m 68.028925,-94.437344 c 1.5,1.7 15.3,3.2 34.500005,2.2 l -0.1,23.3 c -5.300005,1 -28.600005,1.6 -34.700005,-2.6"
           class="st33"
           id="path5343-2"
           inkscape:connector-curvature="0"
           style="fill:none;stroke:#161413;stroke-width:0.20739999" /><path
           d="m 67.128925,-77.837344 0,-0.8 -1.1,0 0,-0.5 1.1,0 0,-0.8 0.7,0 0,0.8 1.1,0 0,0.5 -1.1,0 0,0.8 -0.7,0 z"
           class="st34"
           id="path6333"
           inkscape:connector-curvature="0"
           style="fill:none" /><path
           d="m 68.428925,-94.137344 c 3.6,2.4 24.2,2.3 34.000005,1.9 l -0.1,23.3 c -2.400005,0.4 -28.000005,2 -34.400005,-2.5 0.2,-8.7 -0.1,-20.5 0.2,-22.9 l 0.3,0.2 z"
           class="st27"
           id="path5372-9"
           inkscape:connector-curvature="0"
           style="fill:#f7fafa" /><path
           d="m 67.828925,-73.237344 c 3,1.4 12.7,3.4 29.8,2.5"
           class="st28"
           id="path5387-3-3"
           inkscape:connector-curvature="0"
           style="fill:none;stroke:#1e1e1e;stroke-width:0.29620001;stroke-linecap:round" /><path
           d="m 67.728925,-80.637344 c 5,1.6 10.9,1.9 13.8,1.8"
           class="st29"
           id="path5379-48-9-1"
           inkscape:connector-curvature="0"
           style="fill:none;stroke:#1e1e1e;stroke-width:1.02680004" /><path
           d="m 67.928925,-84.637344 c 3.9,1.6 11.6,1.9 15.7,1.9"
           class="st28"
           id="path5379-8"
           inkscape:connector-curvature="0"
           style="fill:none;stroke:#1e1e1e;stroke-width:0.29620001;stroke-linecap:round" /><path
           d="m 68.128925,-91.437344 c 7.7,3 23.9,2.4 34.400005,1.8 l 0,2.9 c -10.400005,0.3 -27.000005,1 -34.400005,-1.7 l 0,-3 z"
           class="st30"
           id="rect5369-5"
           inkscape:connector-curvature="0"
           style="fill:#09090a" /><path
           d="m 67.928925,-83.937344 c 3.9,1.6 11.6,1.9 15.7,1.9"
           class="st28"
           id="path5379-9-9"
           inkscape:connector-curvature="0"
           style="fill:none;stroke:#1e1e1e;stroke-width:0.29620001;stroke-linecap:round" /><path
           d="m 67.928925,-85.437344 c 3.9,1.6 11.6,1.9 15.7,1.9"
           class="st28"
           id="path5379-2-3"
           inkscape:connector-curvature="0"
           style="fill:none;stroke:#1e1e1e;stroke-width:0.29620001;stroke-linecap:round" /><path
           d="m 67.928925,-86.337344 c 2.6,1.1 6.8,1.6 10,1.8"
           class="st31"
           id="path5379-2-7-28"
           inkscape:connector-curvature="0"
           style="fill:none;stroke:#1e1e1e;stroke-width:0.2516;stroke-linecap:round" /><path
           d="m 68.028925,-86.937344 c 2.5,1.1 6.8,1.6 10,1.8"
           class="st31"
           id="path5379-2-7-2-7"
           inkscape:connector-curvature="0"
           style="fill:none;stroke:#1e1e1e;stroke-width:0.2516;stroke-linecap:round" /><path
           d="m 67.928925,-76.837344 c 3,1.4 12.7,3.4 29.8,2.5"
           class="st28"
           id="path5387-48"
           inkscape:connector-curvature="0"
           style="fill:none;stroke:#1e1e1e;stroke-width:0.29620001;stroke-linecap:round" /><path
           d="m 67.928925,-73.937344 c 3,1.4 12.6,3.4 29.7,2.5"
           class="st28"
           id="path5387-7-1"
           inkscape:connector-curvature="0"
           style="fill:none;stroke:#1e1e1e;stroke-width:0.29620001;stroke-linecap:round" /><path
           d="m 67.928925,-74.637344 c 3,1.4 12.7,3.3 29.8,2.4"
           class="st28"
           id="path5387-4-4"
           inkscape:connector-curvature="0"
           style="fill:none;stroke:#1e1e1e;stroke-width:0.29620001;stroke-linecap:round" /><path
           d="m 68.028925,-76.137344 c 3,1.4 12.7,3.4 29.8,2.5"
           class="st28"
           id="path5387-5-3"
           inkscape:connector-curvature="0"
           style="fill:none;stroke:#1e1e1e;stroke-width:0.29620001;stroke-linecap:round" /><path
           d="m 67.828925,-75.437344 c 3,1.4 12.8,3.4 29.8,2.5"
           class="st28"
           id="path5387-8-5"
           inkscape:connector-curvature="0"
           style="fill:none;stroke:#1e1e1e;stroke-width:0.29620001;stroke-linecap:round" /><path
           d="m 67.728925,-78.937344 c 5,1.6 10.9,1.9 13.9,1.8"
           class="st29"
           id="path5379-48-9-5-5"
           inkscape:connector-curvature="0"
           style="fill:none;stroke:#1e1e1e;stroke-width:1.02680004" /><path
           d="m 67.928925,-82.437344 c 3.9,1.6 11.6,1.9 15.7,1.9"
           class="st28"
           id="path5379-48-4"
           inkscape:connector-curvature="0"
           style="fill:none;stroke:#1e1e1e;stroke-width:0.29620001;stroke-linecap:round" /><path
           d="m 67.928925,-83.137344 c 3.9,1.6 11.6,1.9 15.7,1.9"
           class="st28"
           id="path5379-4-5"
           inkscape:connector-curvature="0"
           style="fill:none;stroke:#1e1e1e;stroke-width:0.29620001;stroke-linecap:round" /><rect
           height="4.0999999"
           width="12.1"
           class="st27"
           y="-80.137344"
           x="72.628922"
           id="rect5804"
           style="fill:#f7fafa" /><path
           d="m 70.428925,-77.837344 0,-0.8 -1.1,0 0,-0.5 1.1,0 0,-0.8 0.7,0 0,0.8 1.1,0 0,0.5 -1.1,0 0,0.8 -0.7,0 z"
           class="st34"
           id="path6335"
           inkscape:connector-curvature="0"
           style="fill:none" /><path
           d="m 83.228925,-77.837344 0,-0.8 -1.1,0 0,-0.5 1.1,0 0,-0.8 0.8,0 0,0.8 1,0 0,0.5 -1,0 0,0.8 -0.8,0 z"
           class="st34"
           id="path6343"
           inkscape:connector-curvature="0"
           style="fill:none" /><path
           d="m 86.628925,-77.837344 0,-0.8 -1.1,0 0,-0.5 1.1,0 0,-0.8 0.7,0 0,0.8 1.1,0 0,0.5 -1.1,0 0,0.8 -0.7,0 z"
           class="st34"
           id="path6345"
           inkscape:connector-curvature="0"
           style="fill:none" /><path
           d="m 70.728925,-76.337344 0,-0.3 -0.4,0 0,-0.2 0.4,0 0,-0.3 0.3,0 0,0.3 0.4,0 0,0.2 -0.4,0 0,0.3 -0.3,0 z"
           class="st34"
           id="path6298"
           inkscape:connector-curvature="0"
           style="fill:none" /><path
           d="m 72.028925,-76.337344 0,-0.3 -0.4,0 0,-0.2 0.4,0 0,-0.3 0.3,0 0,0.3 0.4,0 0,0.2 -0.4,0 0,0.3 -0.3,0 z"
           class="st34"
           id="path6300"
           inkscape:connector-curvature="0"
           style="fill:none" /><path
           d="m 83.428925,-76.337344 0,-0.3 -0.4,0 0,-0.2 0.4,0 0,-0.3 0.3,0 0,0.3 0.4,0 0,0.2 -0.4,0 0,0.3 -0.3,0 z"
           class="st34"
           id="path6324"
           inkscape:connector-curvature="0"
           style="fill:none" /><path
           d="m 84.828925,-76.337344 0,-0.3 -0.4,0 0,-0.2 0.4,0 0,-0.3 0.2,0 0,0.3 0.4,0 0,0.2 -0.4,0 0,0.3 -0.2,0 z"
           class="st34"
           id="path6326"
           inkscape:connector-curvature="0"
           style="fill:none" /></g></g></g></svg>