<?xml version="1.0" encoding="UTF-8" standalone="no"?>
<!-- Created with Inkscape (http://www.inkscape.org/) -->

<svg
   xmlns:dc="http://purl.org/dc/elements/1.1/"
   xmlns:cc="http://creativecommons.org/ns#"
   xmlns:rdf="http://www.w3.org/1999/02/22-rdf-syntax-ns#"
   xmlns:svg="http://www.w3.org/2000/svg"
   xmlns="http://www.w3.org/2000/svg"
   xmlns:sodipodi="http://sodipodi.sourceforge.net/DTD/sodipodi-0.dtd"
   xmlns:inkscape="http://www.inkscape.org/namespaces/inkscape"
   width="48px"
   height="48px"
   id="svg5120"
   version="1.1"
   inkscape:version="0.48.4 r9939"
   sodipodi:docname="vessel.svg">
  <defs
     id="defs5122" />
  <sodipodi:namedview
     id="base"
     pagecolor="#ffffff"
     bordercolor="#666666"
     borderopacity="1.0"
     inkscape:pageopacity="0.0"
     inkscape:pageshadow="2"
     inkscape:zoom="4.9497475"
     inkscape:cx="24"
     inkscape:cy="18.285714"
     inkscape:current-layer="layer1"
     showgrid="true"
     inkscape:grid-bbox="true"
     inkscape:document-units="px"
     inkscape:window-width="1111"
     inkscape:window-height="644"
     inkscape:window-x="456"
     inkscape:window-y="112"
     inkscape:window-maximized="0" />
  <metadata
     id="metadata5125">
    <rdf:RDF>
      <cc:Work
         rdf:about="">
        <dc:format>image/svg+xml</dc:format>
        <dc:type
           rdf:resource="http://purl.org/dc/dcmitype/StillImage" />
        <dc:title></dc:title>
      </cc:Work>
    </rdf:RDF>
  </metadata>
  <g
     id="layer1"
     inkscape:label="Layer 1"
     inkscape:groupmode="layer">
    <path
       id="path3025-8-3"
       style="fill:none;stroke:#161413;stroke-width:0.082184;stroke-linecap:round;stroke-linejoin:round;stroke-miterlimit:4;stroke-dasharray:none"
       d="m 27.309013,38.776774 c -5.748697,-0.615229 -10.234951,-0.0694 -12.23964,1.437517"
       inkscape:connector-curvature="0"
       sodipodi:nodetypes="cc" />
    <path
       id="path3027-2-3"
       style="fill:none;stroke:#161413;stroke-width:0.08596667;stroke-linecap:round;stroke-linejoin:round"
       d="m 32.906402,40.129301 c -0.634647,-0.450969 -1.322086,-0.688622 -2.49377,-0.858223"
       inkscape:connector-curvature="0"
       sodipodi:nodetypes="cc" />
    <path
       sodipodi:nodetypes="cc"
       inkscape:connector-curvature="0"
       d="m 33.184908,40.646411 c -0.796215,2.851184 -16.301753,3.224993 -18.158791,0.190807"
       style="fill:none;stroke:#161413;stroke-width:0.08596666;stroke-linecap:round;stroke-linejoin:round"
       id="path3037-7-5" />
    <path
       sodipodi:type="arc"
       style="opacity:0;fill:#c0c5da;fill-opacity:0.65608467;stroke:none"
       id="path5330"
       sodipodi:cx="370.57166"
       sodipodi:cy="173.86267"
       sodipodi:rx="54.041702"
       sodipodi:ry="6.2355809"
       d="m 424.61336,173.86267 a 54.041702,6.2355809 0 1 1 -108.08341,0 54.041702,6.2355809 0 1 1 108.08341,0 z"
       transform="matrix(0.18948459,0,0,0.19428842,-46.027144,-3.3262406)" />
    <path
       style="fill:#e9e9e9;fill-opacity:1;stroke:#161413;stroke-width:0.11657305;stroke-linecap:butt;stroke-linejoin:miter;stroke-miterlimit:4;stroke-opacity:1;stroke-dasharray:none"
       d="m 14.176762,22.703042 c 0.0031,-0.896398 9.723782,-0.773617 11.503727,-0.784121 l -0.06815,6.454536 -11.41168,0.825923"
       id="path5347"
       inkscape:connector-curvature="0"
       sodipodi:nodetypes="cccc" />
    <path
       style="opacity:0.92477878;fill:#bdc8c8;fill-opacity:0.46031745;stroke:none"
       d="M 14.285714,21.642857 14,23.714286 l -0.214286,3.571428 0.285715,13.071429 c 0.475834,5.029097 20.809859,3.747734 19.714285,0.214286 l 0.357143,-0.285715 0.142857,-1.642857 -0.07143,-12.071428 -0.214286,-3 -0.214286,-2 c -3.84e-4,0.884805 -13.500833,3.210304 -19.499998,0.07143 z"
       id="path5637"
       inkscape:connector-curvature="0"
       sodipodi:nodetypes="ccccccccccc" />
    <path
       style="fill:#f7fafa;fill-opacity:1;stroke:none"
       d="m 14.135967,22.866216 c 1.432928,1.478668 9.95889,1.37473 13.992125,1.142212 l -0.0408,12.666346 c -0.758854,0.05233 -11.373333,1.430405 -14.017471,-1.079575 -0.09266,-5.032058 -0.246886,-11.65236 0.06614,-12.728983 z"
       id="path5372"
       inkscape:connector-curvature="0"
       sodipodi:nodetypes="ccccc" />
    <path
       style="fill:none;stroke:#46443a;stroke-width:0.16650517;stroke-linecap:round;stroke-linejoin:miter;stroke-miterlimit:4;stroke-opacity:1;stroke-dasharray:none"
       d="m 13.992485,34.619266 c 1.241598,0.803506 5.111592,1.802096 12.146234,1.32064"
       id="path5387-3"
       inkscape:connector-curvature="0"
       sodipodi:nodetypes="cc" />
    <path
       style="fill:none;stroke:#46443a;stroke-width:0.57714719;stroke-linecap:butt;stroke-linejoin:miter;stroke-miterlimit:4;stroke-opacity:1;stroke-dasharray:none"
       d="m 13.902743,30.435401 c 2.050316,0.897603 4.402599,1.071399 5.602488,1.010236"
       id="path5379-48-9"
       inkscape:connector-curvature="0"
       sodipodi:nodetypes="cc" />
    <path
       style="fill:none;stroke:#46443a;stroke-width:0.16650517;stroke-linecap:round;stroke-linejoin:miter;stroke-miterlimit:4;stroke-opacity:1;stroke-dasharray:none"
       d="m 13.88603,29.459624 c 1.601425,0.874814 4.796132,1.075141 6.469705,1.05166"
       id="path5379-48"
       inkscape:connector-curvature="0"
       sodipodi:nodetypes="cc" />
    <path
       style="fill:none;stroke:#46443a;stroke-width:0.16650517;stroke-linecap:round;stroke-linejoin:miter;stroke-miterlimit:4;stroke-opacity:1;stroke-dasharray:none"
       d="m 13.913144,28.207128 c 1.601424,0.874814 4.796131,1.07514 6.469705,1.051659"
       id="path5379"
       inkscape:connector-curvature="0"
       sodipodi:nodetypes="cc" />
    <path
       style="fill:#ff1810;fill-opacity:1;stroke:none"
       d="m 13.987698,24.371695 c 3.182036,1.691111 9.805738,1.366803 14.119757,1.082723 l 0,1.614313 c -4.27194,0.175717 -11.129535,0.527676 -14.177448,-1.009584 z"
       id="rect5369"
       inkscape:connector-curvature="0"
       sodipodi:nodetypes="ccccc" />
    <path
       style="fill:none;stroke:#46443a;stroke-width:0.16650517;stroke-linecap:round;stroke-linejoin:miter;stroke-miterlimit:4;stroke-opacity:1;stroke-dasharray:none"
       d="m 13.896229,29.041491 c 1.601424,0.874814 4.796132,1.07514 6.469705,1.051659"
       id="path5379-4"
       inkscape:connector-curvature="0"
       sodipodi:nodetypes="cc" />
    <path
       style="fill:none;stroke:#46443a;stroke-width:0.16650517;stroke-linecap:round;stroke-linejoin:miter;stroke-miterlimit:4;stroke-opacity:1;stroke-dasharray:none"
       d="m 13.906427,28.623366 c 1.601424,0.874814 4.796132,1.07514 6.469705,1.051659"
       id="path5379-9"
       inkscape:connector-curvature="0"
       sodipodi:nodetypes="cc" />
    <path
       style="fill:none;stroke:#46443a;stroke-width:0.16650517;stroke-linecap:round;stroke-linejoin:miter;stroke-miterlimit:4;stroke-opacity:1;stroke-dasharray:none"
       d="m 13.875832,27.756505 c 1.601424,0.874814 4.796133,1.07514 6.469706,1.051659"
       id="path5379-2"
       inkscape:connector-curvature="0"
       sodipodi:nodetypes="cc" />
    <path
       style="fill:none;stroke:#46443a;stroke-width:0.14139874;stroke-linecap:round;stroke-linejoin:miter;stroke-miterlimit:4;stroke-opacity:1;stroke-dasharray:none"
       d="m 13.904072,27.295226 c 1.060018,0.601654 2.814035,0.907624 4.128796,0.974738"
       id="path5379-2-7"
       inkscape:connector-curvature="0"
       sodipodi:nodetypes="cc" />
    <path
       style="fill:none;stroke:#46443a;stroke-width:0.14139874;stroke-linecap:round;stroke-linejoin:miter;stroke-miterlimit:4;stroke-opacity:1;stroke-dasharray:none"
       d="m 13.91427,26.928999 c 1.04982,0.591451 2.814035,0.907625 4.128797,0.974738"
       id="path5379-2-7-2"
       inkscape:connector-curvature="0"
       sodipodi:nodetypes="cc" />
    <path
       style="fill:none;stroke:#46443a;stroke-width:0.16650517;stroke-linecap:round;stroke-linejoin:miter;stroke-miterlimit:4;stroke-opacity:1;stroke-dasharray:none"
       d="m 14.017117,32.624938 c 1.241598,0.803497 5.111593,1.802095 12.146234,1.32064"
       id="path5387"
       inkscape:connector-curvature="0"
       sodipodi:nodetypes="cc" />
    <path
       style="fill:none;stroke:#46443a;stroke-width:0.16650517;stroke-linecap:round;stroke-linejoin:miter;stroke-miterlimit:4;stroke-opacity:1;stroke-dasharray:none"
       d="m 13.992485,34.229855 c 1.241598,0.803498 5.111592,1.802096 12.146234,1.320641"
       id="path5387-7"
       inkscape:connector-curvature="0"
       sodipodi:nodetypes="cc" />
    <path
       style="fill:none;stroke:#46443a;stroke-width:0.16650517;stroke-linecap:round;stroke-linejoin:miter;stroke-miterlimit:4;stroke-opacity:1;stroke-dasharray:none"
       d="m 13.992485,33.811598 c 1.241598,0.803498 5.111592,1.802096 12.146234,1.32064"
       id="path5387-4"
       inkscape:connector-curvature="0"
       sodipodi:nodetypes="cc" />
    <path
       style="fill:none;stroke:#46443a;stroke-width:0.16650517;stroke-linecap:round;stroke-linejoin:miter;stroke-miterlimit:4;stroke-opacity:1;stroke-dasharray:none"
       d="m 14.021329,33.018354 c 1.241598,0.803497 5.111592,1.802095 12.146233,1.32064"
       id="path5387-5"
       inkscape:connector-curvature="0"
       sodipodi:nodetypes="cc" />
    <path
       style="fill:none;stroke:#46443a;stroke-width:0.16650517;stroke-linecap:round;stroke-linejoin:miter;stroke-miterlimit:4;stroke-opacity:1;stroke-dasharray:none"
       d="m 14.006907,33.422188 c 1.241598,0.803497 5.111593,1.802095 12.146234,1.32064"
       id="path5387-8"
       inkscape:connector-curvature="0"
       sodipodi:nodetypes="cc" />
    <path
       style="fill:none;stroke:#46443a;stroke-width:0.57714719;stroke-linecap:butt;stroke-linejoin:miter;stroke-miterlimit:4;stroke-opacity:1;stroke-dasharray:none"
       d="m 13.92703,31.353617 c 2.050315,0.897594 4.402598,1.071398 5.602486,1.010235"
       id="path5379-48-9-5"
       inkscape:connector-curvature="0"
       sodipodi:nodetypes="cc" />
    <path
       sodipodi:type="arc"
       style="fill:#9db3c0;fill-opacity:0.51851851;stroke:none"
       id="path5635"
       sodipodi:cx="23.233509"
       sodipodi:cy="28.504055"
       sodipodi:rx="10.707617"
       sodipodi:ry="2.9294424"
       d="m 33.941126,28.504055 a 10.707617,2.9294424 0 1 1 -21.415234,0 10.707617,2.9294424 0 1 1 21.415234,0 z"
       transform="matrix(0.90327312,0,0,0.70740409,3.0687332,1.1258841)" />
    <path
       sodipodi:nodetypes="csccsccccccccc"
       inkscape:connector-curvature="0"
       d="m 34.257452,39.026098 c -0.154234,1.615088 0.04606,4.622784 -10.255401,4.628059 -10.327809,0.0049 -9.837269,-2.979971 -9.871927,-4.474011 0,0 -0.294185,-10.050846 -0.294185,-12.139338 0.09534,-12.329217 5.344554,-10.775594 5.75906,-12.369983 0.195104,-0.75046 -0.959683,-1.091265 -1.408377,-0.833427 -0.770332,0.678053 -2.090497,-0.258429 -0.770917,-1.342947 0.207281,-0.166812 0.181975,-0.469065 0.12041,-0.808384 -0.212592,-1.453841 1.016626,-3.5697973 3.951376,-2.5203113 0.57746,0.211201 0.532939,-1.786756 0.507699,-2.555911 0.0582,0.625438 4.265474,0.561463 4.235246,0.01488 -0.02541,2.959868 0.990574,7.3498233 1.530181,7.9034573 1.567519,1.921582 6.349164,0.21684 6.567823,12.317677 0.04883,6.46116 -0.07144,10.195944 -0.07099,12.180225 z"
       style="fill:none;stroke:#161413;stroke-width:0.21938387;stroke-linecap:round;stroke-linejoin:round;stroke-miterlimit:4;stroke-dasharray:none"
       id="path3061-2-8" />
    <path
       style="fill:none;stroke:#161413;stroke-width:0.11657305;stroke-linecap:butt;stroke-linejoin:miter;stroke-miterlimit:4;stroke-opacity:1;stroke-dasharray:none"
       d="m 14.137474,22.70584 c -0.05395,1.045829 6.132693,1.838497 14.004803,1.286087 l -0.05769,12.96363 c -2.195358,0.556052 -11.834583,0.677001 -14.076491,-1.298041"
       id="path5343"
       inkscape:connector-curvature="0"
       sodipodi:nodetypes="cccc" />
    <g
       transform="matrix(0.19428842,0,0,0.19428842,-83.621701,-3.1319523)"
       id="g8422">
      <path
         sodipodi:nodetypes="cc"
         inkscape:connector-curvature="0"
         id="path5665"
         d="m 544.5,51.25 c 3.7253,-1.55652 16.91905,-1.66233 20.125,0.0625"
         style="fill:none;stroke:#000000;stroke-width:0.5;stroke-linecap:round;stroke-linejoin:miter;stroke-miterlimit:4;stroke-opacity:1;stroke-dasharray:none" />
      <path
         sodipodi:nodetypes="cc"
         inkscape:connector-curvature="0"
         id="path5648"
         d="m 543.53607,50.13974 c 0.39062,-2.51272 22.16616,-3.03631 21.87612,0.0442"
         style="fill:none;stroke:#000000;stroke-width:1px;stroke-linecap:butt;stroke-linejoin:miter;stroke-opacity:1" />
      <path
         sodipodi:nodetypes="cc"
         inkscape:connector-curvature="0"
         id="path5660"
         d="m 543.82008,52.86428 c 3.54589,1.70776 16.05686,2.77163 21.36841,0.008"
         style="fill:none;stroke:#000000;stroke-width:0.40000001;stroke-linecap:round;stroke-linejoin:miter;stroke-miterlimit:4;stroke-opacity:1;stroke-dasharray:none" />
      <path
         transform="matrix(0.77206823,0,0,0.39998578,416.25863,-43.486855)"
         d="m 195.47252,241.00398 c 0,3.40845 -7.4766,6.17155 -16.69946,6.17155 -9.22287,0 -16.69947,-2.7631 -16.69947,-6.17155 0,-3.40845 7.4766,-6.17154 16.69947,-6.17154 9.22286,0 16.69946,2.76309 16.69946,6.17154 z"
         sodipodi:ry="6.1715426"
         sodipodi:rx="16.699469"
         sodipodi:cy="241.00398"
         sodipodi:cx="178.77306"
         id="path5020-3-5"
         style="fill:#616161;fill-opacity:1;stroke:#161413;stroke-width:1.23445141;stroke-miterlimit:3.79999995;stroke-opacity:1;stroke-dasharray:none"
         sodipodi:type="arc" />
      <path
         sodipodi:nodetypes="ccccc"
         inkscape:connector-curvature="0"
         id="path5066"
         d="m 541.27262,42.921268 0,9.779655 c 8.19535,2.351917 25.49433,0.617918 26.02057,0 l -0.21387,-9.986268 c -5.76722,2.988108 -20.19486,2.702867 -25.8067,0.206613 z"
         style="fill:#616161;fill-opacity:1;stroke:none" />
      <path
         transform="matrix(0.77192925,0,0,0.40876731,416.2835,-56.23694)"
         d="m 195.47252,241.00398 c 0,3.40845 -7.4766,6.17155 -16.69946,6.17155 -9.22287,0 -16.69947,-2.7631 -16.69947,-6.17155 0,-3.40845 7.4766,-6.17154 16.69947,-6.17154 9.22286,0 16.69946,2.76309 16.69946,6.17154 z"
         sodipodi:ry="6.1715426"
         sodipodi:rx="16.699469"
         sodipodi:cy="241.00398"
         sodipodi:cx="178.77306"
         id="path5020-2"
         style="fill:#212121;fill-opacity:1;stroke:#161413;stroke-width:1.22122955;stroke-miterlimit:3.79999995;stroke-opacity:1;stroke-dasharray:none"
         sodipodi:type="arc" />
      <path
         sodipodi:nodetypes="cc"
         inkscape:connector-curvature="0"
         id="path5052-6"
         d="m 567.14932,42.296622 c 0,0 0,10.748986 0,10.54024"
         style="fill:none;stroke:#161413;stroke-width:0.58624572;stroke-linecap:butt;stroke-linejoin:miter;stroke-miterlimit:3.79999995;stroke-opacity:1;stroke-dasharray:none" />
      <path
         sodipodi:nodetypes="cc"
         inkscape:connector-curvature="0"
         id="path5052-2-1"
         d="m 541.40434,42.244601 0,10.557532"
         style="fill:none;stroke:#161413;stroke-width:0.58624572;stroke-linecap:butt;stroke-linejoin:miter;stroke-miterlimit:3.79999995;stroke-opacity:1;stroke-dasharray:none" />
      <path
         sodipodi:nodetypes="cc"
         inkscape:connector-curvature="0"
         id="path5393-1-2"
         d="m 541.53348,45.322875 c 3.96096,2.854145 22.07764,2.748665 25.40975,-0.177958"
         style="fill:none;stroke:none" />
    </g>
    <path
       sodipodi:type="arc"
       style="fill:none;stroke:#000000;stroke-opacity:1"
       id="path5060"
       sodipodi:cx="475.76111"
       sodipodi:cy="78.441093"
       sodipodi:rx="6.7548199"
       sodipodi:ry="6.5531831"
       d="m 482.51593,78.441093 a 6.7548199,6.5531831 0 1 1 -13.50964,0 6.7548199,6.5531831 0 1 1 13.50964,0 z"
       transform="matrix(0.19428842,0,0,0.19428842,-72.352971,-3.714818)" />
    <path
       style="fill:none;stroke:#161413;stroke-width:0.082184;stroke-linecap:round;stroke-linejoin:miter;stroke-miterlimit:4;stroke-opacity:0.58823529;stroke-dasharray:none"
       d="m 19.937089,14.605294 c 0.111758,-0.232412 -0.107078,-0.684134 -0.290957,-0.780352 -0.465288,-0.243471 -0.253906,-0.89015 0.535148,-0.674031 0.210322,0.05063 0.773373,-0.169134 0.967174,-0.39359"
       id="path5070"
       inkscape:connector-curvature="0"
       sodipodi:nodetypes="cscc" />
    <path
       style="fill:none;stroke:#161413;stroke-width:0.082184;stroke-linecap:round;stroke-linejoin:miter;stroke-miterlimit:4;stroke-opacity:0.58823529;stroke-dasharray:none"
       d="m 21.51963,10.915063 c -0.04314,-0.205952 -0.284707,-0.515094 -0.395635,-0.567835 -0.870704,-0.4139803 -0.498894,-1.2259583 0.559964,-0.7826553 0.23806,0.09967 0.505124,-0.404059 0.608415,-0.767061"
       id="path5074"
       inkscape:connector-curvature="0"
       sodipodi:nodetypes="cscc" />
    <path
       style="fill:none;stroke:#161413;stroke-width:0.082184;stroke-linecap:round;stroke-linejoin:miter;stroke-miterlimit:4;stroke-opacity:1;stroke-dasharray:none"
       d="m 22.800776,40.262926 c -1.435943,0.512701 4.506354,0.441533 2.493121,0"
       id="path5078"
       inkscape:connector-curvature="0"
       sodipodi:nodetypes="cc" />
    <path
       style="fill:none;stroke:#161413;stroke-width:0.082184;stroke-linecap:round;stroke-linejoin:miter;stroke-miterlimit:4;stroke-opacity:0.58823529;stroke-dasharray:none"
       d="m 17.259427,13.227666 c -0.230733,0.230957 0.0101,0.601342 0.276749,0.545346 0.256461,-0.05386 0.150348,-0.405413 0.02487,-0.463115"
       id="path5100"
       inkscape:connector-curvature="0"
       sodipodi:nodetypes="csc" />
    <g
       transform="matrix(0.19428842,0,0,0.19428842,-83.621701,-3.1319523)"
       id="g9414">
      <path
         sodipodi:nodetypes="ccccc"
         inkscape:connector-curvature="0"
         id="rect5374"
         d="m 539.58601,154.80853 26.03541,0 0,30.00404 c -7.97932,1.33258 -18.22154,1.11327 -26.03541,0.30967 z"
         style="fill:#fa9d00;fill-opacity:1;stroke:none" />
      <path
         sodipodi:nodetypes="csscssssscc"
         inkscape:connector-curvature="0"
         id="path5391"
         d="m 553.61492,180.35666 c -0.48417,0.20167 -0.34465,-4.52108 -1.33039,-4.55344 -1.04735,-0.0344 -0.73789,5.12776 -1.75072,5.08932 -5.28304,-0.20047 -6.58209,-5.12644 -6.25279,-6.20457 1.52452,2.32401 1.72109,-7.87059 2.15945,-4.96517 0.69181,4.58529 2.27256,-6.42762 2.78057,-5.07685 1.51516,4.02875 3.2057,-1.43889 3.15748,-4.45724 -0.0421,-2.63685 2.79385,11.7505 4.71207,4.76831 0.67528,-2.45796 0.1052,7.50468 1.70382,4.1046 1.31475,-2.79632 0.13566,5.37162 1.80408,4.31117 -0.4889,7.49907 -7.14416,9.00598 -7.13145,6.70895"
         style="opacity:0.80088495;fill:#000000;fill-opacity:1;stroke:none" />
    </g>
  </g>
</svg>
