<?xml version="1.0" encoding="UTF-8" standalone="no"?>
<!-- Created with Inkscape (http://www.inkscape.org/) -->

<svg
   xmlns:dc="http://purl.org/dc/elements/1.1/"
   xmlns:cc="http://creativecommons.org/ns#"
   xmlns:rdf="http://www.w3.org/1999/02/22-rdf-syntax-ns#"
   xmlns:svg="http://www.w3.org/2000/svg"
   xmlns="http://www.w3.org/2000/svg"
   xmlns:sodipodi="http://sodipodi.sourceforge.net/DTD/sodipodi-0.dtd"
   xmlns:inkscape="http://www.inkscape.org/namespaces/inkscape"
   width="48px"
   height="48px"
   id="svg5120"
   version="1.1"
   inkscape:version="0.48.4 r9939"
   sodipodi:docname="weighBoat.svg">
  <defs
     id="defs5122" />
  <sodipodi:namedview
     id="base"
     pagecolor="#ffffff"
     bordercolor="#666666"
     borderopacity="1.0"
     inkscape:pageopacity="0.0"
     inkscape:pageshadow="2"
     inkscape:zoom="1.75"
     inkscape:cx="-123.80818"
     inkscape:cy="-34.757174"
     inkscape:current-layer="layer1"
     showgrid="true"
     inkscape:grid-bbox="true"
     inkscape:document-units="px"
     inkscape:window-width="1111"
     inkscape:window-height="644"
     inkscape:window-x="456"
     inkscape:window-y="112"
     inkscape:window-maximized="0" />
  <metadata
     id="metadata5125">
    <rdf:RDF>
      <cc:Work
         rdf:about="">
        <dc:format>image/svg+xml</dc:format>
        <dc:type
           rdf:resource="http://purl.org/dc/dcmitype/StillImage" />
        <dc:title />
      </cc:Work>
    </rdf:RDF>
  </metadata>
  <g
     id="layer1"
     inkscape:label="Layer 1"
     inkscape:groupmode="layer">
    <g
       id="g8925"
       transform="matrix(0.33463712,0,0,0.3444451,-246.94556,2.9153246)">
      <path
         sodipodi:nodetypes="cccccccc"
         inkscape:connector-curvature="0"
         id="path8887"
         d="m 750.39551,47.92177 c 3.16383,11.22065 0.15972,0.48461 3.53811,11.42585 0.99798,2.97969 0.64108,3.96743 2.58107,5.23519 35.78454,19.82892 -0.24302,-0.0392 35.53975,19.97906 1.73478,0.76886 3.86004,0.50079 6.48524,-0.0738 66.59363,-11.29071 0.16556,0.0359 66.1882,-11.32141 1.21811,-0.74779 1.13466,-0.80898 2.04229,-2.93902 4.49557,-12.72887 -0.33503,0.0862 4.47943,-12.79422"
         style="fill:#f6f5f4;fill-opacity:1;stroke:#323232;stroke-width:0.5;stroke-linecap:butt;stroke-linejoin:miter;stroke-miterlimit:4;stroke-opacity:1;stroke-dasharray:none" />
      <path
         sodipodi:nodetypes="cc"
         inkscape:connector-curvature="0"
         id="path8917"
         d="m 801.83126,72.46338 -4.14421,10.39233"
         style="fill:none;stroke:#323232;stroke-width:0.30000001;stroke-linecap:round;stroke-linejoin:miter;stroke-miterlimit:4;stroke-opacity:1;stroke-dasharray:none" />
      <path
         sodipodi:nodetypes="cc"
         inkscape:connector-curvature="0"
         id="path8919"
         d="M 792.41394,82.65896 788.44603,71.66395"
         style="fill:none;stroke:#323232;stroke-width:0.30000001;stroke-linecap:round;stroke-linejoin:miter;stroke-miterlimit:4;stroke-opacity:1;stroke-dasharray:none" />
      <path
         sodipodi:nodetypes="cccccccc"
         inkscape:connector-curvature="0"
         id="path8921"
         d="m 747.23086,46.61129 -0.20277,1.37751 c 0.0163,0.87627 0.31963,1.66863 1.12244,2.03346 l 44.01638,24.90091 c 1.86928,1.08155 4.36015,1.39557 8.19189,0.47957 l 69.96345,-12.13347 c 2.12369,-0.48617 3.28672,-0.684 3.47774,-1.65712 0.15512,-2.72405 -0.0482,0.018 0.17858,-2.67773"
         style="fill:#fbfbfb;fill-opacity:1;stroke:#323232;stroke-width:0.5;stroke-linecap:butt;stroke-linejoin:miter;stroke-miterlimit:4;stroke-opacity:1;stroke-dasharray:none" />
      <path
         sodipodi:nodetypes="ccccccccc"
         inkscape:connector-curvature="0"
         id="path8881"
         d="m 749.48518,44.77855 65.65667,-12.20997 c 4.74741,-0.57812 7.17376,-0.19572 8.91635,0.46963 47.71695,22.98429 0.12225,0.0662 47.55641,22.48564 2.86226,1.74819 4.49406,5.12488 -1.84407,6.39419 l -62.94483,11.0629 c -10.05307,1.36867 -9.83665,2.83095 -16.29472,-0.67107 L 748.28325,48.44932 c -3.19253,-1.91483 -0.006,-3.47879 1.20193,-3.67077 z"
         style="fill:#ffffff;fill-opacity:1;stroke:#323232;stroke-width:0.5;stroke-linecap:butt;stroke-linejoin:miter;stroke-miterlimit:4;stroke-opacity:1;stroke-dasharray:none" />
      <path
         sodipodi:nodetypes="ccccccccc"
         inkscape:connector-curvature="0"
         id="path8885"
         d="m 793.68852,70.87334 c 2.28952,1.21959 2.87403,0.98947 5.58207,0.45952 l 67.11283,-11.89469 c 3.12517,-0.70366 8.93638,-0.72346 0.0703,-4.3494 L 823.46871,34.46604 c -1.44464,-0.68763 -4.43584,-0.601 -7.15271,-0.46961 L 751.95625,45.9123 c -1.6941,0.49882 -2.92986,0.37773 -1.25421,1.23887 20.34795,10.10851 36.0591,19.83053 42.98647,23.72217 z"
         style="fill:#f6f5f4;fill-opacity:1;stroke:#323232;stroke-width:0.5;stroke-linecap:butt;stroke-linejoin:miter;stroke-miterlimit:4;stroke-opacity:1;stroke-dasharray:none" />
      <path
         sodipodi:nodetypes="cccc"
         inkscape:connector-curvature="0"
         id="path8907"
         d="m 769.64836,56.83348 46.52648,-9.35638 c 2.28374,-0.0782 4.56748,-1.37942 8.27072,0.90767 L 852.66966,61.74"
         style="fill:none;stroke:#323232;stroke-width:0.5;stroke-linecap:butt;stroke-linejoin:miter;stroke-miterlimit:4;stroke-opacity:1;stroke-dasharray:none" />
      <path
         sodipodi:nodetypes="cc"
         inkscape:connector-curvature="0"
         id="path8913"
         d="m 816.38055,35.99746 2.16231,9.22545"
         style="fill:none;stroke:#323232;stroke-width:0.30000001;stroke-linecap:round;stroke-linejoin:miter;stroke-miterlimit:4;stroke-opacity:1;stroke-dasharray:none" />
      <path
         sodipodi:nodetypes="cc"
         inkscape:connector-curvature="0"
         id="path8915"
         d="m 823.20723,45.71482 3.78154,-8.19235"
         style="fill:none;stroke:#323232;stroke-width:0.30000001;stroke-linecap:round;stroke-linejoin:miter;stroke-miterlimit:4;stroke-opacity:1;stroke-dasharray:none" />
    </g>
  </g>
</svg>
