<?xml version="1.0" encoding="UTF-8"?>
<!DOCTYPE svg PUBLIC "-//W3C//DTD SVG 1.1//EN" "http://www.w3.org/Graphics/SVG/1.1/DTD/svg11.dtd">
<svg version="1.1" xmlns="http://www.w3.org/2000/svg" xmlns:xlink="http://www.w3.org/1999/xlink" x="0" y="0" width="610.404" height="140.802" viewBox="0, 0, 610.404, 140.802">
  <defs>
    <clipPath id="Clip_1">
      <path d="M207.249,367.552 L410.237,367.552 L410.237,414.798 L207.249,414.798 z M404.237,375.552 L213.249,375.552 L213.249,406.798 L404.237,406.798 L404.237,375.552 z"/>
    </clipPath>
    <filter id="Shadow_2">
      <feGaussianBlur in="SourceAlpha" stdDeviation="2.5"/>
      <feOffset dx="0" dy="2" result="offsetblur"/>
      <feFlood flood-color="#000000"/>
      <feComposite in2="offsetblur" operator="in"/>
    </filter>
    <linearGradient id="Gradient_1" gradientUnits="userSpaceOnUse" x1="308.743" y1="377.052" x2="308.743" y2="405.298">
      <stop offset="0" stop-color="#7DC6FD"/>
      <stop offset="0.17" stop-color="#67BEFF"/>
      <stop offset="0.809" stop-color="#67BEFF"/>
      <stop offset="1" stop-color="#44A7F2"/>
    </linearGradient>
    <clipPath id="Clip_3">
      <path d="M609.666,368.523 L812.654,368.523 L812.654,415.769 L609.666,415.769 z M806.654,376.523 L615.666,376.523 L615.666,407.769 L806.654,407.769 L806.654,376.523 z"/>
    </clipPath>
    <filter id="Shadow_4">
      <feGaussianBlur in="SourceAlpha" stdDeviation="2.5"/>
      <feOffset dx="0" dy="2" result="offsetblur"/>
      <feFlood flood-color="#000000"/>
      <feComposite in2="offsetblur" operator="in"/>
    </filter>
    <linearGradient id="Gradient_2" gradientUnits="userSpaceOnUse" x1="711.16" y1="378.023" x2="711.16" y2="406.269">
      <stop offset="0" stop-color="#7DC6FD"/>
      <stop offset="0.17" stop-color="#67BEFF"/>
      <stop offset="0.809" stop-color="#67BEFF"/>
      <stop offset="1" stop-color="#44A7F2"/>
    </linearGradient>
    <clipPath id="Clip_5">
      <path d="M609.666,412.83 L812.654,412.83 L812.654,460.076 L609.666,460.076 z M806.654,420.83 L615.666,420.83 L615.666,452.076 L806.654,452.076 L806.654,420.83 z"/>
    </clipPath>
    <filter id="Shadow_6">
      <feGaussianBlur in="SourceAlpha" stdDeviation="2.5"/>
      <feOffset dx="0" dy="2" result="offsetblur"/>
      <feFlood flood-color="#000000"/>
      <feComposite in2="offsetblur" operator="in"/>
    </filter>
    <clipPath id="Clip_7">
      <path d="M560.645,322.274 L812.654,322.274 L812.654,369.52 L560.645,369.52 z M806.654,330.274 L566.645,330.274 L566.645,361.52 L806.654,361.52 L806.654,330.274 z"/>
    </clipPath>
    <filter id="Shadow_8">
      <feGaussianBlur in="SourceAlpha" stdDeviation="2.5"/>
      <feOffset dx="0" dy="2" result="offsetblur"/>
      <feFlood flood-color="#000000"/>
      <feComposite in2="offsetblur" operator="in"/>
    </filter>
  </defs>
  <g id="Layer_1" transform="translate(-204.249, -321.274)">
    <g>
      <path d="M404.237,375.552 L404.237,406.798 L213.249,406.798 L213.249,375.552 L404.237,375.552 z" clip-path="url(#Clip_1)" filter="url(#Shadow_2)" fill="rgba(0,0,0,0.75)"/>
      <path d="M214.749,377.052 L402.737,377.052 L402.737,405.298 L214.749,405.298 L214.749,377.052 z" fill="url(#Gradient_1)"/>
      <path d="M214.749,377.052 L402.737,377.052 L402.737,405.298 L214.749,405.298 L214.749,377.052 z" fill-opacity="0" stroke="#FFFFFF" stroke-width="3"/>
    </g>
    <g>
      <path d="M437.931,391.175 L520.488,391.175" fill-opacity="0" stroke="#7E7E7E" stroke-width="3"/>
      <path d="M520.488,395.375 L531.688,391.175 L520.488,386.975 z" fill="#7E7E7E" fill-opacity="1" stroke="#7E7E7E" stroke-width="3" stroke-opacity="1"/>
    </g>
    <g>
      <path d="M806.654,376.523 L806.654,407.769 L615.666,407.769 L615.666,376.523 L806.654,376.523 z" clip-path="url(#Clip_3)" filter="url(#Shadow_4)" fill="rgba(0,0,0,0.75)"/>
      <path d="M617.166,378.023 L805.154,378.023 L805.154,406.269 L617.166,406.269 L617.166,378.023 z" fill="url(#Gradient_2)"/>
      <path d="M617.166,378.023 L805.154,378.023 L805.154,406.269 L617.166,406.269 L617.166,378.023 z" fill-opacity="0" stroke="#FFFFFF" stroke-width="3"/>
    </g>
    <g>
      <path d="M806.654,420.83 L806.654,452.076 L615.666,452.076 L615.666,420.83 L806.654,420.83 z" clip-path="url(#Clip_5)" filter="url(#Shadow_6)" fill="rgba(0,0,0,0.75)"/>
      <path d="M617.166,422.33 L805.154,422.33 L805.154,450.576 L617.166,450.576 L617.166,422.33 z" fill="#DADADA"/>
      <path d="M617.166,422.33 L805.154,422.33 L805.154,450.576 L617.166,450.576 L617.166,422.33 z" fill-opacity="0" stroke="#FFFFFF" stroke-width="3"/>
    </g>
    <g>
      <path d="M806.654,330.274 L806.654,361.52 L566.645,361.52 L566.645,330.274 L806.654,330.274 z" clip-path="url(#Clip_7)" filter="url(#Shadow_8)" fill="rgba(0,0,0,0.75)"/>
      <path d="M568.145,331.774 L805.154,331.774 L805.154,360.02 L568.145,360.02 L568.145,331.774 z" fill="#DADADA"/>
      <path d="M568.145,331.774 L805.154,331.774 L805.154,360.02 L568.145,360.02 L568.145,331.774 z" fill-opacity="0" stroke="#FFFFFF" stroke-width="3"/>
    </g>
  </g>
</svg>
